<svg width="180" height="180" viewBox="0 0 180 180" fill="none" xmlns="http://www.w3.org/2000/svg">
<g clip-path="url(#clip0_446_4830)">
<path d="M137.812 0H42.1875C18.888 0 0 18.888 0 42.1875V137.812C0 161.112 18.888 180 42.1875 180H137.812C161.112 180 180 161.112 180 137.812V42.1875C180 18.888 161.112 0 137.812 0Z" fill="url(#paint0_linear_446_4830)"/>
<path d="M98.633 51.3612L79.8869 51.3281L53.9121 120.155L70.8673 120.184L75.1064 108.522L100.683 108.566L95.8472 95.6524L79.0102 95.6229L89.493 66.0066L109.837 120.251L126.793 120.281L98.633 51.3612Z" fill="white"/>
<path d="M163.927 69.6959C163.88 69.4629 163.81 69.235 163.718 69.0153C163.692 68.9405 163.66 68.8681 163.622 68.7987C163.301 68.1357 162.798 67.5772 162.173 67.1879C161.545 66.7949 160.819 66.5854 160.078 66.5832C159.062 66.5779 158.086 66.9756 157.362 67.6892C156.86 68.1869 156.511 68.8187 156.358 69.5092C156.205 70.1997 156.254 70.9196 156.499 71.5831L156.488 71.5873C158.304 77.6039 159.274 83.844 159.369 90.128C159.658 108.352 152.69 125.475 139.752 138.339C126.811 151.204 109.447 158.27 90.8578 158.238C72.27 158.206 54.6792 151.078 41.3318 138.169C27.9816 125.259 20.4722 108.112 20.1832 89.8875C19.8942 71.6632 26.8629 54.5407 39.8025 41.6764C52.7414 28.8113 70.1072 21.7456 88.695 21.7779C105.294 21.8061 121.092 27.4964 133.789 37.9069C133.372 38.9878 133.167 40.139 133.187 41.2974C133.268 46.4154 137.564 50.5695 142.786 50.5786C148.005 50.5878 152.172 46.4478 152.09 41.3297C152.009 36.2117 147.711 32.0555 142.492 32.0464C141.39 32.0419 140.297 32.2292 139.26 32.5997C125.542 21.1634 107.829 14.2292 88.5748 14.1954C45.8691 14.1216 11.7872 48.0038 12.4509 89.8742C13.1147 131.744 48.2716 165.746 90.9781 165.82C133.684 165.894 167.766 132.012 167.103 90.1414C166.993 83.2123 165.924 76.3319 163.927 69.6959Z" fill="white"/>
</g>
<defs>
<linearGradient id="paint0_linear_446_4830" x1="0" y1="0" x2="180" y2="180" gradientUnits="userSpaceOnUse">
<stop stop-color="#4010AC"/>
<stop offset="1" stop-color="#D540A8"/>
</linearGradient>
<clipPath id="clip0_446_4830">
<rect width="180" height="180" fill="white"/>
</clipPath>
</defs>
</svg>
