<svg width="35" height="34" viewBox="0 0 35 34" fill="none" xmlns="http://www.w3.org/2000/svg">
<path d="M19.0846 4.23923H15.9052C15.7647 4.23923 15.6299 4.1834 15.5305 4.08403C15.4312 3.98466 15.3753 3.84987 15.3753 3.70934C15.3753 3.5688 15.4312 3.43402 15.5305 3.33465C15.6299 3.23527 15.7647 3.17944 15.9052 3.17944H19.0846C19.2251 3.17944 19.3599 3.23527 19.4593 3.33465C19.5587 3.43402 19.6145 3.5688 19.6145 3.70934C19.6145 3.84987 19.5587 3.98466 19.4593 4.08403C19.3599 4.1834 19.2251 4.23923 19.0846 4.23923ZM23.3238 32.8535H11.6661C10.9636 32.8527 10.2902 32.5733 9.79354 32.0766C9.29685 31.5799 9.01744 30.9065 9.0166 30.2041V12.1876C9.0166 12.0471 9.07243 11.9123 9.1718 11.813C9.27118 11.7136 9.40596 11.6578 9.5465 11.6578C9.68703 11.6578 9.82181 11.7136 9.92119 11.813C10.0206 11.9123 10.0764 12.0471 10.0764 12.1876V30.2041C10.0764 31.0805 10.7896 31.7937 11.6661 31.7937H23.3238C24.2002 31.7937 24.9134 31.0805 24.9134 30.2041V12.1876C24.9134 12.0471 24.9693 11.9123 25.0686 11.813C25.168 11.7136 25.3028 11.6578 25.4433 11.6578C25.5839 11.6578 25.7186 11.7136 25.818 11.813C25.9174 11.9123 25.9732 12.0471 25.9732 12.1876V30.2041C25.9732 31.6644 24.7852 32.8535 23.3238 32.8535Z" fill="white"/>
<path d="M25.443 15.8969C25.3025 15.8969 25.1677 15.841 25.0683 15.7417C24.9689 15.6423 24.9131 15.5075 24.9131 15.367V3.70929C24.9131 2.83284 24.1999 2.1196 23.3234 2.1196H11.6658C10.7893 2.1196 10.0761 2.83284 10.0761 3.70929V15.367C10.0761 15.5075 10.0202 15.6423 9.92087 15.7417C9.82149 15.841 9.68671 15.8969 9.54618 15.8969C9.40564 15.8969 9.27086 15.841 9.17148 15.7417C9.07211 15.6423 9.01628 15.5075 9.01628 15.367V3.70929C9.01628 2.2489 10.2043 1.05981 11.6658 1.05981H23.3234C24.7849 1.05981 25.9729 2.2489 25.9729 3.70929V15.367C25.9729 15.5075 25.9171 15.6423 25.8177 15.7417C25.7183 15.841 25.5835 15.8969 25.443 15.8969ZM28.6224 6.41175C28.3299 6.41175 28.0925 6.22734 28.0925 5.93484V5.82886C28.0925 5.68833 28.1483 5.55355 28.2477 5.45417C28.3471 5.3548 28.4818 5.29897 28.6224 5.29897C28.7629 5.29897 28.8977 5.3548 28.9971 5.45417C29.0964 5.55355 29.1523 5.68833 29.1523 5.82886C29.1523 6.12137 28.9149 6.41175 28.6224 6.41175ZM28.6224 8.53133C28.3299 8.53133 28.0925 8.34692 28.0925 8.05442V7.94844C28.0925 7.80791 28.1483 7.67313 28.2477 7.57375C28.3471 7.47438 28.4818 7.41855 28.6224 7.41855C28.7629 7.41855 28.8977 7.47438 28.9971 7.57375C29.0964 7.67313 29.1523 7.80791 29.1523 7.94844C29.1523 8.24094 28.9149 8.53133 28.6224 8.53133ZM28.6224 10.6509C28.3299 10.6509 28.0925 10.4665 28.0925 10.174V10.068C28.0925 9.92748 28.1483 9.7927 28.2477 9.69333C28.3471 9.59395 28.4818 9.53813 28.6224 9.53813C28.7629 9.53813 28.8977 9.59395 28.9971 9.69333C29.0964 9.7927 29.1523 9.92748 29.1523 10.068C29.1523 10.3605 28.9149 10.6509 28.6224 10.6509ZM6.36681 24.3222C6.07431 24.3222 5.83691 24.1378 5.83691 23.8453V23.7393C5.83691 23.5988 5.89274 23.464 5.99212 23.3646C6.09149 23.2652 6.22627 23.2094 6.36681 23.2094C6.50735 23.2094 6.64213 23.2652 6.7415 23.3646C6.84087 23.464 6.8967 23.5988 6.8967 23.7393C6.8967 24.0318 6.65931 24.3222 6.36681 24.3222ZM6.36681 26.4418C6.07431 26.4418 5.83691 26.2574 5.83691 25.9649V25.8589C5.83691 25.7183 5.89274 25.5836 5.99212 25.4842C6.09149 25.3848 6.22627 25.329 6.36681 25.329C6.50735 25.329 6.64213 25.3848 6.7415 25.4842C6.84087 25.5836 6.8967 25.7183 6.8967 25.8589C6.8967 26.1514 6.65931 26.4418 6.36681 26.4418ZM6.36681 28.5613C6.07431 28.5613 5.83691 28.3769 5.83691 28.0844V27.9785C5.83691 27.8379 5.89274 27.7031 5.99212 27.6038C6.09149 27.5044 6.22627 27.4486 6.36681 27.4486C6.50735 27.4486 6.64213 27.5044 6.7415 27.6038C6.84087 27.7031 6.8967 27.8379 6.8967 27.9785C6.8967 28.271 6.65931 28.5613 6.36681 28.5613Z" fill="white"/>
<path d="M26.8645 28.6143C26.7855 28.6143 26.7074 28.5966 26.6361 28.5626C26.5648 28.5285 26.502 28.4789 26.4523 28.4175C26.4026 28.356 26.3673 28.2842 26.3489 28.2073C26.3306 28.1304 26.3297 28.0504 26.3463 27.9731L26.696 26.3516C26.7169 26.2542 26.7649 26.1647 26.8345 26.0935C26.904 26.0222 26.9924 25.9721 27.0892 25.9489C27.6006 25.8235 28.0893 25.6194 28.5379 25.3438C28.6225 25.2921 28.7199 25.2653 28.819 25.2662C28.9181 25.2671 29.015 25.2958 29.0986 25.3491L30.1478 26.0199L30.7974 25.365L30.1266 24.3242C30.0727 24.2406 30.0435 24.1434 30.0422 24.0439C30.0409 23.9444 30.0675 23.8466 30.1191 23.7615C30.3949 23.3131 30.5987 22.8242 30.7232 22.3128C30.7465 22.2162 30.7964 22.1281 30.8672 22.0584C30.938 21.9887 31.0269 21.9403 31.1238 21.9185L32.332 21.6504V20.7422L31.1249 20.474C31.028 20.4523 30.9391 20.4038 30.8683 20.3341C30.7975 20.2645 30.7476 20.1763 30.7243 20.0798C30.5993 19.5685 30.3955 19.0797 30.1202 18.6311C30.0682 18.5464 30.0411 18.4487 30.0423 18.3493C30.0434 18.2499 30.0726 18.1529 30.1266 18.0694L30.7985 17.0191L30.1499 16.3705L29.0996 17.0424C29.0161 17.0959 28.9192 17.1247 28.8201 17.1257C28.7209 17.1266 28.6235 17.0996 28.539 17.0477C28.0902 16.7725 27.6015 16.5684 27.0903 16.4426C26.9934 16.4194 26.9051 16.3693 26.8355 16.298C26.7659 16.2268 26.718 16.1373 26.6971 16.0399L26.4364 14.837H25.9733C25.8327 14.837 25.6979 14.7812 25.5986 14.6818C25.4992 14.5824 25.4434 14.4477 25.4434 14.3071C25.4434 14.1666 25.4992 14.0318 25.5986 13.9324C25.6979 13.833 25.8327 13.7772 25.9733 13.7772H26.8635C26.9845 13.7774 27.1019 13.8191 27.196 13.8952C27.2901 13.9714 27.3552 14.0775 27.3807 14.1958L27.6636 15.5026C28.0515 15.6202 28.432 15.7792 28.7987 15.9773L29.9369 15.2493C30.0387 15.1842 30.1596 15.1559 30.2797 15.169C30.3998 15.1821 30.5118 15.2359 30.5971 15.3213L31.8487 16.5719C31.934 16.6574 31.9876 16.7694 32.0005 16.8895C32.0134 17.0096 31.9849 17.1305 31.9197 17.2321L31.1917 18.3703C31.3898 18.7381 31.5488 19.1186 31.6664 19.5075L32.9753 19.7979C33.219 19.8519 33.3918 20.0681 33.3918 20.3161V22.0754C33.3917 22.196 33.3505 22.313 33.275 22.407C33.1995 22.501 33.0941 22.5665 32.9763 22.5925L31.6675 22.8829C31.5479 23.2766 31.3888 23.6573 31.1927 24.019L31.9197 25.1466C31.9856 25.248 32.0146 25.3688 32.0021 25.4889C31.9896 25.6091 31.9362 25.7213 31.8508 25.8069L30.5992 27.068C30.5138 27.1538 30.4017 27.2077 30.2815 27.221C30.1612 27.2343 30.04 27.2061 29.9379 27.1412L28.7997 26.4131C28.4382 26.6088 28.0579 26.7679 27.6647 26.8879L27.3817 28.1946C27.3563 28.3131 27.2912 28.4193 27.1971 28.4956C27.103 28.5719 26.9857 28.6138 26.8645 28.6143Z" fill="white"/>
<path d="M27.4473 23.928C27.3338 23.9278 27.2234 23.8911 27.1323 23.8235C27.0412 23.7558 26.9742 23.6607 26.9412 23.5521C26.9082 23.4435 26.911 23.3272 26.9491 23.2203C26.9871 23.1134 27.0585 23.0215 27.1527 22.9583C27.5594 22.6841 27.8586 22.2776 27.9994 21.8077C28.1402 21.3379 28.1138 20.8338 27.9248 20.3812C27.7358 19.9286 27.3958 19.5555 26.9627 19.3253C26.5296 19.0951 26.0301 19.0221 25.5492 19.1186C25.481 19.1326 25.4108 19.133 25.3424 19.1199C25.274 19.1067 25.2089 19.0802 25.1508 19.0418C25.0927 19.0035 25.0427 18.9541 25.0037 18.8965C24.9647 18.8388 24.9374 18.774 24.9234 18.7058C24.9094 18.6377 24.909 18.5674 24.9222 18.499C24.9354 18.4307 24.9619 18.3656 25.0002 18.3075C25.0385 18.2493 25.0879 18.1994 25.1456 18.1603C25.2032 18.1213 25.268 18.094 25.3362 18.08C25.7982 17.9864 26.2752 17.9964 26.7328 18.1095C27.1904 18.2226 27.6172 18.436 27.9823 18.7341C28.3475 19.0322 28.6418 19.4076 28.8442 19.8334C29.0466 20.2591 29.1519 20.7244 29.1525 21.1958C29.1526 21.7182 29.024 22.2326 28.7779 22.6934C28.5319 23.1542 28.1761 23.5473 27.7419 23.8379C27.6548 23.8965 27.5523 23.9278 27.4473 23.928ZM9.01652 15.8969C8.33342 15.8978 7.66819 15.6786 7.11944 15.2718C6.57069 14.8649 6.16762 14.2921 5.96995 13.6382C5.77229 12.9844 5.79056 12.2842 6.02205 11.6415C6.25354 10.9988 6.68594 10.4478 7.25515 10.0702C7.37208 9.99716 7.51286 9.97259 7.6476 10.0017C7.78234 10.0308 7.90044 10.1112 7.97684 10.226C8.05324 10.3407 8.08192 10.4807 8.0568 10.6162C8.03168 10.7518 7.95473 10.8722 7.84228 10.9519C7.43554 11.2249 7.13582 11.6303 6.99399 12.0992C6.85216 12.5681 6.87696 13.0716 7.06418 13.5243C7.2514 13.977 7.5895 14.351 8.0211 14.5827C8.45269 14.8145 8.95118 14.8898 9.43196 14.7958C9.56978 14.7686 9.71275 14.797 9.8297 14.8748C9.94664 14.9526 10.0281 15.0736 10.0562 15.2112C10.0699 15.2794 10.0701 15.3496 10.0566 15.4179C10.0432 15.4862 10.0164 15.5511 9.97778 15.609C9.93918 15.6669 9.88955 15.7166 9.83171 15.7552C9.77388 15.7939 9.70898 15.8208 9.64074 15.8343C9.43531 15.8762 9.22617 15.8971 9.01652 15.8969Z" fill="white"/>
<path d="M9.01618 20.136H8.12596C8.0049 20.1358 7.88757 20.0942 7.79347 20.018C7.69938 19.9419 7.6342 19.8358 7.60878 19.7174L7.32582 18.4107C6.93251 18.2909 6.55225 18.1318 6.19078 17.9359L5.05257 18.664C4.95078 18.729 4.82983 18.7574 4.70975 18.7442C4.58967 18.7311 4.47768 18.6774 4.39232 18.5919L3.14071 17.3414C3.05541 17.2559 3.00187 17.1438 2.98895 17.0238C2.97604 16.9037 3.00453 16.7828 3.0697 16.6811L3.79778 15.5429C3.60185 15.1807 3.44279 14.7998 3.32299 14.4058L2.01415 14.1154C1.8961 14.0893 1.79048 14.0238 1.71475 13.9295C1.63902 13.8353 1.59771 13.718 1.59766 13.5972V11.8379C1.5977 11.7173 1.6389 11.6003 1.71443 11.5063C1.78997 11.4122 1.89533 11.3468 2.01309 11.3207L3.32193 11.0303C3.43957 10.6414 3.59854 10.2609 3.79672 9.89425L3.07076 8.76557C3.00494 8.66426 2.97587 8.54343 2.9884 8.42326C3.00094 8.3031 3.05433 8.19087 3.13965 8.10532L4.39126 6.84418C4.47635 6.75794 4.58852 6.7036 4.70894 6.69028C4.82936 6.67697 4.95069 6.70549 5.05257 6.77105L6.19078 7.49913C6.55234 7.3034 6.93258 7.14434 7.32582 7.02434L7.60878 5.71762C7.62161 5.64783 7.64834 5.58133 7.68736 5.52206C7.72638 5.46279 7.77691 5.41197 7.83595 5.3726C7.89499 5.33323 7.96134 5.30612 8.03105 5.29288C8.10077 5.27964 8.17243 5.28053 8.24179 5.29551C8.31116 5.31049 8.3768 5.33925 8.43484 5.38008C8.49288 5.42091 8.54212 5.47299 8.57965 5.53321C8.61718 5.59344 8.64223 5.66059 8.65332 5.73068C8.66441 5.80077 8.6613 5.87237 8.64419 5.94124L8.29446 7.56271C8.2736 7.6601 8.22561 7.74959 8.15603 7.82086C8.08646 7.89212 7.99814 7.94224 7.90128 7.96543C7.38965 8.091 6.90057 8.29514 6.45149 8.57057C6.3669 8.6222 6.26952 8.64908 6.17042 8.64814C6.07132 8.64721 5.97446 8.61849 5.89086 8.56527L4.84167 7.89443L4.19096 8.54938L4.86181 9.59009C4.91613 9.67359 4.94566 9.77078 4.94698 9.87039C4.94829 9.97 4.92133 10.0679 4.86922 10.1528C4.59351 10.6013 4.38968 11.0901 4.26515 11.6016C4.24183 11.6981 4.19196 11.7862 4.12116 11.8559C4.05036 11.9256 3.96147 11.974 3.86454 11.9958L2.65745 12.2629V13.1711L3.86454 13.4392C3.96147 13.461 4.05036 13.5095 4.12116 13.5791C4.19196 13.6488 4.24183 13.7369 4.26515 13.8335C4.3849 14.3337 4.58944 14.8212 4.86922 15.2822C4.9752 15.455 4.97308 15.6733 4.86287 15.8439L4.19096 16.8931L4.83955 17.5417L5.8898 16.8698C5.97349 16.8168 6.07031 16.7882 6.16936 16.7873C6.26841 16.7864 6.36575 16.8131 6.45043 16.8645C6.9125 17.1453 7.4 17.3488 7.89916 17.4696C7.99602 17.4928 8.08434 17.5429 8.15391 17.6142C8.22349 17.6855 8.27148 17.775 8.29234 17.8723L8.55305 19.0763H9.01618C9.15672 19.0763 9.2915 19.1321 9.39087 19.2315C9.49025 19.3308 9.54607 19.4656 9.54607 19.6062C9.54607 19.7467 9.49025 19.8815 9.39087 19.9808C9.2915 20.0802 9.15672 20.136 9.01618 20.136ZM16.9646 19.6062C16.884 19.6063 16.8045 19.5881 16.7321 19.5529C16.6596 19.5176 16.5962 19.4663 16.5466 19.4028C16.497 19.3393 16.4626 19.2654 16.446 19.1865C16.4293 19.1077 16.4309 19.0261 16.4506 18.948L17.5104 14.7089C17.5267 14.6411 17.5564 14.5772 17.5977 14.521C17.6389 14.4648 17.691 14.4174 17.7507 14.3815C17.8105 14.3456 17.8768 14.3219 17.9458 14.3119C18.0148 14.3019 18.0851 14.3057 18.1526 14.3231C18.2202 14.3398 18.2838 14.3697 18.3398 14.4111C18.3957 14.4525 18.443 14.5045 18.4788 14.5641C18.5147 14.6238 18.5384 14.69 18.5486 14.7588C18.5588 14.8276 18.5553 14.8978 18.5384 14.9653L17.4786 19.2045C17.4503 19.3194 17.3843 19.4214 17.2911 19.4942C17.1979 19.5671 17.0829 19.6065 16.9646 19.6062ZM20.144 19.6062C20.0392 19.6061 19.9369 19.5751 19.8498 19.5169C19.7627 19.4588 19.6948 19.3761 19.6547 19.2794C19.6145 19.1826 19.6039 19.0762 19.6242 18.9735C19.6446 18.8707 19.6949 18.7763 19.7688 18.7022L21.5143 16.9567L19.7699 15.2123C19.6733 15.1123 19.6199 14.9785 19.6211 14.8395C19.6223 14.7006 19.6781 14.5677 19.7763 14.4695C19.8746 14.3712 20.0075 14.3155 20.1464 14.3143C20.2853 14.3131 20.4192 14.3665 20.5191 14.463L22.6387 16.5826C22.738 16.6819 22.7939 16.8167 22.7939 16.9572C22.7939 17.0977 22.738 17.2325 22.6387 17.3318L20.5191 19.4514C20.4194 19.5505 20.2845 19.6062 20.144 19.6062ZM14.845 19.6062C14.7044 19.6062 14.5696 19.5505 14.4699 19.4514L12.3503 17.3318C12.2509 17.2325 12.1951 17.0977 12.1951 16.9572C12.1951 16.8167 12.2509 16.6819 12.3503 16.5826L14.4699 14.463C14.5698 14.3665 14.7036 14.3131 14.8426 14.3143C14.9815 14.3155 15.1144 14.3712 15.2127 14.4695C15.3109 14.5677 15.3666 14.7006 15.3679 14.8395C15.3691 14.9785 15.3156 15.1123 15.2191 15.2123L13.4747 16.9567L15.2191 18.7011C15.2934 18.7751 15.344 18.8695 15.3645 18.9724C15.3851 19.0752 15.3747 19.1818 15.3346 19.2787C15.2946 19.3756 15.2267 19.4584 15.1395 19.5167C15.0524 19.575 14.9499 19.6061 14.845 19.6062Z" fill="white"/>
</svg>
