<svg width="43" height="43" viewBox="0 0 43 43" fill="none" xmlns="http://www.w3.org/2000/svg">
<path d="M21.5 8.50992C19.3724 8.50899 17.2772 9.03066 15.3985 10.0291C13.5198 11.0275 11.915 12.4721 10.7254 14.2359C9.53567 15.9998 8.79744 18.0288 8.57555 20.1448C8.35366 22.2607 8.65491 24.3988 9.45281 26.371C9.52525 26.5357 9.56389 26.7132 9.56645 26.8931C9.569 27.0729 9.53541 27.2515 9.46768 27.4181C9.39995 27.5848 9.29945 27.7361 9.17213 27.8632C9.04482 27.9903 8.89329 28.0905 8.72652 28.1579C8.55975 28.2254 8.38114 28.2586 8.20128 28.2557C8.02142 28.2529 7.84397 28.2139 7.67945 28.1411C7.51493 28.0684 7.36669 27.9634 7.24352 27.8323C7.12035 27.7012 7.02475 27.5467 6.9624 27.378C5.60707 24.026 5.45202 20.3086 6.5235 16.8554C7.59498 13.4022 9.82712 10.4256 12.8418 8.42959C15.8566 6.4336 19.4685 5.54102 23.066 5.90302C26.6634 6.26502 30.0251 7.85934 32.5817 10.416C35.1383 12.9726 36.7327 16.3343 37.0947 19.9317C37.4567 23.5291 36.5641 27.1411 34.5681 30.1558C32.5721 33.1706 29.5954 35.4027 26.1423 36.4742C22.6891 37.5457 18.9717 37.3906 15.6197 36.0353C15.2966 35.8967 15.0406 35.6369 14.9068 35.3117C14.773 34.9865 14.7719 34.6218 14.904 34.2959C15.036 33.97 15.2905 33.7088 15.6129 33.5684C15.9353 33.4279 16.2999 33.4195 16.6284 33.5449C18.4045 34.2618 20.3172 34.577 22.2294 34.468C24.1416 34.3591 26.0061 33.8286 27.6892 32.9145C29.3724 32.0005 30.8326 30.7256 31.9652 29.1811C33.0979 27.6365 33.8749 25.8607 34.2408 23.9806C34.6066 22.1005 34.5522 20.1629 34.0813 18.3063C33.6105 16.4498 32.7349 14.7203 31.5173 13.2418C30.2997 11.7634 28.7702 10.5724 27.0384 9.75437C25.3066 8.9363 23.4153 8.51134 21.5 8.50992Z" fill="white"/>
<path d="M11.1979 21.5002C11.1979 23.8599 11.9916 26.0349 13.3264 27.7729L12.4861 28.6131L12.4342 28.6669H10.3379C9.62537 28.6675 8.94226 28.9511 8.43874 29.4552L5.50578 32.3882C5.31809 32.5761 5.1903 32.8154 5.13855 33.0759C5.0868 33.3364 5.11341 33.6064 5.21501 33.8518C5.31662 34.0972 5.48867 34.307 5.70943 34.4547C5.93019 34.6023 6.18976 34.6813 6.45536 34.6815H8.3187V36.5449C8.31893 36.8104 8.39786 37.07 8.54553 37.2908C8.6932 37.5115 8.90298 37.6836 9.14837 37.7852C9.39377 37.8868 9.66377 37.9134 9.92427 37.8617C10.1848 37.8099 10.4241 37.6821 10.612 37.4944L13.545 34.5597C14.0487 34.0566 14.3322 33.3742 14.3333 32.6623V30.5661L14.3871 30.5141L15.2274 29.6756C17.0721 31.0915 19.3417 31.8417 21.6669 31.804C23.9922 31.7663 26.2362 30.943 28.0342 29.468C29.8321 27.993 31.0781 25.9531 31.5695 23.6801C32.0608 21.4071 31.7687 19.0347 30.7406 16.9488C29.7125 14.8628 28.0089 13.1861 25.9069 12.1913C23.8049 11.1965 21.4281 10.9422 19.1632 11.4697C16.8983 11.9972 14.8785 13.2755 13.4323 15.0966C11.9861 16.9178 11.1986 19.1747 11.1979 21.5002ZM21.5 13.8856C22.6949 13.886 23.873 14.1675 24.939 14.7076C26.005 15.2476 26.9289 16.0309 27.636 16.9941C28.3431 17.9574 28.8137 19.0736 29.0095 20.2524C29.2053 21.4312 29.121 22.6395 28.7633 23.7796C28.4055 24.9198 27.7845 25.9598 26.9504 26.8154C26.1163 27.6711 25.0925 28.3184 23.9619 28.7051C22.8312 29.0918 21.6254 29.2069 20.442 29.0413C19.2586 28.8756 18.1308 28.4337 17.1498 27.7514L20.0989 24.8005C20.8645 25.1253 21.7192 25.1737 22.5166 24.9374C23.314 24.7011 24.0043 24.1948 24.4693 23.5053C24.9343 22.8158 25.145 21.986 25.0653 21.1582C24.9855 20.3303 24.6203 19.556 24.0323 18.968C23.4442 18.3799 22.6699 18.0147 21.8421 17.9349C21.0142 17.8552 20.1844 18.0659 19.4949 18.5309C18.8054 18.9959 18.2991 19.6862 18.0628 20.4836C17.8265 21.281 17.8749 22.1357 18.1997 22.9013L15.2471 25.8486C14.4526 24.7066 13.9862 23.3687 13.8985 21.9802C13.8108 20.5918 14.1052 19.2059 14.7496 17.9729C15.3941 16.74 16.364 15.7072 17.554 14.9866C18.7441 14.266 20.1088 13.8853 21.5 13.8856ZM12.4342 30.4586L12.5417 30.5643V32.6605C12.5411 32.8979 12.4464 33.1254 12.2783 33.293L10.1104 35.4609V33.7857C10.1104 33.5481 10.016 33.3202 9.84798 33.1522C9.67998 32.9842 9.45212 32.8899 9.21453 32.8899H7.53753L9.70545 30.7219C9.78864 30.6385 9.88749 30.5723 9.99633 30.5271C10.1052 30.4819 10.2218 30.4586 10.3397 30.4586H12.4342Z" fill="white"/>
</svg>
