<svg width="180" height="180" viewBox="0 0 180 180" fill="none" xmlns="http://www.w3.org/2000/svg">
<g clip-path="url(#clip0_446_4954)">
<path d="M140.853 95.1418C119.233 95.1418 101.707 114.074 101.707 137.428C101.707 160.783 119.233 179.714 140.853 179.714C162.473 179.714 179.999 160.782 179.999 137.428C179.999 114.074 162.473 95.1418 140.853 95.1418ZM39.1479 95.1456C17.5285 95.1456 0.00195312 114.074 0.00195312 137.428C0.00195312 160.783 17.5285 179.714 39.1479 179.714C60.7686 179.714 78.2959 160.782 78.2959 137.428C78.2959 114.074 60.7686 95.1456 39.1479 95.1456ZM129.147 42.2848C129.147 65.6392 111.62 84.5734 90.0014 84.5734C68.3806 84.5734 50.8547 65.6392 50.8547 42.2848C50.8547 18.9327 68.3799 0 90.0006 0C111.619 0 129.145 18.9342 129.145 42.284" fill="#F06A6A"/>
</g>
<defs>
<clipPath id="clip0_446_4954">
<rect width="180" height="180" fill="white"/>
</clipPath>
</defs>
</svg>
