<svg width="180" height="180" viewBox="0 0 180 180" fill="none" xmlns="http://www.w3.org/2000/svg">
<g clip-path="url(#clip0_446_4933)">
<path d="M137.812 0H42.1875C18.888 0 0 18.888 0 42.1875V137.812C0 161.112 18.888 180 42.1875 180H137.812C161.112 180 180 161.112 180 137.812V42.1875C180 18.888 161.112 0 137.812 0Z" fill="#242938"/>
<path d="M66.5681 23.9077H108.18L64.9832 151.897C64.539 153.213 63.6936 154.355 62.566 155.165C61.4384 155.975 60.0854 156.41 58.6973 156.411H26.3127C24.7257 156.411 23.1914 155.842 21.9889 154.806C20.7865 153.77 19.9959 152.337 19.761 150.768C19.6046 149.728 19.6986 148.665 20.0352 147.669L60.2814 28.421C60.7254 27.1055 61.5708 25.9624 62.6986 25.1525C63.8263 24.3426 65.1796 23.9067 66.5681 23.9062V23.9077Z" fill="url(#paint0_linear_446_4933)"/>
<path d="M127.037 109.754H61.0498C60.4363 109.753 59.8367 109.937 59.3294 110.282C58.822 110.627 58.4304 111.117 58.2056 111.688C57.9802 112.258 57.932 112.883 58.0674 113.482C58.2027 114.08 58.5153 114.624 58.9643 115.042L101.366 154.619C102.601 155.77 104.226 156.411 105.914 156.41H143.279L127.037 109.754Z" fill="#0078D4"/>
<path d="M66.569 23.9083C65.1653 23.9029 63.7966 24.3465 62.6629 25.1744C61.5292 26.0022 60.6899 27.1708 60.2676 28.5095L20.0854 147.561C19.7269 148.561 19.6145 149.632 19.7576 150.685C19.9007 151.738 20.2953 152.741 20.9078 153.609C21.5203 154.477 22.3329 155.185 23.2768 155.673C24.2207 156.161 25.2681 156.414 26.3306 156.411H59.5511C60.7883 156.19 61.9446 155.645 62.902 154.83C63.8594 154.016 64.5835 152.962 65.0004 151.776L73.0139 128.161L101.637 154.858C102.836 155.85 104.34 156.399 105.897 156.411H143.122L126.796 109.756L79.2021 109.767L108.331 23.9083H66.569Z" fill="url(#paint1_linear_446_4933)"/>
<path d="M119.716 28.4152C119.273 27.1015 118.429 25.9599 117.303 25.1513C116.176 24.3427 114.825 23.9079 113.439 23.9082H67.0625C68.4489 23.9079 69.8005 24.3427 70.9267 25.1513C72.0529 25.9599 72.897 27.1015 73.34 28.4152L113.588 147.668C113.924 148.665 114.018 149.727 113.862 150.768C113.706 151.808 113.306 152.796 112.692 153.651C112.079 154.505 111.271 155.201 110.335 155.682C109.399 156.162 108.362 156.412 107.31 156.413H153.688C154.739 156.412 155.776 156.161 156.712 155.681C157.648 155.201 158.456 154.505 159.069 153.65C159.683 152.796 160.084 151.807 160.239 150.767C160.395 149.727 160.3 148.665 159.964 147.668L119.716 28.4152Z" fill="url(#paint2_linear_446_4933)"/>
</g>
<defs>
<linearGradient id="paint0_linear_446_4933" x1="81.7345" y1="33.7268" x2="38.5197" y2="161.395" gradientUnits="userSpaceOnUse">
<stop stop-color="#114A8B"/>
<stop offset="1" stop-color="#0669BC"/>
</linearGradient>
<linearGradient id="paint1_linear_446_4933" x1="95.2347" y1="93.2244" x2="85.2384" y2="96.6043" gradientUnits="userSpaceOnUse">
<stop stop-opacity="0.3"/>
<stop offset="0.071" stop-opacity="0.2"/>
<stop offset="0.321" stop-opacity="0.1"/>
<stop offset="0.623" stop-opacity="0.05"/>
<stop offset="1" stop-opacity="0"/>
</linearGradient>
<linearGradient id="paint2_linear_446_4933" x1="89.7355" y1="30.0036" x2="137.172" y2="156.385" gradientUnits="userSpaceOnUse">
<stop stop-color="#3CCBF4"/>
<stop offset="1" stop-color="#2892DF"/>
</linearGradient>
<clipPath id="clip0_446_4933">
<rect width="180" height="180" fill="white"/>
</clipPath>
</defs>
</svg>
