<svg width="180" height="180" viewBox="0 0 180 180" fill="none" xmlns="http://www.w3.org/2000/svg">
<g clip-path="url(#clip0_446_4691)">
<path d="M45.7493 89.857C54.3356 89.857 62.8044 91.1538 70.4872 93.6449C78.1701 96.136 84.8567 99.7533 90.0194 104.211L135.142 143.175C135.56 143.536 135.813 143.966 135.872 144.416C135.93 144.866 135.792 145.318 135.473 145.719L109.463 178.464C108.215 180.036 104.869 180.22 103.231 178.809L0.00488281 89.857H45.7493ZM76.7696 0.955305L179.996 89.9068H134.251C125.665 89.9068 117.196 88.6101 109.514 86.119C101.831 83.6279 95.1441 80.0106 89.9814 75.5525L44.8585 36.5889C44.4404 36.2281 44.1876 35.798 44.1292 35.348C44.0707 34.898 44.209 34.4464 44.5281 34.0452L70.5382 1.29932C71.7854 -0.271801 75.1314 -0.45637 76.7696 0.955305Z" fill="#6700EB"/>
</g>
<defs>
<clipPath id="clip0_446_4691">
<rect width="180" height="180" fill="white"/>
</clipPath>
</defs>
</svg>
