<svg width="180" height="180" viewBox="0 0 180 180" fill="none" xmlns="http://www.w3.org/2000/svg">
<g clip-path="url(#clip0_446_4543)">
<path d="M137.812 0H42.1875C18.888 0 0 18.888 0 42.1875V137.812C0 161.112 18.888 180 42.1875 180H137.812C161.112 180 180 161.112 180 137.812V42.1875C180 18.888 161.112 0 137.812 0Z" fill="url(#paint0_linear_446_4543)"/>
<g filter="url(#filter0_d_446_4543)">
<path d="M92.7914 137.923C113.657 137.923 126.231 127.706 126.231 110.855C126.231 98.1162 117.26 88.8947 103.938 87.4343V86.9041C113.726 85.3116 121.406 76.2223 121.406 66.072C121.406 51.6087 109.988 42.1875 92.5875 42.1875H53.4375V137.923H92.7914ZM68.6623 54.3284H88.9172C99.9281 54.3284 106.181 59.2383 106.181 68.1286C106.181 77.6159 98.9086 82.923 85.7229 82.923H68.6623V54.3284ZM68.6623 125.782V94.2687H88.7808C103.191 94.2687 110.667 99.5759 110.667 109.926C110.667 120.275 103.395 125.782 89.6646 125.782H68.6623Z" fill="url(#paint1_linear_446_4543)"/>
<path d="M92.7914 137.923C113.657 137.923 126.231 127.706 126.231 110.855C126.231 98.1162 117.26 88.8947 103.938 87.4343V86.9041C113.726 85.3116 121.406 76.2223 121.406 66.072C121.406 51.6087 109.988 42.1875 92.5875 42.1875H53.4375V137.923H92.7914ZM68.6623 54.3284H88.9172C99.9281 54.3284 106.181 59.2383 106.181 68.1286C106.181 77.6159 98.9086 82.923 85.7229 82.923H68.6623V54.3284ZM68.6623 125.782V94.2687H88.7808C103.191 94.2687 110.667 99.5759 110.667 109.926C110.667 120.275 103.395 125.782 89.6646 125.782H68.6623Z" stroke="white" stroke-width="1.53125"/>
</g>
</g>
<defs>
<filter id="filter0_d_446_4543" x="40.4219" y="32.2344" width="98.8242" height="121.768" filterUnits="userSpaceOnUse" color-interpolation-filters="sRGB">
<feFlood flood-opacity="0" result="BackgroundImageFix"/>
<feColorMatrix in="SourceAlpha" type="matrix" values="0 0 0 0 0 0 0 0 0 0 0 0 0 0 0 0 0 0 127 0" result="hardAlpha"/>
<feOffset dy="3.0625"/>
<feGaussianBlur stdDeviation="6.125"/>
<feColorMatrix type="matrix" values="0 0 0 0 0 0 0 0 0 0 0 0 0 0 0 0 0 0 0.15 0"/>
<feBlend mode="normal" in2="BackgroundImageFix" result="effect1_dropShadow_446_4543"/>
<feBlend mode="normal" in="SourceGraphic" in2="effect1_dropShadow_446_4543" result="shape"/>
</filter>
<linearGradient id="paint0_linear_446_4543" x1="0" y1="0" x2="180" y2="180" gradientUnits="userSpaceOnUse">
<stop stop-color="#9013FE"/>
<stop offset="1" stop-color="#6B11F4"/>
</linearGradient>
<linearGradient id="paint1_linear_446_4543" x1="60.3232" y1="48.4889" x2="104.443" y2="123.106" gradientUnits="userSpaceOnUse">
<stop stop-color="white"/>
<stop offset="1" stop-color="#F1E5FC"/>
</linearGradient>
<clipPath id="clip0_446_4543">
<rect width="180" height="180" fill="white"/>
</clipPath>
</defs>
</svg>
