<svg width="40" height="40" viewBox="0 0 40 40" fill="none" xmlns="http://www.w3.org/2000/svg">
<g clip-path="url(#clip0_359_15288)">
<path d="M24.0169 22.7718C22.914 24.0289 21.5712 25.0575 20.0598 25.8032V30.0889C20.0598 30.4678 19.9093 30.8312 19.6413 31.0991C19.3734 31.367 19.0101 31.5175 18.6312 31.5175H10.0598C9.68088 31.5175 9.31752 31.367 9.04961 31.0991C8.7817 30.8312 8.63119 30.4678 8.63119 30.0889V25.8032C5.62076 24.3006 3.31931 21.6777 2.22075 18.4974C1.12218 15.3172 1.31404 11.8331 2.75514 8.79268C4.19625 5.75229 6.77177 3.39796 9.92899 2.23493C13.0862 1.07189 16.5735 1.19283 19.6426 2.57178M8.63119 38.5718H20.0598" stroke="#71717A" stroke-width="1.71429" stroke-linecap="round" stroke-linejoin="round"/>
<path d="M21.1281 11.2402C20.1253 11.0659 20.1253 9.62589 21.1281 9.4516C22.9032 9.14112 24.5458 8.30981 25.8472 7.06336C27.1486 5.81691 28.05 4.21163 28.4367 2.4516L28.4967 2.1716C28.7138 1.18017 30.1253 1.17446 30.351 2.16303L30.4253 2.48589C30.8243 4.2391 31.7331 5.83511 33.0371 7.07306C34.3412 8.31101 35.9822 9.13559 37.7538 9.44303C38.7624 9.62017 38.7624 11.0659 37.7538 11.243C35.9828 11.551 34.3423 12.3758 33.0388 13.6137C31.7353 14.8516 30.827 16.4473 30.4281 18.2002L30.3538 18.523C30.1281 19.5116 28.7167 19.5059 28.4995 18.5145L28.4424 18.2373C28.0553 16.4765 27.1531 14.8707 25.8506 13.6241C24.5481 12.3776 22.9042 11.5496 21.1281 11.2402Z" stroke="#71717A" stroke-width="1.71429" stroke-linecap="round" stroke-linejoin="round"/>
</g>
<defs>
<clipPath id="clip0_359_15288">
<rect width="40" height="40" fill="white"/>
</clipPath>
</defs>
</svg>
