<svg width="180" height="180" viewBox="0 0 180 180" fill="none" xmlns="http://www.w3.org/2000/svg">
<g clip-path="url(#clip0_446_4589)">
<path d="M90 180C139.706 180 180 139.706 180 90C180 40.2944 139.706 0 90 0C40.2944 0 0 40.2944 0 90C0 139.706 40.2944 180 90 180Z" fill="url(#paint0_linear_446_4589)"/>
<path d="M131.569 81.4073C131.742 81.2244 131.857 80.9948 131.9 80.747C131.944 80.4991 131.913 80.244 131.813 80.0133C131.712 79.7826 131.547 79.5865 131.336 79.4493C131.125 79.3121 130.878 79.2399 130.627 79.2416H91.2234C88.8188 79.2416 89.2125 77.9479 90.0703 76.3729C90.9281 74.7838 112.725 35.0291 112.725 35.0291C112.823 34.8182 112.88 34.6073 112.88 34.3682C112.879 34.0687 112.79 33.7761 112.624 33.5269C112.458 33.2777 112.222 33.0832 111.946 32.9676C111.669 32.8519 111.365 32.8204 111.071 32.877C110.777 32.9335 110.506 33.0756 110.292 33.2854L48.5156 94.851C48.2484 95.1041 48.0938 95.4416 48.0938 95.8354C48.0938 96.5807 48.6984 97.1854 49.4437 97.1854H91.5891C94.2328 97.1854 93.2906 98.7041 92.6437 99.5901C91.9969 100.476 60.0891 144.59 60.0891 144.59C59.9109 144.826 59.802 145.106 59.7746 145.4C59.7471 145.694 59.8023 145.99 59.9338 146.255C60.0653 146.519 60.2679 146.742 60.5189 146.897C60.7699 147.053 61.0594 147.135 61.3547 147.135C61.7906 147.135 62.1844 146.967 62.4656 146.685C62.7469 146.404 131.555 81.4635 131.555 81.4635L131.569 81.4495L131.597 81.4213L131.569 81.4073Z" fill="white"/>
</g>
<defs>
<linearGradient id="paint0_linear_446_4589" x1="90" y1="0" x2="90" y2="180" gradientUnits="userSpaceOnUse">
<stop stop-color="#7ACBD4"/>
<stop offset="1" stop-color="#29C6B7"/>
</linearGradient>
<clipPath id="clip0_446_4589">
<rect width="180" height="180" fill="white"/>
</clipPath>
</defs>
</svg>
