<svg width="180" height="180" viewBox="0 0 180 180" fill="none" xmlns="http://www.w3.org/2000/svg">
<g clip-path="url(#clip0_446_4943)">
<path d="M6.54596 135.425C4.60607 138.486 2.70188 141.569 0.833775 144.674C-0.79185 147.393 0.0209626 150.929 2.73784 152.563L39.981 175.415C42.7006 177.046 46.2289 176.226 47.8616 173.509C49.6103 170.389 51.4229 167.304 53.2982 164.258C67.9822 140.052 82.9292 142.77 109.568 155.559L146.542 172.96C149.529 174.324 152.796 172.96 154.15 170.241L171.825 130.262C173.18 127.536 171.825 124.007 169.099 122.643C161.218 119.104 145.73 111.758 132.135 104.962C81.8478 80.7475 39.1625 82.3816 6.54878 135.425H6.54596Z" fill="url(#paint0_linear_446_4943)"/>
<path d="M173.451 44.5735C175.391 41.5128 177.296 38.4296 179.165 35.3246C180.796 32.6063 179.976 29.0696 177.259 27.4355L140.016 4.58393C137.298 2.95268 133.768 3.77252 132.135 6.4894C130.39 9.61179 128.578 12.6964 126.7 15.7411C112.015 39.9469 97.0677 37.2286 70.4291 24.4402L33.4546 7.03924C30.4677 5.67518 27.2094 7.03924 25.8468 9.75752L8.17864 49.7372C6.81739 52.4625 8.17864 56.0006 10.8969 57.3563C18.7775 60.8944 34.2744 68.2406 47.8602 75.0371C98.1575 98.9813 140.834 97.6158 173.448 44.5735H173.451Z" fill="url(#paint1_linear_446_4943)"/>
</g>
<defs>
<linearGradient id="paint0_linear_446_4943" x1="170.931" y1="187.252" x2="58.4385" y2="122.662" gradientUnits="userSpaceOnUse">
<stop stop-color="#0052CC"/>
<stop offset="0.918" stop-color="#2380FB"/>
<stop offset="1" stop-color="#2684FF"/>
</linearGradient>
<linearGradient id="paint1_linear_446_4943" x1="9.06628" y1="-7.32709" x2="121.558" y2="57.2701" gradientUnits="userSpaceOnUse">
<stop stop-color="#0052CC"/>
<stop offset="0.918" stop-color="#2380FB"/>
<stop offset="1" stop-color="#2684FF"/>
</linearGradient>
<clipPath id="clip0_446_4943">
<rect width="180" height="180" fill="white"/>
</clipPath>
</defs>
</svg>
