<svg width="142" height="160" viewBox="0 0 142 160" fill="none" xmlns="http://www.w3.org/2000/svg">
<g clip-path="url(#clip0_446_4782)">
<path d="M48.4424 111.157C39.9523 103.181 34.9585 92.2151 34.9585 79.7534C34.9585 67.2916 39.9523 56.3258 47.9431 48.3502C54.935 41.3722 54.935 30.4058 47.9431 23.4273C40.9513 16.4487 29.9647 16.4487 22.9729 23.4273C8.98924 37.8826 0 57.8212 0 79.7534C0 101.686 8.98924 121.624 23.4721 136.079C30.4639 143.058 41.4511 143.058 48.4424 136.079C54.935 129.101 54.935 118.135 48.4424 111.157Z" fill="#FAE501"/>
<path d="M48.4427 48.3505C56.4335 39.8765 67.4201 34.8922 79.9055 34.8922C92.3909 34.8922 103.378 39.8765 111.368 47.8522C118.36 54.8307 129.347 54.8307 136.339 47.8522C143.33 40.8736 143.33 29.9078 136.339 22.9293C121.856 8.97218 101.879 0 79.9055 0C57.9317 0 37.9552 8.97218 23.4724 23.4275C16.4806 30.4061 16.4806 41.3725 23.4724 48.3505C30.4642 54.8307 41.4514 54.8307 48.4427 48.3505Z" fill="#4FB5E1"/>
<path d="M111.368 111.157C103.378 119.63 92.3909 124.615 79.9055 124.615C67.4201 124.615 56.4335 119.63 48.4427 111.655C41.4514 104.677 30.4642 104.677 23.4724 111.655C16.4806 118.634 16.4806 129.6 23.4724 136.578C37.9552 150.535 57.9317 159.508 79.9055 159.508C101.879 159.508 121.856 150.535 136.339 136.08C143.33 129.101 143.33 118.135 136.339 111.157C129.347 104.677 118.36 104.677 111.368 111.157Z" fill="#F05751"/>
<path d="M35.9578 53.3355C45.6113 53.3355 53.437 45.5247 53.437 35.8895C53.437 26.2542 45.6113 18.4434 35.9578 18.4434C26.3042 18.4434 18.4785 26.2542 18.4785 35.8895C18.4785 45.5247 26.3042 53.3355 35.9578 53.3355Z" fill="#0681B6"/>
<path d="M35.9578 141.064C45.6113 141.064 53.437 133.253 53.437 123.618C53.437 113.983 45.6113 106.172 35.9578 106.172C26.3042 106.172 18.4785 113.983 18.4785 123.618C18.4785 133.253 26.3042 141.064 35.9578 141.064Z" fill="#CD4739"/>
</g>
<defs>
<clipPath id="clip0_446_4782">
<rect width="142" height="160" fill="white"/>
</clipPath>
</defs>
</svg>
