<svg width="180" height="180" viewBox="0 0 180 180" fill="none" xmlns="http://www.w3.org/2000/svg">
<g clip-path="url(#clip0_446_4567)">
<path d="M137.812 0H42.1875C18.888 0 0 18.888 0 42.1875V137.812C0 161.112 18.888 180 42.1875 180H137.812C161.112 180 180 161.112 180 137.812V42.1875C180 18.888 161.112 0 137.812 0Z" fill="#0277BD"/>
<path d="M37.7951 72.1765L39.8074 94.6357H90.0675V72.1765H37.7951ZM90.0668 26.7188H33.75L35.7919 49.178H90.0668V26.7188ZM90.0668 153.873V130.506L89.9684 130.532L64.9554 123.778L63.3565 105.865H40.8108L43.9573 141.13L89.9634 153.901L90.0668 153.873Z" fill="#EBEBEB"/>
<path d="M117.646 94.6357L115.039 123.763L89.9902 130.525V153.89L136.033 141.13L136.37 137.335L141.648 78.2079L142.196 72.1765L146.251 26.7188H89.9902V49.178H121.637L119.594 72.1765H89.9902V94.6357H117.646Z" fill="white"/>
</g>
<defs>
<clipPath id="clip0_446_4567">
<rect width="180" height="180" fill="white"/>
</clipPath>
</defs>
</svg>
