<svg width="180" height="180" viewBox="0 0 180 180" fill="none" xmlns="http://www.w3.org/2000/svg">
<g clip-path="url(#clip0_446_4600)">
<path d="M137.812 0H42.1875C18.888 0 0 18.888 0 42.1875V137.812C0 161.112 18.888 180 42.1875 180H137.812C161.112 180 180 161.112 180 137.812V42.1875C180 18.888 161.112 0 137.812 0Z" fill="#242938"/>
<path d="M96.1502 89.7581C96.1502 60.3802 72.2812 36.5625 42.8295 36.5625H33.75V59.9456H42.8344C59.3395 59.9456 72.7172 73.2923 72.7172 89.7581C72.7172 106.225 59.3395 119.571 42.8344 119.571H33.75V142.954H42.8344C72.277 142.954 96.1502 119.137 96.1502 89.7581ZM146.25 69.0089C146.25 51.0877 131.685 36.5625 113.728 36.5625H76.2279C85.4511 42.3233 93.02 50.3806 98.1935 59.9456H113.728C118.74 59.9456 122.813 64.0041 122.813 69.0089C122.813 74.0123 118.74 78.0715 113.728 78.0715H104.644C106.111 85.7966 106.111 93.7288 104.644 101.454H113.728C118.735 101.454 122.813 105.509 122.813 110.518C122.813 115.527 118.74 119.58 113.728 119.58H98.1935C93.0199 129.145 85.451 137.202 76.2279 142.963H113.728C121.325 142.963 128.684 140.308 134.531 135.458C148.327 124 150.216 103.544 138.727 89.768C143.585 83.9406 146.247 76.5949 146.25 69.0082" fill="#F9A03C"/>
</g>
<defs>
<clipPath id="clip0_446_4600">
<rect width="180" height="180" fill="white"/>
</clipPath>
</defs>
</svg>
