<svg width="50" height="51" viewBox="0 0 50 51" fill="none" xmlns="http://www.w3.org/2000/svg">
<g clip-path="url(#clip0_446_5191)">
<path d="M21.875 40.77H3.90625C2.87063 40.7688 1.87778 40.3568 1.14548 39.6245C0.413189 38.8922 0.00124051 37.8994 0 36.8638L0 4.05127C0.00124051 3.01565 0.413189 2.0228 1.14548 1.2905C1.87778 0.558209 2.87063 0.14626 3.90625 0.14502L5.46875 0.14502V1.70752H3.90625C3.28465 1.70752 2.68851 1.95445 2.24897 2.39399C1.80943 2.83353 1.5625 3.42967 1.5625 4.05127V36.8638C1.5625 37.4854 1.80943 38.0815 2.24897 38.521C2.68851 38.9606 3.28465 39.2075 3.90625 39.2075H21.875V40.77ZM7.03125 0.14502H8.59453V1.70752H7.03125V0.14502ZM46.0938 40.77V39.2075C46.7154 39.2075 47.3115 38.9606 47.751 38.521C48.1906 38.0815 48.4375 37.4854 48.4375 36.8638V4.05127C48.4375 3.42967 48.1906 2.83353 47.751 2.39399C47.3115 1.95445 46.7154 1.70752 46.0938 1.70752H10.1562V0.14502H46.0938C47.1294 0.14626 48.1222 0.558209 48.8545 1.2905C49.5868 2.0228 49.9988 3.01565 50 4.05127V36.8638C49.9988 37.8994 49.5868 38.8922 48.8545 39.6245C48.1222 40.3568 47.1294 40.7688 46.0938 40.77Z" fill="#204285"/>
<path d="M14.8672 42.9404L15.65 39.8154L17.1656 40.1959L16.3828 43.3209L14.8672 42.9404Z" fill="#204285"/>
<path d="M21.875 47.02H14.0625C13.8553 47.02 13.6566 46.9377 13.5101 46.7912C13.3636 46.6447 13.2812 46.446 13.2812 46.2388V44.6763C13.2812 44.0547 13.5282 43.4585 13.9677 43.019C14.4073 42.5795 15.0034 42.3325 15.625 42.3325H21.875V43.895H15.625C15.4178 43.895 15.2191 43.9773 15.0726 44.1238C14.9261 44.2704 14.8438 44.4691 14.8438 44.6763V45.4575H21.875V47.02ZM0.78125 32.9575H21.875V34.52H0.78125V32.9575ZM3.125 36.0825H4.6875V37.645H3.125V36.0825ZM6.25 36.0825H10.9375V37.645H6.25V36.0825ZM42.9688 50.145H27.3438C26.3081 50.1438 25.3153 49.7318 24.583 48.9995C23.8507 48.2672 23.4387 47.2744 23.4375 46.2388V14.9888C23.4387 13.9531 23.8507 12.9603 24.583 12.228C25.3153 11.4957 26.3081 11.0838 27.3438 11.0825H42.9688C44.0044 11.0838 44.9972 11.4957 45.7295 12.228C46.4618 12.9603 46.8738 13.9531 46.875 14.9888V46.2388C46.8738 47.2744 46.4618 48.2672 45.7295 48.9995C44.9972 49.7318 44.0044 50.1438 42.9688 50.145ZM27.3438 12.645C26.7221 12.645 26.126 12.8919 25.6865 13.3315C25.2469 13.771 25 14.3672 25 14.9888V46.2388C25 46.8604 25.2469 47.4565 25.6865 47.896C26.126 48.3356 26.7221 48.5825 27.3438 48.5825H42.9688C43.5904 48.5825 44.1865 48.3356 44.626 47.896C45.0656 47.4565 45.3125 46.8604 45.3125 46.2388V14.9888C45.3125 14.3672 45.0656 13.771 44.626 13.3315C44.1865 12.8919 43.5904 12.645 42.9688 12.645H27.3438Z" fill="#204285"/>
<path d="M39.0625 18.895H31.25C29.7859 18.895 29.1727 17.62 28.9789 16.5513H24.2188V14.9888H29.6875C29.8947 14.9888 30.0934 15.0711 30.2399 15.2176C30.3864 15.3641 30.4688 15.5628 30.4688 15.77C30.4688 15.7833 30.5125 17.3325 31.25 17.3325H39.0625C39.8 17.3325 39.8438 15.7833 39.8438 15.77C39.8438 15.5628 39.9261 15.3641 40.0726 15.2176C40.2191 15.0711 40.4178 14.9888 40.625 14.9888H46.0938V16.5513H41.3336C41.1398 17.62 40.5266 18.895 39.0625 18.895Z" fill="#204285"/>
<path d="M32.0312 14.2075H38.2812V15.77H32.0312V14.2075ZM32.0312 46.2388H38.2812V47.8013H32.0312V46.2388ZM24.2188 43.895H46.0938V45.4575H24.2188V43.895ZM14.0625 22.02H10.9375C10.7303 22.02 10.5316 21.9377 10.3851 21.7912C10.2386 21.6447 10.1562 21.446 10.1562 21.2388V20.0935C9.72 19.956 9.29674 19.7804 8.89141 19.5685L8.08047 20.3794C7.93396 20.5259 7.73528 20.6081 7.52812 20.6081C7.32097 20.6081 7.12229 20.5259 6.97578 20.3794L4.76562 18.1692C4.61916 18.0227 4.53689 17.8241 4.53689 17.6169C4.53689 17.4097 4.61916 17.2111 4.76562 17.0646L5.57578 16.2536C5.36415 15.8483 5.18872 15.425 5.05156 14.9888H3.90625C3.69905 14.9888 3.50034 14.9065 3.35382 14.7599C3.20731 14.6134 3.125 14.4147 3.125 14.2075V11.0825C3.125 10.8753 3.20731 10.6766 3.35382 10.5301C3.50034 10.3836 3.69905 10.3013 3.90625 10.3013H5.05156C5.18898 9.86502 5.36466 9.44176 5.57656 9.03643L4.76562 8.22549C4.61916 8.07898 4.53689 7.8803 4.53689 7.67314C4.53689 7.46598 4.61916 7.26731 4.76562 7.1208L6.97578 4.91064C7.12229 4.76418 7.32097 4.68191 7.52812 4.68191C7.73528 4.68191 7.93396 4.76418 8.08047 4.91064L8.89141 5.7208C9.29677 5.50917 9.72002 5.33374 10.1562 5.19658V4.05127C10.1562 3.84407 10.2386 3.64536 10.3851 3.49884C10.5316 3.35233 10.7303 3.27002 10.9375 3.27002H14.0625C14.2697 3.27002 14.4684 3.35233 14.6149 3.49884C14.7614 3.64536 14.8438 3.84407 14.8438 4.05127V5.19658C15.28 5.334 15.7033 5.50968 16.1086 5.72158L16.9195 4.91064C17.066 4.76418 17.2647 4.68191 17.4719 4.68191C17.679 4.68191 17.8777 4.76418 18.0242 4.91064L20.2344 7.1208C20.3808 7.26731 20.4631 7.46598 20.4631 7.67314C20.4631 7.8803 20.3808 8.07898 20.2344 8.22549L19.4242 9.03643C19.6359 9.44178 19.8113 9.86504 19.9484 10.3013H21.0938C21.301 10.3013 21.4997 10.3836 21.6462 10.5301C21.7927 10.6766 21.875 10.8753 21.875 11.0825V14.2075C21.875 14.4147 21.7927 14.6134 21.6462 14.7599C21.4997 14.9065 21.301 14.9888 21.0938 14.9888H19.9484C19.811 15.425 19.6353 15.8483 19.4234 16.2536L20.2344 17.0646C20.3808 17.2111 20.4631 17.4097 20.4631 17.6169C20.4631 17.8241 20.3808 18.0227 20.2344 18.1692L18.0242 20.3794C17.8777 20.5259 17.679 20.6081 17.4719 20.6081C17.2647 20.6081 17.066 20.5259 16.9195 20.3794L16.1086 19.5692C15.7032 19.7809 15.28 19.9563 14.8438 20.0935V21.2388C14.8438 21.446 14.7614 21.6447 14.6149 21.7912C14.4684 21.9377 14.2697 22.02 14.0625 22.02ZM11.7188 20.4575H13.2812V19.4966C13.2811 19.3194 13.3411 19.1474 13.4516 19.0089C13.562 18.8703 13.7163 18.7734 13.8891 18.7341C14.574 18.5783 15.2273 18.3069 15.8211 17.9317C15.971 17.8371 16.1487 17.7964 16.3249 17.8161C16.5011 17.8358 16.6653 17.9149 16.7906 18.0403L17.4719 18.7216L18.5766 17.6169L17.8953 16.9356C17.7699 16.8103 17.6908 16.6461 17.6711 16.4699C17.6513 16.2937 17.6921 16.1161 17.7867 15.9661C18.1619 15.3723 18.4333 14.719 18.5891 14.0341C18.6284 13.8613 18.7253 13.7071 18.8638 13.5966C19.0024 13.4862 19.1744 13.4261 19.3516 13.4263H20.3125V11.8638H19.3516C19.1744 11.8639 19.0024 11.8039 18.8638 11.6934C18.7253 11.583 18.6284 11.4287 18.5891 11.256C18.4333 10.5711 18.1619 9.91771 17.7867 9.32393C17.6921 9.17398 17.6513 8.99632 17.6711 8.82013C17.6908 8.64394 17.7699 8.4797 17.8953 8.35439L18.5766 7.67314L17.4719 6.56846L16.7906 7.24971C16.6653 7.37513 16.5011 7.45421 16.3249 7.47394C16.1487 7.49368 15.971 7.4529 15.8211 7.3583C15.2273 6.98309 14.574 6.71176 13.8891 6.55596C13.7163 6.51662 13.562 6.41973 13.4516 6.28118C13.3411 6.14262 13.2811 5.97064 13.2812 5.79346V4.83252H11.7188V5.79346C11.7189 5.97064 11.6589 6.14262 11.5484 6.28118C11.438 6.41973 11.2837 6.51662 11.1109 6.55596C10.426 6.71176 9.77269 6.98309 9.17891 7.3583C9.02896 7.4529 8.8513 7.49368 8.67511 7.47394C8.49892 7.45421 8.33468 7.37513 8.20938 7.24971L7.52812 6.56846L6.42344 7.67314L7.10469 8.35439C7.23011 8.4797 7.30919 8.64394 7.32892 8.82013C7.34866 8.99632 7.30788 9.17398 7.21328 9.32393C6.83807 9.91771 6.56674 10.5711 6.41094 11.256C6.3716 11.4287 6.27471 11.583 6.13616 11.6934C5.9976 11.8039 5.82562 11.8639 5.64844 11.8638H4.6875V13.4263H5.64844C5.82562 13.4261 5.9976 13.4862 6.13616 13.5966C6.27471 13.7071 6.3716 13.8613 6.41094 14.0341C6.56674 14.719 6.83807 15.3723 7.21328 15.9661C7.30788 16.1161 7.34866 16.2937 7.32892 16.4699C7.30919 16.6461 7.23011 16.8103 7.10469 16.9356L6.42344 17.6169L7.52812 18.7216L8.20938 18.0403C8.33468 17.9149 8.49892 17.8358 8.67511 17.8161C8.8513 17.7964 9.02896 17.8371 9.17891 17.9317C9.77269 18.3069 10.426 18.5783 11.1109 18.7341C11.2837 18.7734 11.438 18.8703 11.5484 19.0089C11.6589 19.1474 11.7189 19.3194 11.7188 19.4966V20.4575Z" fill="#204285"/>
<path d="M12.5 16.5513C11.7274 16.5513 10.9722 16.3222 10.3298 15.893C9.68743 15.4637 9.18675 14.8537 8.8911 14.1399C8.59544 13.4261 8.51809 12.6407 8.66881 11.883C8.81953 11.1252 9.19157 10.4292 9.73787 9.88289C10.2842 9.33659 10.9802 8.96455 11.7379 8.81383C12.4957 8.66311 13.2811 8.74046 13.9949 9.03612C14.7086 9.33177 15.3187 9.83245 15.7479 10.4748C16.1772 11.1172 16.4063 11.8724 16.4063 12.645C16.405 13.6806 15.9931 14.6735 15.2608 15.4058C14.5285 16.1381 13.5356 16.55 12.5 16.5513ZM12.5 10.3013C12.0365 10.3013 11.5833 10.4387 11.1979 10.6963C10.8125 10.9538 10.5121 11.3198 10.3347 11.7481C10.1573 12.1764 10.1109 12.6476 10.2013 13.1023C10.2917 13.5569 10.5149 13.9745 10.8427 14.3023C11.1705 14.6301 11.5881 14.8533 12.0428 14.9437C12.4974 15.0342 12.9687 14.9878 13.3969 14.8104C13.8252 14.633 14.1912 14.3326 14.4488 13.9471C14.7063 13.5617 14.8438 13.1086 14.8438 12.645C14.8438 12.0234 14.5968 11.4273 14.1573 10.9877C13.7177 10.5482 13.1216 10.3013 12.5 10.3013ZM13.2813 32.1763H11.7188V29.0513C11.7188 28.8441 11.8011 28.6454 11.9476 28.4988C12.0941 28.3523 12.2928 28.27 12.5 28.27H13.6453C13.7827 27.8338 13.9584 27.4105 14.1703 27.0052L13.3594 26.1942C13.2129 26.0477 13.1306 25.8491 13.1306 25.6419C13.1306 25.4347 13.2129 25.2361 13.3594 25.0896L15.5695 22.8794C15.716 22.7329 15.9147 22.6507 16.1219 22.6507C16.329 22.6507 16.5277 22.7329 16.6742 22.8794L17.4852 23.6896C17.8905 23.4779 18.3138 23.3025 18.75 23.1653V22.02C18.75 21.8128 18.8323 21.6141 18.9788 21.4676C19.1253 21.3211 19.3241 21.2388 19.5313 21.2388H22.6563V22.8013H20.3125V23.7622C20.3127 23.9394 20.2526 24.1114 20.1422 24.2499C20.0317 24.3885 19.8775 24.4854 19.7047 24.5247C19.0198 24.6805 18.3664 24.9518 17.7727 25.3271C17.6227 25.4216 17.445 25.4624 17.2689 25.4427C17.0927 25.423 16.9284 25.3439 16.8031 25.2185L16.1219 24.5372L15.0172 25.6419L15.6984 26.3231C15.8239 26.4485 15.9029 26.6127 15.9227 26.7889C15.9424 26.9651 15.9016 27.1427 15.807 27.2927C15.4318 27.8865 15.1605 28.5398 15.0047 29.2247C14.9654 29.3975 14.8685 29.5517 14.7299 29.6622C14.5914 29.7726 14.4194 29.8327 14.2422 29.8325H13.2813V32.1763ZM18.75 30.6138H17.1875C17.1887 29.5781 17.6007 28.5853 18.333 27.853C19.0653 27.1207 20.0581 26.7088 21.0938 26.7075V28.27C20.4722 28.27 19.876 28.517 19.4365 28.9565C18.9969 29.396 18.75 29.9922 18.75 30.6138ZM35.1563 39.2075C33.4566 39.2075 31.7951 38.7035 30.3818 37.7592C28.9686 36.8149 27.8671 35.4728 27.2167 33.9025C26.5662 32.3322 26.396 30.6042 26.7276 28.9372C27.0592 27.2702 27.8777 25.7389 29.0796 24.5371C30.2814 23.3352 31.8127 22.5167 33.4797 22.1851C35.1467 21.8536 36.8746 22.0237 38.4449 22.6742C40.0152 23.3246 41.3574 24.4261 42.3017 25.8393C43.246 27.2526 43.75 28.9141 43.75 30.6138C43.7473 32.8922 42.841 35.0764 41.23 36.6875C39.6189 38.2986 37.4346 39.2048 35.1563 39.2075ZM35.1563 23.5825C33.7656 23.5825 32.4062 23.9949 31.2499 24.7675C30.0936 25.5401 29.1924 26.6382 28.6602 27.923C28.128 29.2078 27.9888 30.6216 28.2601 31.9855C28.5314 33.3494 29.2011 34.6023 30.1844 35.5856C31.1677 36.569 32.4206 37.2386 33.7845 37.5099C35.1485 37.7812 36.5622 37.642 37.847 37.1098C39.1318 36.5776 40.2299 35.6764 41.0025 34.5201C41.7751 33.3638 42.1875 32.0044 42.1875 30.6138C42.1852 28.7497 41.4437 26.9626 40.1256 25.6444C38.8075 24.3263 37.0204 23.5848 35.1563 23.5825Z" fill="#204285"/>
<path d="M33.5936 36.0825C33.3864 36.0825 33.1877 36.0001 33.0412 35.8536L29.135 31.9474C28.9885 31.8009 28.9062 31.6022 28.9062 31.395C28.9062 31.1879 28.9885 30.9892 29.135 30.8427L31.4787 28.4989C31.6252 28.3525 31.8239 28.2702 32.0311 28.2702C32.2382 28.2702 32.4369 28.3525 32.5834 28.4989L33.5936 29.5091L37.7287 25.3739C37.8752 25.2275 38.0739 25.1452 38.2811 25.1452C38.4882 25.1452 38.6869 25.2275 38.8334 25.3739L41.1772 27.7177C41.3236 27.8642 41.4059 28.0629 41.4059 28.27C41.4059 28.4772 41.3236 28.6759 41.1772 28.8224L34.1459 35.8536C33.9994 36.0001 33.8008 36.0825 33.5936 36.0825ZM30.792 31.395L33.5936 34.1966L39.5201 28.27L38.2811 27.031L34.1459 31.1661C33.9994 31.3126 33.8007 31.3949 33.5936 31.3949C33.3864 31.3949 33.1877 31.3126 33.0412 31.1661L32.0311 30.156L30.792 31.395ZM44.5311 3.27002H46.0936V4.83252H44.5311V3.27002ZM32.8123 3.27002H42.9686V4.83252H32.8123V3.27002Z" fill="#204285"/>
</g>
<defs>
<clipPath id="clip0_446_5191">
<rect width="50" height="50" fill="white" transform="translate(0 0.14502)"/>
</clipPath>
</defs>
</svg>
