<svg width="180" height="180" viewBox="0 0 180 180" fill="none" xmlns="http://www.w3.org/2000/svg">
<g clip-path="url(#clip0_446_4742)">
<path d="M137.812 0H42.1875C18.888 0 0 18.888 0 42.1875V137.812C0 161.112 18.888 180 42.1875 180H137.812C161.112 180 180 161.112 180 137.812V42.1875C180 18.888 161.112 0 137.812 0Z" fill="#092E20"/>
<path d="M79.2345 35.8594H99.3544V128.988C89.0332 130.948 81.4556 131.732 73.2255 131.732C48.6626 131.731 35.8594 120.627 35.8594 99.3312C35.8594 78.8189 49.4473 65.494 70.4812 65.494C73.7473 65.494 76.2293 65.7541 79.2345 66.5381V35.8594ZM79.2345 82.7374C76.8832 81.9548 74.9236 81.6933 72.4416 81.6933C62.2512 81.6933 56.3709 87.9645 56.3709 98.9381C56.3709 109.652 61.9896 115.531 72.3108 115.531C74.5305 115.531 76.3608 115.4 79.2345 115.009V82.7374Z" fill="white"/>
<path d="M131.362 66.931V113.571C131.362 129.641 130.186 137.349 126.659 144.013C123.392 150.415 119.08 154.464 110.196 158.907L91.5137 150.022C100.398 145.842 104.709 142.185 107.452 136.565C110.327 130.817 111.243 124.153 111.243 106.647V66.9303L131.362 66.931ZM111.243 35.9668H131.362V56.6091H111.243V35.9668Z" fill="white"/>
</g>
<defs>
<clipPath id="clip0_446_4742">
<rect width="180" height="180" fill="white"/>
</clipPath>
</defs>
</svg>
