<svg width="180" height="180" viewBox="0 0 180 180" fill="none" xmlns="http://www.w3.org/2000/svg">
<rect width="180" height="180" rx="70" fill="#242938"/>
<path fill-rule="evenodd" clip-rule="evenodd" d="M103.782 71.4375H119.673V87.6094H127.688C131.345 87.6094 135.141 86.9062 138.657 85.7812C140.345 85.2188 142.313 84.375 144.001 83.3906C141.751 80.4375 140.626 76.7812 140.345 73.125C139.923 68.2031 140.907 61.7344 144.282 57.9375L145.97 55.9688L147.938 57.5156C153.001 61.5938 157.079 67.0781 157.923 73.5469C163.97 71.7188 171.001 72.1406 176.345 75.2344L178.454 76.5L177.329 78.75C172.829 87.4688 163.407 90.2812 154.266 89.7188C140.485 123.891 110.673 140.063 74.3915 140.063C55.6884 140.063 38.5321 133.031 28.6884 116.438L28.5477 116.156L27.1415 113.203C23.7665 105.891 22.7821 97.875 23.4852 89.8594L23.7665 87.4688H37.2665V71.4375H53.1571V55.6875H84.7977V39.7969H103.782V71.4375Z" fill="#3A4D54"/>
<path d="M155.249 77.4844C156.374 69.1875 150.187 62.7188 146.249 59.625C141.89 64.6875 141.187 78.1875 148.077 83.8125C144.14 87.1875 136.124 90.4219 127.687 90.4219H26.1554C25.3117 99.1406 26.8585 107.156 30.3742 114.047L31.4992 116.156C32.2023 117.422 33.046 118.547 33.8898 119.812C38.1085 120.094 41.9054 120.234 45.421 120.094C52.3117 119.953 57.9367 119.109 62.296 117.703C62.9992 117.422 63.5617 117.844 63.8429 118.406C64.1242 119.109 63.7023 119.672 63.1398 119.953C62.5773 120.094 62.0148 120.375 61.3117 120.516C57.9367 121.5 54.2804 122.063 49.6398 122.344H48.796C46.9679 122.484 44.9992 122.484 42.8898 122.484C40.6398 122.484 38.5304 122.484 35.9992 122.344C44.4367 131.906 57.6554 137.531 74.2492 137.531C109.405 137.531 139.218 121.922 152.296 87.0469C161.718 88.0313 170.718 85.6406 174.796 77.625C168.468 73.8281 160.03 75.0937 155.249 77.4844Z" fill="#00AADA"/>
<path d="M155.25 77.4844C156.375 69.1875 150.187 62.7188 146.25 59.625C141.89 64.6875 141.187 78.1875 148.078 83.8125C144.14 87.1875 136.125 90.4219 127.687 90.4219H32.0622C31.6403 103.781 36.5622 113.906 45.4216 119.953C52.3122 119.813 57.9372 118.969 62.2966 117.562C62.9997 117.281 63.5622 117.703 63.8434 118.266C64.1247 118.969 63.7028 119.531 63.1403 119.812C62.5778 119.953 62.0153 120.234 61.3122 120.375C57.9372 121.359 53.9997 122.062 49.3591 122.344L49.2184 122.203C61.1716 128.391 78.4684 128.25 98.4372 120.656C120.656 112.078 141.468 95.7656 155.953 77.2031C155.672 77.3438 155.39 77.3437 155.25 77.4844Z" fill="#28B8EB"/>
<path d="M26.2969 100.969C26.8594 105.609 28.2656 109.969 30.375 114.047L31.5 116.156C32.2031 117.422 33.0469 118.547 33.8906 119.812C38.1094 120.094 41.9062 120.234 45.4219 120.094C52.3125 119.953 57.9375 119.109 62.2969 117.703C63 117.422 63.5625 117.844 63.8438 118.406C64.125 119.109 63.7031 119.672 63.1406 119.953C62.5781 120.094 62.0156 120.375 61.3125 120.516C57.9375 121.5 54 122.203 49.3594 122.484H48.7969C46.9688 122.625 45 122.625 43.0312 122.625C40.7812 122.625 38.5312 122.625 36.1406 122.484C44.5781 132.047 57.9375 137.672 74.5312 137.672C104.625 137.672 130.781 126.281 145.969 101.109H26.2969V100.969Z" fill="#028BB8"/>
<path d="M33.0469 100.969C34.875 109.125 39.0937 115.594 45.4219 119.953C52.3125 119.812 57.9375 118.969 62.2969 117.562C63 117.281 63.5625 117.703 63.8438 118.266C64.125 118.969 63.7031 119.531 63.1406 119.812C62.5781 119.953 62.0156 120.234 61.3125 120.375C57.9375 121.359 54 122.062 49.2188 122.344C61.1719 128.531 78.4688 128.391 98.2969 120.797C110.25 116.156 121.922 109.266 132.328 100.969H33.0469Z" fill="#019BC6"/>
<path fill-rule="evenodd" clip-rule="evenodd" d="M39.9375 74.1094H53.7188V87.8906H39.9375V74.1094ZM41.0625 75.2344H42.1875V86.625H41.0625V75.2344ZM43.0313 75.2344H44.1562V86.625H43.0313V75.2344ZM45.1406 75.2344H46.2656V86.625H45.1406V75.2344ZM47.25 75.2344H48.375V86.625H47.25V75.2344ZM49.3594 75.2344H50.4844V86.625H49.3594V75.2344ZM51.4687 75.2344H52.5938V86.625H51.4687V75.2344ZM55.6875 58.3594H69.4688V72.1406H55.6875V58.3594ZM56.9531 59.4844H58.0781V70.875H56.9531V59.4844ZM58.9219 59.4844H60.0469V70.875H58.9219V59.4844ZM61.0313 59.4844H62.1563V70.875H61.0313V59.4844ZM63.1406 59.4844H64.2656V70.875H63.1406V59.4844ZM65.1094 59.4844H66.2344V70.875H65.1094V59.4844ZM67.2188 59.4844H68.3437V70.875H67.2188V59.4844Z" fill="#00ACD3"/>
<path fill-rule="evenodd" clip-rule="evenodd" d="M55.6875 74.1094H69.4688V87.8906H55.6875V74.1094ZM56.9531 75.2344H58.0781V86.625H56.9531V75.2344ZM58.9219 75.2344H60.0469V86.625H58.9219V75.2344ZM61.0313 75.2344H62.1563V86.625H61.0313V75.2344ZM63.1406 75.2344H64.2656V86.625H63.1406V75.2344ZM65.1094 75.2344H66.2344V86.625H65.1094V75.2344ZM67.2188 75.2344H68.3438V86.625H67.2188V75.2344Z" fill="#23C2EE"/>
<path fill-rule="evenodd" clip-rule="evenodd" d="M71.5781 74.1094H85.3594V87.8906H71.5781V74.1094ZM72.7031 75.2344H73.8281V86.625H72.7031V75.2344ZM74.8125 75.2344H75.9375V86.625H74.8125V75.2344ZM76.9219 75.2344H78.0469V86.625H76.9219V75.2344ZM78.8906 75.2344H80.0156V86.625H78.8906V75.2344ZM81 75.2344H82.125V86.625H81V75.2344ZM83.1094 75.2344H84.2344V86.625H83.1094V75.2344Z" fill="#00ACD3"/>
<path fill-rule="evenodd" clip-rule="evenodd" d="M71.5781 58.3594H85.3594V72.1406H71.5781V58.3594ZM72.7031 59.4844H73.8281V70.875H72.7031V59.4844ZM74.8125 59.4844H75.9375V70.875H74.8125V59.4844ZM76.9219 59.4844H78.0469V70.875H76.9219V59.4844ZM78.8906 59.4844H80.0156V70.875H78.8906V59.4844ZM81 59.4844H82.125V70.875H81V59.4844ZM83.1094 59.4844H84.2344V70.875H83.1094V59.4844ZM87.4687 74.1094H101.25V87.8906H87.4687V74.1094ZM88.5937 75.2344H89.7187V86.625H88.5937V75.2344ZM90.7031 75.2344H91.8281V86.625H90.7031V75.2344ZM92.6719 75.2344H93.7969V86.625H92.6719V75.2344ZM94.7812 75.2344H95.9062V86.625H94.7812V75.2344ZM96.8906 75.2344H98.0156V86.625H96.8906V75.2344ZM99 75.2344H100.125V86.625H99V75.2344Z" fill="#23C2EE"/>
<path fill-rule="evenodd" clip-rule="evenodd" d="M87.4688 58.3594H101.25V72.1406H87.4688V58.3594ZM88.5937 59.4844H89.7187V70.875H88.5937V59.4844ZM90.7031 59.4844H91.8281V70.875H90.7031V59.4844ZM92.6719 59.4844H93.7969V70.875H92.6719V59.4844ZM94.7813 59.4844H95.9062V70.875H94.7813V59.4844ZM96.8906 59.4844H98.0156V70.875H96.8906V59.4844ZM99 59.4844H100.125V70.875H99V59.4844Z" fill="#00ACD3"/>
<path fill-rule="evenodd" clip-rule="evenodd" d="M87.4688 42.4688H101.25V56.25H87.4688V42.4688ZM88.5937 43.5937H89.7187V54.9844H88.5937V43.5937ZM90.7031 43.5937H91.8281V54.9844H90.7031V43.5937ZM92.6719 43.5937H93.7969V54.9844H92.6719V43.5937ZM94.7813 43.5937H95.9062V54.9844H94.7813V43.5937ZM96.8906 43.5937H98.0156V54.9844H96.8906V43.5937ZM99 43.5937H100.125V54.9844H99V43.5937Z" fill="#23C2EE"/>
<path fill-rule="evenodd" clip-rule="evenodd" d="M103.359 74.1094H117.141V87.8906H103.359V74.1094ZM104.484 75.2344H105.609V86.625H104.484V75.2344ZM106.453 75.2344H107.578V86.625H106.453V75.2344ZM108.562 75.2344H109.688V86.625H108.562V75.2344ZM110.672 75.2344H111.797V86.625H110.672V75.2344ZM112.781 75.2344H113.906V86.625H112.781V75.2344ZM114.891 75.2344H116.016V86.625H114.891V75.2344Z" fill="#00ACD3"/>
<path fill-rule="evenodd" clip-rule="evenodd" d="M68.625 110.109C70.7344 110.109 72.4219 111.797 72.4219 113.906C72.4219 116.016 70.7344 117.703 68.625 117.703C66.5156 117.703 64.8281 116.016 64.8281 113.906C64.8281 111.797 66.5156 110.109 68.625 110.109Z" fill="#D4EEF1"/>
<path fill-rule="evenodd" clip-rule="evenodd" d="M68.625 111.234C68.9062 111.234 69.3281 111.234 69.6094 111.375C69.3281 111.516 69.0469 111.938 69.0469 112.359C69.0469 112.922 69.6094 113.484 70.1719 113.484C70.5938 113.484 71.0156 113.203 71.1562 112.922C71.2969 113.203 71.2969 113.625 71.2969 113.906C71.2969 115.453 70.0312 116.578 68.625 116.578C67.0781 116.578 65.9531 115.313 65.9531 113.906C65.9531 112.5 67.0781 111.234 68.625 111.234ZM1.54688 102.375H177.891C174.094 101.391 165.797 100.125 167.062 95.0625C160.031 103.078 143.297 100.688 138.938 96.75C134.156 103.641 106.594 100.969 104.766 95.625C98.8594 102.656 80.4375 102.656 74.5312 95.625C72.5625 100.969 45 103.641 40.3594 96.75C36.1406 100.688 19.2656 103.078 12.2344 95.0625C13.7812 99.9844 5.34375 101.391 1.54688 102.375Z" fill="#3A4D54"/>
<path d="M78.75 137.531C69.3281 133.031 64.2656 126.984 61.3125 120.375C57.7969 121.359 53.5781 122.063 48.7969 122.344C46.9688 122.484 45 122.484 43.0313 122.484C40.6406 122.484 38.25 122.484 35.7188 122.344C44.1562 130.781 54.8438 137.391 74.3906 137.531H78.75Z" fill="#BFDBE0"/>
<path d="M64.8281 126.422C63.5625 124.594 62.2969 122.484 61.3125 120.375C57.7969 121.359 53.5781 122.063 48.7969 122.344C52.0313 124.031 56.8125 125.719 64.8281 126.422Z" fill="#D4EEF1"/>
</svg>
