<svg width="50" height="50" viewBox="0 0 50 50" fill="none" xmlns="http://www.w3.org/2000/svg">
<path fill-rule="evenodd" clip-rule="evenodd" d="M6.84028 14.8955L9.01419 17.0693C9.11505 17.1704 9.23484 17.2505 9.3667 17.3052C9.49856 17.3599 9.63992 17.388 9.78267 17.388C9.92542 17.388 10.0668 17.3599 10.1986 17.3052C10.3305 17.2505 10.4503 17.1704 10.5511 17.0693L14.9001 12.7216C15.0981 12.5166 15.2076 12.242 15.2051 11.9571C15.2027 11.6721 15.0884 11.3994 14.8868 11.1979C14.6853 10.9964 14.4127 10.8821 14.1277 10.8796C13.8427 10.8771 13.5681 10.9867 13.3631 11.1847L9.78267 14.764L8.37723 13.3585C8.17223 13.1606 7.89766 13.051 7.61267 13.0535C7.32767 13.056 7.05505 13.1703 6.85352 13.3718C6.65199 13.5733 6.53767 13.8459 6.5352 14.1309C6.53272 14.4159 6.64228 14.6905 6.84028 14.8955ZM18.4783 13.0401H25.0001C25.2883 13.0401 25.5648 12.9256 25.7687 12.7217C25.9725 12.5179 26.087 12.2414 26.087 11.9531C26.087 11.6649 25.9725 11.3884 25.7687 11.1846C25.5648 10.9807 25.2883 10.8662 25.0001 10.8662H18.4783C18.19 10.8662 17.9136 10.9807 17.7097 11.1846C17.5059 11.3884 17.3914 11.6649 17.3914 11.9531C17.3914 12.2414 17.5059 12.5179 17.7097 12.7217C17.9136 12.9256 18.19 13.0401 18.4783 13.0401ZM18.4783 17.3878H33.6957C33.984 17.3878 34.2605 17.2733 34.4643 17.0695C34.6682 16.8656 34.7827 16.5891 34.7827 16.3009C34.7827 16.0126 34.6682 15.7361 34.4643 15.5323C34.2605 15.3285 33.984 15.2139 33.6957 15.2139H18.4783C18.19 15.2139 17.9136 15.3285 17.7097 15.5323C17.5059 15.7361 17.3914 16.0126 17.3914 16.3009C17.3914 16.5891 17.5059 16.8656 17.7097 17.0695C17.9136 17.2733 18.19 17.3878 18.4783 17.3878ZM6.84028 25.7648L9.01419 27.9387C9.11505 28.0397 9.23484 28.1198 9.3667 28.1745C9.49856 28.2292 9.63992 28.2574 9.78267 28.2574C9.92542 28.2574 10.0668 28.2292 10.1986 28.1745C10.3305 28.1198 10.4503 28.0397 10.5511 27.9387L14.9001 23.5909C15.0981 23.3859 15.2076 23.1114 15.2051 22.8264C15.2027 22.5414 15.0884 22.2688 14.8868 22.0673C14.6853 21.8657 14.4127 21.7514 14.1277 21.7489C13.8427 21.7465 13.5681 21.856 13.3631 22.054L9.78267 25.6333L8.37723 24.2279C8.17223 24.0299 7.89766 23.9203 7.61267 23.9228C7.32767 23.9253 7.05505 24.0396 6.85352 24.2411C6.65199 24.4426 6.53767 24.7153 6.5352 25.0003C6.53272 25.2852 6.64228 25.5598 6.84028 25.7648ZM6.84028 36.6341L9.01419 38.808C9.11505 38.909 9.23484 38.9892 9.3667 39.0439C9.49856 39.0985 9.63992 39.1267 9.78267 39.1267C9.92542 39.1267 10.0668 39.0985 10.1986 39.0439C10.3305 38.9892 10.4503 38.909 10.5511 38.808L14.9001 34.4603C15.0981 34.2553 15.2076 33.9807 15.2051 33.6957C15.2027 33.4107 15.0884 33.1381 14.8868 32.9366C14.6853 32.7351 14.4127 32.6207 14.1277 32.6183C13.8427 32.6158 13.5681 32.7253 13.3631 32.9233L9.78267 36.5026L8.37723 35.0972C8.17223 34.8992 7.89766 34.7897 7.61267 34.7921C7.32767 34.7946 7.05505 34.9089 6.85352 35.1104C6.65199 35.312 6.53767 35.5846 6.5352 35.8696C6.53272 36.1546 6.64228 36.4291 6.84028 36.6341ZM18.4783 23.9094H33.6957C33.984 23.9094 34.2605 23.7949 34.4643 23.5911C34.6682 23.3872 34.7827 23.1107 34.7827 22.8225C34.7827 22.5342 34.6682 22.2577 34.4643 22.0539C34.2605 21.8501 33.984 21.7355 33.6957 21.7355H18.4783C18.19 21.7355 17.9136 21.8501 17.7097 22.0539C17.5059 22.2577 17.3914 22.5342 17.3914 22.8225C17.3914 23.1107 17.5059 23.3872 17.7097 23.5911C17.9136 23.7949 18.19 23.9094 18.4783 23.9094ZM18.4783 28.2571H27.1751C27.4633 28.2571 27.7398 28.1426 27.9437 27.9388C28.1475 27.7349 28.262 27.4585 28.262 27.1702C28.262 26.8819 28.1475 26.6055 27.9437 26.4016C27.7398 26.1978 27.4633 26.0833 27.1751 26.0833H18.4783C18.19 26.0833 17.9136 26.1978 17.7097 26.4016C17.5059 26.6055 17.3914 26.8819 17.3914 27.1702C17.3914 27.4585 17.5059 27.7349 17.7097 27.9388C17.9136 28.1426 18.19 28.2571 18.4783 28.2571ZM32.5903 38.8417L35.6642 41.9155C35.868 42.1193 36.1444 42.2338 36.4327 42.2338C36.7209 42.2338 36.9973 42.1193 37.2011 41.9155L43.349 35.7678C43.547 35.5628 43.6565 35.2883 43.6541 35.0033C43.6516 34.7183 43.5373 34.4457 43.3357 34.2442C43.1342 34.0426 42.8616 33.9283 42.5766 33.9258C42.2916 33.9234 42.017 34.0329 41.812 34.2309L36.4327 39.6102L34.1272 37.3048C33.9222 37.1068 33.6477 36.9972 33.3627 36.9997C33.0777 37.0022 32.8051 37.1165 32.6035 37.318C32.402 37.5195 32.2877 37.7922 32.2852 38.0771C32.2827 38.3621 32.3923 38.6367 32.5903 38.8417ZM18.4783 34.7787H22.8272C23.1155 34.7787 23.392 34.6642 23.5958 34.4604C23.7997 34.2565 23.9142 33.9801 23.9142 33.6918C23.9142 33.4035 23.7997 33.1271 23.5958 32.9232C23.392 32.7194 23.1155 32.6049 22.8272 32.6049H18.4783C18.19 32.6049 17.9136 32.7194 17.7097 32.9232C17.5059 33.1271 17.3914 33.4035 17.3914 33.6918C17.3914 33.9801 17.5059 34.2565 17.7097 34.4604C17.9136 34.6642 18.19 34.7787 18.4783 34.7787ZM18.4783 39.1265H22.8272C23.1155 39.1265 23.392 39.012 23.5958 38.8081C23.7997 38.6043 23.9142 38.3278 23.9142 38.0395C23.9142 37.7513 23.7997 37.4748 23.5958 37.271C23.392 37.0671 23.1155 36.9526 22.8272 36.9526H18.4783C18.19 36.9526 17.9136 37.0671 17.7097 37.271C17.5059 37.4748 17.3914 37.7513 17.3914 38.0395C17.3914 38.3278 17.5059 38.6043 17.7097 38.8081C17.9136 39.012 18.19 39.1265 18.4783 39.1265Z" fill="#204285"/>
<path fill-rule="evenodd" clip-rule="evenodd" d="M38.0446 49.9989H5.43478C3.99339 49.9989 2.61103 49.4263 1.59181 48.4071C0.572591 47.3879 0 46.0056 0 44.5642V5.43466C0 3.9933 0.572591 2.61097 1.59181 1.59178C2.61103 0.572579 3.99339 0 5.43478 0H27.5478C28.9891 0 30.3717 0.572814 31.3913 1.59127L39.713 9.91392C40.7317 10.9332 41.3041 12.3152 41.3043 13.7562V26.5375C46.3207 27.957 50.0011 32.5732 50.0011 38.0427C50.0011 44.6414 44.6435 49.9989 38.0446 49.9989ZM39.1304 26.1353V13.7562C39.1304 13.5149 39.1033 13.2758 39.0511 13.0432H33.6967C32.2553 13.0432 30.873 12.4706 29.8538 11.4514C28.8345 10.4322 28.262 9.04989 28.262 7.60853V2.25321C28.0277 2.2 27.7881 2.17338 27.5478 2.17387H5.43478C4.56995 2.17387 3.74053 2.51741 3.129 3.12893C2.51747 3.74045 2.17391 4.56985 2.17391 5.43466V44.5642C2.17391 45.4291 2.51747 46.2585 3.129 46.87C3.74053 47.4815 4.56995 47.825 5.43478 47.825H31.1728C29.6016 46.723 28.3191 45.2586 27.434 43.5557C26.5489 41.8529 26.0872 39.9618 26.088 38.0427C26.088 31.4439 31.4457 26.0864 38.0446 26.0864C38.4109 26.0864 38.7728 26.1027 39.1304 26.1353ZM38.0446 28.2603C43.4435 28.2603 47.8272 32.6439 47.8272 38.0427C47.8272 43.4414 43.4435 47.825 38.0446 47.825C32.6457 47.825 28.262 43.4414 28.262 38.0427C28.262 32.6439 32.6457 28.2603 38.0446 28.2603ZM30.4359 3.71079V7.60853C30.4359 8.47335 30.7794 9.30274 31.391 9.91426C32.0025 10.5258 32.8319 10.8693 33.6967 10.8693H37.5935L30.4359 3.71079Z" fill="#204285"/>
</svg>
