<svg width="26" height="26" viewBox="0 0 24 24" fill="none" xmlns="http://www.w3.org/2000/svg" style="cursor:pointer;transition:all 0.2s ease-in-out"><circle cx="12" cy="12" r="10.5" fill="none" stroke="#204285" stroke-width="1.5"></circle><path d="M13.5 8.5H14.5C14.7761 8.5 15 8.27614 15 8V6.5C15 6.22386 14.7761 6 14.5 6H13.5C12.1193 6 11 7.11929 11 8.5V10H10C9.72386 10 9.5 10.2239 9.5 10.5V12C9.5 12.2761 9.72386 12.5 10 12.5H11V17C11 17.2761 11.2239 17.5 11.5 17.5H13C13.2761 17.5 13.5 17.2761 13.5 17V12.5H14.5C14.7761 12.5 15 12.2761 15 12V10.5C15 10.2239 14.7761 10 14.5 10H13.5V8.5Z" fill="#204285"></path></svg>