<svg width="180" height="180" viewBox="0 0 180 180" fill="none" xmlns="http://www.w3.org/2000/svg">
<g clip-path="url(#clip0_446_4575)">
<path d="M137.812 0H42.1875C18.888 0 0 18.888 0 42.1875V137.812C0 161.112 18.888 180 42.1875 180H137.812C161.112 180 180 161.112 180 137.812V42.1875C180 18.888 161.112 0 137.812 0Z" fill="#242938"/>
<mask id="mask0_446_4575" style="mask-type:luminance" maskUnits="userSpaceOnUse" x="42" y="19" width="95" height="142">
<path d="M42.8906 19.6875H136.659V160.312H42.8906V19.6875Z" fill="white"/>
</mask>
<g mask="url(#mask0_446_4575)">
<path d="M66.3384 160.313C79.2759 160.313 89.7756 149.813 89.7756 136.875V113.438H66.3384C53.4009 113.438 42.9004 123.938 42.9004 136.875C42.9004 149.813 53.4009 160.313 66.3384 160.313Z" fill="#0ACF83"/>
<path d="M42.9004 89.9998C42.9004 77.0623 53.4009 66.5625 66.3384 66.5625H89.7756V113.437H66.3384C53.4009 113.437 42.9004 102.937 42.9004 89.9998Z" fill="#A259FF"/>
<path d="M42.9004 43.1248C42.9004 30.1873 53.4009 19.6875 66.3384 19.6875H89.7756V66.5627H66.3384C53.4009 66.5627 42.9004 56.0623 42.9004 43.1248Z" fill="#F24E1E"/>
<path d="M89.7754 19.6875H113.213C126.15 19.6875 136.651 30.1873 136.651 43.1248C136.651 56.0623 126.15 66.5627 113.213 66.5627H89.7754V19.6875Z" fill="#FF7262"/>
<path d="M136.651 89.9998C136.651 102.937 126.15 113.437 113.213 113.437C100.275 113.437 89.7754 102.937 89.7754 89.9998C89.7754 77.0623 100.275 66.5625 113.213 66.5625C126.15 66.5625 136.651 77.0623 136.651 89.9998Z" fill="#1ABCFE"/>
</g>
</g>
<defs>
<clipPath id="clip0_446_4575">
<rect width="180" height="180" fill="white"/>
</clipPath>
</defs>
</svg>
