<svg width="180" height="180" viewBox="0 0 180 180" fill="none" xmlns="http://www.w3.org/2000/svg">
<g clip-path="url(#clip0_446_4726)">
<path d="M24.5723 145.233L46.7277 3.4629C46.8604 2.61564 47.256 1.83149 47.8584 1.22119C48.4609 0.610895 49.2399 0.205299 50.0854 0.0616927C50.9309 -0.0819134 51.8001 0.0437283 52.5703 0.420872C53.3405 0.798015 53.9727 1.4076 54.3777 2.16352L77.2912 44.8995L86.4234 27.5098C86.7706 26.8502 87.2914 26.2979 87.9296 25.9127C88.5677 25.5274 89.299 25.3238 90.0444 25.3238C90.7899 25.3238 91.5212 25.5274 92.1593 25.9127C92.7975 26.2979 93.3183 26.8502 93.6656 27.5098L155.498 145.233H24.5723Z" fill="#FFA000"/>
<path d="M101.113 90.0063L77.2799 44.877L24.5723 145.231L101.113 90.0063Z" fill="#F57C00"/>
<path d="M155.498 145.232L138.529 40.2242C138.404 39.484 138.077 38.7925 137.585 38.2255C137.093 37.6585 136.454 37.2378 135.739 37.0095C135.024 36.7817 134.26 36.7549 133.531 36.932C132.802 37.1091 132.136 37.4832 131.605 38.0136L24.5723 145.23L83.7965 178.443C85.6255 179.464 87.6854 180 89.7801 180C91.8748 180 93.9346 179.464 95.7637 178.443L155.498 145.232Z" fill="#FFCA28"/>
<path d="M138.531 40.2253C138.405 39.4851 138.079 38.7936 137.586 38.2266C137.094 37.6597 136.456 37.239 135.741 37.0106C135.026 36.7827 134.262 36.7556 133.533 36.9325C132.804 37.1093 132.137 37.4832 131.606 38.0133L110.362 59.3137L93.6571 27.51C93.3099 26.8504 92.7891 26.2981 92.1509 25.9129C91.5127 25.5276 90.7814 25.324 90.036 25.324C89.2906 25.324 88.5593 25.5276 87.9211 25.9129C87.283 26.2981 86.7622 26.8504 86.4149 27.51L77.2827 44.8983L54.3693 2.16373C53.9638 1.40676 53.3304 0.796545 52.5589 0.419487C51.7874 0.0424293 50.9168 -0.0823594 50.0704 0.0627922C49.2246 0.207904 48.4458 0.615247 47.8442 1.22721C47.2426 1.83918 46.8486 2.62479 46.7179 3.47295L24.5737 145.233H24.502L24.5723 145.314L25.1559 145.601L131.575 39.0581C132.106 38.525 132.773 38.1486 133.504 37.9701C134.235 37.7915 135.001 37.8179 135.717 38.0462C136.434 38.2745 137.074 38.6959 137.567 39.2642C138.06 39.8324 138.386 40.5255 138.511 41.2673L155.337 145.334L155.5 145.231L138.531 40.2253ZM24.7677 145.039L46.7277 4.4756C46.8582 3.62699 47.2523 2.84092 47.8542 2.22866C48.4561 1.6164 49.2354 1.20897 50.0816 1.06404C50.9282 0.919013 51.7989 1.04401 52.5704 1.42133C53.342 1.79865 53.9752 2.40916 54.3805 3.16639L77.2912 45.9023L86.4248 28.5126C86.772 27.853 87.2928 27.3008 87.931 26.9155C88.5692 26.5303 89.3004 26.3267 90.0459 26.3267C90.7913 26.3267 91.5226 26.5303 92.1607 26.9155C92.7989 27.3008 93.3197 27.853 93.667 28.5126L110.033 59.64L24.7649 145.039H24.7677Z" fill="white" fill-opacity="0.2"/>
<path opacity="0.2" d="M95.7645 177.441C93.9355 178.462 91.8756 178.997 89.7809 178.997C87.6862 178.997 85.6264 178.462 83.7973 177.441L24.7137 144.323L24.5703 145.233L83.7945 178.435C85.6236 179.456 87.6834 179.992 89.7781 179.992C91.8728 179.992 93.9327 179.456 95.7617 178.435L155.499 145.233L155.345 144.291L95.7617 177.443L95.7645 177.441Z" fill="#A52714"/>
</g>
<defs>
<clipPath id="clip0_446_4726">
<rect width="180" height="180" fill="white"/>
</clipPath>
</defs>
</svg>
