<svg width="180" height="180" viewBox="0 0 180 180" fill="none" xmlns="http://www.w3.org/2000/svg">
<g clip-path="url(#clip0_446_4695)">
<path d="M137.812 0H42.1875C18.888 0 0 18.888 0 42.1875V137.812C0 161.112 18.888 180 42.1875 180H137.812C161.112 180 180 161.112 180 137.812V42.1875C180 18.888 161.112 0 137.812 0Z" fill="#242938"/>
<path d="M63.1252 136.354C58.036 132.351 52.6065 128.514 48.8975 123.11C41.0914 113.579 35.0811 102.545 30.972 90.9508C28.4886 83.4105 27.6385 75.3273 24.4365 68.0781C21.0875 62.8138 25.0109 57.0594 30.7772 55.386C33.3444 54.8931 37.8591 52.4715 32.4099 54.2019C27.5246 57.7865 27.0521 50.9486 32.0612 50.5155C35.4797 50.0612 36.7383 47.2621 35.5697 44.7428C31.8994 42.3494 44.4685 39.719 38.1446 36.1485C31.5563 29.0399 47.3597 27.6723 43.4602 35.7442C42.5272 41.9521 54.5035 34.6065 51.7247 41.7749C54.5492 45.2174 62.3012 42.5582 62.1085 47.388C66.2232 47.6706 67.6351 51.1321 71.4973 51.3979C75.5002 53.2056 82.7565 54.6301 84.1184 59.1407C80.1472 62.2851 70.9517 52.6466 70.5094 61.3492C71.709 74.2058 71.4038 87.4499 76.1077 99.6927C78.3324 107.106 83.7261 112.942 88.5966 118.715C93.2576 124.37 99.5703 128.351 106.005 131.702C111.649 134.365 117.734 136.13 123.886 137.237C126.38 135.329 130.786 128.235 134.678 131.226C134.862 134.588 126.953 138.254 134.305 137.882C138.623 136.579 141.618 141.221 145.174 137.034C148.449 140.914 158.789 134.555 156.458 142.486C153.307 144.52 148.71 143.291 145.553 146.088C140.348 143.488 136.205 148.414 130.442 147.791C124.043 148.937 117.533 149.4 111.045 149.41C100.402 148.569 89.5332 148.215 79.4082 144.509C73.7044 142.852 68.1378 139.603 63.1252 136.354ZM72.114 140.249C77.6834 142.658 83.1298 145.196 89.2337 145.962C98.9178 147.309 108.918 149.38 118.637 147.491C114.238 145.505 109.691 148.265 105.309 146.071C100.053 147.201 94.4129 145.783 89.0705 145.084C82.9941 142.377 76.4375 140.517 70.7478 137.003C63.6378 134.407 74.4244 140.334 76.3447 140.814C80.7891 143.336 71.4572 139.521 70.1417 138.472C66.4194 136.384 65.9447 136.821 69.7733 138.941C70.5439 139.392 71.3061 139.865 72.114 140.249ZM61.5158 132.759C66.9129 134.759 61.4919 128.965 59.019 129.301C57.9228 127.4 54.8326 126.199 57.0129 125.177C53.0909 126.539 52.9046 120 51.061 120.935C46.9126 119.625 49.4466 114.984 44.5044 112.134C44.0529 109.131 39.5944 106.526 38.172 101.997C37.5441 99.6779 33.1348 93.0179 35.8433 99.216C38.1495 105.183 42.2072 110.292 45.5844 115.396C48.207 120.255 51.3029 125.334 56.0785 128.365C57.6887 129.91 59.2426 132.276 61.5158 132.759ZM45.9676 115.689C46.156 114.874 46.9547 117.453 45.9676 115.689V115.689ZM67.9796 135.156C66.2604 134.482 69.1749 134.621 67.9796 135.156V135.156ZM70.9095 136.225C69.5715 137.05 70.6058 134.749 70.9095 136.225V136.225ZM74.5763 137.754C71.8855 136.707 76.3222 136.092 74.5763 137.754V137.754ZM80.8622 141.258C77.4662 140.666 81.9233 139.689 80.8622 141.258V141.258ZM68.7924 132.844C65.2894 132.82 71.5037 131.089 68.7924 132.844V132.844ZM71.543 134.215C70.5629 134.631 71.4664 133.288 71.543 134.215V134.215ZM85.2933 142.798C87.5033 144.193 98.2006 145.855 91.5026 143.369C90.3819 143.606 79.0819 140.174 85.2933 142.798ZM63.4648 125.797C60.0336 124.77 63.2497 124.867 63.4648 125.797V125.797ZM69.8661 129.528C66.4081 128.631 71.5318 128.366 69.8661 129.528V129.528ZM75.2499 132.829C71.3722 131.923 77.6405 131.927 75.2499 132.829V132.829ZM60.8597 122.961C63.4543 124.95 71.3201 123.215 64.8324 121.773C61.8793 120.199 55.2235 119.121 59.7601 122.722L60.8597 122.961ZM78.897 133.969C74.3661 132.917 79.977 132.128 78.897 133.969V133.969ZM73.4162 129.613C79.7583 131.407 68.083 125.602 71.851 128.953L72.6863 129.331L73.4162 129.613ZM84.4046 135.964C78.9793 135.136 90.4114 136.022 84.4046 135.964V135.964ZM58.5486 119.485C57.0664 119.579 58.3144 118.366 58.5486 119.485V119.485ZM94.5648 141.664C92.6051 143.167 94.7251 139.643 94.5648 141.664V141.664ZM68.7994 125.762C66.9221 125.719 68.4359 124.699 68.7994 125.762V125.762ZM59.1188 118.783C54.3973 117.264 62.5669 118.576 59.1188 118.783V118.783ZM47.6508 111.37C43.8983 108.399 47.2219 109.717 47.6508 111.37V111.37ZM77.7572 130.477C77.1251 129.756 77.4598 130.634 77.7572 130.477V130.477ZM96.4962 141.977C95.476 142.393 96.4365 140.875 96.4962 141.977V141.977ZM76.0986 128.764C73.1581 128.335 76.4361 127.346 76.0986 128.764V128.764ZM62.138 119.917C58.0283 118.182 64.7037 119.642 62.138 119.917V119.917ZM85.7532 134.591C81.8572 133.817 89.7512 133.007 85.7532 134.591V134.591ZM73.4696 126.253C78.0772 126.847 67.9873 123.119 72.4585 125.919L73.4696 126.253ZM89.4826 136.098C93.7843 133.526 92.3661 142.12 96.781 136.824C101.135 133.645 93.02 140.755 98.3869 137.391C102.268 134.796 108.001 138.622 111.623 139.87C114.227 139.742 116.758 142.122 119.429 140.674C124.568 139.29 109.378 138.621 113.36 136.165C108.657 137.534 105.183 134.533 102.869 131.521C97.5931 130.303 91.4942 127.606 88.8617 122.938C87.788 121.185 90.4121 123.185 87.935 120.32C84.7562 117.492 83.1692 114.283 81.0352 110.846C78.4857 109.487 78.189 105.484 77.9316 110.712C77.9513 107.412 74.8533 105.191 74.0975 106.114C74.0841 102.937 77.4127 104.53 75.0826 102.178C74.5812 98.8848 72.9296 95.4522 72.4332 91.7333C71.6619 89.9411 72.3242 86.102 69.8007 90.1598C68.881 94.4488 69.4955 84.8898 70.925 88.0419C72.8023 84.8251 70.2514 85.2034 70.1473 85.6499C71.3694 82.9366 70.9208 79.0869 69.8281 80.5551C70.4792 77.6786 70.8575 69.9695 68.8529 71.3357C70.0679 68.3277 71.157 57.572 65.8829 61.6726C63.7454 61.7029 60.0448 62.4489 58.2947 63.3187C63.7805 66.3421 57.7435 64.4106 55.5104 63.9304C55.2193 66.7288 53.0072 65.518 50.244 65.5455C54.6575 66.0918 48.0952 70.0595 45.5633 68.5183C42.2747 70.0897 48.4011 74.0125 45.6287 75.2254C45.9697 77.0542 40.5915 74.5651 41.014 78.7881C37.8219 77.4451 40.5746 83.7972 42.1714 81.6491C47.6009 83.1187 45.9936 86.4683 46.1321 89.6507C45.2469 91.5055 41.7643 85.292 45.3558 85.5803C42.5222 80.9769 42.2213 83.916 39.8665 86.0549C39.3188 86.2096 45.8733 89.0973 41.7601 90.5254C45.3783 91.0837 45.4817 94.2498 46.2179 96.2537C48.3933 98.5192 47.9476 93.7527 50.5505 96.4745C48.9038 94.0494 41.8276 89.6408 47.525 91.0548C47.4947 88.6136 46.4942 86.6455 48.2401 86.6933C49.9683 83.563 46.4295 94.4115 50.3255 90.4333C51.4041 89.9622 51.6713 87.2987 53.6105 90.6843C56.4258 93.4546 54.6272 95.462 50.6553 92.9251C51.3654 95.3362 55.9688 96.1975 55.104 99.9676C56.0208 103.283 57.304 102.062 58.422 101.87C59.2995 105.092 59.7973 102.723 59.8388 101.19C63.8558 102.05 62.915 104.424 64.1715 106.083C66.939 107.332 60.2101 97.6143 64.9618 103.161C69.961 107.675 66.8363 109.559 62.3504 108.835C65.1896 108.606 66.1051 112.675 69.6572 112.532C72.8958 114.072 75.0889 119.991 69.5061 117.527C67.5697 115.781 60.717 113.627 66.3139 116.948C71.4833 119.342 75.5888 120.774 80.5747 123.778C84.1423 126.326 85.6836 129.243 87.0364 129.82C84.0376 131.252 77.9991 128.677 82.4829 127.887C79.6866 127.378 76.5408 125.964 79.2197 129.448C81.4972 131.35 87.2895 131.148 88.328 131.364C87.4477 133.303 85.9374 133.457 88.3639 133.608C85.6569 135.051 89.2315 135.274 89.4826 136.098ZM83.9469 120.465C82.2994 118.742 81.874 115.516 83.6544 118.323C84.567 118.69 86.5794 123.595 83.9469 120.465ZM101.976 131.917C102.005 132.697 103.003 131.85 101.976 131.917V131.917ZM81.346 116.241C81.2827 113.637 81.9415 118.25 81.346 116.241V116.241ZM79.5544 113.83C77.4823 109.828 82.1658 114.964 79.5544 113.83V113.83ZM57.8398 98.8433C58.4389 100.925 59.0569 98.5185 57.8398 98.8433V98.8433ZM75.1219 108.21C75.8694 105.404 76.0001 110.566 75.1219 108.21V108.21ZM62.9129 99.7215C62.0522 98.1726 64.7129 101.174 62.9129 99.7215V99.7215ZM73.3908 103.08C71.4277 98.6823 74.7802 100.678 73.8247 103.801L73.3908 103.08ZM55.3212 91.0295C54.4437 89.5874 52.9925 85.3539 53.4594 84.0615C53.8826 86.166 57.9355 93.1185 55.4478 86.9415C52.6986 81.7637 58.7335 88.6227 59.3544 89.9137C59.6433 91.199 57.6584 89.5628 59.0028 92.5757C56.5503 89.1458 57.5551 94.4699 55.3212 91.0295ZM49.737 87.182C49.9669 83.8274 51.0153 89.4819 49.737 87.182V87.182ZM52.2493 88.0462C53.4474 85.5149 54.2813 91.5758 52.2493 88.0462V88.0462ZM46.2066 83.3718C44.1275 81.306 42.6228 79.4019 46.3036 82.09C47.7219 82.1455 43.1529 77.7587 46.6454 80.6971C50.3178 81.3665 48.4594 86.7187 46.2066 83.3718ZM49.3805 83.2888C50.0218 84.4673 50.5878 82.0928 49.3805 83.2888V83.2888ZM51.3338 83.9153C49.5029 80.484 53.5557 85.3539 51.3338 83.9153V83.9153ZM47.4512 80.2049C41.4071 74.826 55.0456 83.0174 48.4383 81.2019L47.4512 80.2049ZM64.7684 90.2666C62.1528 88.6987 64.0751 79.2262 64.9667 85.7047C67.5099 84.8821 64.8261 89.0502 66.7231 89.0115C66.4243 91.6412 65.5756 92.5869 64.7684 90.2666ZM71.1732 94.0522C71.4298 91.1976 71.7132 96.0041 71.1732 94.0522V94.0522ZM70.0608 92.9526C70.0904 94.389 70.3491 91.7333 70.0608 92.9526V92.9526ZM48.6366 78.4372C44.754 73.0801 59.9218 83.8562 51.1236 79.7964C50.2046 79.5559 49.0986 79.4701 48.6366 78.4372ZM60.9708 84.977C60.6038 80.4665 61.7914 85.7244 60.9708 84.977V84.977ZM70.3358 90.9845C70.3899 92.684 71.06 88.4146 70.3358 90.9845V90.9845ZM49.2315 76.3926C51.5391 75.899 58.7954 80.4461 52.1319 77.6912C51.3915 76.8721 49.8129 77.244 49.2315 76.3926ZM69.049 86.2701C69.2951 81.6576 70.4265 83.5145 69.0575 86.9303L69.049 86.2701ZM50.9492 74.788C51.89 73.4085 48.4531 68.5513 51.4449 73.0457C52.7372 74.073 55.1869 74.7662 53.0241 75.1987C56.4258 78.1996 52.1937 76.0115 50.9492 74.788ZM68.0696 84.8294C68.6426 87.9076 68.7193 79.5749 68.0696 84.8294V84.8294ZM48.9868 69.9351C49.3658 70.892 49.704 69.6278 48.9868 69.9351V69.9351ZM53.4516 72.5929C54.6012 70.1812 55.5715 75.2823 53.4516 72.5929V72.5929ZM66.0474 79.5995C66.0354 78.6735 66.2851 80.9467 66.0474 79.5995V79.5995ZM65.3183 77.9844C63.5696 73.6715 66.9446 80.2682 65.3183 77.9844V77.9844ZM64.2446 75.1565C63.9514 73.374 65.2416 77.3952 64.2446 75.1565V75.1565ZM65.9919 72.3165C64.7916 70.2022 67.5064 63.0001 67.8094 67.4671C66.5438 70.9476 67.4438 72.8945 68.3276 68.2265C69.9589 64.5519 67.9754 75.4764 65.9919 72.3165ZM67.7869 61.6051C67.9029 62.3786 68.3101 60.9632 67.7869 61.6051V61.6051ZM64.7888 120.683C64.0779 120.062 64.8781 121.078 64.7888 120.683V120.683ZM70.9651 123.808C74.4005 124.689 74.3829 123.273 71.278 122.852C69.608 121.298 64.3381 119.651 69.0547 122.66C69.3676 123.451 70.354 123.432 70.9651 123.808ZM58.7672 115.706C60.6601 117.117 65.8969 119.706 61.4637 116.243C62.9579 114.506 58.6027 113.582 60.0476 112.421C56.3724 110.172 57.1487 110.372 59.7228 110.443C55.3072 108.468 60.3605 108.616 60.1229 107.605C58.4199 107.268 51.6643 104.602 55.6383 107.824C51.5982 105.764 54.6751 108.591 53.4544 108.293C49.3236 107.166 57.1339 111.438 52.7984 110.378C55.168 112.256 59.1779 115.189 53.8004 112.366C53.0916 113.385 57.6486 114.932 58.7672 115.706ZM65.2269 119.417C61.3758 116.324 73.0815 121.947 65.2269 119.417V119.417ZM98.2941 139.449C97.2212 140.778 98.3954 137.891 98.2941 139.449V139.449ZM101.693 140.88C103.505 139.123 101.767 143.677 104.696 140.449C104.728 138.14 104.605 136.775 101.33 139.581C100.427 140.082 100.025 142.211 101.693 140.88ZM47.7422 106.997C43.8413 104.821 47.1854 104.809 47.7422 106.997V106.997ZM51.3711 109.375C46.5624 107.353 50.0239 107.141 51.3711 109.375V109.375ZM72.0176 121.827C74.0335 123.617 81.2764 123.141 74.4666 122.047C73.4576 120.556 68.0619 120.915 72.0176 121.827ZM100.401 139.355C97.3941 140.517 103.503 136.752 100.401 139.355V139.355ZM106.853 143.789C105.516 144.156 106.872 142.954 106.853 143.789V143.789ZM106.863 142.62C103.534 142.835 110.299 138.98 106.863 142.62V142.62ZM38.8161 99.524C35.8876 95.346 36.995 93.4679 34.1719 90.0571C33.6376 87.4485 29.3274 81.5282 31.943 87.8001C34.3379 91.4676 35.0501 97.1467 38.8161 99.524ZM105.785 141.463C103.191 139.683 112.106 137.377 105.785 141.463V141.463ZM110.61 143.353C108.608 142.784 113.776 140.635 110.61 143.353V143.353ZM46.6665 102.379C44.3265 102.206 47.5721 101.031 46.6665 102.379V102.379ZM109.602 142.062C112.667 140.087 108.897 140.39 109.047 142.244L109.602 142.062ZM68.0098 115.847C66.3919 115.96 67.9044 114.512 68.0098 115.847V115.847ZM70.5804 117.326C69.3247 117.585 69.7634 115.674 70.5804 117.326V117.326ZM114.519 143.398C118.446 140.565 112.139 142.855 113.695 143.934L114.519 143.398ZM113.016 142.671C109.639 143.859 116.215 139.991 113.016 142.671V142.671ZM120.698 147.786C118.088 147.321 122.845 146.349 120.698 147.786V147.786ZM48.6345 101.407C51.5138 102.052 60.1383 108.497 55.0505 101.853C52.444 101.081 54.0071 94.7111 51.3493 95.8389C53.1331 98.8194 52.8167 100.088 49.0712 98.2091C44.363 95.9106 46.4253 99.3475 47.345 100.295C46.0913 100.58 49.0037 101.383 48.6345 101.407ZM35.5212 91.0499C36.0366 88.9187 30.7758 79.3239 33.0371 86.2426C33.8527 87.6918 33.7705 90.4382 35.5212 91.0499ZM59.592 105.89C58.1098 104.65 59.5217 105.715 59.592 105.89V105.89ZM63.2426 106.74C59.2074 105.823 63.2405 104.482 63.2426 106.74V106.74ZM94.8741 126.681C92.4891 126.645 94.2708 125.138 94.8741 126.681V126.681ZM96.3929 127.79C95.5168 127.957 96.1686 126.927 96.3929 127.79V127.79ZM108.93 135.687C107.426 135.574 110.136 134.796 108.93 135.687V135.687ZM42.0722 92.7226C38.3766 91.7699 45.5211 91.3867 42.0722 92.7226V92.7226ZM92.089 124.234C89.8904 124.787 92.0511 122.001 92.089 124.234V124.234ZM40.7096 89.5466C38.66 89.0537 42.9244 88.7985 40.7096 89.5466V89.5466ZM47.1397 92.6622C46.4597 92.9399 47.0996 91.9281 47.1397 92.6622V92.6622ZM125.574 140.759C128.423 140.181 134.915 142.209 135.965 140.004C132.505 139.919 123.995 137.562 123.592 140.566L124.35 140.685L125.574 140.759ZM49.1829 93.1769C47.4181 93.0925 49.2322 90.9142 49.1829 93.1769V93.1769ZM32.2756 81.4487C29.3548 80.7962 31.5071 77.1372 32.2756 81.4487V81.4487ZM36.3073 82.4619C32.6166 81.216 36.3565 81.0775 36.3073 82.4619V82.4619ZM38.6115 83.5933C37.9449 83.054 38.0897 84.2753 38.6115 83.5933V83.5933ZM53.1092 92.8935C51.4927 92.4294 53.7912 92.267 53.1092 92.8935V92.8935ZM37.0758 81.0416C32.4064 80.5537 36.6863 77.7855 37.0758 81.0416V81.0416ZM28.8099 75.6782C28.0041 76.2449 28.6925 74.1749 28.8099 75.6782V75.6782ZM30.0397 74.7494C28.9836 74.9758 29.8386 72.9676 30.0397 74.7494V74.7494ZM36.8333 78.8043C39.7055 77.6758 31.6006 76.4706 36.2462 78.5912L36.8333 78.8043ZM127.753 134.964C125.416 134.443 129.592 133.279 127.753 134.964V134.964ZM138.737 140.658C136.882 140.945 139.474 138.479 138.737 140.658V140.658ZM37.528 75.2437C35.2498 75.662 37.8303 73.1357 37.528 75.2437V75.2437ZM27.8628 68.7679C27.3432 65.7915 27.4142 60.5666 32.3804 62.3322C25.7513 63.6484 36.969 70.5721 35.5522 65.106C38.3401 65.2424 41.0056 63.4586 39.5424 66.1656C45.0345 65.5588 48.8426 60.7965 54.1477 61.4638C58.28 60.9168 62.7983 60.5019 67.2512 58.839C70.9123 58.5747 74.4371 54.6329 72.4304 52.2965C67.4375 51.8746 62.2104 52.499 56.6916 53.5958C50.5765 54.8671 45.0219 57.2823 38.8512 58.3194C32.8367 59.1273 40.0606 60.5448 38.338 60.8612C35.1999 61.9497 42.0807 62.6844 37.9315 63.8319C35.3687 63.3447 32.701 62.4644 33.7958 59.7637C28.0344 60.5111 22.9726 62.9024 27.5239 68.7651L27.8628 68.7679ZM41.7446 61.698C43.0953 56.7212 48.9819 65.7923 43.9594 62.3589C43.359 61.9096 42.3725 61.5433 41.7446 61.698ZM42.0076 59.2848C43.044 60.099 43.9573 57.8329 42.0076 59.2848V59.2848ZM44.4826 59.3242C44.659 57.0348 50.1497 60.5364 45.3882 60.149L44.4826 59.3242ZM47.8695 57.9629C48.2246 59.2483 49.1063 56.518 47.8695 57.9629V57.9629ZM48.7358 57.3829C50.7945 54.9086 60.3964 55.8037 53.3687 57.1417C51.4843 55.7235 50.0408 57.9777 48.7351 57.3829M61.2655 55.4514C60.9526 48.693 67.4909 57.8526 61.2655 55.4514V55.4514ZM64.8212 55.4317C66.1212 52.0258 69.8654 54.0648 65.4223 54.7476C65.5194 55.1097 65.2922 56.5054 64.8212 55.4317ZM36.1252 73.4957C32.0021 71.432 40.0093 71.117 36.1252 73.4957V73.4957ZM38.9968 74.293C36.038 73.7059 40.3587 72.8453 38.9968 74.293V74.293ZM30.5354 68.2883C27.9092 67.6401 32.7544 66.5833 30.5354 68.2883V68.2883ZM145.22 140.035C143.524 140.926 145.285 138.057 145.22 140.035V140.035ZM133.567 132.082C132.069 132.281 133.898 129.805 133.567 132.082V132.082ZM148.425 140.802C151.528 140.812 157.826 139.838 151.075 139.841C150.015 140.006 144.902 139.971 148.425 140.802ZM41.5238 72.8973C44.0347 72.7251 45.4529 70.127 41.0387 70.2768C34.1965 69.5687 47.0743 72.6196 40.1597 71.747C39.2316 72.3623 41.4697 73.0675 41.5238 72.8973ZM43.7351 74.0167C42.9589 74.8738 43.4729 72.4044 43.7351 74.0167V74.0167ZM46.3585 67.0213C44.851 66.6599 47.4483 65.6699 46.3585 67.0213V67.0213ZM38.0075 53.0615C42.4892 51.5371 48.6176 49.8236 50.734 53.8124C48.5804 51.22 49.865 48.6683 51.8984 52.4582C54.7749 56.293 56.2149 50.7144 54.3439 49.4277C56.4758 52.0771 58.9001 53.3287 55.7712 49.5958C59.1722 45.505 48.9629 50.1308 46.6426 50.0844C45.526 50.5858 35.1155 52.7394 38.0075 53.0615ZM40.6337 48.0313C43.1895 46.1019 49.474 49.1788 45.4416 46.1139C45.0472 45.7658 36.6104 48.4377 40.6337 48.0313ZM49.9522 48.4159C52.9433 48.4926 48.6619 44.3976 52.2261 46.2531C51.6411 44.3406 48.0762 43.982 46.3339 43.2184C45.3474 44.9664 48.3399 48.4391 49.9522 48.4159ZM42.2677 39.9573C40.4537 40.6682 43.3027 38.5546 42.2677 39.9573V39.9573ZM46.0765 40.8686C50.8972 40.2294 44.8475 38.7929 45.1048 40.8172L46.0765 40.8686ZM38.9651 35.3047C35.5704 30.8737 45.3481 36.0494 41.9 31.4094C38.9975 29.099 36.2082 34.011 38.9651 35.3047ZM82.5251 58.7673C84.0819 56.0076 76.0979 55.0478 81.4761 57.7893C81.9718 57.9545 81.8593 58.9586 82.5251 58.7673Z" fill="white"/>
</g>
<defs>
<clipPath id="clip0_446_4695">
<rect width="180" height="180" fill="white"/>
</clipPath>
</defs>
</svg>
