<svg width="24" height="24" viewBox="0 0 24 24" fill="none" xmlns="http://www.w3.org/2000/svg">
<path d="M15.3928 18L15.5661 21.5156L12.0101 19.0444L8.43416 21.518L8.60764 18H7.10582L6.84697 23.25H8.56691L12.0081 20.8697L15.4334 23.25H17.1535L16.8946 18H15.3928ZM19.4725 7.26163L19.3697 5.0091L17.4705 3.79377L16.255 1.89444L14.0024 1.79132L12.0002 0.754395L9.99805 1.79155L7.74547 1.89468L6.52991 3.79377L4.63077 5.0091L4.52793 7.26163L3.49072 9.26385L4.52793 11.2661L4.63105 13.5186L6.52991 14.7339L7.74529 16.6333L9.99786 16.7362L12.0002 17.7733L14.0024 16.7362L16.255 16.6333L17.4703 14.7339L19.3696 13.5188L19.4725 11.2663L20.5097 9.26404L19.4725 7.26163ZM17.9891 10.8686L17.9065 12.674L16.3842 13.648L15.4101 15.1703L13.6048 15.2528L12.0002 16.084L10.3955 15.2528L8.59011 15.1703L7.61605 13.648L6.09397 12.674L6.01152 10.8686L5.17991 9.26385L6.01133 7.65941L6.09397 5.85379L7.61605 4.87972L8.59011 3.3575L10.3955 3.275L12.0002 2.44372L13.6049 3.27496L15.4103 3.35746L16.3844 4.87968L17.9065 5.85379L17.9889 7.65918L18.8205 9.26385L17.9891 10.8686Z" fill="#CDD4DF"/>
</svg>
