<svg width="180" height="180" viewBox="0 0 180 180" fill="none" xmlns="http://www.w3.org/2000/svg">
<g clip-path="url(#clip0_446_4769)">
<path d="M137.812 0H42.1875C18.888 0 0 18.888 0 42.1875V137.812C0 161.112 18.888 180 42.1875 180H137.812C161.112 180 180 161.112 180 137.812V42.1875C180 18.888 161.112 0 137.812 0Z" fill="#663399"/>
<path d="M160.312 90H115.568V102.784H146.25C141.775 121.961 127.713 137.94 109.176 144.333L35.6674 70.8237C43.3385 48.4516 65.0714 32.4717 90 32.4717C109.176 32.4717 126.435 42.0595 137.301 56.7612L146.889 48.4516C134.105 31.1934 113.65 19.6875 90 19.6875C56.7612 19.6875 28.6362 43.3378 21.6049 74.6592L105.98 159.034C136.662 151.364 160.312 123.239 160.312 90ZM19.6875 90.6391C19.6875 108.537 26.7188 125.795 40.1414 139.219C53.5655 152.642 71.4628 159.673 88.7217 159.673L19.6875 90.6391Z" fill="white"/>
</g>
<defs>
<clipPath id="clip0_446_4769">
<rect width="180" height="180" fill="white"/>
</clipPath>
</defs>
</svg>
