<svg width="180" height="180" viewBox="0 0 180 180" fill="none" xmlns="http://www.w3.org/2000/svg">
<g clip-path="url(#clip0_446_4958)">
<path d="M137.812 0H42.1875C18.888 0 0 18.888 0 42.1875V137.812C0 161.112 18.888 180 42.1875 180H137.812C161.112 180 180 161.112 180 137.812V42.1875C180 18.888 161.112 0 137.812 0Z" fill="#242938"/>
<path d="M90.0007 21.0938C51.1727 21.0938 19.6875 52.5727 19.6875 91.407C19.6875 122.473 39.8341 148.829 67.7721 158.126C71.2856 158.778 72.5759 156.601 72.5759 154.744C72.5759 153.068 72.5105 147.529 72.4802 141.654C52.9193 145.907 48.792 133.358 48.792 133.358C45.5927 125.23 40.9845 123.069 40.9845 123.069C34.605 118.705 41.4654 118.795 41.4654 118.795C48.5262 119.291 52.2443 126.041 52.2443 126.041C58.5155 136.79 68.6932 133.682 72.7052 131.886C73.3366 127.341 75.1584 124.239 77.1694 122.484C61.5523 120.705 45.135 114.676 45.135 87.7345C45.135 80.0578 47.8814 73.7852 52.3793 68.8613C51.6488 67.0901 49.242 59.9386 53.0599 50.2538C53.0599 50.2538 58.9648 48.3645 72.4015 57.4608C78.0103 55.9034 84.0248 55.1222 90.0007 55.0955C95.9759 55.1222 101.996 55.9034 107.615 57.4615C121.035 48.3638 126.932 50.2545 126.932 50.2545C130.759 59.9386 128.351 67.0908 127.621 68.8613C132.129 73.7852 134.857 80.0578 134.857 87.7345C134.857 114.741 118.408 120.687 102.751 122.427C105.273 124.61 107.52 128.888 107.52 135.449C107.52 144.856 107.439 152.428 107.439 154.744C107.439 156.615 108.705 158.808 112.269 158.117C140.191 148.809 160.312 122.463 160.312 91.407C160.312 52.5734 128.831 21.0938 90.0007 21.0938ZM46.0223 121.256C45.8677 121.605 45.3178 121.71 44.8172 121.47C44.3067 121.241 44.0205 120.765 44.1858 120.414C44.337 120.054 44.8882 119.955 45.3966 120.196C45.9077 120.425 46.1988 120.906 46.0223 121.256ZM49.481 124.342C49.1456 124.654 48.4896 124.509 48.0452 124.017C47.5854 123.527 47.4989 122.872 47.8392 122.556C48.1845 122.245 48.8208 122.391 49.2813 122.881C49.7412 123.377 49.8312 124.028 49.481 124.342ZM51.8534 128.291C51.4223 128.59 50.7178 128.31 50.2826 127.684C49.8516 127.059 49.8516 126.309 50.2917 126.008C50.7284 125.708 51.4223 125.978 51.8639 126.599C52.2935 127.235 52.2935 127.985 51.8534 128.291ZM55.8661 132.864C55.4808 133.289 54.6602 133.175 54.0591 132.595C53.4445 132.028 53.273 131.224 53.6597 130.798C54.0499 130.372 54.8754 130.492 55.4808 131.067C56.0911 131.633 56.2774 132.443 55.8661 132.864ZM61.0523 134.407C60.8822 134.959 60.0919 135.209 59.2952 134.975C58.5007 134.734 57.9797 134.089 58.1407 133.532C58.3059 132.978 59.0998 132.717 59.902 132.967C60.6966 133.207 61.2176 133.848 61.0523 134.407ZM66.9544 135.063C66.9741 135.642 66.2991 136.123 65.463 136.133C64.6221 136.152 63.9422 135.683 63.933 135.113C63.933 134.527 64.5933 134.051 65.4335 134.037C66.2702 134.021 66.9544 134.486 66.9544 135.063ZM72.7523 134.84C72.8529 135.406 72.2721 135.987 71.4417 136.142C70.6254 136.291 69.8695 135.941 69.7662 135.38C69.6649 134.8 70.2563 134.22 71.0712 134.069C71.903 133.925 72.6469 134.265 72.7523 134.84Z" fill="white"/>
</g>
<defs>
<clipPath id="clip0_446_4958">
<rect width="180" height="180" fill="white"/>
</clipPath>
</defs>
</svg>
