<svg width="180" height="180" viewBox="0 0 180 180" fill="none" xmlns="http://www.w3.org/2000/svg">
<path d="M137.812 0H42.1875C18.888 0 0 18.888 0 42.1875V137.812C0 161.112 18.888 180 42.1875 180H137.812C161.112 180 180 161.112 180 137.812V42.1875C180 18.888 161.112 0 137.812 0Z" fill="#242938"/>
<path d="M89.9998 154.688L116.411 75.0996H63.5918L90.0005 154.685L89.9998 154.688Z" fill="#E24329"/>
<path d="M89.9986 154.688L63.5906 75.0996H26.5781L89.9986 154.685V154.688Z" fill="#FC6D26"/>
<path d="M26.5779 75.0977L18.5504 99.2852C17.817 101.49 18.6165 103.907 20.5346 105.271L89.9998 154.688L26.5779 75.0998V75.0977Z" fill="#FCA326"/>
<path d="M26.5781 75.0974H63.5913L47.6838 27.1619C46.8654 24.696 43.2998 24.696 42.4828 27.1619L26.5781 75.0996V75.0974Z" fill="#E24329"/>
<path d="M90 154.688L116.411 75.0996H153.425L90 154.685V154.688Z" fill="#FC6D26"/>
<path d="M153.424 75.0977L161.451 99.2852C162.183 101.49 161.381 103.907 159.465 105.271L90 154.688L153.424 75.0998V75.0977Z" fill="#FCA326"/>
<path d="M153.423 75.0969H116.41L132.316 27.1614C133.135 24.6962 136.7 24.6962 137.517 27.1614L153.425 75.099L153.423 75.0969Z" fill="#E24329"/>
</svg>
