<svg width="40" height="40" viewBox="0 0 40 40" fill="none" xmlns="http://www.w3.org/2000/svg">
<path d="M20.0335 35.4163C28.546 35.4163 35.4168 28.5122 35.4168 19.9663C35.4168 11.4538 28.546 4.58301 20.0335 4.58301M20.0335 35.4163C11.4877 35.4163 4.5835 28.5122 4.5835 19.9663C4.5835 11.4538 11.4877 4.58301 20.0335 4.58301M20.0335 35.4163V4.58301M33.3768 12.2913H6.6335M33.4627 27.5205H6.54766M4.66683 19.9997H35.3335" stroke="#183B72" stroke-width="0.5" stroke-linecap="round" stroke-linejoin="round"/>
<path d="M20.0165 35.4163C24.2732 35.4163 27.7082 28.5122 27.7082 19.9663C27.7082 11.4538 24.2732 4.58301 20.0165 4.58301C15.7432 4.58301 12.2915 11.4538 12.2915 19.9663C12.2915 28.5122 15.7432 35.4163 20.0165 35.4163Z" stroke="#183B72" stroke-width="0.5" stroke-linecap="round" stroke-linejoin="round"/>
</svg>
