<svg width="180" height="180" viewBox="0 0 180 180" fill="none" xmlns="http://www.w3.org/2000/svg">
<path d="M113.344 56.6714H113.906L113.625 56.3902L133.313 36.7027V36.2808C116.719 21.6558 93.7969 16.5933 72.5625 22.9214C51.3281 29.2495 35.0156 46.1245 29.1094 67.4995C29.3906 67.3589 29.8125 67.2183 30.2344 67.2183C37.5469 62.437 46.2656 59.6245 55.4063 59.6245C58.5 59.6245 61.4531 59.9058 64.4062 60.4683C64.5469 60.3277 64.6875 60.3277 64.8281 60.3277C77.4844 46.4058 98.8594 44.7183 113.484 56.6714H113.344Z" fill="#EA4535"/>
<path d="M152.016 67.2187C148.781 55.2656 142.031 44.4375 132.609 36.1406L112.5 56.1094C120.938 63 125.859 73.4062 125.578 84.2344V87.75C149.344 87.75 149.344 123.187 125.578 123.187H89.8594V151.312H89.7188L89.8594 151.594H125.578C146.109 151.734 164.25 138.516 170.297 119.109C176.344 99.7031 168.891 78.6094 152.016 67.2187Z" fill="#557EBF"/>
<path d="M54.8438 151.734H91.8281V123.328H54.8438C52.1719 123.328 49.6406 122.766 47.25 121.781L25.875 142.312V142.594C34.3125 148.641 44.4375 151.875 54.9844 151.875L54.8438 151.734Z" fill="#36A852"/>
<path d="M56.5309 58.9219C35.5778 59.0625 17.0153 72 10.2653 90.9844C3.51532 110.109 10.2653 131.062 26.8591 143.438L48.7966 122.484C36.7028 117.281 33.8903 102.094 43.1716 93.2344C52.4528 84.2344 68.2028 87.0469 73.6872 98.5781L95.6247 77.625C86.3434 65.9531 71.8591 59.0625 56.5309 59.2031V58.9219Z" fill="#F9BC15"/>
</svg>
