<svg width="180" height="180" viewBox="0 0 180 180" fill="none" xmlns="http://www.w3.org/2000/svg">
<g clip-path="url(#clip0_446_4749)">
<path d="M137.812 0H42.1875C18.888 0 0 18.888 0 42.1875V137.812C0 161.112 18.888 180 42.1875 180H137.812C161.112 180 180 161.112 180 137.812V42.1875C180 18.888 161.112 0 137.812 0Z" fill="#242938"/>
<path d="M33.6523 123.886L38.8147 126.866L96.3254 27.2579L91.1631 24.2773L33.6523 123.886Z" fill="#E535AB"/>
<path d="M147.491 115.928H32.4707V121.889H147.491V115.928Z" fill="#E535AB"/>
<path d="M34.7461 119.276L92.2779 152.493L95.2584 147.33L37.7266 114.113L34.7461 119.276ZM84.7242 32.7034L142.256 65.9204L145.237 60.758L87.7048 27.541L84.7242 32.7034Z" fill="#E535AB"/>
<path d="M34.7617 60.7366L37.743 65.8989L95.2748 32.6819L92.2942 27.5195L34.7617 60.7366Z" fill="#E535AB"/>
<path d="M83.6857 27.2579L141.196 126.865L146.358 123.885L88.848 24.2773L83.6857 27.2579ZM42.9923 56.7821H37.0312V123.216H42.9923V56.7821Z" fill="#E535AB"/>
<path d="M142.967 56.7832H137.006V123.217H142.967V56.7832Z" fill="#E535AB"/>
<path d="M88.6602 145.46L91.2638 149.969L141.301 121.079L138.697 116.57L88.6602 145.46Z" fill="#E535AB"/>
<path d="M150.867 125.156C147.42 131.153 139.735 133.2 133.738 129.753C127.741 126.305 125.694 118.621 129.142 112.624C132.589 106.627 140.274 104.579 146.271 108.027C152.304 111.51 154.351 119.159 150.867 125.156ZM50.8212 67.3762C47.3738 73.3732 39.6886 75.4207 33.6917 71.9733C27.6947 68.5259 25.6479 60.8407 29.0954 54.8438C32.5428 48.8461 40.2272 46.8 46.2249 50.2474C52.2218 53.7307 54.2686 61.3793 50.8212 67.3762ZM29.1312 125.156C25.6838 119.159 27.7306 111.51 33.7276 108.027C39.7252 104.579 47.3738 106.626 50.8571 112.624C54.3045 118.621 52.2577 126.269 46.2608 129.753C40.2279 133.2 32.5786 131.153 29.1312 125.156ZM129.177 67.3762C125.73 61.3793 127.777 53.7307 133.774 50.2474C139.771 46.8 147.42 48.8468 150.903 54.8438C154.351 60.8414 152.304 68.49 146.307 71.9733C140.31 75.4207 132.625 73.3732 129.177 67.3762ZM89.9994 160.312C83.0686 160.312 77.4669 154.711 77.4669 147.78C77.4669 140.849 83.0686 135.247 89.9994 135.247C96.9301 135.247 102.532 140.849 102.532 147.78C102.532 154.675 96.9301 160.312 89.9994 160.312ZM89.9994 44.7532C83.0686 44.7532 77.4669 39.1507 77.4669 32.22C77.4669 25.2893 83.0686 19.6875 89.9994 19.6875C96.9301 19.6875 102.532 25.2893 102.532 32.22C102.532 39.1507 96.9301 44.7532 89.9994 44.7532Z" fill="#E535AB"/>
</g>
<defs>
<clipPath id="clip0_446_4749">
<rect width="180" height="180" fill="white"/>
</clipPath>
</defs>
</svg>
