<svg width="180" height="180" viewBox="0 0 180 180" fill="none" xmlns="http://www.w3.org/2000/svg">
<g clip-path="url(#clip0_446_4606)">
<path d="M28.2473 78.6182C22.1557 81.0879 6.03519 92.2055 2.93032 95.4995C-0.294067 98.7934 -1.24957 93.6467 2.09364 85.1031C4.7204 78.2061 11.4089 68.8389 22.6338 60.8104C29.2007 56.1783 43.6507 49.4873 52.4872 45.5758C54.2787 44.7516 77.4457 36.3116 98.1047 32.091C99.8962 31.6789 95.9553 34.6643 95.3577 36.3116C92.2528 44.1346 30.2758 77.6916 30.2758 77.6916L28.2473 78.6182ZM115.539 173.01C116.614 178.569 115.659 178.98 108.972 179.701C102.285 180.422 97.3882 178.259 95.5974 176.819C93.8053 175.376 93.4481 172.187 95.2389 169.304C96.3146 167.452 97.3889 166.834 97.9865 164.569C98.5828 162.408 99.0609 161.893 99.5383 161.07C100.016 160.349 100.136 159.627 100.255 154.584C100.374 149.541 100.255 140.07 100.852 136.056C101.45 131.939 122.108 137.909 122.108 137.909C122.108 137.909 117.212 148.408 115.899 150.981C114.585 153.555 114.705 158.496 114.705 159.525C114.705 160.554 114.227 162.613 113.868 162.716C113.509 162.819 115.063 165.495 114.346 167.039C113.868 168.481 115.42 172.187 115.539 173.01ZM123.421 15.6213C122.704 11.7098 123.421 3.98855 124.377 2.75461C127.362 -0.745993 143.124 -1.15751 146.468 2.96007C147.901 4.81279 147.782 9.13583 147.543 11.9152C147.305 14.6946 146.468 20.6649 146.349 22.6213C146.23 24.0625 128.914 26.3261 125.093 22.4152C124.018 21.3861 123.421 15.6213 123.421 15.6213ZM158.529 163.024C165.814 167.555 171.426 168.378 175.128 170.024C178.83 171.672 177.875 174.863 171.665 175.789C166.649 176.613 158.768 174.966 153.514 174.966C148.26 174.966 136.557 175.481 133.452 173.628C129.87 171.466 131.421 167.452 131.421 167.452C132.378 165.187 134.765 160.143 134.048 156.026C133.332 151.909 132.376 149.644 130.586 145.835C128.794 142.027 127.481 132.659 129.153 132.144C130.825 131.629 130.347 132.144 132.497 132.556C134.646 132.967 137.034 133.586 141.692 133.586C146.349 133.586 151.484 132.967 153.275 132.659C155.067 132.35 156.499 132.041 155.902 135.232C155.305 138.423 153.514 144.393 153.395 149.026C153.275 153.658 153.275 159.011 153.634 159.937C153.992 160.864 156.619 161.893 158.529 163.025" fill="black"/>
<path d="M132.975 25.9143C119.84 35.6936 94.4032 38.3688 56.6681 50.9276C46.9956 54.1185 21.2019 63.6912 14.9922 73.6767C35.8896 63.2803 43.6517 77.5882 45.3237 92.3076C46.8754 106.101 54.8766 113.307 75.4161 112.894C96.5532 112.483 103.001 123.085 108.852 135.541C120.197 87.8809 138.349 78.6173 150.051 70.4858C174.89 53.0888 144.319 22.4143 132.975 25.9143Z" fill="#88CE02"/>
<path d="M132.974 25.9133C101.448 35.383 70.2805 37.7503 33.6198 57.2048C24.9028 61.837 6.51266 72.3364 2.92969 92.4091C16.3039 79.6448 47.2324 63.5873 85.0877 53.397C104.194 48.2497 118.166 44.8533 135.123 39.1909C133.93 32.603 133.93 30.0297 132.974 25.9121" fill="#88CE02"/>
<path d="M173.218 82.3233C173.218 82.3233 170.949 89.0142 166.411 91.1766C166.411 91.1766 163.068 92.2057 156.381 89.0148C154.47 88.0887 153.037 84.8978 153.156 83.8675C153.275 81.3972 155.067 80.2651 155.067 80.2651C155.067 80.2651 156.978 77.4857 159.246 77.5887C161.515 77.6918 165.337 78.0003 166.531 77.0736C167.605 76.0445 173.457 78.9263 173.218 82.3233ZM124.496 17.5772C124.496 17.5772 124.019 22.8269 123.183 26.1209C123.063 26.739 119.481 27.0469 116.854 27.9736C121.869 40.3257 152.081 40.2227 156.023 34.1494C154.112 33.0178 150.291 31.2675 148.5 30.65C146.708 30.0318 146.827 30.1348 146.708 27.253C146.588 24.3712 146.349 19.0184 146.11 17.5772C145.871 16.136 127.362 16.1354 124.496 17.5772Z" fill="black"/>
<path d="M125.689 17.5769C125.689 17.5769 125.689 20.5617 125.331 23.4435C125.213 24.7823 125.093 25.6054 124.854 26.6344C124.735 27.2526 128.914 29.7223 130.108 35.1781C135.841 46.192 149.096 40.7369 154.589 35.4872C152.678 34.3544 149.573 32.8108 145.991 31.5757C144.2 30.9575 145.035 29.6199 144.916 26.7381C144.797 23.8557 144.319 19.635 144.08 18.0908C143.842 16.5466 128.556 16.135 125.689 17.5769Z" fill="#EFEFEF"/>
<path d="M124.495 17.5775C124.495 17.5775 124.375 19.4302 124.018 21.592C125.569 22.9296 127.6 24.7829 129.153 25.915C130.227 26.7393 132.854 26.6362 135.243 26.6362C137.393 26.6362 139.303 26.8417 140.139 26.4302C142.051 25.6059 144.796 23.5478 146.349 22.0035C146.23 20.1508 146.11 18.4011 145.991 17.5775C145.87 16.1356 127.361 16.1356 124.495 17.5775Z" fill="black"/>
<path d="M135.364 25.4002C133.93 25.4002 132.258 25.2971 130.945 25.0911C130.347 24.988 129.751 24.6796 129.273 24.4735C128.437 23.9583 127.601 23.3414 126.647 22.7232C124.735 21.488 124.616 20.7674 124.616 20.4596C125.452 13.9741 124.377 8.51895 124.377 8.51895C124.377 8.51895 123.54 5.73895 128.079 5.01834C132.617 4.29774 135.363 4.19531 135.363 4.19531C135.363 4.19531 138.229 4.19531 142.647 5.01834C147.186 5.73955 146.35 8.51895 146.35 8.51895C146.35 8.51895 145.274 13.9741 146.11 20.4596C146.11 20.7674 145.992 21.488 144.081 22.7232C142.409 23.7529 141.095 24.885 139.782 25.0911C138.468 25.2971 136.796 25.4002 135.364 25.4002Z" fill="black"/>
<path d="M135.362 1.51953C127.48 1.51953 125.928 3.37226 123.659 5.43105C123.182 5.94559 123.54 9.03347 124.376 15.622H125.451C125.451 15.622 124.733 13.7686 124.853 11.6068C124.973 9.44559 125.451 9.54862 125.092 9.03347C124.614 8.41529 123.659 7.3862 125.809 6.35711C127.958 5.32802 131.302 7.18074 135.362 7.28377C139.422 7.18074 142.885 5.32802 145.035 6.35711C147.184 7.3862 146.228 8.4159 145.752 9.03347C145.274 9.65165 145.871 9.44559 145.99 11.6068C146.11 13.768 145.392 15.622 145.392 15.622H146.468C147.184 9.03408 147.661 6.15165 147.304 5.6365C145.273 3.37226 143.243 1.62196 135.362 1.51953ZM173.217 82.6329C173.217 82.6329 170.948 88.9117 166.53 91.0735C165.574 90.6614 165.694 90.0444 164.857 89.1177C164.618 88.8092 163.783 88.6026 163.425 88.2941C163.066 87.985 163.186 87.4704 162.588 87.0589C162.111 86.6468 161.753 86.9559 161.275 86.6468C160.798 86.2359 160.677 85.7207 160.32 85.4129C160.081 85.2068 159.125 85.1038 158.887 84.8977C158.289 84.3826 153.036 83.4565 153.275 82.4268C153.752 80.8826 154.708 79.7505 154.708 79.7505C154.708 79.7505 156.977 76.8686 159.245 76.9711C161.514 77.0741 163.663 77.4862 164.858 76.5595C166.172 75.5298 173.576 79.3389 173.217 82.6323" fill="black"/>
<path d="M157.695 37.1351C157.695 37.1351 165.218 35.5909 170.352 39.8115C175.488 44.1351 175.128 49.4872 173.577 52.7812C174.89 54.1193 177.278 57.8248 175.488 62.2515C183.369 68.0151 179.906 76.8684 172.86 82.7357C172.86 82.7357 171.188 77.383 164.501 77.0739C164.74 75.0157 158.291 73.3684 161.277 68.0157C156.739 67.089 156.859 64.4127 156.142 61.1187C155.544 57.8248 157.695 37.1351 157.695 37.1351Z" fill="black"/>
<path d="M154.947 40.0166C154.947 40.0166 163.664 36.2081 168.799 40.5317C173.934 44.8547 172.5 49.5893 170.949 52.8832C172.262 54.2208 175.367 58.0305 173.456 62.559C173.097 63.5887 170.471 63.5887 168.56 66.265C173.336 63.8966 176.322 64.5147 177.397 67.4996C179.069 72.1317 175.366 77.6899 172.143 80.7784C172.143 80.6753 172.023 80.5723 172.023 80.4693C171.545 82.0141 170.948 84.9984 167.366 88.2923C165.574 89.9396 164.141 89.7341 162.111 89.322C159.723 88.8069 158.887 87.8802 155.544 86.3372C153.633 85.4105 154.707 84.2778 154.707 83.3517C154.707 83.1456 154.946 82.8366 155.305 82.4256C155.544 81.9105 156.26 81.0875 157.335 80.1608C157.335 80.1608 158.887 78.3081 161.157 78.4105C163.426 78.5129 165.813 78.1026 166.411 77.5875C166.411 73.985 161.635 73.8814 163.306 67.7056C163.426 67.3966 164.023 66.8814 165.933 66.6759C163.067 66.1608 161.754 66.0578 159.723 64.4117C158.29 63.2796 157.216 61.8384 156.857 59.9856C156.141 56.7947 154.947 40.0166 154.947 40.0166Z" fill="#EFEFEF"/>
<path d="M129.751 33.5317C129.034 32.7075 125.333 28.5905 118.287 26.9439C116.257 26.4287 114.943 27.8699 112.914 28.8996C112.316 28.5905 109.689 27.5614 108.256 28.2814C106.823 29.0014 105.868 29.7226 104.435 30.2372C103.718 29.9281 101.808 29.9281 100.256 30.4432C98.7031 30.8548 96.3147 31.7808 94.0458 34.4572C92.6129 38.8839 119.361 35.5893 119.361 35.5893L129.751 33.5317Z" fill="black"/>
<path d="M129.989 33.5322C126.167 32.3994 126.764 28.5909 118.286 27.9734C116.614 27.8703 115.539 29.0025 114.345 29.7231C114.942 30.2382 115.539 31.0612 115.897 31.8843C114.822 30.8558 112.912 29.517 111 29.2079C109.209 28.9 108.015 30.0322 106.104 30.8558C106.462 31.1637 106.821 31.6788 107.298 32.297C105.626 31.3703 104.432 31.0619 102.164 31.7819C100.611 32.1934 97.6258 33.3261 95.3569 36.1055C93.924 40.5316 119.479 35.5903 119.479 35.5903L129.989 33.5322Z" fill="#88CE02"/>
<path d="M152.439 35.1795C152.439 35.1795 152.439 34.0473 152.32 33.0182C152.32 32.8122 151.364 32.297 151.364 32.0916L151.125 31.8855C151.125 31.8855 153.036 30.9595 154.469 31.474C156.021 31.8861 156.857 33.6358 156.857 33.6358C159.604 32.8128 159.842 33.7389 161.156 34.974C164.023 34.4589 164.38 35.3855 166.172 37.6504C166.172 37.6504 164.023 37.3413 159.843 37.9589C155.782 38.4728 152.439 35.0764 152.439 35.1795Z" fill="black"/>
<path d="M151.962 34.6634C151.962 34.6634 152.679 34.1482 152.44 34.0452C153.753 33.427 155.545 32.7076 156.381 34.6634C159.127 33.8391 159.485 34.9725 160.799 36.2076C164.142 34.8694 164.38 36.5155 164.62 37.2367C163.545 37.2367 161.993 37.3397 159.843 37.5452C155.784 38.0603 151.843 34.5597 151.962 34.6634Z" fill="#88CE02"/>
<path d="M111.359 32.0918C111.359 32.0918 118.166 34.15 123.898 33.8409C129.63 33.43 139.422 33.0179 144.676 35.6942C144.676 35.6942 150.05 34.0469 155.066 35.1791C160.081 36.3112 169.277 43.7227 166.53 51.5457C166.291 52.0609 164.739 52.8839 162.947 53.3991C162.947 53.3991 163.903 56.8991 162.231 59.7809C160.559 62.5603 156.857 67.913 156.738 75.3245C156.618 76.5597 156.38 79.133 156.141 80.3676C146.826 80.0597 132.496 77.0736 118.406 77.2803C118.524 75.9421 118.644 75.1185 118.764 73.7803H119.121C118.404 70.3833 118.166 68.633 117.449 66.0603C112.912 63.59 108.134 60.7076 104.075 55.2518C100.134 49.796 111.359 32.0918 111.359 32.0918ZM157.454 87.6766C157.454 87.6766 164.858 110.529 156.141 120.102C156.141 120.102 157.454 124.528 154.469 129.263C153.991 131.322 153.393 133.175 153.036 135.233C151.483 143.777 148.856 147.379 148.139 161.069L140.974 160.967C140.974 160.967 140.138 151.085 137.63 145.835C136.198 142.851 130.585 138.835 130.824 134.821C131.063 131.734 131.779 129.16 137.87 125.042C138.347 119.072 131.421 113.411 132.496 91.1767L157.454 87.6766Z" fill="black"/>
<path d="M155.305 86.75C157.216 97.2494 161.634 112.792 153.633 120.41C153.991 121.851 154.23 123.91 153.753 126.277C153.514 127.512 153.036 128.85 152.439 130.291C151.245 132.762 150.767 136.364 150.409 138.526C148.856 147.069 148.856 147.482 148.14 161.172L140.975 161.069C140.975 161.069 140.138 151.188 137.631 145.938C136.199 142.953 133.213 140.38 132.974 136.365C132.735 133.277 135.243 127.102 141.214 127.307C140.856 114.852 134.168 117.322 132.377 91.3821L155.305 86.75ZM111.36 32.0918C111.36 32.0918 113.987 32.8124 116.853 33.0179C119.719 33.2239 122.824 33.0179 125.57 32.9148C131.302 32.5033 139.422 31.9888 144.796 34.6651C144.796 34.6651 147.781 33.8409 151.006 34.0469C152.439 34.15 153.872 35.1791 155.544 35.5912C160.798 36.7233 165.814 44.2373 163.544 51.0318C163.305 51.5469 161.634 51.0318 159.723 51.547C160.081 52.9876 160.32 56.2815 158.409 59.7815C156.379 63.2815 153.752 67.8106 154.229 76.4573C141.691 75.9421 136.078 75.2221 123.659 74.7076C122.584 70.8985 121.867 67.0894 121.748 65.1342C123.421 64.413 124.375 63.7966 125.689 62.5609C122.107 63.076 120.674 62.87 118.523 61.8397C116.374 60.8106 112.553 57.5166 110.642 55.3554C110.403 55.1494 109.091 58.5457 106.105 58.6494C105.03 57.3112 109.567 53.5021 108.731 52.0615C105.747 46.8112 111.36 32.0918 111.36 32.0918Z" fill="#EFEFEF"/>
<path d="M156.26 78.207C156.26 78.207 156.499 81.9124 156.499 82.8385C156.499 83.8682 157.455 86.9554 157.574 88.3973C156.261 90.353 150.529 94.7791 140.139 96.4264C129.869 98.2791 116.256 84.3827 116.256 84.3827C116.614 83.0445 117.808 79.133 118.644 77.0742C118.764 76.8682 119.003 76.3536 119.003 76.1482C120.078 74.81 156.26 78.207 156.26 78.207Z" fill="black"/>
<path d="M153.634 78.5145C153.634 81.0872 154.111 82.9405 154.471 84.5872C155.067 87.5726 156.022 89.5284 156.022 91.4841C156.022 97.4538 146.946 96.4248 139.303 96.6308C129.033 98.4841 120.316 84.5878 120.316 84.5878C121.032 82.2199 121.51 79.5441 122.585 77.2787C122.704 76.0441 122.943 74.4999 123.063 73.7793C137.631 73.7793 147.901 74.5005 153.872 75.0138C154.111 76.1466 153.872 78.1023 153.634 78.5138" fill="#EFEFEF"/>
<path d="M142.17 91.7932C142.17 91.7932 135.841 79.6466 116.853 83.2502C112.316 94.2636 106.225 106.925 110.167 120.616C106.225 125.248 101.688 127.822 101.688 136.365C101.688 144.908 102.166 146.35 102.166 146.35L116.137 146.968C116.137 146.968 120.675 141.924 122.465 136.468C122.943 134.924 123.422 132.145 123.063 128.954C123.54 128.336 125.57 126.896 125.81 124.116C125.81 124.116 132.616 121.028 136.557 113.514C140.26 106.719 139.304 100.851 142.17 91.7926" fill="black"/>
<path d="M142.169 91.7937C141.81 90.6616 137.033 79.5446 119.36 82.838C108.971 106.719 112.792 116.602 114.344 120.924C107.298 128.644 104.074 130.291 105.508 145.937H114.822C119.121 140.071 120.077 137.908 120.315 130.188C120.315 129.879 119.002 130.806 118.046 131.836C118.763 128.645 120.793 128.027 122.346 126.071C123.062 125.247 123.659 124.013 123.659 122.365C132.018 117.528 135.123 111.454 136.914 105.175C138.347 100.852 140.019 93.7495 142.168 91.7931" fill="#EFEFEF"/>
<path d="M112.673 75.2207C112.673 75.2207 115.897 75.3237 118.764 76.1474C121.511 76.9704 121.511 77.4849 122.585 78.5146C123.66 79.5449 126.287 81.088 125.81 82.6322C125.571 83.4559 124.974 83.6613 124.138 84.3819C123.779 84.691 121.152 87.1613 120.555 87.4698C120.197 87.6759 119.719 87.9849 119.361 88.191L117.57 89.2201C116.376 89.7352 115.54 90.0437 114.226 89.9407C114.226 89.9407 111.241 89.8377 109.33 88.088C109.33 88.088 109.091 87.2637 109.569 86.8528C109.569 86.8528 107.061 84.9995 106.344 83.7643C105.627 82.5298 105.627 80.7801 106.105 79.8534C106.344 78.9262 111.001 76.3528 112.673 75.2207ZM115.659 175.377L115.301 177.951C115.301 177.951 114.226 179.083 106.226 178.98C98.1049 178.877 95.9556 176.716 95.2391 175.583L94.7617 172.907C94.7617 172.907 96.3142 170.951 96.6727 170.951C99.2995 171.157 108.256 174.245 114.466 175.069C115.061 175.069 115.181 175.273 115.659 175.377ZM132.974 170.127C132.974 171.259 132.855 171.259 132.855 172.392C134.288 173.318 137.871 173.833 144.677 173.73C154.588 173.524 163.783 176.304 175.008 174.656L175.128 172.803L174.053 172.701L134.288 169.921L132.974 170.127Z" fill="black"/>
<path d="M141.692 173.73H144.677C151.127 173.524 157.217 174.759 163.784 175.068C167.248 174.965 171.546 174.244 171.188 172.082L137.275 169.611C135.244 171.567 136.797 173.215 141.692 173.73ZM102.763 130.393C103.838 131.011 111.122 134.717 122.944 134.202C122.705 136.158 122.825 139.967 117.57 146.657C114.943 149.951 112.673 155.716 112.197 163.024C112.316 164.671 113.39 166.112 111.958 168.274C112.436 169.611 114.346 172.288 115.302 173.935C116.256 175.582 116.734 177.435 110.404 177.538C103.956 177.641 93.5667 177.023 95.0004 172.701C95.7175 170.436 97.7473 168.068 97.9864 167.142C98.2255 166.215 98.2255 163.436 100.255 161.583C102.046 156.436 101.449 151.496 101.091 146.864C100.494 142.025 100.374 134.305 102.763 130.394M113.869 46.5012C122.347 36.7218 115.182 28.8994 101.569 31.266C96.0754 32.1927 90.5828 35.4872 90.2242 41.4569C88.4327 41.663 84.3731 41.8685 82.3426 48.2509C80.7908 53.1915 79.9548 54.1175 77.2079 56.5878C75.4164 58.3382 77.3274 61.9406 78.6408 64.5151C83.059 73.3672 96.6723 74.1903 105.867 80.8812C108.972 80.1606 112.197 77.1757 113.151 75.2206C105.389 67.2933 107.061 64.206 103.956 60.0885C107.3 59.0581 114.943 55.0454 113.869 46.5012Z" fill="black"/>
<path d="M112.196 45.8843C112.673 45.2661 113.51 43.9286 113.868 43.4134C113.988 43.3104 115.301 45.2661 115.421 45.1637C118.644 40.634 119.48 34.0461 115.779 33.4286C114.942 33.3255 113.39 33.017 112.077 32.6043C109.688 31.8843 107.539 31.8843 103.717 32.5019C98.4636 33.3255 93.2093 36.6195 93.2093 41.3546C93.2093 41.6637 96.9104 42.5898 97.9854 46.3989C96.194 44.2364 93.0891 41.8692 89.3866 43.928C85.4465 46.0892 87.4763 51.0304 82.2221 56.1764C80.4306 57.9268 80.6696 59.9855 82.5807 64.1031C85.6848 70.588 100.373 74.088 108.374 80.2637C110.285 79.5431 111.598 77.8964 112.554 76.6613C107.18 71.8231 105.03 67.294 103.478 64.0001C101.568 60.1916 99.4177 58.0304 95.2378 55.1467C97.3878 55.868 99.0605 56.588 100.015 57.2055C101.089 57.8237 102.641 57.9268 104.075 57.5146C109.211 55.9716 111.957 49.7952 112.196 45.8843" fill="#EFEFEF"/>
<path d="M164.142 47.5316C163.783 51.4432 160.44 49.4874 158.649 48.7668C155.066 47.4286 151.483 46.5025 147.304 46.5025C143.124 46.5025 137.75 46.8116 133.094 47.8407C126.646 49.3844 124.734 49.2819 121.868 48.0462C119.003 46.708 113.988 43.4141 113.988 43.4141C113.988 43.4141 113.868 44.4438 115.062 45.7819C116.614 47.4286 120.078 49.4874 124.735 50.825C127.003 51.4432 128.795 51.031 130.825 50.6195C141.453 48.3553 152.678 47.9432 162.112 52.8838C162.59 53.0898 164.262 52.4716 164.978 51.5456C165.932 50.208 164.142 47.5316 164.142 47.5316Z" fill="black"/>
<path d="M109.807 86.75C110.762 87.2652 111.956 87.5742 113.269 88.5003C113.269 88.5003 112.195 88.5003 111.718 88.0888C111.12 87.7797 109.926 86.8536 109.807 86.75Z" fill="#001423"/>
<path d="M144.319 5.12216C143.961 4.1961 141.333 2.54883 135.244 2.54883C128.676 2.54883 126.765 4.29852 126.646 5.22519C126.646 5.53428 126.168 8.82822 126.049 10.1658C126.049 10.1658 126.049 11.8131 126.168 14.2834C126.288 15.93 126.765 16.8567 127.004 19.0185C127.243 21.2822 127.96 22.724 129.273 24.5767C129.87 24.8852 130.348 25.1949 130.944 25.2979C133.333 25.7088 137.513 25.8119 139.782 25.2979C141.095 24.9888 142.767 23.0331 143.125 21.2828C143.603 19.1216 144.08 17.5773 144.2 16.2391C144.439 14.9016 144.558 11.9161 144.677 11.0925C145.036 8.82822 144.438 5.32822 144.319 5.12277" fill="#EFEFEF"/>
<path d="M131.78 132.35C131.78 132.35 138.11 134.717 153.753 132.658C153.753 132.658 149.334 151.804 151.365 161.377C151.365 161.377 153.395 163.848 168.441 168.582C168.441 168.582 175.128 170.024 174.89 172.906C174.89 172.906 175.129 173.524 167.008 173.317C158.889 173.111 151.245 171.876 145.872 171.876C140.498 171.876 134.766 172.082 133.811 170.744C132.736 169.509 134.05 166.317 135.602 164.465C137.275 162.51 136.796 161.068 136.677 157.568C136.317 148.407 128.197 138.937 131.78 132.35Z" fill="black"/>
<path d="M130.467 134.1C129.63 135.13 130.586 139.04 131.78 142.85C132.974 146.657 135.602 148.922 136.199 155.201C136.796 161.377 136.916 162.201 134.885 165.803C132.855 169.406 132.258 172.7 139.303 172.803C146.348 172.906 150.17 172.7 157.335 173.627C164.5 174.553 167.008 174.862 170.949 174.348C174.89 173.833 175.725 172.7 174.054 171.671C172.382 170.642 165.455 169.51 162.47 167.45C159.604 165.597 151.484 162.51 151.365 161.686C151.006 158.906 150.887 148.819 151.484 145.525C152.081 142.231 152.917 137.496 153.156 136.261C153.395 135.026 154.589 133.79 152.558 134.202C150.529 134.613 142.886 135.54 137.154 135.231C131.422 134.923 130.826 133.791 130.467 134.1Z" fill="#88CE02"/>
<path opacity="0.3" d="M134.526 165.907C136.556 166.731 139.542 167.349 141.81 167.349C141.81 167.349 140.974 170.746 142.289 172.804C143.601 174.863 132.735 173.628 132.735 173.628L132.258 166.319L134.526 165.907ZM166.172 174.76C168.082 174.244 169.396 172.392 167.844 170.643C166.172 168.892 164.739 168.584 166.888 168.481C169.038 168.378 176.92 172.495 176.92 172.495L172.858 175.686L166.172 174.76ZM130.107 138.114C132.854 138.938 137.034 139.144 140.617 139.041C144.2 138.938 149.573 138.526 153.036 137.497C156.499 136.467 155.066 138.629 155.066 138.629L153.155 140.173C153.155 140.173 148.618 141.717 141.214 141.615C132.497 141.512 129.869 140.688 129.869 140.688L130.107 138.114ZM130.347 143.261C133.094 144.086 137.272 144.291 140.855 144.188C144.437 144.085 149.215 144.085 152.678 142.953C154.11 142.541 153.275 144.291 153.275 144.291L152.678 145.217C152.678 145.217 148.02 146.658 140.735 146.555C132.019 146.452 130.466 145.834 130.466 145.834L130.347 143.261Z" fill="black"/>
<path d="M122.465 71.1035C122.465 71.8247 131.779 75.8381 136.914 76.6617C142.05 77.4853 152.797 76.6617 154.468 76.3532L154.229 77.7944C154.229 77.7944 141.452 79.4417 131.66 77.1769C121.868 74.912 122.943 74.3975 122.943 74.3975L122.465 71.1035Z" fill="black"/>
<path d="M102.523 158.907C103.956 159.525 109.092 160.656 112.435 160.039C112.912 159.936 112.435 152.936 113.749 149.745C115.659 145.319 118.764 141.716 120.196 133.893C115.181 133.481 109.45 132.349 106.464 131.525C102.643 141.613 103.957 150.26 102.523 158.907ZM110.525 165.391C111.361 165.598 111.958 166.421 112.197 165.907C112.674 164.979 111.361 163.23 111.241 161.995V161.892C110.167 161.069 102.883 160.966 103.36 161.377C102.524 162.715 101.211 162.51 100.733 165.186C100.495 166.524 102.406 165.392 104.196 165.289C100.972 167.141 97.2707 169.51 96.673 171.568C95.9566 174.45 97.1511 175.274 100.733 176.818C103.839 177.436 107.54 177.539 110.406 177.436C113.63 176.921 114.228 175.583 113.272 173.73C111.838 170.95 110.883 167.348 110.525 165.391Z" fill="#EFEFEF"/>
<path d="M111.838 31.6797C115.778 33.6354 121.272 33.1209 123.301 33.0179C123.779 33.0179 128.556 32.2973 128.794 32.3997C129.272 32.5027 129.272 32.8118 129.272 32.8118C129.272 32.8118 127.481 33.6348 123.421 33.8409C119.599 34.0464 115.061 33.8409 112.554 32.8118C109.568 31.6797 111.838 31.6797 111.838 31.6797ZM152.439 33.6354C153.155 34.047 157.813 35.5912 159.843 37.4439C161.634 39.0912 160.68 38.9882 160.32 38.5767C159.843 38.0615 156.14 35.8997 154.708 35.3857C153.275 34.8706 151.483 33.9445 151.483 33.7385C151.483 33.5324 152.439 33.6354 152.439 33.6354Z" fill="black"/>
<path d="M111.24 76.3522C114.702 76.1461 118.285 76.8673 120.554 78.9255C121.748 79.9552 123.659 81.0867 123.42 82.1164C123.42 82.4255 122.703 83.2491 122.107 83.8667C121.749 84.2776 120.674 85.2043 120.315 85.5134C119.838 85.8225 118.166 86.9546 117.808 87.1606C117.449 87.3667 116.971 87.8819 116.613 87.9843C115.42 88.4994 114.106 88.0873 112.912 87.5728C111.718 87.0582 113.151 86.9546 111.837 86.1316C108.614 84.1758 106.821 82.837 108.135 79.0285C108.255 78.3079 109.568 77.4843 111.24 76.3522Z" fill="#EFEFEF"/>
<path opacity="0.4" d="M80.7894 52.7803C70.0419 56.4858 42.6958 68.2209 34.9336 71.8239C41.3817 75.3233 44.367 83.7633 45.3232 92.3076C45.442 93.1318 45.5616 93.8518 45.6811 94.6749C45.8006 95.3957 45.9199 95.9106 46.039 96.2197C46.039 96.3227 46.039 96.5288 46.1585 96.6306C53.2042 80.0585 78.4003 62.5591 79.3558 61.2209C79.8339 60.6033 78.7582 57.927 80.4308 55.3542C82.5809 52.0597 86.7608 50.6179 80.7894 52.7803ZM106.345 130.497C111.837 121.027 111.957 111.968 111.837 101.366C111.837 96.9391 115.539 90.6603 113.629 92.41C106.464 99.3064 88.432 112.277 75.4157 112.997C93.6863 112.482 100.851 120.409 106.345 130.497Z" fill="black"/>
<path d="M24.4238 80.574C31.2305 76.354 66.4583 60.1934 74.9376 57.9285C83.4156 55.5606 80.7881 52.7812 80.7881 52.7812C80.7881 52.7812 46.3962 65.5449 25.8567 76.5594" fill="black"/>
<path opacity="0.4" d="M124.735 50.8254C121.988 49.8987 119.839 52.6781 120.556 55.3545C121.272 58.0308 127.72 61.0157 127.361 70.7951C127.123 78.8242 125.093 82.1175 125.093 82.1175L120.556 77.1775C120.556 77.1775 119.838 66.0599 118.287 64.4126C116.734 62.766 111.838 59.7805 109.927 58.2369C108.017 56.6926 112.076 54.6338 111.838 51.752C111.599 48.9726 113.868 43.4138 113.868 43.4138L124.735 50.8254ZM141.333 94.6757C141.095 102.395 143.126 113.821 143.961 119.277C144.798 124.733 145.872 125.145 143.961 127.616C142.051 129.983 139.543 133.894 139.543 133.894L131.302 133.276C131.302 133.276 137.871 126.071 138.228 124.733C138.586 123.395 134.885 113.205 134.885 113.205L141.333 94.6757ZM125.452 22.6211C127.124 25.8114 129.154 27.2526 132.377 28.1793C134.288 28.7975 141.811 29.6205 144.797 26.7381C146.11 25.3999 145.275 21.7969 145.275 21.7969L138.468 26.532L129.272 25.0908L128.198 22.7235L125.452 22.6211Z" fill="black"/>
<path d="M126.168 29.7246C129.273 31.4743 137.035 33.1216 139.184 33.4301C141.333 33.8416 144.797 31.4743 146.468 30.8567C148.26 30.1361 151.365 29.7246 154.947 32.504C155.306 32.8131 154.111 34.1507 154.111 34.1507C153.991 34.0476 153.275 34.0476 152.319 33.6355C151.364 33.2246 150.529 32.9149 149.096 33.0185C143.124 33.6355 142.169 35.3858 136.915 34.3561C131.661 33.3264 130.348 32.5034 125.213 32.7089" fill="#88CE02"/>
<path d="M126.168 29.7246C129.273 31.4743 137.035 33.1216 139.184 33.4301C141.333 33.8416 144.797 31.4743 146.468 30.8567C148.26 30.1361 151.365 29.7246 154.947 32.504C155.306 32.8131 154.111 34.1507 154.111 34.1507C153.991 34.0476 153.275 34.0476 152.319 33.6355C151.364 33.2246 150.529 32.9149 149.096 33.0185C143.124 33.6355 142.169 35.3858 136.915 34.3561C131.661 33.3264 130.348 32.5034 125.213 32.7089" stroke="black" stroke-width="1.12675" stroke-linejoin="round"/>
<path d="M125.093 30.0312C129.034 31.4725 136.677 33.0167 138.826 33.4282C140.975 33.8397 144.438 31.987 146.11 31.0609C149.096 29.4137 152.917 30.7519 154.709 32.5022C155.902 33.6337 156.381 34.3549 156.381 34.6634C156.381 35.0749 154.948 34.6634 154.948 34.6634C154.111 34.3543 153.156 34.2519 152.44 33.8391C151.484 33.4282 150.529 32.8106 149.097 32.9131C143.125 33.5312 141.932 35.2809 136.797 34.2512C131.662 33.2216 130.348 32.2955 124.855 32.604" fill="#88CE02"/>
<path d="M106.584 126.174C106.345 125.968 106.823 125.762 106.584 125.762C105.032 125.762 102.882 124.733 101.687 123.291C96.5527 116.909 89.0289 112.689 75.4156 112.998C54.9957 113.41 46.8749 106.205 45.3232 92.4113C44.4865 84.8974 42.0988 77.5883 37.2025 73.4707L34.3359 75.0149C39.8292 79.1325 41.6207 85.8234 42.8153 94.9846C44.7256 108.778 57.6224 115.16 72.6686 115.366C88.3125 115.572 93.9253 118.351 99.7764 125.145C101.687 127.306 103.837 128.027 105.508 128.336L106.584 126.174Z" fill="black"/>
<path opacity="0.4" d="M161.994 59.9863C162.352 61.53 163.307 64.5154 165.217 65.956C166.054 66.6766 166.173 66.8821 165.456 66.8821C164.739 66.8821 159.486 66.6766 159.486 66.6766L158.053 64.5154L161.994 59.9863Z" fill="black"/>
</g>
<defs>
<clipPath id="clip0_446_4606">
<rect width="180" height="180" fill="white"/>
</clipPath>
</defs>
</svg>
