<svg width="180" height="180" viewBox="0 0 180 180" fill="none" xmlns="http://www.w3.org/2000/svg">
<path d="M137.812 0H42.1875C18.888 0 0 18.888 0 42.1875V137.812C0 161.112 18.888 180 42.1875 180H137.812C161.112 180 180 161.112 180 137.812V42.1875C180 18.888 161.112 0 137.812 0Z" fill="#E14E1D"/>
<path d="M33.75 26.7188L39.8039 94.6357H117.647L115.035 123.766L89.9712 130.543L64.9547 123.776L63.282 105.071H40.7391L43.9629 141.128L89.9663 153.906L136.028 141.128L142.204 72.1793H60.345L58.2898 49.1801H144.238L146.25 26.7188H33.75Z" fill="white"/>
<path d="M90 26.7188H33.75L39.8039 94.6357H90V72.1793H60.345L58.2898 49.1801H90V26.7188ZM90 130.533L89.9712 130.543L64.9547 123.776L63.282 105.071H40.7391L43.9629 141.128L89.9663 153.906L90.0007 153.896L90 130.533Z" fill="#EBEBEB"/>
</svg>
