<svg width="16" height="21" viewBox="0 0 16 21" fill="none" xmlns="http://www.w3.org/2000/svg">
<path d="M0.5 7.766C0.5 3.737 3.874 0.5 8 0.5C12.126 0.5 15.5 3.737 15.5 7.766C15.5 10.12 14.527 12.244 12.705 13.583C12.5935 13.6593 12.5127 13.7727 12.477 13.903C12.418 14.153 12.353 14.441 12.287 14.751C12.2775 14.7962 12.2528 14.8367 12.2169 14.8656C12.181 14.8946 12.1361 14.9103 12.09 14.91H8.95C8.89696 14.91 8.84609 14.8889 8.80858 14.8514C8.77107 14.8139 8.75 14.763 8.75 14.71V14.046L9.8 12.398C9.89999 12.2409 9.93797 12.0522 9.90655 11.8687C9.87513 11.6852 9.77655 11.5199 9.63 11.405L7.83 9.992L8.633 8.732C8.73975 8.56412 8.77544 8.36071 8.73221 8.16651C8.68898 7.97232 8.57038 7.80325 8.4025 7.6965C8.23462 7.58975 8.03121 7.55406 7.83701 7.59729C7.64282 7.64052 7.47375 7.75912 7.367 7.927L6.201 9.759C6.10101 9.91609 6.06303 10.1048 6.09445 10.2883C6.12587 10.4718 6.22445 10.6371 6.371 10.752L8.169 12.165L7.367 13.425C7.29063 13.5452 7.25005 13.6846 7.25 13.827V14.709C7.25 14.762 7.22893 14.8129 7.19142 14.8504C7.15391 14.8879 7.10304 14.909 7.05 14.909H3.91C3.86417 14.9091 3.8197 14.8935 3.78402 14.8647C3.74834 14.8359 3.72362 14.7958 3.714 14.751C3.647 14.441 3.582 14.152 3.524 13.903C3.48782 13.7724 3.40627 13.6589 3.294 13.583C1.475 12.243 0.5 10.12 0.5 7.766ZM4.281 16.41C4.25168 16.4098 4.22268 16.4161 4.19607 16.4284C4.16945 16.4407 4.14586 16.4587 4.12696 16.4811C4.10807 16.5036 4.09434 16.5299 4.08674 16.5582C4.07915 16.5865 4.07787 16.6161 4.083 16.645C4.188 17.249 4.265 17.792 4.287 18.16C4.35 19.201 5.117 20.059 6.142 20.28L6.338 20.323C7.43346 20.5587 8.56654 20.5587 9.662 20.323L9.858 20.28C10.883 20.059 11.65 19.201 11.713 18.16C11.735 17.792 11.813 17.25 11.917 16.645C11.9221 16.6161 11.9209 16.5865 11.9133 16.5582C11.9057 16.5299 11.8919 16.5036 11.873 16.4811C11.8541 16.4587 11.8306 16.4407 11.8039 16.4284C11.7773 16.4161 11.7483 16.4098 11.719 16.41H4.281Z" fill="#CDD4DF"/>
</svg>
