<svg width="180" height="180" viewBox="0 0 180 180" fill="none" xmlns="http://www.w3.org/2000/svg">
<g clip-path="url(#clip0_446_4686)">
<path d="M90.1069 0.000827435C104.716 0.000827435 118.471 3.4138 131.375 10.0253L133.08 10.8789L131.588 12.0517C127.962 14.931 125.083 18.6632 123.27 22.9283L122.737 24.1011L121.671 23.5682C111.753 18.8762 101.197 16.4237 90.213 16.4237C49.5851 16.4237 16.6352 49.4804 16.6352 90.0015C16.6352 130.523 49.4782 163.58 90.1069 163.58C130.736 163.58 163.685 130.523 163.685 90.0015C163.685 80.2984 161.872 70.8076 158.033 61.8498L157.5 60.677L158.673 60.144C163.045 58.5444 166.884 55.8789 169.976 52.4659L171.149 50.9732L171.896 52.6797C177.334 64.5161 180 77.0992 180 89.7885C180 139.374 139.585 179.788 90 179.788C40.4149 179.788 0 139.374 0 89.7892C0 40.2048 40.4149 -0.210813 90.1069 0.000827435ZM90.1069 49.0536C112.607 49.0536 131.055 67.3954 131.161 90.1084C131.161 112.821 112.82 131.163 90.1069 131.163C67.3931 131.163 49.0521 112.821 49.0521 90.1084C49.0521 67.3954 67.5 49.0536 90.1069 49.0536ZM148.863 15.144C159.228 15.144 167.631 23.5464 167.631 33.9118C167.631 44.2766 159.228 52.6797 148.863 52.6797C138.497 52.6797 130.095 44.2773 130.095 33.9118C130.095 23.5464 138.497 15.144 148.863 15.144Z" fill="#3880FF"/>
</g>
<defs>
<clipPath id="clip0_446_4686">
<rect width="180" height="180" fill="white"/>
</clipPath>
</defs>
</svg>
