<svg width="180" height="180" viewBox="0 0 180 180" fill="none" xmlns="http://www.w3.org/2000/svg">
<path d="M11.25 11.25H168.75V168.75H11.25V11.25Z" fill="#F5DE19"/>
<path d="M117.05 134.296C118.394 137.02 120.479 139.31 123.066 140.902C125.654 142.494 128.637 143.324 131.675 143.296C137.806 143.296 141.727 140.231 141.727 135.984C141.727 130.921 137.699 129.11 130.949 126.157L127.248 124.571C116.561 120.02 109.473 114.322 109.473 102.273C109.473 91.175 117.911 82.7206 131.146 82.7206C135.431 82.412 139.711 83.3712 143.454 85.4788C147.197 87.5864 150.237 90.749 152.195 94.5725L140.624 101.969C139.87 100.074 138.558 98.452 136.861 97.319C135.164 96.1859 133.164 95.5949 131.124 95.6244C130.234 95.5353 129.335 95.6326 128.484 95.9101C127.634 96.1875 126.851 96.6391 126.184 97.236C125.518 97.833 124.983 98.5621 124.615 99.3771C124.246 100.192 124.051 101.075 124.042 101.969C124.042 106.408 126.792 108.208 133.143 110.969L136.844 112.556C149.422 117.95 156.532 123.446 156.532 135.804C156.532 149.129 146.064 156.431 132.007 156.431C126.53 156.776 121.071 155.531 116.285 152.845C111.5 150.16 107.593 146.148 105.035 141.294L117.05 134.296ZM64.7655 135.579C67.0887 139.702 69.2037 143.189 74.2887 143.189C79.1487 143.189 82.2199 141.288 82.2199 133.891V83.5644H97.0193V134.088C97.0193 149.411 88.0193 156.386 74.9187 156.386C70.2879 156.639 65.6889 155.485 61.7263 153.075C57.7636 150.666 54.6229 147.114 52.7168 142.886L64.7655 135.579Z" fill="black"/>
</svg>
