<svg width="180" height="180" viewBox="0 0 180 180" fill="none" xmlns="http://www.w3.org/2000/svg">
<g clip-path="url(#clip0_446_4866)">
<path d="M137.812 0H42.1875C18.888 0 0 18.888 0 42.1875V137.812C0 161.112 18.888 180 42.1875 180H137.812C161.112 180 180 161.112 180 137.812V42.1875C180 18.888 161.112 0 137.812 0Z" fill="#242938"/>
<mask id="mask0_446_4866" style="mask-type:luminance" maskUnits="userSpaceOnUse" x="39" y="19" width="103" height="142">
<path d="M39.375 19.6875H141.238V160.312H39.375V19.6875Z" fill="white"/>
</mask>
<g mask="url(#mask0_446_4866)">
<path fill-rule="evenodd" clip-rule="evenodd" d="M139.501 87.4832C139.501 115.331 117.429 137.907 90.203 137.907C62.9766 137.907 40.9062 115.331 40.9062 87.4832C40.9062 59.6352 62.9773 37.0586 90.203 37.0586C117.429 37.0586 139.501 59.6345 139.501 87.4832Z" fill="#D33833"/>
<path d="M42.9168 99.9726C42.9168 99.9726 39.3477 47.3887 87.8001 45.8861L84.4194 40.252L58.1282 49.079L50.616 57.7176L44.0432 70.3007L40.2871 84.9489L41.4135 94.7146" fill="#EF3D3A"/>
<path d="M56.4398 53.0854C47.79 61.9356 42.4378 74.1552 42.4378 87.6728C42.4378 101.188 47.79 113.408 56.4391 122.257C65.0932 131.105 77.0189 136.565 90.2032 136.565C103.387 136.565 115.315 131.105 123.967 122.257C132.616 113.408 137.97 101.188 137.97 87.6728C137.97 74.1552 132.616 61.9356 123.967 53.0861C115.315 44.2394 103.388 38.7796 90.2032 38.7782C77.0189 38.7796 65.0932 44.2394 56.4391 53.0861M54.2496 124.398C45.0577 114.996 39.375 102.004 39.375 87.6728C39.375 73.3389 45.0577 60.348 54.2503 50.9465C63.4402 41.5436 76.1618 35.7154 90.2032 35.7168C104.245 35.7154 116.968 41.5436 126.156 50.9465C135.349 60.348 141.033 73.3403 141.032 87.6728C141.033 102.004 135.349 114.996 126.156 124.397C116.968 133.799 104.245 139.627 90.2032 139.627C76.1618 139.627 63.4402 133.799 54.2503 124.397" fill="#231F20"/>
<path fill-rule="evenodd" clip-rule="evenodd" d="M110.957 87.7637L103.444 88.8901L93.3028 90.0172L86.7293 90.2042L80.3449 90.0172L75.4617 88.5146L71.1417 83.8198L67.7618 74.2419L67.0102 72.1754L62.5031 70.6735L59.8734 66.3542L57.9961 60.1569L60.0619 54.7105L64.9444 53.0202L68.8889 54.8982L70.7669 59.0298L73.0205 58.6543L73.7714 57.7156L73.0205 53.3956L72.832 47.9492L73.9591 40.4377L73.9148 36.1466L77.3398 30.672L83.3494 26.3527L93.866 21.8457L105.51 23.5353L115.651 30.8598L120.346 38.372L123.351 43.8184L124.102 57.3395L121.848 68.9832L117.717 79.3121L113.773 84.7585" fill="#F0D6B7"/>
<path fill-rule="evenodd" clip-rule="evenodd" d="M104.569 120.253L77.7136 121.38V125.887L79.9671 141.662L78.8407 142.977L60.0602 136.592L58.7454 134.338L56.868 113.117L52.5487 100.347L51.6094 97.3417L66.633 87.0128L71.3285 85.1348L75.4601 90.205L79.0284 93.3979L83.16 94.7127L85.038 95.2759L87.2916 105.042L88.9819 107.107L93.3012 105.605L90.296 111.427L106.635 119.127L104.569 120.253Z" fill="#335061"/>
<path fill-rule="evenodd" clip-rule="evenodd" d="M60.0615 54.7103L64.944 53.02L68.8885 54.8981L70.7666 59.0296L73.0201 58.6541L73.5833 56.3999L72.4569 52.0813L73.5833 41.7524L72.6439 36.1176L76.0245 32.1737L83.349 26.3519L81.2832 23.5352L70.9536 28.6061L66.6343 31.986L64.193 37.2447L60.437 42.3149L59.3105 48.3252L60.0615 54.7103Z" fill="#6D6B6D"/>
<path fill-rule="evenodd" clip-rule="evenodd" d="M67.7607 37.0565C67.7607 37.0565 70.5781 30.1083 81.8464 26.7276C93.1147 23.347 82.4096 24.2857 82.4096 24.2857L70.2034 28.9812L65.5079 33.6759L63.4421 37.4327L67.7607 37.0565ZM62.1273 53.3951C62.1273 53.3951 58.1834 40.2487 73.2078 38.3714L72.6439 36.1172L62.315 38.5591L59.3105 48.3248L60.0622 54.7092L62.1273 53.3951Z" fill="#DCD9D8"/>
<path fill-rule="evenodd" clip-rule="evenodd" d="M68.1367 70.8605L70.5955 68.4776C70.5955 68.4776 71.7058 68.607 71.8928 69.9211C72.0805 71.2367 72.6438 83.0675 80.7191 89.4533C81.456 90.0361 74.7102 88.5139 74.7102 88.5139L68.6999 79.1236M102.693 67.2929C102.693 67.2929 103.131 61.5997 104.664 62.0377C106.197 62.4758 106.197 64.0086 106.197 64.0086C106.197 64.0086 102.474 66.4175 102.693 67.2929Z" fill="#F7E4CD"/>
<path d="M118.28 46.4473C118.28 46.4473 115.184 47.1012 114.899 49.8279C114.614 52.5553 118.28 50.3911 118.843 50.2034M95.5554 46.6357C95.5554 46.6357 91.4238 47.1989 91.4238 49.8279C91.4238 52.4576 96.1193 52.2698 97.4334 51.1427" fill="#F7E4CD"/>
<path fill-rule="evenodd" clip-rule="evenodd" d="M70.0136 58.8424C70.0136 58.8424 62.8769 54.5231 62.1259 58.6547C61.375 62.7862 59.684 65.7914 63.2523 70.1107L60.8111 69.3598L58.5576 63.5379L57.8066 57.9037L62.1259 53.3967L67.0084 53.7722L69.8259 56.0257L70.0136 58.8424ZM73.3942 47.0109C73.3942 47.0109 76.5864 30.4847 92.7379 27.2918C106.035 24.6635 113.02 27.8557 115.649 30.8601C115.649 30.8601 103.818 16.7759 92.5495 21.0944C81.2819 25.4144 73.0188 33.3021 73.2065 38.3723C73.5264 47.0081 73.3942 47.0109 73.3942 47.0109ZM116.964 32.7382C116.964 32.7382 111.518 32.5505 111.33 37.4337C111.33 37.4337 111.33 38.1846 111.705 38.9355C111.705 38.9355 116.025 34.0523 118.654 36.682" fill="#F7E4CD"/>
<path fill-rule="evenodd" clip-rule="evenodd" d="M93.1161 39.4448C93.1161 39.4448 92.1789 31.9495 85.7889 36.3067C81.6573 39.1235 82.0335 43.0673 82.7837 43.8189C83.5354 44.5699 83.3308 46.083 83.9031 45.0445C84.474 44.006 84.2863 40.626 86.3521 39.6867C88.4179 38.748 91.8048 37.6996 93.1161 39.4448Z" fill="#F7E4CD"/>
<path fill-rule="evenodd" clip-rule="evenodd" d="M75.4601 90.2045L57.8074 98.0922C57.8074 98.0922 65.1312 127.202 61.3751 136.216L58.7454 135.278L58.5577 124.197L53.6759 103.164L51.6094 97.3412L70.0137 84.9473L75.4601 90.2045ZM77.2748 106.305L79.7794 109.361V120.629H76.7742C76.7742 120.629 76.3995 112.742 76.3995 111.802C76.3995 110.863 76.7742 107.482 76.7742 107.482M77.3381 122.319L68.8866 122.695L71.3285 124.385L77.3381 125.324" fill="#49728B"/>
<path fill-rule="evenodd" clip-rule="evenodd" d="M106.26 120.442L113.208 120.254L114.898 137.532L107.762 138.47L106.26 120.442Z" fill="#335061"/>
<path fill-rule="evenodd" clip-rule="evenodd" d="M108.139 120.442L118.656 119.879C118.656 119.879 122.975 108.986 122.975 108.423C122.975 107.859 126.731 92.6473 126.731 92.6473L118.28 83.8209L116.59 82.3184L112.082 86.8261V104.291L108.139 120.442Z" fill="#335061"/>
<path fill-rule="evenodd" clip-rule="evenodd" d="M112.832 119.127L106.26 120.442L107.198 125.7C109.64 126.828 113.771 123.822 113.771 123.822M113.02 86.2622L126.167 96.0279L126.542 91.5209L116.589 82.3184L113.02 86.2622Z" fill="#49728B"/>
<path fill-rule="evenodd" clip-rule="evenodd" d="M83.8566 157.44L79.9684 141.662L78.0348 130.021L77.7148 121.38L95.3126 120.443L106.261 120.441L105.265 140.162L106.956 155.374L106.768 158.191L92.4952 159.318L83.8566 157.44Z" fill="white"/>
<path fill-rule="evenodd" clip-rule="evenodd" d="M103.818 120.254C103.818 120.254 102.879 139.785 105.697 153.682C105.697 153.682 100.063 157.251 91.7988 158.19L107.574 157.626L109.452 156.499L107.199 125.7L106.635 119.127" fill="#DCD9D8"/>
<path fill-rule="evenodd" clip-rule="evenodd" d="M115.219 136.029L122.544 133.963L136.44 133.212L138.506 126.827L134.75 115.747L130.431 115.184L124.421 117.062L118.655 119.877L115.595 119.315L113.209 120.252" fill="white"/>
<path fill-rule="evenodd" clip-rule="evenodd" d="M115.086 132.273C115.086 132.273 119.968 130.019 120.72 130.207L118.654 119.878L121.096 118.939C121.096 118.939 122.786 128.704 122.786 129.832C122.786 129.832 133.302 130.395 134.241 130.395C134.241 130.395 136.495 126.075 135.931 121.568L137.997 127.578L138.185 130.958L135.181 135.466L131.8 136.217L126.166 136.029L124.288 133.588L117.715 134.526L115.649 135.278" fill="#DCD9D8"/>
<path d="M107.707 118.941L103.575 108.425L99.2559 102.227C99.2559 102.227 100.195 99.5977 101.509 99.5977H105.829L109.96 101.1L109.585 108.049L107.707 118.941Z" fill="white"/>
<path fill-rule="evenodd" clip-rule="evenodd" d="M108.514 115.37C108.514 115.37 103.255 105.229 103.255 103.726C103.255 103.726 104.194 101.473 105.508 102.036C106.823 102.599 109.641 104.102 109.641 104.102V100.534L103.255 99.2188L98.9355 99.7819L106.26 117.06L107.762 117.248" fill="#DCD9D8"/>
<path d="M85.5466 90.5835L80.3441 90.0182L75.4609 88.5156V90.2052L77.8466 92.8363L85.3588 96.2169" fill="white"/>
<path fill-rule="evenodd" clip-rule="evenodd" d="M77.1518 91.1465C77.1518 91.1465 82.9737 93.5877 84.8517 93.0245L85.0387 95.2759L79.7808 94.1516L76.5879 91.8981L77.1518 91.1465Z" fill="#DCD9D8"/>
<path fill-rule="evenodd" clip-rule="evenodd" d="M115.199 100.235C112.013 100.142 109.134 99.7633 106.614 99.0525C106.784 98.0189 106.464 97.005 106.721 96.2604C107.424 95.7548 108.601 95.7626 109.664 95.6437C108.745 95.1923 107.455 95.0137 106.395 95.2746C106.37 94.5574 106.049 94.113 105.854 93.5519C107.645 92.9121 111.875 88.7201 114.254 90.108C115.388 90.7683 115.87 94.5398 115.957 96.3736C116.031 97.8951 115.819 99.4294 115.199 100.235Z" fill="#D33833"/>
<path d="M115.199 100.235C112.013 100.142 109.134 99.7633 106.614 99.0525C106.784 98.0189 106.464 97.005 106.721 96.2604C107.424 95.7548 108.601 95.7626 109.664 95.6437C108.745 95.1923 107.455 95.0137 106.395 95.2746C106.37 94.5574 106.049 94.113 105.854 93.5519C107.645 92.9121 111.875 88.7201 114.254 90.108C115.388 90.7683 115.87 94.5398 115.957 96.3736C116.031 97.8951 115.819 99.4294 115.199 100.235Z" stroke="#D33833" stroke-width="2.64648"/>
<path fill-rule="evenodd" clip-rule="evenodd" d="M99.9597 95.0275L99.9316 95.7546C98.9367 96.4085 97.33 96.4 96.2381 96.9499C97.8482 97.0202 99.1153 97.4076 100.211 97.954L100.14 99.7758C98.3165 101.024 96.6508 102.884 94.5035 104.054C93.4882 104.608 89.9254 106.033 88.8454 105.781C88.2337 105.639 88.1789 104.88 87.9349 104.166C87.4139 102.635 86.2157 100.198 86.111 97.8942C85.9781 94.9832 85.6842 90.1057 88.8208 90.7047C91.3514 91.1878 94.2947 92.3536 96.2536 93.4237C97.451 94.0783 98.1436 94.8876 99.9597 95.0275Z" fill="#D33833"/>
<path d="M99.9597 95.0275L99.9316 95.7546C98.9367 96.4085 97.33 96.4 96.2381 96.9499C97.8482 97.0202 99.1153 97.4076 100.211 97.954L100.14 99.7758C98.3165 101.024 96.6508 102.884 94.5035 104.054C93.4882 104.608 89.9254 106.033 88.8454 105.781C88.2337 105.639 88.1789 104.88 87.9349 104.166C87.4139 102.635 86.2157 100.198 86.111 97.8942C85.9781 94.9832 85.6842 90.1057 88.8208 90.7047C91.3514 91.1878 94.2947 92.3536 96.2536 93.4237C97.451 94.0783 98.1436 94.8876 99.9597 95.0275Z" stroke="#D33833" stroke-width="2.64648"/>
<path fill-rule="evenodd" clip-rule="evenodd" d="M101.772 98.499C101.494 96.9135 101.173 96.4614 101.297 95.0776C105.525 92.2588 106.319 99.9201 101.772 98.499Z" fill="#D33833"/>
<path d="M101.772 98.499C101.494 96.9135 101.173 96.4614 101.297 95.0776C105.525 92.2588 106.319 99.9201 101.772 98.499Z" stroke="#D33833" stroke-width="2.64648"/>
<path fill-rule="evenodd" clip-rule="evenodd" d="M107.894 99.7852C107.894 99.7852 106.578 97.9071 107.517 97.3439C108.457 96.7807 109.396 97.3446 109.959 96.4052C110.523 95.4659 109.959 94.9027 110.147 93.7755C110.334 92.6491 111.274 92.4607 112.213 92.273C113.152 92.0852 115.781 91.7098 116.157 92.6491L115.03 89.2685L112.776 88.5176L105.639 92.6491L105.264 94.7149V98.8465M88.1745 105.983C87.9512 103.053 87.7079 100.124 87.4446 97.1969C87.0467 92.8249 88.4944 93.5878 92.2842 93.5878C92.8629 93.5878 95.8484 94.2783 96.0621 94.7149C97.0859 96.8067 94.3493 96.342 97.242 97.9198C99.6832 99.2508 103.997 97.1112 103.01 94.1517C102.458 93.4936 100.134 93.9464 99.3 93.514L94.8992 91.2323C93.0324 90.2641 88.718 88.8523 86.7281 90.2051C81.6853 93.6349 87.046 102.204 88.8453 105.781" fill="#EF3D3A"/>
<path fill-rule="evenodd" clip-rule="evenodd" d="M93.1176 39.4449C87.9988 38.2524 85.4556 41.5866 83.9038 45.0446C82.5187 44.7092 83.0699 42.8248 83.4201 41.8651C84.3362 39.3451 88.0284 35.9912 91.0455 36.4461C92.3434 36.6416 94.1005 37.8291 93.1176 39.4449ZM118.057 45.2738L118.3 45.283C119.457 47.6856 120.458 50.2316 121.918 52.3522C120.94 54.6296 114.515 56.6441 114.614 52.5561C116.004 51.9486 118.403 52.4316 119.634 51.6561C118.922 49.7014 117.894 48.0385 118.057 45.2738ZM95.7381 45.3357C96.8357 47.348 97.1929 49.4616 98.7531 50.9818C99.4555 51.6666 100.822 52.5013 100.145 54.4053C99.9864 54.8539 98.8298 55.8552 98.1618 56.052C95.7234 56.772 90.04 56.2004 91.9645 53.1601C93.9817 53.2543 96.693 54.47 98.2005 53.0054C97.0424 51.1548 94.9787 47.4929 95.7381 45.3357ZM117.142 65.784C113.47 68.143 109.375 70.708 103.358 70.1131C102.072 68.9952 101.582 66.5082 102.831 64.865C103.481 65.983 103.072 68.0389 104.884 68.3483C108.299 68.9319 112.273 66.26 114.728 65.3248C116.251 62.7584 114.597 61.8134 113.226 60.1611C110.417 56.7756 106.649 52.5793 106.786 47.5119C107.921 46.6878 108.02 48.7677 108.182 49.1459C109.649 52.5786 113.339 56.9682 116.033 59.9052C116.695 60.6294 117.784 61.3234 117.905 61.8015C118.254 63.1923 116.996 64.8587 117.142 65.784ZM68.7297 63.3006C67.5787 62.6438 67.3045 59.7498 65.953 59.6675C64.0223 59.5508 64.3745 63.4222 64.3823 65.6856C63.0534 64.479 62.8192 60.7637 63.7959 58.8547C62.6828 58.3084 62.1857 59.458 61.5684 59.863C62.3615 54.0995 69.9995 57.1897 68.7297 63.3006ZM119.48 68.1845C117.771 71.4378 115.352 75.0209 110.336 75.125C110.234 74.0745 110.156 72.4756 110.342 71.8428C114.177 71.4744 116.544 69.5232 119.48 68.1845ZM95.4491 70.2938C98.6484 71.9757 104.528 72.1564 108.876 72.0291C109.109 72.9819 109.104 74.1589 109.113 75.3205C103.523 75.5996 96.9144 74.2173 95.4491 70.2938ZM94.8409 73.4305C97.0537 78.9852 104.657 78.3453 111.069 78.1927C110.787 78.9134 110.175 79.7656 109.415 80.0736C107.359 80.9096 101.692 81.5438 98.8396 80.0293C97.0312 79.0674 95.8682 76.8941 94.8775 75.6207C94.3987 75.0055 92.0151 73.434 94.8409 73.4305Z" fill="#231F20"/>
<path fill-rule="evenodd" clip-rule="evenodd" d="M116.873 104.069C114.277 108.516 111.793 113.082 108.713 117.004C110.005 113.207 110.557 106.853 110.752 102.008C113.453 100.744 115.767 102.293 116.873 104.069Z" fill="#81B0C4"/>
<path fill-rule="evenodd" clip-rule="evenodd" d="M130.845 120.051C127.938 120.632 125.896 123.457 123.061 123.276C124.619 121.079 127.35 120.153 130.845 120.051ZM132.127 124.599C129.758 124.85 126.975 125.234 124.572 125.035C125.71 123.298 130.092 123.898 132.127 124.599ZM132.948 128.521C130.285 128.579 126.976 128.526 124.445 128.313C125.942 126.705 131.221 127.717 132.948 128.521Z" fill="#231F20"/>
<path fill-rule="evenodd" clip-rule="evenodd" d="M111.865 139.253C112.246 142.597 113.572 145.985 113.406 149.647C111.934 150.144 111.088 150.578 109.116 150.575C108.977 147.463 108.561 142.705 108.685 139.738C109.655 139.803 111.085 139.045 111.865 139.253Z" fill="#DCD9D8"/>
<path fill-rule="evenodd" clip-rule="evenodd" d="M107.571 89.9727C106.235 90.8452 105.096 91.9351 103.812 92.8667C100.965 93.0073 99.4109 92.6691 97.3184 91.0344C97.3528 90.9029 97.5631 90.962 97.5708 90.8009C100.619 92.1594 104.494 90.2476 107.571 89.9727Z" fill="#F0D6B7"/>
<path fill-rule="evenodd" clip-rule="evenodd" d="M91.5703 110.749C92.4077 107.12 95.6892 105.24 98.6691 103.242C101.745 107.146 103.616 112.166 105.675 117.009C100.809 115.543 95.8355 113.162 91.5703 110.749Z" fill="#81B0C4"/>
<path fill-rule="evenodd" clip-rule="evenodd" d="M108.685 139.738C108.56 142.705 108.977 147.463 109.116 150.575C111.088 150.578 111.934 150.144 113.406 149.647C113.572 145.985 112.246 142.597 111.864 139.253C111.085 139.046 109.654 139.803 108.685 139.738ZM77.9709 122.865C79.2717 134.823 81.1561 144.874 84.6113 155.462C92.2795 157.79 101.524 157.993 108.302 155.892C107.058 149.916 107.602 142.641 106.874 136.263C106.326 131.47 106.606 126.647 105.854 121.757C97.6409 120.049 86.0316 121.358 77.9709 122.865ZM107.796 121.832C107.726 126.967 108.026 132.033 108.418 137.175C110.39 136.879 111.728 136.681 113.56 136.28C112.965 131.33 113.039 125.759 111.826 121.38C110.426 121.394 109.193 121.364 107.796 121.832ZM117.799 121.004C116.864 120.79 115.774 120.996 114.88 121.013C115.3 125.2 116.32 129.818 116.679 134.213C118.086 134.257 118.837 133.593 119.995 133.37C120.056 129.513 119.657 124.198 117.799 121.004ZM132.945 134.843C135.878 134.131 137.723 130.539 136.902 126.851C136.351 124.371 135.371 119.704 134.322 118.118C133.547 116.945 131.445 115.409 129.767 116.484C127.036 118.232 122.226 118.74 120.236 120.856C121.234 124.18 121.544 128.746 121.956 132.958C125.366 133.17 129.563 132.019 132.4 133.241C130.419 133.883 127.85 133.887 126.139 134.823C127.537 135.498 130.811 135.361 132.945 134.843ZM105.675 117.009C103.616 112.165 101.745 107.146 98.6695 103.242C95.6897 105.24 92.4082 107.119 91.5708 110.748C95.8359 113.161 100.809 115.542 105.675 117.009ZM110.753 102.008C110.558 106.853 110.005 113.208 108.714 117.005C111.794 113.083 114.278 108.516 116.874 104.069C115.767 102.293 113.454 100.744 110.753 102.008ZM104.997 99.9631C103.83 99.8379 102.84 101.305 101.322 100.67C100.975 101.055 100.659 101.471 100.304 101.846C103.655 105.885 105.178 111.615 107.767 116.361C109.156 111.802 108.996 106.807 109.301 101.831C107.393 101.952 106.334 100.105 104.997 99.9631ZM101.296 95.0785C101.172 96.4615 101.493 96.9143 101.772 98.4999C106.318 99.9209 105.524 92.2597 101.296 95.0785ZM96.2543 93.4233C94.2954 92.3532 91.3521 91.1874 88.8216 90.7044C85.6849 90.1046 85.9788 94.9829 86.1117 97.8938C86.2165 100.198 87.4146 102.634 87.9356 104.166C88.1796 104.88 88.2345 105.639 88.8455 105.781C89.9262 106.032 93.4889 104.607 94.5042 104.054C96.6516 102.883 98.3173 101.023 100.141 99.7754L100.212 97.9536C99.116 97.4072 97.849 97.0198 96.2388 96.9495C97.3308 96.3997 98.9374 96.4081 99.9324 95.7542L99.9605 95.0272C98.1436 94.8872 97.4517 94.0779 96.2543 93.4233ZM77.5413 90.0244C75.9157 91.6754 82.1018 93.9254 84.072 94.0463C84.0607 93.0022 84.6668 92.0171 84.5452 91.2676C82.2059 90.8569 79.1311 91.1283 77.5413 90.0244ZM97.5713 90.8C97.5635 90.961 97.3533 90.9019 97.3188 91.0334C99.4113 92.6682 100.965 93.0064 103.812 92.8658C105.096 91.9341 106.235 90.8443 107.572 89.9717C104.494 90.2466 100.619 92.1584 97.5713 90.8ZM115.957 96.3744C115.869 94.5406 115.387 90.769 114.254 90.1088C111.874 88.7201 107.644 92.9129 105.853 93.5527C106.048 94.1138 106.369 94.5582 106.394 95.2754C107.454 95.0145 108.745 95.1931 109.663 95.6445C108.6 95.7633 107.423 95.7556 106.72 96.2611C106.463 97.0058 106.784 98.0197 106.613 99.0533C109.133 99.7641 112.012 100.142 115.199 100.236C115.818 99.4301 116.03 97.8959 115.957 96.3744ZM74.8041 91.6212C74.2936 91.257 70.8399 86.7626 70.3667 86.9497C64.1159 89.4141 58.2722 93.6765 53.0494 97.7075C58.0289 108.392 60.0384 121.482 60.3942 134.098C66.098 136.767 71.1077 140.612 78.8484 141.014C77.9527 134.677 77.1349 129.023 76.6266 123.057C74.6817 122.237 71.8917 123.094 70.0713 122.803C70.0559 120.609 72.8508 121.842 73.0842 120.367C73.2593 119.251 71.5458 119.167 72.1041 117.41C73.5265 117.927 74.2739 119.07 75.7913 119.499C77.1778 116.465 75.7723 111.098 75.972 108.563C76.0099 108.087 76.2096 105.926 77.2756 106.305C78.2199 106.641 77.2221 112.053 77.3255 114.452C77.4197 116.663 77.0583 118.803 77.9534 120.19C85.6375 119.137 93.3733 118.504 101.126 118.292C99.3459 117.528 97.2309 116.805 94.912 115.498C93.6548 114.789 89.692 113.315 89.3292 112.121C88.7506 110.218 90.848 109.205 91.2066 107.574C87.4315 109.633 86.6946 105.6 85.8016 102.743C84.9924 100.156 84.5318 98.2229 84.3335 96.7301C81.0809 95.1797 77.6039 93.6097 74.8041 91.6212ZM112.653 87.4932C117.861 84.9683 118.799 96.9305 116.758 100.784C117.074 101.934 118.159 102.373 118.602 103.407C115.696 108.613 112.468 113.472 109.503 118.616C111.708 117.244 114.859 118.371 117.454 117.343C118.403 116.968 119.09 114.796 119.808 113.059C121.784 108.278 123.859 102.251 124.781 97.6892C124.99 96.65 125.558 94.3852 125.43 93.4599C125.203 91.8033 122.956 90.5757 121.813 89.5512C119.707 87.6591 118.381 85.9941 116.184 84.2251C115.294 85.5406 113.382 86.4237 112.653 87.4932ZM62.8945 41.3119C60.4132 44.0422 60.9328 49.1588 61.2331 52.7975C65.719 49.9765 71.6716 53.0211 71.6154 57.8199C73.7564 57.7629 72.4156 55.1452 72.0281 53.4591C70.7618 47.9515 74.1607 41.9672 72.1821 36.9308C68.3402 37.2218 65.1846 38.7912 62.8945 41.3119ZM80.6499 25.4656C75.0319 27.0582 67.8326 31.1398 65.5242 36.1861C67.3116 35.926 68.5526 35.0253 70.316 34.9135C70.9819 34.8699 71.8552 35.1933 72.6209 35.0028C74.1474 34.6238 75.4355 31.2017 76.5872 29.9283C77.7094 28.6852 79.0587 28.1536 79.9819 27.0202C80.5746 26.734 81.4521 26.7537 81.4852 25.8629C81.2285 25.5886 80.9578 25.3784 80.6499 25.4656ZM109.892 26.9633C104.061 23.674 94.192 21.199 87.9898 24.2914C82.9856 26.7868 76.2202 30.9148 73.9139 36.1468C76.069 41.1952 73.2762 45.8218 73.0976 50.9476C73.0027 53.675 74.3815 56.0558 74.4877 59.0251C73.7501 60.2415 71.4973 60.3912 69.9384 60.3076C69.4132 57.6814 68.4949 54.729 65.79 54.4329C61.9629 54.0139 59.1645 57.1822 58.9908 60.4918C58.7848 64.3843 61.9805 70.8354 66.5093 70.3876C68.2594 70.2146 68.689 68.461 70.5952 68.4786C71.6288 70.5401 69.0012 71.1877 68.7319 72.6622C68.6609 73.0433 68.9492 74.5318 69.1165 75.2293C69.9392 78.6289 71.7736 83.0276 73.5785 85.6151C75.8693 88.8973 80.3707 89.3923 85.2131 89.7143C86.078 87.8511 89.2638 88.0043 91.3402 88.4916C88.8518 87.5058 86.5392 85.1173 84.6218 83.003C82.4203 80.5765 80.19 77.9743 80.0768 74.8039C84.2379 80.5765 87.6755 85.6172 95.2418 88.1569C100.967 90.0772 107.653 87.2766 112.053 84.1878C113.878 82.9039 114.968 80.8662 116.265 79.0015C121.12 72.0181 123.385 62.0506 122.887 52.389C122.682 48.4051 122.691 44.4338 121.354 41.7535C119.957 38.9501 115.232 36.4428 112.465 38.9783C111.952 36.2522 114.765 34.5668 118.069 35.547C115.713 32.5067 113.241 28.8533 109.892 26.9633ZM120.755 116.864C125.311 114.599 133.824 110.767 136.68 116.873C137.734 119.123 138.971 122.926 139.518 125.25C140.289 128.527 138.681 135.415 135.313 136.515C132.337 137.486 128.866 137.427 125.282 136.707C124.86 136.356 124.39 135.744 124.061 135.106C121.503 135.007 119.107 135.244 117.085 136.296C117.276 138.188 115.997 138.492 114.796 138.882C113.907 142.409 116.576 147.016 115.938 150.232C115.481 152.523 112.662 152.877 110.59 153.306C110.522 154.58 110.681 155.643 110.822 156.72C110.348 158.466 108.223 159.459 106.21 159.703C99.5843 160.5 89.5254 160.858 83.153 158.566C81.3748 154.204 79.9742 148.899 78.4927 143.919C72.2777 144.583 67.2511 141.237 62.5127 139.046C60.8716 138.285 58.602 137.866 57.9895 136.56C57.3947 135.295 57.638 132.872 57.4903 130.583C57.1156 124.737 56.7942 119.098 55.2502 113.112C54.5569 110.426 53.3489 108.055 52.5059 105.466C51.7268 103.068 50.3656 100.103 50.0105 97.711C49.4845 94.1651 52.823 93.9683 54.9577 92.4319C58.2574 90.0561 60.8477 88.7419 64.4217 86.5981C65.4806 85.9632 68.6728 84.3558 69.0363 83.6154C69.7577 82.1473 67.7967 80.078 67.2729 78.9277C66.4432 77.1087 66.0108 75.5633 65.892 73.7682C62.8938 73.2943 60.6213 71.5097 59.2488 69.4981C56.9777 66.1681 55.4027 60.008 57.3673 55.3224C57.522 54.9533 58.2898 54.2276 58.4037 53.6609C58.6273 52.5451 57.9825 51.0608 57.9424 49.8739C57.7364 43.7834 58.9732 38.536 63.0731 36.6987C64.7374 30.0683 70.695 27.864 76.3074 24.5684C78.4055 23.3372 80.7181 22.5504 83.1066 21.6715C91.6749 18.5173 104.821 19.1115 111.933 24.4897C114.948 26.7699 119.768 31.5856 121.492 35.0717C126.045 44.2756 125.722 59.6586 122.537 70.8551C122.109 72.3584 121.488 74.5683 120.621 76.374C120.016 77.6347 118.138 80.1575 118.365 81.2712C118.6 82.4222 122.65 85.4963 123.518 86.3337C125.081 87.8419 128.052 89.8437 128.292 91.7471C128.551 93.7721 127.4 96.5431 126.816 98.4978C124.867 105.02 122.965 111.049 120.755 116.864Z" fill="#231F20"/>
<path fill-rule="evenodd" clip-rule="evenodd" d="M90.3582 71.7144C90.605 71.3854 91.9641 70.8861 93.8653 71.8016C93.8653 71.8016 91.6118 72.1771 91.7996 75.9346L90.8602 75.7461C90.8602 75.7461 89.8899 72.3395 90.3582 71.7144Z" fill="#F7E4CD"/>
<path fill-rule="evenodd" clip-rule="evenodd" d="M106.823 104.008C106.827 104.146 106.803 104.283 106.752 104.412C106.702 104.54 106.627 104.657 106.53 104.756C106.434 104.855 106.319 104.933 106.192 104.987C106.065 105.04 105.928 105.068 105.79 105.068C105.652 105.068 105.516 105.04 105.389 104.986C105.262 104.933 105.147 104.854 105.051 104.755C104.954 104.657 104.879 104.539 104.829 104.411C104.779 104.283 104.755 104.145 104.758 104.008C104.765 103.738 104.877 103.483 105.07 103.295C105.263 103.107 105.522 103.002 105.791 103.002C106.06 103.002 106.319 103.107 106.512 103.295C106.705 103.483 106.816 103.739 106.823 104.008ZM107.856 108.797C107.856 109.071 107.747 109.334 107.553 109.527C107.359 109.721 107.096 109.83 106.823 109.829C106.549 109.829 106.286 109.72 106.092 109.526C105.899 109.333 105.79 109.07 105.79 108.796C105.791 108.522 105.9 108.259 106.093 108.066C106.287 107.872 106.55 107.763 106.824 107.764C107.098 107.764 107.361 107.873 107.554 108.067C107.748 108.26 107.856 108.523 107.856 108.797Z" fill="#1D1919"/>
</g>
</g>
<defs>
<clipPath id="clip0_446_4866">
<rect width="180" height="180" fill="white"/>
</clipPath>
</defs>
</svg>
