<svg width="180" height="180" viewBox="0 0 180 180" fill="none" xmlns="http://www.w3.org/2000/svg">
<path d="M137.812 0H42.1875C18.888 0 0 18.888 0 42.1875V137.812C0 161.112 18.888 180 42.1875 180H137.812C161.112 180 180 161.112 180 137.812V42.1875C180 18.888 161.112 0 137.812 0Z" fill="#A9CBD4"/>
<mask id="mask0_446_4839" style="mask-type:luminance" maskUnits="userSpaceOnUse" x="46" y="19" width="87" height="142">
<path d="M46.4062 19.6875H132.919V160.312H46.4062V19.6875Z" fill="white"/>
</mask>
<g mask="url(#mask0_446_4839)">
<path d="M114.608 97.5077C109.138 97.5077 104.234 99.9313 100.876 103.746L92.2711 97.6546C93.1844 95.1402 93.709 92.4395 93.709 89.613C93.709 86.8356 93.2027 84.1799 92.3196 81.7028L100.905 75.6756C104.263 79.4711 109.154 81.8814 114.608 81.8814C124.703 81.8814 132.919 73.6682 132.919 63.5706C132.919 53.4738 124.703 45.2598 114.608 45.2598C104.513 45.2598 96.2972 53.473 96.2972 63.5699C96.2972 65.377 96.57 67.12 97.0601 68.7702L88.4686 74.8009C84.8068 70.2519 79.5899 67.2203 73.8246 66.291V55.9368C82.1187 54.1952 88.3688 46.8257 88.3688 38.0198C88.3688 27.9229 80.1534 19.709 70.0573 19.709C59.9611 19.709 51.7472 27.9215 51.7472 38.0198C51.7472 46.7076 57.8348 53.9863 65.9637 55.8524V66.3416C54.8698 68.2893 46.4062 77.9699 46.4062 89.613C46.4062 101.313 54.9534 111.029 66.1268 112.91V123.986C57.915 125.791 51.7465 133.114 51.7465 141.861C51.7465 151.958 59.9618 160.172 70.058 160.172C80.1541 160.172 88.3688 151.958 88.3688 141.861C88.3688 133.114 82.2002 125.791 73.9884 123.986V112.91C79.6438 111.958 84.7603 108.982 88.3849 104.538L97.0474 110.669C96.553 112.341 96.3003 114.075 96.2972 115.819C96.2972 125.916 104.512 134.13 114.608 134.13C124.703 134.13 132.919 125.916 132.919 115.819C132.919 105.722 124.703 97.5077 114.608 97.5077ZM114.608 54.693C119.504 54.693 123.486 58.6762 123.486 63.5706C123.486 68.4651 119.504 72.4483 114.608 72.4483C109.712 72.4483 105.73 68.4651 105.73 63.5706C105.73 58.6762 109.712 54.693 114.608 54.693ZM61.1796 38.0198C61.1796 33.126 65.1621 29.1421 70.058 29.1421C74.9531 29.1421 78.9356 33.1253 78.9356 38.0198C78.9356 42.9142 74.9531 46.8974 70.058 46.8974C65.1621 46.8974 61.1796 42.9142 61.1796 38.0198ZM78.9356 141.861C78.9356 146.755 74.9531 150.738 70.058 150.738C65.1621 150.738 61.1796 146.755 61.1796 141.861C61.1796 136.966 65.1621 132.983 70.058 132.983C74.9531 132.983 78.9356 136.967 78.9356 141.861ZM70.0573 101.994C63.2292 101.994 57.6738 96.441 57.6738 89.613C57.6738 82.7849 63.2285 77.2302 70.0566 77.2302C76.8846 77.2302 82.4393 82.7849 82.4393 89.613C82.4393 96.441 76.8846 101.994 70.0573 101.994ZM114.608 124.697C109.712 124.697 105.73 120.713 105.73 115.819C105.73 110.925 109.712 106.941 114.608 106.941C119.504 106.941 123.486 110.925 123.486 115.819C123.486 120.714 119.504 124.697 114.608 124.697Z" fill="black"/>
</g>
</svg>
