<svg width="180" height="180" viewBox="0 0 180 180" fill="none" xmlns="http://www.w3.org/2000/svg">
<path d="M137.812 0H42.1875C18.888 0 0 18.888 0 42.1875V137.812C0 161.112 18.888 180 42.1875 180H137.812C161.112 180 180 161.112 180 137.812V42.1875C180 18.888 161.112 0 137.812 0Z" fill="#326CE5"/>
<path d="M90.0514 21.0938C88.945 21.1706 87.9132 21.679 87.1781 22.5094C86.443 23.3398 86.0636 24.4258 86.1216 25.5333V26.6618C86.2292 27.9394 86.4211 29.205 86.6736 30.4587C87.0419 32.8601 87.1745 35.2919 87.0694 37.7191C86.839 38.5192 86.3853 39.237 85.7616 39.7884L85.6716 41.4809C83.2416 41.6848 80.8299 42.0567 78.454 42.5967C68.4544 44.8504 59.3571 50.0424 52.3308 57.5058L50.8915 56.4863C50.5001 56.6039 50.0894 56.6433 49.6828 56.602C49.2762 56.5608 48.8817 56.4397 48.522 56.2458C46.5741 54.8046 44.7714 53.1769 43.1396 51.3858C42.3202 50.4061 41.4448 49.4748 40.5176 48.5965L39.6296 47.8884C38.8382 47.2535 37.8658 46.886 36.8522 46.8387C36.2472 46.8064 35.6431 46.9179 35.0894 47.1639C34.5357 47.4099 34.048 47.7835 33.6664 48.2541C33.0161 49.1671 32.7545 50.3008 32.939 51.4065C33.1236 52.5122 33.7392 53.4995 34.6507 54.1519L35.4783 54.8121C36.5438 55.5216 37.6495 56.1687 38.79 56.7499C40.9293 57.9334 42.9366 59.3413 44.7779 60.9497C45.2538 61.6278 45.5301 62.4259 45.5752 63.2531L46.883 64.4534C39.8228 75.0516 36.9218 87.8824 38.7359 100.487L37.0554 100.967C36.6202 101.664 36.0339 102.255 35.3398 102.695C32.9962 103.321 30.597 103.717 28.1764 103.877C26.892 103.904 25.6102 104.004 24.3373 104.177L23.2749 104.417H23.1554C22.604 104.493 22.0746 104.683 21.6006 104.975C21.1265 105.266 20.7182 105.653 20.4016 106.111C20.0849 106.569 19.8667 107.087 19.7608 107.634C19.655 108.18 19.6638 108.742 19.7867 109.285C19.9501 110.011 20.3124 110.677 20.8329 111.209C21.3581 111.738 22.0199 112.111 22.7444 112.285C23.469 112.46 24.2279 112.43 24.9364 112.198H25.0144L26.0944 112.079C27.3151 111.714 28.5132 111.277 29.6825 110.771C31.9343 109.866 34.2692 109.183 36.6539 108.731C37.4793 108.778 38.2743 109.059 38.9461 109.541L40.7461 109.241C44.6434 121.341 52.8398 131.592 63.7847 138.057L63.0528 139.587C63.389 140.288 63.5141 141.072 63.4128 141.843C62.4213 144.139 61.2096 146.333 59.7945 148.395C59.0184 149.419 58.3015 150.486 57.6471 151.592L57.1367 152.672C56.8602 153.153 56.6859 153.685 56.6247 154.235C56.5636 154.786 56.6168 155.343 56.7812 155.873C56.9456 156.402 57.2176 156.891 57.58 157.31C57.9424 157.729 58.3876 158.069 58.8875 158.308C59.5559 158.628 60.2999 158.756 61.0369 158.678C61.7755 158.595 62.4766 158.309 63.0623 157.851C63.648 157.394 64.0955 156.783 64.355 156.086L64.8521 155.066C65.3068 153.87 65.6916 152.648 66.0045 151.407C67.0662 148.785 67.6428 145.971 69.094 144.231C69.5685 143.784 70.1668 143.492 70.8104 143.391L71.7104 141.753C83.5731 146.313 96.6995 146.345 108.584 141.843L109.382 143.373C110.198 143.497 110.931 143.939 111.422 144.603C112.547 146.75 113.463 149 114.158 151.322C114.476 152.566 114.864 153.79 115.322 154.988L115.819 156.008C116.016 156.527 116.317 156.999 116.704 157.396C117.092 157.793 117.557 158.105 118.071 158.313C118.585 158.522 119.137 158.621 119.691 158.606C120.245 158.591 120.791 158.462 121.293 158.226C121.964 157.91 122.535 157.415 122.941 156.794C123.345 156.171 123.567 155.447 123.584 154.705C123.601 153.962 123.412 153.23 123.037 152.589L122.515 151.509C121.862 150.406 121.145 149.342 120.367 148.323C118.988 146.331 117.799 144.207 116.767 141.981C116.671 141.574 116.657 141.152 116.727 140.74C116.797 140.327 116.95 139.933 117.176 139.581C116.92 139.057 116.698 138.518 116.509 137.967C127.431 131.454 135.59 121.167 139.447 109.049L141.15 109.349C141.761 108.793 142.563 108.496 143.388 108.521C145.77 108.977 148.103 109.721 150.36 110.561C151.525 111.096 152.723 111.558 153.947 111.941C154.235 112.019 154.655 112.084 154.979 112.163H155.057C155.765 112.392 156.523 112.42 157.246 112.243C157.969 112.067 158.629 111.693 159.152 111.163C159.676 110.634 160.042 109.97 160.209 109.245C160.378 108.52 160.341 107.762 160.103 107.057C159.86 106.352 159.427 105.729 158.85 105.257C158.274 104.784 157.578 104.481 156.839 104.381L155.675 104.105C154.402 103.932 153.12 103.832 151.836 103.805C149.415 103.65 147.015 103.254 144.672 102.623C143.948 102.218 143.35 101.62 142.944 100.896L141.324 100.415C143.052 87.8162 140.093 75.0211 133.009 64.4597L134.425 63.1519C134.367 62.3277 134.634 61.5136 135.169 60.8836C137.01 59.3037 138.999 57.9053 141.108 56.7077C142.248 56.1251 143.354 55.4781 144.42 54.7699L145.296 54.0619C145.778 53.7623 146.191 53.3641 146.508 52.8935C146.825 52.4229 147.039 51.8905 147.136 51.3314C147.233 50.7722 147.21 50.1989 147.069 49.6491C146.928 49.0994 146.673 48.5856 146.32 48.1416C145.966 47.6978 145.523 47.3339 145.018 47.0738C144.514 46.8137 143.96 46.6633 143.394 46.6325C142.827 46.6018 142.261 46.6914 141.731 46.8953C141.202 47.0993 140.721 47.4131 140.322 47.816L139.435 48.5241C138.509 49.4037 137.633 50.3352 136.813 51.3141C135.229 53.1244 133.475 54.778 131.574 56.2521C130.807 56.565 129.967 56.6563 129.151 56.5158L127.633 57.5958C118.869 48.4108 107.069 42.7186 94.4248 41.5765C94.4248 40.9767 94.3468 40.0767 94.3348 39.7948C93.6549 39.3276 93.1853 38.6124 93.027 37.8028C92.9429 35.3797 93.0955 32.9541 93.4826 30.5606C93.7407 29.3013 93.9207 28.0413 94.0346 26.7638V25.5635C94.0933 24.4558 93.7141 23.3695 92.9789 22.5389C92.2437 21.7083 91.2114 21.2001 90.1048 21.124L90.0514 21.0938ZM85.0472 52.0875L83.8477 73.0448H83.7577C83.6972 74.3407 82.9357 75.4446 81.7657 76.069C80.5957 76.6927 79.2099 76.507 78.1657 75.7448L60.9764 63.5653C66.4477 58.1919 73.3113 54.4537 80.7933 52.7723C82.1948 52.4724 83.6106 52.2441 85.0353 52.0882L85.0472 52.0875ZM95.0548 52.0875C104.083 53.2112 112.493 57.2667 118.993 63.6314L101.967 75.7329C101.451 76.1443 100.83 76.4028 100.174 76.4792C99.5187 76.5555 98.8549 76.4465 98.2582 76.1646C97.6619 75.8815 97.1569 75.4369 96.8005 74.8812C96.4442 74.3255 96.2508 73.681 96.2424 73.0209L95.0548 52.0875ZM54.7376 71.4488L70.456 85.4761V85.5661C70.9356 85.9859 71.2926 86.5277 71.4891 87.1341C71.6855 87.7405 71.7141 88.3887 71.5718 89.01C71.4289 89.6302 71.1209 90.2002 70.6805 90.6596C70.2401 91.1191 69.6837 91.4509 69.0701 91.62V91.6798L48.8996 97.4813C47.901 88.3938 49.9568 79.2326 54.7425 71.4431L54.7376 71.4488ZM125.251 71.4488C130.027 79.2173 132.138 88.3323 131.263 97.4095L111.062 91.5898V91.5117C110.446 91.3469 109.887 91.0165 109.446 90.5564C109.005 90.0962 108.698 89.5239 108.56 88.9017C108.42 88.2804 108.45 87.6329 108.646 87.0272C108.843 86.4214 109.199 85.8796 109.676 85.4585L125.275 71.4973L125.251 71.4488ZM86.8289 86.5681H93.2611L97.1909 91.5595L95.7629 97.7998L89.9853 100.577L84.195 97.7998L82.8331 91.5595L86.8289 86.5681ZM107.432 103.595C107.701 103.566 107.973 103.566 108.242 103.595L129.043 107.105C126.043 115.744 120.121 123.124 112.394 128.062L104.354 108.599C104.132 108.077 104.04 107.509 104.085 106.944C104.152 106.091 104.526 105.291 105.136 104.692C105.747 104.093 106.554 103.736 107.408 103.685L107.432 103.595ZM72.4957 103.685C73.0744 103.695 73.6418 103.847 74.1481 104.127C74.6544 104.407 75.0841 104.808 75.3997 105.293C75.7147 105.777 75.9053 106.332 75.9545 106.907C76.0036 107.483 75.9099 108.062 75.6816 108.593V108.671L67.6906 127.978C60.0424 123.074 54.2259 115.784 51.1432 107.237L71.7638 103.739C71.993 103.715 72.225 103.715 72.4599 103.739L72.4957 103.685ZM89.9192 112.084C90.5746 112.064 91.2227 112.226 91.7915 112.553C92.3603 112.879 92.8274 113.356 93.1409 113.932H93.2189L103.383 132.273L99.3207 133.474C91.8425 135.184 84.036 134.781 76.7736 132.31L86.9731 113.969C87.5911 112.889 88.7309 112.229 89.9733 112.198L89.9192 112.084Z" fill="white" stroke="white" stroke-width="0.0842187"/>
</svg>
