<svg width="180" height="180" viewBox="0 0 180 180" fill="none" xmlns="http://www.w3.org/2000/svg">
<g clip-path="url(#clip0_446_4594)">
<path d="M137.812 0H42.1875C18.888 0 0 18.888 0 42.1875V137.812C0 161.112 18.888 180 42.1875 180H137.812C161.112 180 180 161.112 180 137.812V42.1875C180 18.888 161.112 0 137.812 0Z" fill="#242938"/>
<path fill-rule="evenodd" clip-rule="evenodd" d="M135.022 110.863C135.579 110.543 136.042 110.082 136.365 109.527C136.687 108.971 136.858 108.341 136.86 107.699L136.927 86.5058C136.928 85.8634 137.099 85.2329 137.422 84.6776C137.745 84.1222 138.208 83.6614 138.765 83.3417L150.253 76.7429C151.094 76.2602 152.092 76.1308 153.029 76.3831C153.965 76.6353 154.764 77.2487 155.249 78.0887C155.57 78.6449 155.739 79.2759 155.739 79.9182V118.447C155.739 119.091 155.569 119.724 155.247 120.282C154.924 120.839 154.459 121.302 153.9 121.622L110.545 146.525C109.991 146.842 109.364 147.01 108.725 147.01C108.087 147.011 107.459 146.845 106.905 146.528L72.8796 127.068C72.3192 126.747 71.8533 126.285 71.5292 125.726C71.2051 125.168 71.0342 124.534 71.0339 123.889V104.461C71.0339 104.44 71.0599 104.425 71.0817 104.435C71.0861 104.438 71.0912 104.44 71.0964 104.44C71.1017 104.44 71.1068 104.439 71.1114 104.436C71.1159 104.434 71.1196 104.43 71.1221 104.425C71.1245 104.421 71.1257 104.415 71.1253 104.41V104.388C71.1253 104.374 71.1331 104.359 71.1478 104.352L99.1702 88.253C99.1955 88.2383 99.1842 88.1982 99.1554 88.1982C99.1476 88.198 99.1402 88.1948 99.1347 88.1893C99.1292 88.1838 99.1261 88.1764 99.1259 88.1687L99.1807 69.1217C99.1839 68.4775 99.0168 67.844 98.6964 67.2851C98.376 66.7263 97.9136 66.2621 97.3561 65.9394C96.7989 65.6164 96.1665 65.446 95.5225 65.4454C94.8785 65.4448 94.2457 65.6139 93.6879 65.9358L72.8613 77.9368C72.3055 78.2567 71.6753 78.4251 71.0339 78.4251C70.3925 78.4251 69.7624 78.2567 69.2065 77.9368L48.3138 65.9063C47.7573 65.5856 47.1262 65.4169 46.4838 65.4172C45.8415 65.4176 45.2105 65.5869 44.6543 65.9082C44.0981 66.2295 43.6362 66.6915 43.3151 67.2478C42.9939 67.8041 42.8247 68.4351 42.8245 69.0774V103.502C42.8252 104.143 42.6572 104.774 42.3374 105.33C42.0176 105.886 41.5573 106.349 41.0024 106.671C40.4476 106.994 39.8178 107.164 39.1762 107.167C38.5345 107.169 37.9036 107.002 37.3465 106.684L25.752 100.056C25.1905 99.7348 24.724 99.271 24.3998 98.7115C24.0756 98.1519 23.9053 97.5165 23.9063 96.8698L24.0089 36.7013C24.0103 36.0599 24.1801 35.43 24.5014 34.8748C24.8227 34.3197 25.2842 33.8586 25.8397 33.5379C26.3952 33.2171 27.0252 33.0479 27.6666 33.0472C28.3081 33.0465 28.9385 33.2142 29.4947 33.5337L69.21 56.3452C69.7651 56.6639 70.3939 56.8315 71.0339 56.8315C71.6739 56.8315 72.3028 56.6639 72.8578 56.3452L112.563 33.5337C113.404 33.0501 114.403 32.9204 115.34 33.1733C116.277 33.4262 117.076 34.0409 117.56 34.8823C117.88 35.4385 118.048 36.0699 118.048 36.7126V96.8951C118.049 97.539 117.879 98.1715 117.557 98.729C117.235 99.2864 116.771 99.7491 116.213 100.07L95.4197 112.045C94.8617 112.368 94.3985 112.832 94.0767 113.39C93.7549 113.949 93.5859 114.582 93.5866 115.227C93.5876 115.872 93.759 116.505 94.0835 117.062C94.408 117.619 94.8741 118.081 95.4345 118.4L106.905 124.929C107.459 125.245 108.086 125.411 108.724 125.409C109.362 125.408 109.988 125.24 110.541 124.922L135.022 110.863ZM137.428 56.8761C137.429 57.5237 137.601 58.1595 137.927 58.7187C138.254 59.278 138.723 59.7408 139.286 60.0598C139.85 60.3788 140.488 60.5426 141.136 60.5345C141.783 60.5265 142.417 60.3469 142.973 60.0141L153.959 53.4223C154.501 53.0973 154.95 52.6374 155.262 52.0875C155.574 51.5377 155.738 50.9164 155.739 50.2843V36.8511C155.737 36.367 155.64 35.8879 155.453 35.4416C155.265 34.9952 154.991 34.5904 154.646 34.2506C154.302 33.9107 153.893 33.6425 153.444 33.4614C152.995 33.2803 152.514 33.19 152.03 33.1955C151.383 33.2033 150.749 33.3828 150.194 33.7158L139.208 40.3076C138.665 40.6322 138.215 41.0921 137.904 41.6422C137.592 42.1923 137.428 42.814 137.428 43.4464V56.8789V56.8761Z" fill="#007FFF"/>
</g>
<defs>
<clipPath id="clip0_446_4594">
<rect width="180" height="180" fill="white"/>
</clipPath>
</defs>
</svg>
