<svg width="40" height="40" viewBox="0 0 40 40" fill="none" xmlns="http://www.w3.org/2000/svg">
<path d="M20 13.3335C28.2843 13.3335 35 11.0949 35 8.3335C35 5.57207 28.2843 3.3335 20 3.3335C11.7157 3.3335 5 5.57207 5 8.3335C5 11.0949 11.7157 13.3335 20 13.3335Z" stroke="white" stroke-width="2" stroke-linecap="round" stroke-linejoin="round"/>
<path d="M5 8.3335V31.6668C5 32.9929 6.58035 34.2647 9.3934 35.2024C12.2064 36.14 16.0218 36.6668 20 36.6668C23.9782 36.6668 27.7936 36.14 30.6066 35.2024C33.4196 34.2647 35 32.9929 35 31.6668V8.3335" stroke="white" stroke-width="2" stroke-linecap="round" stroke-linejoin="round"/>
<path d="M5 20C5 21.3261 6.58035 22.5979 9.3934 23.5355C12.2064 24.4732 16.0218 25 20 25C23.9782 25 27.7936 24.4732 30.6066 23.5355C33.4196 22.5979 35 21.3261 35 20" stroke="white" stroke-width="2" stroke-linecap="round" stroke-linejoin="round"/>
</svg>
