<svg width="40" height="40" viewBox="0 0 40 40" fill="none" xmlns="http://www.w3.org/2000/svg">
<path d="M20.005 33.2279C20.9255 33.2279 21.6717 32.4817 21.6717 31.5612C21.6717 30.6407 20.9255 29.8945 20.005 29.8945C19.0846 29.8945 18.3384 30.6407 18.3384 31.5612C18.3384 32.4817 19.0846 33.2279 20.005 33.2279Z" fill="#71717A"/>
<path d="M27.8749 3.44141H12.1249C11.0793 3.50422 10.1007 3.97706 9.40167 4.75722C8.70265 5.53738 8.33968 6.56185 8.39161 7.60807V32.3914C8.33968 33.4376 8.70265 34.4621 9.40167 35.2423C10.1007 36.0224 11.0793 36.4953 12.1249 36.5581H27.8749C28.9215 36.4978 29.9017 36.0257 30.6013 35.245C31.3008 34.4642 31.6629 33.4383 31.6083 32.3914V7.60807C31.6629 6.56118 31.3008 5.53525 30.6013 4.75449C29.9017 3.97374 28.9215 3.50165 27.8749 3.44141ZM29.9416 32.3914C29.9956 32.9963 29.8088 33.598 29.4219 34.066C29.035 34.534 28.4791 34.8306 27.8749 34.8914H12.1249C11.5218 34.8281 10.9675 34.5309 10.5811 34.0634C10.1947 33.596 10.007 32.9957 10.0583 32.3914V28.2247H29.9416V32.3914ZM29.9416 26.5581H10.0583V7.60807C10.007 7.00378 10.1947 6.40347 10.5811 5.93604C10.9675 5.46861 11.5218 5.17134 12.1249 5.10807H27.8749C28.4791 5.16885 29.035 5.46544 29.4219 5.93347C29.8088 6.4015 29.9956 7.00323 29.9416 7.60807V26.5581Z" fill="#71717A"/>
</svg>
