<svg width="180" height="180" viewBox="0 0 180 180" fill="none" xmlns="http://www.w3.org/2000/svg">
<g clip-path="url(#clip0_446_4734)">
<path d="M137.812 0H42.1875C18.888 0 0 18.888 0 42.1875V137.812C0 161.112 18.888 180 42.1875 180H137.812C161.112 180 180 161.112 180 137.812V42.1875C180 18.888 161.112 0 137.812 0Z" fill="#023430"/>
<path d="M120.356 75.6499C112.947 42.968 97.5065 34.2675 93.5676 28.1173C91.9424 25.4083 90.5035 22.5919 89.2609 19.6875C89.0528 22.5914 88.6703 24.4195 86.2023 26.6217C81.2474 31.0395 60.2029 48.1887 58.4317 85.3228C56.7815 119.946 83.8848 141.295 87.4651 143.502C90.2186 144.857 93.5718 143.531 95.2079 142.287C108.273 133.321 126.124 109.416 120.37 75.6499" fill="#10AA50"/>
<path d="M90.3837 125.066C89.7016 133.636 89.213 138.616 87.4805 143.513C87.4805 143.513 88.6174 151.671 89.4162 160.313H92.242C92.917 154.228 93.9462 148.186 95.3245 142.221C91.6662 140.421 90.5243 132.586 90.3837 125.066Z" fill="#B8C4C2"/>
<path d="M95.3186 142.225C91.6216 140.518 90.5521 132.518 90.3876 125.066C91.3014 112.774 91.568 100.441 91.1863 88.1207C90.9923 81.6562 91.2777 28.244 89.5938 20.4238C90.7451 23.0728 92.0725 25.6417 93.5671 28.1132C97.506 34.2684 112.952 42.9688 120.355 75.6508C126.123 109.359 108.369 133.201 95.3186 142.225Z" fill="#12924F"/>
</g>
<defs>
<clipPath id="clip0_446_4734">
<rect width="180" height="180" fill="white"/>
</clipPath>
</defs>
</svg>
