<svg width="180" height="180" viewBox="0 0 180 180" fill="none" xmlns="http://www.w3.org/2000/svg">
<path d="M137.812 0H42.1875C18.888 0 0 18.888 0 42.1875V137.812C0 161.112 18.888 180 42.1875 180H137.812C161.112 180 180 161.112 180 137.812V42.1875C180 18.888 161.112 0 137.812 0Z" fill="#242938"/>
<path d="M85.3945 19.7246C85.0922 19.752 84.1296 19.8483 83.2634 19.9165C63.2904 21.7172 44.5816 32.4947 32.7319 49.059C26.1345 58.2692 21.9136 68.7162 20.3196 79.7827C19.7564 83.6457 19.6875 84.7868 19.6875 90.0237C19.6875 95.2613 19.7564 96.4025 20.3203 100.265C24.1411 126.671 42.9328 148.858 68.4183 157.079C72.9823 158.55 77.793 159.553 83.2641 160.158C85.3952 160.391 94.6048 160.391 96.7359 160.158C106.18 159.113 114.18 156.776 122.07 152.748C123.28 152.13 123.514 151.965 123.349 151.828C123.239 151.745 118.084 144.83 111.898 136.473L100.654 121.283L86.5631 100.43C78.8105 88.9655 72.4324 79.5901 72.3769 79.5901C72.322 79.5767 72.2672 88.8418 72.2398 100.155C72.1983 119.963 72.1849 120.761 71.9374 121.228C71.5802 121.901 71.3053 122.176 70.7273 122.479C70.2879 122.699 69.9026 122.74 67.827 122.74H65.449L64.8162 122.341C64.4244 122.096 64.1061 121.749 63.8951 121.338L63.6068 120.719L63.6349 93.1582L63.6757 65.5831L64.1018 65.0466C64.3219 64.7583 64.7895 64.3871 65.1192 64.2085C65.6824 63.9336 65.9025 63.9061 68.2805 63.9061C71.0852 63.9061 71.5521 64.0158 72.2813 64.8132C72.4873 65.0333 80.1162 76.5251 89.2441 90.3676C98.4851 104.379 107.732 118.386 116.984 132.39L128.119 149.257L128.682 148.886C133.672 145.642 138.951 141.023 143.13 136.211C152.023 125.998 157.756 113.544 159.68 100.265C160.244 96.4025 160.312 95.2613 160.312 90.0237C160.312 84.7861 160.244 83.6457 159.68 79.7827C155.859 53.3761 137.067 31.1897 111.582 22.9695C107.087 21.5119 102.303 20.5086 96.9419 19.9039C95.6222 19.7661 86.5357 19.6156 85.3952 19.7253M114.18 62.2566C114.839 62.5864 115.376 63.2185 115.568 63.878C115.678 64.2359 115.706 71.8789 115.678 89.1026L115.637 113.819L111.279 107.138L106.908 100.457V82.4911C106.908 70.8755 106.963 64.3456 107.045 64.0292C107.265 63.26 107.746 62.6553 108.406 62.2974C108.97 62.0091 109.176 61.981 111.334 61.981C113.369 61.981 113.726 62.0091 114.18 62.2566Z" fill="white"/>
</svg>
