<svg width="180" height="180" viewBox="0 0 180 180" fill="none" xmlns="http://www.w3.org/2000/svg">
<g clip-path="url(#clip0_446_4713)">
<path d="M137.812 0H42.1875C18.888 0 0 18.888 0 42.1875V137.812C0 161.112 18.888 180 42.1875 180H137.812C161.112 180 180 161.112 180 137.812V42.1875C180 18.888 161.112 0 137.812 0Z" fill="#242938"/>
<path d="M84.2889 21.8785C87.7476 19.8992 92.2518 19.8901 95.707 21.8785C113.09 31.7012 130.478 41.5077 147.858 51.336C151.127 53.1774 153.313 56.8154 153.28 60.582V119.676C153.305 123.599 150.902 127.324 147.453 129.123C130.128 138.892 112.811 148.672 95.4876 158.44C91.9586 160.458 87.3637 160.303 83.9437 158.119C78.7497 155.108 73.5466 152.111 68.3519 149.103C67.2902 148.471 66.0935 147.967 65.3439 146.938C66.007 146.045 67.1918 145.934 68.1543 145.543C70.3221 144.854 72.314 143.747 74.3053 142.673C74.8094 142.329 75.4239 142.461 75.907 142.769C80.3486 145.316 84.7516 147.937 89.208 150.459C90.1586 151.008 91.1212 150.279 91.934 149.826C108.936 140.217 125.958 130.644 142.958 121.032C143.588 120.729 143.936 120.06 143.884 119.37C143.896 99.8762 143.887 80.3792 143.891 60.8844C143.962 60.1025 143.51 59.3825 142.802 59.0619C125.536 49.3384 108.279 39.6008 91.0164 29.8752C90.7174 29.6697 90.3631 29.5594 90.0003 29.5588C89.6374 29.5581 89.2828 29.6672 88.983 29.8717C71.7199 39.6008 54.4666 49.3482 37.2035 59.0703C36.4982 59.3917 36.025 60.0997 36.1087 60.8844C36.1122 80.3792 36.1087 99.8762 36.1087 119.373C36.0786 119.71 36.1525 120.048 36.3204 120.341C36.4884 120.635 36.7424 120.87 37.0481 121.014C41.6543 123.626 46.2668 126.22 50.8764 128.824C53.4738 130.221 56.6618 131.052 59.5235 129.981C62.0477 129.076 63.8175 126.499 63.7696 123.818C63.7936 104.438 63.7577 85.055 63.7872 65.6769C63.7239 64.817 64.5403 64.1061 65.377 64.1877C67.5904 64.1722 69.8067 64.1574 72.0201 64.1933C72.944 64.1722 73.5797 65.0989 73.4657 65.9652C73.4566 85.4685 73.4896 104.972 73.451 124.474C73.4566 129.673 71.3212 135.328 66.5132 137.872C60.5908 140.939 53.2699 140.289 47.4185 137.347C42.3532 134.819 37.5185 131.835 32.5432 129.126C29.0852 127.337 26.6946 123.597 26.7192 119.677V60.582C26.6826 56.7374 28.9565 53.0333 32.3266 51.2185C49.6495 41.443 66.9696 31.659 84.2889 21.8785Z" fill="#81CD39"/>
<path d="M99.4018 62.8138C106.957 62.3273 115.045 62.5256 121.843 66.2479C127.108 69.0998 130.026 75.0862 130.119 80.9341C129.972 81.7223 129.147 82.1575 128.394 82.1034C126.202 82.1006 124.009 82.1336 121.817 82.0886C120.887 82.1245 120.347 81.2674 120.23 80.4454C119.6 77.647 118.074 74.876 115.441 73.526C111.398 71.5024 106.711 71.6043 102.302 71.6465C99.084 71.8167 95.6232 72.0958 92.8965 73.9879C90.8033 75.4216 90.1676 78.3156 90.9144 80.6465C91.6189 82.3199 93.5504 82.8599 95.1317 83.3578C104.236 85.7392 113.885 85.5016 122.816 88.6354C126.514 89.913 130.13 92.3971 131.396 96.2685C133.052 101.458 132.326 107.659 128.634 111.824C125.64 115.252 121.28 117.118 116.931 118.132C111.146 119.422 105.142 119.455 99.2668 118.882C93.7423 118.252 87.9929 116.8 83.7284 113.037C80.0813 109.87 78.3003 104.935 78.4768 100.174C78.519 99.3693 79.3198 98.8082 80.0905 98.8743C82.2976 98.8567 84.5054 98.8504 86.7125 98.8778C87.5949 98.8146 88.2481 99.5767 88.2938 100.408C88.7002 103.073 89.7022 105.872 92.0274 107.452C96.5134 110.347 102.143 110.148 107.28 110.229C111.536 110.041 116.314 109.984 119.787 107.17C121.619 105.566 122.162 102.881 121.667 100.572C121.13 98.6226 119.091 97.7142 117.339 97.12C108.351 94.2773 98.5946 95.3088 89.6937 92.0934C86.0797 90.8165 82.5851 88.402 81.1972 84.6895C79.2601 79.435 80.1474 72.9353 84.2262 68.9113C88.2031 64.9071 93.9434 63.3651 99.4018 62.8138Z" fill="#81CD39"/>
</g>
<defs>
<clipPath id="clip0_446_4713">
<rect width="180" height="180" fill="white"/>
</clipPath>
</defs>
</svg>
