<svg width="180" height="180" viewBox="0 0 180 180" fill="none" xmlns="http://www.w3.org/2000/svg">
<g clip-path="url(#clip0_446_4701)">
<path d="M137.812 0H42.1875C18.888 0 0 18.888 0 42.1875V137.812C0 161.112 18.888 180 42.1875 180H137.812C161.112 180 180 161.112 180 137.812V42.1875C180 18.888 161.112 0 137.812 0Z" fill="#242938"/>
<path d="M97.5839 133.125H145.939C147.475 133.126 148.984 132.725 150.314 131.964C151.641 131.204 152.746 130.11 153.516 128.789C154.283 127.473 154.687 125.976 154.686 124.453C154.685 122.929 154.28 121.434 153.512 120.118L121.038 64.37C120.268 63.0497 119.164 61.9551 117.837 61.1961C116.505 60.4343 114.997 60.0336 113.463 60.0336C111.928 60.0336 110.42 60.4343 109.088 61.1961C107.762 61.9551 106.658 63.0497 105.887 64.37L97.5839 78.6343L81.3488 50.7413C80.5779 49.4211 79.4734 48.3268 78.146 47.5681C76.8137 46.8067 75.3057 46.4063 73.7712 46.4062C72.2367 46.4063 70.7287 46.8067 69.3964 47.5681C68.069 48.3268 66.9645 49.4211 66.1936 50.7413L25.7829 120.118C25.015 121.434 24.61 122.93 24.6094 124.453C24.6088 125.976 25.0125 127.473 25.7794 128.789C26.5499 130.11 27.6542 131.204 28.9814 131.964C30.3133 132.726 31.8216 133.126 33.3563 133.125H63.7102C75.7364 133.125 84.6057 127.89 90.7081 117.675L105.524 92.244L113.461 78.6343L137.277 119.515H105.524L97.5839 133.125ZM63.2152 119.501L42.0321 119.496L73.7853 64.9916L89.6288 92.244L79.0207 110.459C74.9679 117.087 70.3646 119.501 63.2152 119.501Z" fill="#00DC82"/>
</g>
<defs>
<clipPath id="clip0_446_4701">
<rect width="180" height="180" fill="white"/>
</clipPath>
</defs>
</svg>
