<svg width="180" height="180" viewBox="0 0 180 180" fill="none" xmlns="http://www.w3.org/2000/svg">
<g clip-path="url(#clip0_446_4811)">
<path d="M137.812 0H42.1875C18.888 0 0 18.888 0 42.1875V137.812C0 161.112 18.888 180 42.1875 180H137.812C161.112 180 180 161.112 180 137.812V42.1875C180 18.888 161.112 0 137.812 0Z" fill="#242938"/>
<path d="M143.072 104.546C128.784 107.492 127.746 102.652 127.746 102.652C142.84 80.2564 149.153 51.829 143.704 44.873C128.854 25.8886 103.14 34.8718 102.71 35.1045L102.572 35.1291C99.431 34.4988 96.238 34.1659 93.035 34.1349C86.5684 34.0365 81.6641 35.8308 77.9368 38.6539C77.9368 38.6539 32.0678 19.7588 34.2032 62.4195C34.6581 71.4961 47.2061 131.139 62.1854 113.094C67.7029 106.459 72.9925 100.887 72.9925 100.887C75.613 102.632 78.7623 103.522 82.06 103.201L82.3166 102.983C82.2411 103.838 82.2761 104.699 82.4207 105.544C78.5647 109.855 79.7017 110.612 71.9891 112.199C64.1879 113.805 68.7758 116.668 71.762 117.419C75.3908 118.329 83.7854 119.614 89.4611 111.675L89.2332 112.579C90.7464 113.791 91.8039 120.455 91.626 126.496C91.4481 132.538 91.3293 136.681 92.5161 139.924C93.703 143.166 94.8892 150.454 105.024 148.328C113.493 146.514 117.878 141.802 118.496 133.962C118.931 128.385 119.91 129.205 119.979 124.222L120.771 121.859C121.675 114.295 120.918 111.858 126.134 112.995L127.404 113.108C131.246 113.281 136.274 112.49 139.221 111.121C145.573 108.175 149.341 103.25 143.076 104.546H143.072Z" fill="#336791"/>
<path d="M102.706 34.1686C101.123 34.6629 128.236 24.2566 143.651 43.9476C149.089 50.9036 142.786 79.331 127.692 101.726M90.069 108.129C89.6738 122.199 90.1681 136.368 91.5427 139.769C92.9166 143.17 95.8683 149.904 106.008 147.739C114.477 145.925 117.562 142.409 118.897 134.652L122.026 109.849L90.069 108.129ZM77.9175 37.5949C77.9175 37.5949 32.0182 18.8285 34.1543 61.4878C34.6093 70.5644 47.1565 130.207 62.1366 112.162C67.6041 105.572 72.5485 100.416 72.5485 100.416L77.9175 37.5949Z" stroke="white" stroke-width="5.32896" stroke-linecap="round" stroke-linejoin="round"/>
<path d="M127.696 101.718C127.696 101.718 128.686 106.563 143.022 103.606C149.286 102.311 145.514 107.235 139.166 110.182C133.955 112.604 122.268 113.222 122.075 109.885C121.581 101.258 128.226 103.878 127.746 101.718C127.311 99.7699 124.335 97.8616 122.377 93.0958C120.661 88.9425 98.8442 57.055 128.428 61.7857C129.516 61.5635 120.716 33.6065 93.03 33.2008C65.3445 32.7951 66.2199 67.2391 66.2199 67.2391" stroke="white" stroke-width="5.32896" stroke-linecap="round" stroke-linejoin="bevel"/>
<path d="M82.3212 104.673C78.4653 108.984 79.6023 109.74 71.8904 111.327C64.0885 112.934 68.6771 115.796 71.6626 116.548C75.2914 117.458 83.686 118.743 89.3616 110.798C91.092 108.376 89.3518 104.52 86.9787 103.541C85.8319 103.066 84.2991 102.473 82.3318 104.678L82.3212 104.673Z" stroke="white" stroke-width="5.32896" stroke-linejoin="round"/>
<path d="M82.0696 104.599C81.6738 102.063 82.9 99.0518 84.21 95.5221C86.178 90.2325 90.7167 84.9422 87.0878 68.148C84.3836 55.6394 66.2247 65.5422 66.2247 67.2382C66.2247 68.9341 67.0453 75.8409 65.928 83.8741C64.4599 94.3654 72.6021 103.235 81.9754 102.33" stroke="white" stroke-width="5.32896" stroke-linecap="round" stroke-linejoin="round"/>
<path d="M77.7485 66.986C77.6641 67.564 78.8109 69.1115 80.2995 69.319C81.7873 69.5271 83.0578 68.3205 83.1422 67.7369C83.2259 67.1533 82.0791 66.5205 80.5912 66.3131C79.1034 66.1057 77.8223 66.4122 77.7485 66.986Z" fill="white" stroke="white" stroke-width="1.77844"/>
<path d="M123.055 65.8063C123.134 66.3843 121.992 67.9311 120.504 68.1393C119.016 68.3467 117.735 67.1408 117.662 66.5572C117.587 65.9736 118.725 65.3408 120.213 65.1334C121.7 64.926 122.981 65.2325 123.055 65.8063Z" fill="white" stroke="white" stroke-width="0.886043"/>
<path d="M128.375 61.7949C128.622 66.3434 127.395 69.433 127.237 74.2733C127.01 81.3031 130.59 89.3518 125.195 97.4103" stroke="white" stroke-width="5.32896" stroke-linecap="round" stroke-linejoin="round"/>
</g>
<defs>
<clipPath id="clip0_446_4811">
<rect width="180" height="180" fill="white"/>
</clipPath>
</defs>
</svg>
