<svg width="52" height="49" viewBox="0 0 52 49" fill="none" xmlns="http://www.w3.org/2000/svg">
<path d="M19.7126 48.1451C8.84307 48.1451 0 39.3017 0 28.4317C0 17.5616 8.84307 8.71827 19.7126 8.71827C21.892 8.71586 24.0567 9.0756 26.1182 9.7828C26.3929 9.8772 26.6189 10.0769 26.7464 10.3379C26.8739 10.5989 26.8925 10.8998 26.7981 11.1746C26.7037 11.4493 26.504 11.6752 26.243 11.8028C25.982 11.9303 25.6811 11.9489 25.4064 11.8545C23.5736 11.2259 21.6491 10.9063 19.7116 10.9087C10.0497 10.9087 2.1893 18.7695 2.1893 28.4317C2.1893 38.0939 10.0497 45.9547 19.7116 45.9547C29.3735 45.9547 37.2339 38.0939 37.2339 28.4317C37.2342 27.2461 37.1151 26.0635 36.8784 24.9018C36.8496 24.7608 36.8489 24.6156 36.8762 24.4743C36.9035 24.3331 36.9584 24.1986 37.0377 24.0786C37.117 23.9586 37.2192 23.8553 37.3383 23.7748C37.4575 23.6942 37.5914 23.638 37.7324 23.6092C37.8733 23.5804 38.0185 23.5796 38.1598 23.6069C38.301 23.6343 38.4355 23.6891 38.5555 23.7684C38.6755 23.8477 38.7787 23.9499 38.8593 24.0691C38.9398 24.1883 38.9961 24.3222 39.0249 24.4631C39.291 25.7692 39.425 27.0988 39.4247 28.4317C39.4252 39.3017 30.5821 48.1451 19.7126 48.1451Z" fill="#204285"/>
<path d="M21.5948 40.9642C21.4039 40.9642 21.2163 40.9143 21.0507 40.8194C20.885 40.7246 20.747 40.5881 20.6504 40.4234C17.0115 34.2239 7.31044 21.0232 7.21297 20.8906C7.05713 20.6787 6.98273 20.4179 7.00338 20.1557C7.02403 19.8935 7.13835 19.6475 7.32544 19.4626L10.3085 16.5146C10.4907 16.3345 10.7302 16.2241 10.9854 16.2023C11.2406 16.1806 11.4954 16.2491 11.7054 16.3957L21.3669 23.1421C27.832 14.8515 33.8373 9.12369 37.7882 5.74383C42.2362 1.93936 45.0677 0.226594 45.1862 0.156064C45.3564 0.0539407 45.5512 -3.18069e-06 45.7497 2.21764e-09H50.5757C50.7978 -1.41235e-05 51.0145 0.0674541 51.1973 0.193459C51.3801 0.319465 51.5203 0.498056 51.5993 0.705555C51.6783 0.913055 51.6923 1.13966 51.6396 1.35533C51.5869 1.571 51.4698 1.76555 51.304 1.91318C37.599 14.1206 22.6953 40.1495 22.5464 40.411C22.4513 40.578 22.314 40.7169 22.1482 40.814C21.9824 40.9111 21.7941 40.9629 21.602 40.9641L21.5948 40.9642ZM9.53675 20.3562C11.4942 23.0356 17.993 31.9968 21.576 37.7292C23.0251 35.2799 26.0573 30.2742 29.9271 24.5457C36.4297 14.9199 42.4289 7.41574 47.7966 2.19005H46.0653C44.3498 3.29148 34.0013 10.2721 22.4635 25.3042C22.2919 25.5279 22.0406 25.6767 21.762 25.7197C21.4834 25.7628 21.1989 25.6967 20.9678 25.5353L11.1991 18.7138L9.53675 20.3562Z" fill="#204285"/>
</svg>