<svg width="180" height="180" viewBox="0 0 180 180" fill="none" xmlns="http://www.w3.org/2000/svg">
<path d="M137.812 0H42.1875C18.888 0 0 18.888 0 42.1875V137.812C0 161.112 18.888 180 42.1875 180H137.812C161.112 180 180 161.112 180 137.812V42.1875C180 18.888 161.112 0 137.812 0Z" fill="#242938"/>
<path d="M89.493 20.3906C53.794 20.3906 56.0229 35.872 56.0229 35.872L56.063 51.9103H90.1301V56.7267H42.5313C42.5313 56.7267 19.6875 54.135 19.6875 90.1554C19.6875 126.176 39.626 124.9 39.626 124.9H51.5257V108.184C51.5257 108.184 50.8845 88.2457 71.1464 88.2457H104.934C104.934 88.2457 123.918 88.5523 123.918 69.8984V39.0558C123.918 39.0558 126.8 20.3906 89.493 20.3906ZM70.7084 31.1759C71.5134 31.1752 72.3107 31.3333 73.0546 31.6411C73.7986 31.9489 74.4745 32.4003 75.0438 32.9696C75.613 33.5389 76.0645 34.2148 76.3723 34.9587C76.6801 35.7026 76.8381 36.4999 76.8375 37.305C76.8381 38.11 76.6799 38.9072 76.3721 39.6511C76.0642 40.3949 75.6128 41.0707 75.0435 41.6399C74.4742 42.2091 73.7984 42.6605 73.0545 42.9683C72.3106 43.276 71.5134 43.4341 70.7084 43.4334C69.9034 43.434 69.1062 43.2759 68.3625 42.9681C67.6187 42.6603 66.9428 42.2089 66.3737 41.6397C65.8045 41.0705 65.3531 40.3947 65.0453 39.6509C64.7375 38.9071 64.5794 38.11 64.5799 37.305C64.5793 36.5 64.7373 35.7027 65.0451 34.9589C65.3528 34.215 65.8042 33.5391 66.3734 32.9698C66.9426 32.4006 67.6185 31.9491 68.3623 31.6413C69.1061 31.3335 69.9033 31.1753 70.7084 31.1759Z" fill="url(#paint0_linear_446_4805)"/>
<path d="M90.5066 160.282C126.206 160.282 123.977 144.801 123.977 144.801L123.937 128.762H89.8696V123.947H137.468C137.468 123.947 160.312 126.538 160.312 90.5167C160.312 54.4956 140.374 55.7732 140.374 55.7732H128.474V72.4886C128.474 72.4886 129.115 92.4271 108.853 92.4271H75.0653C75.0653 92.4271 56.0809 92.1198 56.0809 110.774V141.617C56.0809 141.617 53.1988 160.282 90.5066 160.282ZM109.291 149.497C108.486 149.498 107.689 149.34 106.945 149.032C106.201 148.724 105.525 148.273 104.956 147.703C104.387 147.134 103.935 146.458 103.628 145.715C103.32 144.971 103.162 144.174 103.162 143.368C103.162 142.563 103.32 141.766 103.627 141.022C103.935 140.278 104.387 139.602 104.956 139.033C105.525 138.464 106.201 138.012 106.945 137.705C107.689 137.397 108.486 137.239 109.291 137.239C110.096 137.239 110.894 137.397 111.638 137.705C112.382 138.012 113.057 138.464 113.627 139.033C114.196 139.602 114.647 140.278 114.955 141.022C115.263 141.766 115.421 142.563 115.42 143.368C115.421 144.174 115.263 144.971 114.955 145.715C114.647 146.458 114.196 147.134 113.626 147.703C113.057 148.273 112.381 148.724 111.637 149.032C110.894 149.34 110.096 149.498 109.291 149.497Z" fill="url(#paint1_linear_446_4805)"/>
<defs>
<linearGradient id="paint0_linear_446_4805" x1="33.2016" y1="32.9738" x2="102.89" y2="101.967" gradientUnits="userSpaceOnUse">
<stop stop-color="#387EB8"/>
<stop offset="1" stop-color="#366994"/>
</linearGradient>
<linearGradient id="paint1_linear_446_4805" x1="75.9765" y1="77.2761" x2="150.814" y2="148.022" gradientUnits="userSpaceOnUse">
<stop stop-color="#FFE052"/>
<stop offset="1" stop-color="#FFC331"/>
</linearGradient>
</defs>
</svg>
