<svg width="180" height="180" viewBox="0 0 180 180" fill="none" xmlns="http://www.w3.org/2000/svg">
<g clip-path="url(#clip0_446_4848)">
<path d="M137.812 0H42.1875C18.888 0 0 18.888 0 42.1875V137.812C0 161.112 18.888 180 42.1875 180H137.812C161.112 180 180 161.112 180 137.812V42.1875C180 18.888 161.112 0 137.812 0Z" fill="#242938"/>
<mask id="mask0_446_4848" style="mask-type:luminance" maskUnits="userSpaceOnUse" x="19" y="19" width="142" height="142">
<path d="M19.6875 19.6875H160.312V160.312H19.6875V19.6875Z" fill="white"/>
</mask>
<g mask="url(#mask0_446_4848)">
<path d="M154.801 122.672C147.297 126.586 108.425 142.568 100.15 146.881C91.8732 151.195 87.2769 151.154 80.7378 148.029C74.1987 144.905 32.8332 128.197 25.3766 124.633C21.6486 122.85 19.6953 121.352 19.6953 119.935V105.721C19.6953 105.721 73.554 93.9963 82.2509 90.8758C90.9479 87.7553 93.9573 87.6436 101.361 90.3541C108.765 93.064 153.005 101.046 160.315 103.726V117.744C160.315 119.149 158.631 120.726 154.809 122.68L154.801 122.672Z" fill="#A41E11"/>
<path d="M154.802 108.454C147.297 112.369 108.425 128.351 100.149 132.664C91.8729 136.977 87.2766 136.936 80.7375 133.812C74.1984 130.688 32.8329 113.979 25.3769 110.416C17.9203 106.851 17.7712 104.402 25.0894 101.535L82.2471 79.4056C90.9412 76.2893 93.9534 76.1733 101.357 78.8839C108.76 81.5944 147.398 96.9725 154.705 99.6935C162.012 102.415 162.299 104.577 154.794 108.492L154.802 108.454Z" fill="#D82C20"/>
<path d="M154.801 99.4923C147.297 103.407 108.425 119.389 100.15 123.702C91.8732 128.015 87.2769 127.974 80.7378 124.85C74.1987 121.726 32.8332 105.017 25.3766 101.453C21.6486 99.6708 19.6953 98.1725 19.6953 96.7557V82.5406C19.6953 82.5406 73.554 70.816 82.2509 67.6962C90.9486 64.5758 93.9573 64.464 101.361 67.1738C108.765 69.8837 153.005 77.8662 160.315 80.5465V94.564C160.315 95.9689 158.631 97.546 154.809 99.4993L154.801 99.4923Z" fill="#A41E11"/>
<path d="M154.802 85.276C147.297 89.1903 108.425 105.172 100.149 109.486C91.8729 113.799 87.2766 113.758 80.7375 110.634C74.1984 107.509 32.8329 90.8011 25.3769 87.237C17.9203 83.6728 17.7712 81.2239 25.0894 78.3565L82.2471 56.2313C90.9412 53.1108 93.9534 52.999 101.357 55.7096C108.761 58.4194 147.398 73.801 154.712 76.4743C162.026 79.1475 162.306 81.3582 154.802 85.2725V85.276Z" fill="#D82C20"/>
<path d="M154.801 75.4527C147.297 79.367 108.425 95.349 100.15 99.6662C91.8739 103.983 87.2769 103.938 80.7378 100.814C74.1987 97.6904 32.8332 80.9814 25.3766 77.4172C21.6486 75.6355 19.6953 74.1371 19.6953 72.7204V58.4975C19.6953 58.4975 73.554 46.7736 82.2509 43.6532C90.9479 40.5327 93.9573 40.4209 101.361 43.1314C108.765 45.8413 153.005 53.8232 160.315 56.5035V70.521C160.315 71.9265 158.631 73.5029 154.809 75.4569L154.801 75.4527Z" fill="#A41E11"/>
<path d="M154.802 61.235C147.297 65.1493 108.425 81.1313 100.149 85.445C91.8729 89.7579 87.2766 89.7172 80.7375 86.5932C74.1984 83.4692 32.8329 66.7601 25.3769 63.196C17.9203 59.6318 17.7712 57.1829 25.0894 54.3155L82.2471 32.1903C90.9412 29.0698 93.9534 28.958 101.357 31.6686C108.761 34.3784 147.398 49.76 154.712 52.4332C162.026 55.1065 162.306 57.3172 154.802 61.2314V61.235Z" fill="#D82C20"/>
<path d="M93.5128 55.3752L89.1063 48.05L75.0368 46.7823L85.5352 42.9945L82.3845 37.1797L92.212 41.0188L101.479 37.9841L98.974 43.9937L108.421 47.5353L96.2381 48.803L93.5128 55.3752ZM70.0411 69.9594L102.624 64.9566L92.7823 79.3911L70.0411 69.9594ZM61.2584 64.6993C70.8771 64.6993 78.6755 61.6759 78.6755 57.9479C78.6755 54.2199 70.8771 51.1965 61.2584 51.1965C51.6396 51.1965 43.8398 54.2185 43.8398 57.9479C43.8398 61.6773 51.6382 64.6993 61.2584 64.6993Z" fill="white"/>
<path d="M142.11 56.9619L122.837 64.5746L122.822 49.3379L142.11 56.9619Z" fill="#7A0C00"/>
<path d="M122.842 64.5755L120.755 65.3961L101.496 57.7834L122.831 49.3438L122.842 64.5755Z" fill="#AD2115"/>
</g>
</g>
<defs>
<clipPath id="clip0_446_4848">
<rect width="180" height="180" fill="white"/>
</clipPath>
</defs>
</svg>
