<svg width="180" height="180" viewBox="0 0 180 180" fill="none" xmlns="http://www.w3.org/2000/svg">
<g clip-path="url(#clip0_446_4653)">
<path d="M137.812 0H42.1875C18.888 0 0 18.888 0 42.1875V137.812C0 161.112 18.888 180 42.1875 180H137.812C161.112 180 180 161.112 180 137.812V42.1875C180 18.888 161.112 0 137.812 0Z" fill="#764ABC"/>
<path d="M117.126 116.437C122.316 115.9 126.252 111.426 126.073 106.057C125.895 100.689 121.421 96.3941 116.052 96.3941H115.694C110.147 96.5727 105.852 101.225 106.031 106.773C106.21 109.457 107.284 111.783 108.894 113.394C102.81 125.384 93.5044 134.153 79.546 141.49C70.0615 146.5 60.2192 148.29 50.3769 147.037C42.324 145.964 36.0612 142.384 32.1237 136.479C26.3975 127.711 25.861 118.226 30.6922 108.742C34.0925 101.941 39.4608 96.9306 42.8612 94.4254C42.1454 92.0995 41.0717 88.162 40.5345 85.2988C14.5871 104.089 17.2709 129.5 25.1445 141.49C31.0508 150.437 43.0397 155.985 56.2824 155.985C59.8613 155.985 63.4402 155.627 67.0191 154.732C89.9255 150.258 107.284 136.658 117.126 116.437Z" fill="white"/>
<path d="M148.621 94.2478C135.021 78.3206 114.979 69.5527 92.0729 69.5527H89.2097C87.5989 66.3309 84.1986 64.1836 80.4411 64.1836H80.0832C74.5355 64.3629 70.2408 69.0155 70.4194 74.5631C70.5987 79.9315 75.072 84.2262 80.4411 84.2262H80.799C84.7358 84.0476 88.1361 81.5423 89.5676 78.142H92.7887C106.389 78.142 119.273 82.0788 130.905 89.7738C139.852 95.6794 146.295 103.374 149.874 112.68C152.916 120.195 152.737 127.532 149.516 133.796C144.506 143.28 136.095 148.47 125 148.47C117.842 148.47 111.042 146.323 107.462 144.712C105.494 146.501 101.915 149.364 99.41 151.154C107.104 154.733 114.979 156.701 122.494 156.701C139.674 156.701 152.379 147.217 157.211 137.733C162.401 127.354 162.043 109.459 148.621 94.2478Z" fill="white"/>
<path d="M57.7143 119.479C57.8936 124.848 62.3668 129.142 67.7359 129.142H68.0938C73.6408 128.963 77.9361 124.31 77.7568 118.763C77.5782 113.394 73.1043 109.1 67.7359 109.1H67.3773C67.0201 109.1 66.4829 109.1 66.1257 109.279C58.7879 97.11 55.7462 83.8673 56.8199 69.5517C57.5357 58.815 61.1146 49.5091 67.378 41.8134C72.5671 35.1928 82.5887 31.9718 89.3886 31.7925C108.358 31.4346 116.41 55.0561 116.947 64.5412C119.274 65.0777 123.21 66.33 125.895 67.2251C123.748 38.2359 105.852 23.2031 88.6729 23.2031C72.5671 23.2031 57.7143 34.8349 51.8087 52.0144C43.5772 74.9201 48.9456 96.9307 58.9665 114.289C58.0722 115.542 57.535 117.51 57.7143 119.479Z" fill="white"/>
</g>
<defs>
<clipPath id="clip0_446_4653">
<rect width="180" height="180" fill="white"/>
</clipPath>
</defs>
</svg>
