<svg width="180" height="180" viewBox="0 0 180 180" fill="none" xmlns="http://www.w3.org/2000/svg">
<g clip-path="url(#clip0_446_4551)">
<path d="M137.812 0H42.1875C18.888 0 0 18.888 0 42.1875V137.812C0 161.112 18.888 180 42.1875 180H137.812C161.112 180 180 161.112 180 137.812V42.1875C180 18.888 161.112 0 137.812 0Z" fill="#CD6799"/>
<mask id="mask0_446_4551" style="mask-type:luminance" maskUnits="userSpaceOnUse" x="19" y="37" width="142" height="106">
<path d="M19.6875 37.2656H160.312V142.67H19.6875V37.2656Z" fill="white"/>
</mask>
<g mask="url(#mask0_446_4551)">
<path d="M140.701 97.8481C135.797 97.8734 131.536 99.0546 127.968 100.8C126.659 98.2074 125.35 95.8969 125.118 94.2024C124.862 92.2259 124.554 91.0193 124.862 88.6575C125.17 86.2957 126.556 82.9334 126.53 82.6767C126.504 82.4201 126.222 81.2135 123.398 81.1875C120.575 81.1615 118.136 81.7268 117.854 82.4714C117.571 83.2153 117.032 84.9099 116.673 86.6557C116.185 89.2228 111.025 98.3874 108.073 103.188C107.123 101.314 106.302 99.6706 106.122 98.3614C105.865 96.3849 105.557 95.1783 105.865 92.8165C106.173 90.4547 107.56 87.0917 107.534 86.835C107.508 86.5784 107.226 85.3718 104.402 85.3465C101.578 85.3212 99.1391 85.8851 98.8572 86.6297C98.5745 87.3743 98.2666 89.1202 97.6759 90.814C97.086 92.5085 90.232 107.809 88.4348 111.762C87.7087 113.361 86.947 114.945 86.1503 116.51C86.1503 116.51 86.1243 116.588 86.0477 116.716C85.7971 117.207 85.5402 117.695 85.277 118.179V118.205C84.8924 118.898 84.4811 119.539 84.2758 119.539C84.1218 119.539 83.8398 117.692 84.3271 115.176C85.3544 109.862 87.7928 101.596 87.7675 101.314C87.7675 101.16 88.2295 99.7219 86.1756 98.9773C84.1731 98.2327 83.4545 99.4653 83.2745 99.4653C83.0952 99.4653 82.9666 99.9019 82.9666 99.9019C82.9666 99.9019 85.2004 90.6087 78.7056 90.6087C74.6493 90.6087 69.0531 95.0496 66.2814 99.0546C63.1295 100.77 59.9802 102.489 56.8335 104.214C55.3197 105.061 53.7538 105.909 52.2899 106.705C52.1873 106.602 52.0846 106.473 51.982 106.371C44.1266 97.976 29.5973 92.0466 30.2132 80.7769C30.4445 76.6692 31.8564 65.8875 58.1174 52.7953C79.7322 42.1423 96.932 45.094 99.9098 51.6401C104.171 60.9846 90.6939 78.3378 68.3605 80.8535C59.8373 81.8035 55.371 78.5178 54.2418 77.2859C53.0605 76.002 52.8805 75.9253 52.4439 76.182C51.7253 76.5666 52.1873 77.7218 52.4439 78.3891C53.1119 80.1349 55.8583 83.2153 60.5045 84.7299C64.6122 86.0651 74.598 86.8097 86.6889 82.1374C100.218 76.9006 110.794 62.3445 107.688 50.1516C104.582 37.778 84.0452 33.6964 64.6122 40.6017C53.0598 44.7094 40.533 51.1782 31.5224 59.5981C20.8173 69.6106 19.1235 78.3124 19.8168 81.9574C22.3066 94.8956 40.1477 103.316 47.2844 109.554C46.9251 109.759 46.5911 109.939 46.3091 110.093C42.7408 111.864 29.1353 118.975 25.7463 126.497C21.8959 135.019 26.3629 141.129 29.3146 141.95C38.4791 144.492 47.9003 139.922 52.9579 132.375C58.0155 124.828 57.3988 115.022 55.0623 110.53C55.0369 110.473 55.0022 110.421 54.9597 110.376C55.8843 109.836 56.8335 109.272 57.7581 108.732C59.457 107.729 61.1772 106.761 62.9177 105.831C62.0451 108.219 61.4031 111.068 61.0952 115.176C60.7105 120.002 62.687 126.266 65.2795 128.73C66.4347 129.808 67.7952 129.834 68.6685 129.834C71.6976 129.834 73.0581 127.318 74.5727 124.34C76.4205 120.695 78.0897 116.459 78.0897 116.459C78.0897 116.459 76.0098 127.909 81.6573 127.909C83.7112 127.909 85.7903 125.239 86.7149 123.878V123.904C86.7149 123.904 86.7663 123.827 86.8689 123.647C87.0742 123.313 87.2022 123.108 87.2022 123.108V123.057C88.0241 121.619 89.872 118.359 92.6191 112.942C96.1614 105.96 99.5758 97.2321 99.5758 97.2321C99.5758 97.2321 99.8837 99.3626 100.936 102.905C101.552 104.985 102.836 107.269 103.863 109.477C103.041 110.632 102.528 111.274 102.528 111.274L102.554 111.3C101.886 112.172 101.168 113.122 100.372 114.046C97.5733 117.384 94.2363 121.209 93.7743 122.313C93.235 123.622 93.3637 124.571 94.3902 125.342C95.1348 125.906 96.4694 125.983 97.8299 125.906C100.346 125.726 102.118 125.11 102.99 124.725C104.351 124.238 105.943 123.493 107.431 122.389C110.178 120.361 111.847 117.46 111.693 113.635C111.615 111.53 110.922 109.426 110.076 107.449C110.332 107.089 110.563 106.73 110.819 106.371C115.158 100.03 118.521 93.0731 118.521 93.0731C118.521 93.0731 118.829 95.2036 119.881 98.7467C120.395 100.543 121.447 102.494 122.372 104.394C118.29 107.706 115.774 111.556 114.876 114.072C113.259 118.744 114.516 120.849 116.904 121.337C117.982 121.568 119.522 121.055 120.652 120.567C122.089 120.105 123.784 119.309 125.401 118.128C128.147 116.1 130.792 113.276 130.638 109.451C130.56 107.706 130.098 105.985 129.456 104.317C132.922 102.88 137.389 102.084 143.088 102.751C155.308 104.189 157.721 111.813 157.258 115.022C156.796 118.23 154.229 119.976 153.382 120.515C152.535 121.055 152.253 121.234 152.33 121.619C152.433 122.184 152.843 122.158 153.562 122.055C154.563 121.876 159.979 119.463 160.21 113.559C160.596 106.011 153.408 97.7707 140.701 97.8481ZM46.4371 129.629C42.3815 134.044 36.734 135.713 34.2948 134.301C31.6764 132.786 32.703 126.266 37.6839 121.593C40.7123 118.744 44.6146 116.1 47.207 114.483C47.7977 114.123 48.6702 113.61 49.7228 112.968C49.9028 112.865 50.0055 112.814 50.0055 112.814L50.6214 112.429C52.4439 119.104 50.698 124.982 46.4371 129.629ZM75.9592 109.554C74.5473 112.994 71.5956 121.799 69.7984 121.311C68.2586 120.9 67.3087 114.226 69.4905 107.629C70.5944 104.317 72.9302 100.364 74.2907 98.8233C76.4985 96.3588 78.937 95.5376 79.5276 96.5388C80.2722 97.8481 76.8325 107.397 75.9592 109.554ZM100.321 121.209C99.7305 121.517 99.1659 121.722 98.9092 121.568C98.7292 121.465 99.1659 121.055 99.1659 121.055C99.1659 121.055 102.221 117.768 103.427 116.28C104.12 115.407 104.942 114.38 105.815 113.225V113.559C105.815 117.486 102.016 120.13 100.321 121.209ZM119.112 116.921C118.675 116.613 118.753 115.587 120.216 112.377C120.781 111.12 122.116 109.015 124.4 106.987C124.657 107.809 124.837 108.604 124.811 109.348C124.786 114.303 121.243 116.151 119.112 116.921Z" fill="white"/>
</g>
</g>
<defs>
<clipPath id="clip0_446_4551">
<rect width="180" height="180" fill="white"/>
</clipPath>
</defs>
</svg>
