<svg width="180" height="180" viewBox="0 0 180 180" fill="none" xmlns="http://www.w3.org/2000/svg">
<g clip-path="url(#clip0_446_4790)">
<path d="M0 0H180V180H0V0Z" fill="#F03E2F"/>
<path d="M55.4379 46.6348C55.4379 62.1007 65.1593 71.3046 84.6232 76.1562L105.247 80.8545C123.668 85.0113 134.884 95.336 134.884 112.155C135.02 119.502 132.591 126.666 128.016 132.416C128.016 115.635 119.18 106.569 97.8673 101.116L77.6173 96.5918C61.4004 92.9566 48.8848 84.4699 48.8848 66.1999C48.8052 59.1266 51.1141 52.2332 55.4379 46.6348Z" fill="white"/>
<path d="M115.343 108.037C124.141 113.567 127.997 121.3 127.997 132.398C120.717 141.561 107.924 146.704 92.8897 146.704C67.5814 146.704 49.8697 134.466 45.9336 113.2H70.2378C73.3667 122.963 81.6523 127.487 92.7111 127.487C106.211 127.487 115.186 120.411 115.363 107.998M68.0722 69.5637C64.07 67.2354 60.7743 63.8649 58.5364 59.8114C56.3133 55.7871 55.2414 51.2282 55.4384 46.6348C62.4641 37.5477 74.6844 32 89.5822 32C115.363 32 130.279 45.3777 133.961 64.2087H110.58C108.003 56.7837 101.548 51.0041 89.7791 51.0041C77.2044 51.0041 68.6234 58.1956 68.1313 69.5637" fill="#F9B1AB"/>
</g>
<defs>
<clipPath id="clip0_446_4790">
<rect width="180" height="180" fill="white"/>
</clipPath>
</defs>
</svg>
