<svg width="50" height="50" viewBox="0 0 50 50" fill="none" xmlns="http://www.w3.org/2000/svg">
<path d="M49.2047 42.2802L40.4254 33.5012L40.4248 33.5006L40.4242 33.5L37.2859 30.3618C36.2258 29.3017 34.5005 29.3013 33.44 30.3618L33.0553 30.7465L31.73 29.4212C34.3264 26.3081 35.891 22.3059 35.891 17.9447C35.8908 8.05001 27.8405 0 17.9453 0C8.0501 0 0 8.05001 0 17.9447C0 27.8395 8.0501 35.8895 17.9453 35.8895C22.3066 35.8895 26.309 34.325 29.4222 31.7287L30.7475 33.0539L30.3627 33.4387C29.3027 34.499 29.3027 36.2242 30.3629 37.2845L42.2816 49.2028C43.3443 50.2656 45.0648 50.2659 46.1278 49.2029L49.2046 46.1261C50.2651 45.0659 50.2651 43.3407 49.2047 42.2802ZM17.9453 32.6261C9.84967 32.6261 3.2634 26.0401 3.2634 17.9447C3.2634 9.84942 9.84967 3.26338 17.9453 3.26338C26.0409 3.26338 32.6273 9.84942 32.6273 17.9447C32.6273 26.0401 26.0409 32.6261 17.9453 32.6261ZM33.0552 35.3617L35.3628 33.0541L36.9633 34.6545L34.6557 36.962L33.0552 35.3617ZM44.2047 46.5107L36.9633 39.2695L39.2709 36.9619L46.5123 44.2032L44.2047 46.5107Z" fill="#204285"/>
<path d="M17.9404 6.52344C17.0392 6.52344 16.3086 7.254 16.3086 8.15518C16.3086 9.05635 17.0392 9.78692 17.9404 9.78692C22.4371 9.78692 26.0955 13.4448 26.0955 17.9412C26.0955 18.8424 26.8261 19.573 27.7273 19.573C28.6285 19.573 29.3591 18.8424 29.3591 17.9412C29.3591 11.6454 24.2366 6.52344 17.9404 6.52344Z" fill="#204285"/>
</svg>
