<svg width="180" height="180" viewBox="0 0 180 180" fill="none" xmlns="http://www.w3.org/2000/svg">
<g clip-path="url(#clip0_446_4763)">
<path d="M89.9316 0.00195312C40.3543 0.00195312 0.00195312 40.3543 0.00195312 89.9316C0.00195312 139.509 40.3543 179.861 89.9316 179.861C139.509 179.861 179.861 139.509 179.861 89.9316C179.861 40.3543 139.51 0.00195312 89.9316 0.00195312ZM89.9316 15.0193C131.394 15.0193 164.845 48.4698 164.845 89.9316C164.845 131.394 131.394 164.845 89.9316 164.845C48.4698 164.845 15.0179 131.395 15.0179 89.9316C15.0179 48.4684 48.4698 15.0193 89.9316 15.0193Z" fill="#010101"/>
<path fill-rule="evenodd" clip-rule="evenodd" d="M68.0498 85.3818C87.743 69.2943 107.006 52.6471 127.128 37.0293C116.574 53.2476 105.719 69.2507 95.1651 85.4676C86.1131 85.5098 77.0597 85.5098 68.0498 85.3818ZM84.697 94.348C93.7927 94.348 102.845 94.348 111.897 94.4774C92.0756 110.481 72.8986 127.256 52.7344 142.83C63.2883 126.612 74.1431 110.566 84.697 94.348Z" fill="#010101"/>
</g>
<defs>
<clipPath id="clip0_446_4763">
<rect width="180" height="180" fill="white"/>
</clipPath>
</defs>
</svg>
