<svg width="40" height="40" viewBox="0 0 40 40" fill="none" xmlns="http://www.w3.org/2000/svg">
<g clip-path="url(#clip0_359_15292)">
<path d="M35.625 5.25022C35.1952 4.97218 34.7037 4.80397 34.1937 4.76038C33.6837 4.71678 33.1707 4.79915 32.7 5.00023L17.275 11.0752C16.9102 11.2251 16.5194 11.3015 16.125 11.3002H6.25C5.4212 11.3002 4.62634 11.6295 4.04029 12.2155C3.45424 12.8016 3.125 13.5964 3.125 14.4252V14.6752H0V22.1752H3.125V22.5002C3.14458 23.316 3.48245 24.0917 4.06639 24.6616C4.65033 25.2315 5.43403 25.5505 6.25 25.5502L10 33.5002C10.2539 34.0356 10.6537 34.4885 11.1534 34.8069C11.6531 35.1253 12.2325 35.2963 12.825 35.3002H14.4C15.2245 35.2936 16.0129 34.9615 16.5936 34.3761C17.1742 33.7908 17.5 32.9997 17.5 32.1752V25.8502L32.7 31.9252C33.0744 32.0723 33.4728 32.1486 33.875 32.1502C34.499 32.1387 35.1066 31.9478 35.625 31.6002C36.0362 31.3226 36.3754 30.951 36.6145 30.5163C36.8536 30.0816 36.9857 29.5962 37 29.1002V7.82523C36.9977 7.31652 36.8713 6.81605 36.6316 6.36731C36.392 5.91856 36.0465 5.5351 35.625 5.25022ZM14.375 14.4252V22.5002H6.25V14.4252H14.375ZM14.375 32.1752H12.8L9.725 25.5502H14.375V32.1752ZM18.425 22.8752C18.1281 22.7236 17.8186 22.5982 17.5 22.5002V14.2502C17.8155 14.1846 18.1249 14.0926 18.425 13.9752L33.875 7.82523V29.0252L18.425 22.8752ZM37.075 15.3002V21.5502C37.9038 21.5502 38.6987 21.221 39.2847 20.6349C39.8708 20.0489 40.2 19.254 40.2 18.4252C40.2 17.5964 39.8708 16.8016 39.2847 16.2155C38.6987 15.6295 37.9038 15.3002 37.075 15.3002Z" fill="#71717A"/>
</g>
<defs>
<clipPath id="clip0_359_15292">
<rect width="40" height="40" fill="white"/>
</clipPath>
</defs>
</svg>
