<svg width="814" height="20" viewBox="0 0 814 20" fill="none" xmlns="http://www.w3.org/2000/svg">
<g clip-path="url(#clip0_446_4169)">
<path d="M366.604 1.91274C366.641 1.83895 366.697 1.77685 366.767 1.73342C366.837 1.69 366.918 1.66699 367 1.66699C367.082 1.66699 367.163 1.69 367.233 1.73342C367.303 1.77685 367.359 1.83895 367.396 1.91274L369.321 5.8119C369.448 6.06854 369.635 6.29058 369.866 6.45895C370.098 6.62732 370.367 6.737 370.65 6.77857L374.955 7.40857C375.037 7.42039 375.113 7.4548 375.176 7.5079C375.239 7.56101 375.286 7.63069 375.312 7.70908C375.337 7.78746 375.34 7.87141 375.32 7.95143C375.301 8.03146 375.259 8.10436 375.2 8.1619L372.087 11.1936C371.881 11.3937 371.728 11.6406 371.639 11.9133C371.55 12.1859 371.529 12.476 371.577 12.7586L372.312 17.0419C372.327 17.1234 372.318 17.2074 372.287 17.2841C372.256 17.3609 372.204 17.4274 372.137 17.4761C372.07 17.5247 371.991 17.5536 371.908 17.5593C371.826 17.5651 371.743 17.5475 371.67 17.5086L367.822 15.4852C367.568 15.3521 367.286 15.2825 367 15.2825C366.713 15.2825 366.431 15.3521 366.177 15.4852L362.33 17.5086C362.257 17.5472 362.174 17.5646 362.092 17.5588C362.01 17.5529 361.93 17.524 361.864 17.4754C361.797 17.4268 361.745 17.3604 361.714 17.2838C361.683 17.2071 361.674 17.1233 361.688 17.0419L362.422 12.7594C362.471 12.4767 362.45 12.1864 362.361 11.9136C362.273 11.6408 362.119 11.3937 361.913 11.1936L358.8 8.16274C358.74 8.10526 358.698 8.03223 358.678 7.95197C358.658 7.8717 358.661 7.78742 358.687 7.70873C358.712 7.63004 358.759 7.5601 358.823 7.50689C358.886 7.45367 358.963 7.41932 359.045 7.40774L363.349 6.77857C363.633 6.73732 363.902 6.62778 364.134 6.45939C364.366 6.291 364.553 6.0688 364.68 5.8119L366.604 1.91274Z" fill="#204285" stroke="#204285" stroke-width="2" stroke-linecap="round" stroke-linejoin="round"/>
</g>
<g clip-path="url(#clip1_446_4169)">
<path d="M386.604 1.91274C386.641 1.83895 386.697 1.77685 386.767 1.73342C386.837 1.69 386.918 1.66699 387 1.66699C387.082 1.66699 387.163 1.69 387.233 1.73342C387.303 1.77685 387.359 1.83895 387.396 1.91274L389.321 5.8119C389.448 6.06854 389.635 6.29058 389.866 6.45895C390.098 6.62732 390.367 6.737 390.65 6.77857L394.955 7.40857C395.037 7.42039 395.113 7.4548 395.176 7.5079C395.239 7.56101 395.286 7.63069 395.312 7.70908C395.337 7.78746 395.34 7.87141 395.32 7.95143C395.301 8.03146 395.259 8.10436 395.2 8.1619L392.087 11.1936C391.881 11.3937 391.728 11.6406 391.639 11.9133C391.55 12.1859 391.529 12.476 391.577 12.7586L392.312 17.0419C392.327 17.1234 392.318 17.2074 392.287 17.2841C392.256 17.3609 392.204 17.4274 392.137 17.4761C392.07 17.5247 391.991 17.5536 391.908 17.5593C391.826 17.5651 391.743 17.5475 391.67 17.5086L387.822 15.4852C387.568 15.3521 387.286 15.2825 387 15.2825C386.713 15.2825 386.431 15.3521 386.177 15.4852L382.33 17.5086C382.257 17.5472 382.174 17.5646 382.092 17.5588C382.01 17.5529 381.93 17.524 381.864 17.4754C381.797 17.4268 381.745 17.3604 381.714 17.2838C381.683 17.2071 381.674 17.1233 381.688 17.0419L382.422 12.7594C382.471 12.4767 382.45 12.1864 382.361 11.9136C382.273 11.6408 382.119 11.3937 381.913 11.1936L378.8 8.16274C378.74 8.10526 378.698 8.03223 378.678 7.95197C378.658 7.8717 378.661 7.78742 378.687 7.70873C378.712 7.63004 378.759 7.5601 378.823 7.50689C378.886 7.45367 378.963 7.41932 379.045 7.40774L383.349 6.77857C383.633 6.73732 383.902 6.62778 384.134 6.45939C384.366 6.291 384.553 6.0688 384.68 5.8119L386.604 1.91274Z" fill="#204285" stroke="#204285" stroke-width="2" stroke-linecap="round" stroke-linejoin="round"/>
</g>
<g clip-path="url(#clip2_446_4169)">
<path d="M406.604 1.91274C406.641 1.83895 406.697 1.77685 406.767 1.73342C406.837 1.69 406.918 1.66699 407 1.66699C407.082 1.66699 407.163 1.69 407.233 1.73342C407.303 1.77685 407.359 1.83895 407.396 1.91274L409.321 5.8119C409.448 6.06854 409.635 6.29058 409.866 6.45895C410.098 6.62732 410.367 6.737 410.65 6.77857L414.955 7.40857C415.037 7.42039 415.113 7.4548 415.176 7.5079C415.239 7.56101 415.286 7.63069 415.312 7.70908C415.337 7.78746 415.34 7.87141 415.32 7.95143C415.301 8.03146 415.259 8.10436 415.2 8.1619L412.087 11.1936C411.881 11.3937 411.728 11.6406 411.639 11.9133C411.55 12.1859 411.529 12.476 411.577 12.7586L412.312 17.0419C412.327 17.1234 412.318 17.2074 412.287 17.2841C412.256 17.3609 412.204 17.4274 412.137 17.4761C412.07 17.5247 411.991 17.5536 411.908 17.5593C411.826 17.5651 411.743 17.5475 411.67 17.5086L407.822 15.4852C407.568 15.3521 407.286 15.2825 407 15.2825C406.713 15.2825 406.431 15.3521 406.177 15.4852L402.33 17.5086C402.257 17.5472 402.174 17.5646 402.092 17.5588C402.01 17.5529 401.93 17.524 401.864 17.4754C401.797 17.4268 401.745 17.3604 401.714 17.2838C401.683 17.2071 401.674 17.1233 401.688 17.0419L402.422 12.7594C402.471 12.4767 402.45 12.1864 402.361 11.9136C402.273 11.6408 402.119 11.3937 401.913 11.1936L398.8 8.16274C398.74 8.10526 398.698 8.03223 398.678 7.95197C398.658 7.8717 398.661 7.78742 398.687 7.70873C398.712 7.63004 398.759 7.5601 398.823 7.50689C398.886 7.45367 398.963 7.41932 399.045 7.40774L403.349 6.77857C403.633 6.73732 403.902 6.62778 404.134 6.45939C404.366 6.291 404.553 6.0688 404.68 5.8119L406.604 1.91274Z" fill="#204285" stroke="#204285" stroke-width="2" stroke-linecap="round" stroke-linejoin="round"/>
</g>
<g clip-path="url(#clip3_446_4169)">
<path d="M426.604 1.91274C426.641 1.83895 426.697 1.77685 426.767 1.73342C426.837 1.69 426.918 1.66699 427 1.66699C427.082 1.66699 427.163 1.69 427.233 1.73342C427.303 1.77685 427.359 1.83895 427.396 1.91274L429.321 5.8119C429.448 6.06854 429.635 6.29058 429.866 6.45895C430.098 6.62732 430.367 6.737 430.65 6.77857L434.955 7.40857C435.037 7.42039 435.113 7.4548 435.176 7.5079C435.239 7.56101 435.286 7.63069 435.312 7.70908C435.337 7.78746 435.34 7.87141 435.32 7.95143C435.301 8.03146 435.259 8.10436 435.2 8.1619L432.087 11.1936C431.881 11.3937 431.728 11.6406 431.639 11.9133C431.55 12.1859 431.529 12.476 431.577 12.7586L432.312 17.0419C432.327 17.1234 432.318 17.2074 432.287 17.2841C432.256 17.3609 432.204 17.4274 432.137 17.4761C432.07 17.5247 431.991 17.5536 431.908 17.5593C431.826 17.5651 431.743 17.5475 431.67 17.5086L427.822 15.4852C427.568 15.3521 427.286 15.2825 427 15.2825C426.713 15.2825 426.431 15.3521 426.177 15.4852L422.33 17.5086C422.257 17.5472 422.174 17.5646 422.092 17.5588C422.01 17.5529 421.93 17.524 421.864 17.4754C421.797 17.4268 421.745 17.3604 421.714 17.2838C421.683 17.2071 421.674 17.1233 421.688 17.0419L422.422 12.7594C422.471 12.4767 422.45 12.1864 422.361 11.9136C422.273 11.6408 422.119 11.3937 421.913 11.1936L418.8 8.16274C418.74 8.10526 418.698 8.03223 418.678 7.95197C418.658 7.8717 418.661 7.78742 418.687 7.70873C418.712 7.63004 418.759 7.5601 418.823 7.50689C418.886 7.45367 418.963 7.41932 419.045 7.40774L423.349 6.77857C423.633 6.73732 423.902 6.62778 424.134 6.45939C424.366 6.291 424.553 6.0688 424.68 5.8119L426.604 1.91274Z" fill="#204285" stroke="#204285" stroke-width="2" stroke-linecap="round" stroke-linejoin="round"/>
</g>
<g clip-path="url(#clip4_446_4169)">
<path d="M446.604 1.91274C446.641 1.83895 446.697 1.77685 446.767 1.73342C446.837 1.69 446.918 1.66699 447 1.66699C447.082 1.66699 447.163 1.69 447.233 1.73342C447.303 1.77685 447.359 1.83895 447.396 1.91274L449.321 5.8119C449.448 6.06854 449.635 6.29058 449.866 6.45895C450.098 6.62732 450.367 6.737 450.65 6.77857L454.955 7.40857C455.037 7.42039 455.113 7.4548 455.176 7.5079C455.239 7.56101 455.286 7.63069 455.312 7.70908C455.337 7.78746 455.34 7.87141 455.32 7.95143C455.301 8.03146 455.259 8.10436 455.2 8.1619L452.087 11.1936C451.881 11.3937 451.728 11.6406 451.639 11.9133C451.55 12.1859 451.529 12.476 451.577 12.7586L452.312 17.0419C452.327 17.1234 452.318 17.2074 452.287 17.2841C452.256 17.3609 452.204 17.4274 452.137 17.4761C452.07 17.5247 451.991 17.5536 451.908 17.5593C451.826 17.5651 451.743 17.5475 451.67 17.5086L447.822 15.4852C447.568 15.3521 447.286 15.2825 447 15.2825C446.713 15.2825 446.431 15.3521 446.177 15.4852L442.33 17.5086C442.257 17.5472 442.174 17.5646 442.092 17.5588C442.01 17.5529 441.93 17.524 441.864 17.4754C441.797 17.4268 441.745 17.3604 441.714 17.2838C441.683 17.2071 441.674 17.1233 441.688 17.0419L442.422 12.7594C442.471 12.4767 442.45 12.1864 442.361 11.9136C442.273 11.6408 442.119 11.3937 441.913 11.1936L438.8 8.16274C438.74 8.10526 438.698 8.03223 438.678 7.95197C438.658 7.8717 438.661 7.78742 438.687 7.70873C438.712 7.63004 438.759 7.5601 438.823 7.50689C438.886 7.45367 438.963 7.41932 439.045 7.40774L443.349 6.77857C443.633 6.73732 443.902 6.62778 444.134 6.45939C444.366 6.291 444.553 6.0688 444.68 5.8119L446.604 1.91274Z" fill="#204285" stroke="#204285" stroke-width="2" stroke-linecap="round" stroke-linejoin="round"/>
</g>
<defs>
<clipPath id="clip0_446_4169">
<rect width="20" height="20" fill="white" transform="translate(357)"/>
</clipPath>
<clipPath id="clip1_446_4169">
<rect width="20" height="20" fill="white" transform="translate(377)"/>
</clipPath>
<clipPath id="clip2_446_4169">
<rect width="20" height="20" fill="white" transform="translate(397)"/>
</clipPath>
<clipPath id="clip3_446_4169">
<rect width="20" height="20" fill="white" transform="translate(417)"/>
</clipPath>
<clipPath id="clip4_446_4169">
<rect width="20" height="20" fill="white" transform="translate(437)"/>
</clipPath>
</defs>
</svg>
