<svg width="180" height="180" viewBox="0 0 180 180" fill="none" xmlns="http://www.w3.org/2000/svg">
<g clip-path="url(#clip0_446_4775)">
<path d="M0 62.4002C0 32.9843 0 18.2763 9.13852 9.13852C18.277 0.000702739 32.9836 0 62.4002 0H117.6C147.016 0 161.723 0 170.862 9.13852C180 18.2763 180 32.9836 180 62.4002V117.6C180 147.016 180 161.723 170.861 170.862C161.723 180 147.016 180 117.6 180H62.4009C32.985 180 18.277 180 9.13922 170.861C0.00140615 161.723 0 147.016 0 117.6V62.4002Z" fill="#4945FF"/>
<path d="M124.2 54.5996H63.5996V85.4998H94.4998V116.399H125.399V55.7998C125.399 55.1368 124.862 54.5996 124.2 54.5996Z" fill="white"/>
<path d="M93.2988 85.5H94.4991V86.7002H93.2988V85.5Z" fill="white"/>
<path d="M63.5995 85.4998H93.2994C93.9625 85.4998 94.4997 86.037 94.4997 86.6994V116.399H64.7997C64.6421 116.399 64.486 116.369 64.3404 116.308C64.1948 116.248 64.0625 116.16 63.951 116.048C63.8396 115.937 63.7512 115.805 63.6908 115.659C63.6305 115.513 63.5995 115.357 63.5995 115.2V85.4998ZM94.4997 116.399H125.399L95.5234 146.275C95.1459 146.653 94.4997 146.386 94.4997 145.852V116.399ZM63.5995 85.4998H34.1477C33.6133 85.4998 33.3461 84.853 33.7237 84.4754L63.5995 54.5996V85.4998Z" fill="#9593FF"/>
</g>
<defs>
<clipPath id="clip0_446_4775">
<rect width="180" height="180" fill="white"/>
</clipPath>
</defs>
</svg>
