<svg width="50" height="49" viewBox="0 0 50 49" fill="none" xmlns="http://www.w3.org/2000/svg">
<path d="M31.897 12.3531C33.2432 12.3531 34.3384 11.2579 34.3384 9.91172C34.3384 8.56553 33.2432 7.47021 31.897 7.47021C30.5508 7.47021 29.4556 8.56553 29.4556 9.91172C29.4556 10.4615 29.6384 10.9693 29.9463 11.3779L25.935 16.9835C25.6896 16.9028 25.433 16.8617 25.1748 16.8617C24.5333 16.8617 23.9491 17.1108 23.513 17.5169L20.8393 15.9997C20.8756 15.831 20.894 15.6589 20.894 15.4863C20.894 14.1401 19.7988 13.0449 18.4526 13.0449C17.1064 13.0449 16.0112 14.1401 16.0112 15.4863C16.0112 15.6624 16.0304 15.8341 16.066 15.9997L13.3923 17.5169C12.9562 17.1108 12.372 16.8618 11.7305 16.8618C10.3843 16.8618 9.28906 17.9571 9.28906 19.3033C9.28906 20.6495 10.3843 21.7448 11.7305 21.7448C13.0767 21.7448 14.1719 20.6495 14.1719 19.3033C14.1718 19.1307 14.1535 18.9586 14.1171 18.7899L16.7908 17.2728C17.227 17.6788 17.8111 17.9279 18.4526 17.9279C19.0941 17.9279 19.6782 17.6788 20.1145 17.2729L22.7882 18.79C22.7518 18.9587 22.7334 19.1308 22.7334 19.3034C22.7334 20.6496 23.8286 21.7449 25.1748 21.7449C26.5211 21.7449 27.6163 20.6496 27.6163 19.3034C27.6168 18.7742 27.4445 18.2593 27.1255 17.837L31.1368 12.2314C31.3821 12.3121 31.6387 12.3531 31.897 12.3531ZM31.897 8.93506C32.4354 8.93506 32.8735 9.37314 32.8735 9.91172C32.8735 10.4502 32.4354 10.8883 31.897 10.8883C31.3585 10.8883 30.9204 10.4502 30.9204 9.91172C30.9203 9.37314 31.3584 8.93506 31.897 8.93506ZM11.7302 20.2798C11.1917 20.2798 10.7536 19.8417 10.7536 19.3031C10.7536 18.7646 11.1917 18.3265 11.7302 18.3265C12.2687 18.3265 12.7067 18.7646 12.7067 19.3031C12.7067 19.8417 12.2687 20.2798 11.7302 20.2798ZM18.4524 16.4629C17.914 16.4629 17.4759 16.0248 17.4759 15.4862C17.4759 14.9478 17.914 14.5097 18.4524 14.5097C18.9909 14.5097 19.429 14.9478 19.429 15.4862C19.4291 16.0248 18.9909 16.4629 18.4524 16.4629ZM25.1747 20.2798C24.6362 20.2798 24.1981 19.8417 24.1981 19.3031C24.1981 18.7646 24.6362 18.3265 25.1747 18.3265C25.7133 18.3265 26.1514 18.7646 26.1514 19.3031C26.1514 19.8417 25.7132 20.2798 25.1747 20.2798Z" fill="#204285"/>
<path d="M40.898 36.1716H2.07178C1.91086 36.1714 1.75659 36.1074 1.64281 35.9936C1.52903 35.8798 1.46502 35.7256 1.46484 35.5647V5.34795C1.46502 5.18704 1.52903 5.03277 1.64281 4.91898C1.75659 4.8052 1.91086 4.7412 2.07178 4.74102H5.52451C5.929 4.74102 6.25693 4.41318 6.25693 4.00859C6.25693 3.604 5.929 3.27617 5.52451 3.27617H2.07178C0.929395 3.27617 0 4.20557 0 5.34795V35.5647C0 36.707 0.929395 37.6364 2.07178 37.6364H7.12188V39.2483C7.12188 40.1666 7.86895 40.9137 8.78721 40.9137H16.1187L12.6675 47.6518C12.5811 47.8244 12.5663 48.0242 12.6264 48.2077C12.6865 48.3912 12.8167 48.5435 12.9885 48.6315C13.1604 48.7195 13.36 48.7361 13.544 48.6777C13.7281 48.6193 13.8816 48.4906 13.9712 48.3195L17.7645 40.9137H25.8623L29.6556 48.3195C29.6994 48.4052 29.7597 48.4813 29.8329 48.5436C29.9062 48.606 29.991 48.6533 30.0825 48.6828C30.1741 48.7123 30.2705 48.7235 30.3664 48.7158C30.4623 48.708 30.5557 48.6815 30.6413 48.6376C30.7269 48.5938 30.8031 48.5335 30.8654 48.4602C30.9277 48.3869 30.975 48.3021 31.0045 48.2105C31.034 48.119 31.0452 48.0225 31.0375 47.9267C31.0297 47.8308 31.0031 47.7374 30.9593 47.6518L27.5081 40.9137H34.8396C35.7578 40.9137 36.5049 40.1667 36.5049 39.2483V37.6364H40.898C41.3025 37.6364 41.6305 37.3086 41.6305 36.904C41.6305 36.4994 41.3025 36.1716 40.898 36.1716ZM35.04 39.2483C35.04 39.3015 35.0188 39.3525 34.9813 39.3901C34.9437 39.4276 34.8927 39.4488 34.8396 39.4488H8.78721C8.73405 39.4488 8.68309 39.4276 8.6455 39.3901C8.60791 39.3525 8.58677 39.3015 8.58672 39.2483V37.6364H35.04V39.2483ZM8.4542 4.74102H41.5549C41.7158 4.7412 41.8701 4.8052 41.9839 4.91898C42.0976 5.03277 42.1616 5.18704 42.1618 5.34795V12.3119C42.1618 12.7165 42.4897 13.0443 42.8942 13.0443C43.2987 13.0443 43.6267 12.7165 43.6267 12.3119V5.34795C43.6267 4.20557 42.6973 3.27617 41.5549 3.27617H25.8784V1.83652C25.8784 0.82334 25.0541 -0.000976562 24.0408 -0.000976562H19.5859C18.5728 -0.000976562 17.7483 0.82334 17.7483 1.83652V3.27617H8.4542C8.04971 3.27617 7.72178 3.604 7.72178 4.00859C7.72178 4.41318 8.04971 4.74102 8.4542 4.74102ZM19.2132 1.83652C19.2133 1.7377 19.2526 1.64296 19.3225 1.5731C19.3924 1.50323 19.4871 1.46394 19.5859 1.46387H24.0408C24.1396 1.46397 24.2344 1.50326 24.3043 1.57312C24.3741 1.64299 24.4134 1.73771 24.4136 1.83652V3.27617H19.2133V1.83652H19.2132Z" fill="#204285"/>
<path d="M10.2441 25.4889C10.0499 25.4889 9.8636 25.5661 9.72624 25.7035C9.58888 25.8408 9.51172 26.0271 9.51172 26.2214V32.6932C9.51172 32.8875 9.58888 33.0738 9.72624 33.2111C9.8636 33.3485 10.0499 33.4257 10.2441 33.4257H13.2155C13.4098 33.4257 13.5961 33.3485 13.7334 33.2111C13.8708 33.0738 13.9479 32.8875 13.9479 32.6932V26.2214C13.9479 26.0271 13.8708 25.8408 13.7334 25.7035C13.5961 25.5661 13.4098 25.4889 13.2155 25.4889H10.2441ZM12.4831 31.9609H10.9766V26.9539H12.4831V31.9609ZM16.9663 21.746C16.7721 21.746 16.5858 21.8231 16.4484 21.9605C16.3111 22.0979 16.2339 22.2841 16.2339 22.4784V32.6933C16.2339 32.8876 16.3111 33.0739 16.4484 33.2112C16.5858 33.3486 16.7721 33.4258 16.9663 33.4258H19.9377C20.1319 33.4258 20.3182 33.3486 20.4556 33.2112C20.593 33.0739 20.6701 32.8876 20.6701 32.6933V22.4784C20.6701 22.2841 20.593 22.0979 20.4556 21.9605C20.3182 21.8231 20.1319 21.746 19.9377 21.746H16.9663ZM19.2054 31.9609H17.6988V23.2108H19.2054V31.9609ZM23.6886 25.4889C23.4943 25.4889 23.308 25.5661 23.1707 25.7035C23.0333 25.8408 22.9562 26.0271 22.9562 26.2214V32.6932C22.9562 32.8875 23.0333 33.0738 23.1707 33.2111C23.308 33.3485 23.4943 33.4257 23.6886 33.4257H26.66C26.8542 33.4257 27.0405 33.3485 27.1779 33.2111C27.3152 33.0738 27.3924 32.8875 27.3924 32.6932V26.2214C27.3924 26.0271 27.3152 25.8408 27.1779 25.7035C27.0405 25.5661 26.8542 25.4889 26.66 25.4889H23.6886ZM25.9275 31.9609H24.421V26.9539H25.9275V31.9609ZM30.4108 29.8108C30.2166 29.8108 30.0303 29.888 29.8929 30.0253C29.7556 30.1627 29.6784 30.349 29.6784 30.5432V32.6933C29.6784 32.8876 29.7556 33.0739 29.8929 33.2112C30.0303 33.3486 30.2166 33.4258 30.4108 33.4258H33.3822C33.7867 33.4258 34.1146 33.0979 34.1146 32.6933C34.1146 32.2887 33.7867 31.9609 33.3822 31.9609H31.1433V30.5432C31.1433 30.349 31.0661 30.1627 30.9287 30.0253C30.7914 29.888 30.6051 29.8108 30.4108 29.8108ZM49.6263 36.8603L45.4244 29.5824C46.489 28.4477 47.2642 27.0613 47.6782 25.516C48.34 23.0462 48.0004 20.4664 46.7219 18.2519C44.0826 13.6803 38.2163 12.1088 33.645 14.7479C29.0736 17.3871 27.5019 23.2534 30.1411 27.8248C31.4196 30.0392 33.484 31.6232 35.9538 32.2851C36.7668 32.5038 37.605 32.6148 38.447 32.6154C39.1737 32.6154 39.8963 32.5318 40.6029 32.3664L44.8039 39.6445C45.3188 40.5368 46.2565 41.0361 47.2196 41.036C47.6916 41.036 48.1697 40.916 48.6071 40.6637C49.4661 40.1679 49.9998 39.2433 49.9998 38.251C49.9998 37.7647 49.8707 37.284 49.6263 36.8603ZM36.3329 30.8702C34.241 30.3096 32.4925 28.9679 31.4096 27.0924C29.1742 23.2205 30.5056 18.2519 34.3773 16.0165C35.6511 15.2811 37.043 14.9319 38.4178 14.9319C41.222 14.9319 43.9532 16.3863 45.4532 18.9844C46.536 20.8599 46.8237 23.0449 46.2632 25.1369C45.7026 27.2289 44.3609 28.9772 42.4853 30.0601C40.6099 31.143 38.4249 31.4305 36.3329 30.8702ZM47.875 39.3949C47.2448 39.7588 46.4362 39.5422 46.0727 38.9123L42.0309 31.9099C42.4393 31.7434 42.8359 31.5492 43.218 31.3288C43.5999 31.1077 43.9663 30.8609 44.3146 30.5899L48.3576 37.5926C48.4733 37.7928 48.5345 38.0198 48.535 38.2511C48.5347 38.4828 48.4735 38.7104 48.3577 38.9111C48.2419 39.1118 48.0755 39.2787 47.875 39.3949Z" fill="#204285"/>
<path d="M45.0744 25.102C45.5915 23.4364 45.4684 21.6532 44.7276 20.0809C44.6873 19.9929 44.6299 19.9137 44.5588 19.848C44.4876 19.7823 44.4042 19.7314 44.3132 19.6982C44.2223 19.6649 44.1257 19.65 44.0289 19.6544C43.9322 19.6587 43.8373 19.6822 43.7497 19.7235C43.6621 19.7648 43.5836 19.823 43.5186 19.8948C43.4537 19.9666 43.4036 20.0506 43.3713 20.1419C43.339 20.2332 43.3252 20.3299 43.3305 20.4266C43.3359 20.5233 43.3604 20.618 43.4025 20.7051C43.9868 21.9453 44.0838 23.3525 43.6755 24.6675C43.2649 25.9898 42.378 27.0995 41.1781 27.7922C39.9084 28.5254 38.429 28.72 37.0129 28.3406C35.5967 27.9611 34.4129 27.0528 33.6799 25.783C32.1665 23.1619 33.0679 19.7982 35.6891 18.2848C36.6238 17.7435 37.6977 17.4905 38.7758 17.5576C39.8539 17.6246 40.8882 18.0086 41.7487 18.6615C41.8254 18.7195 41.9128 18.7619 42.0059 18.7862C42.0989 18.8105 42.1959 18.8162 42.2912 18.803C42.3864 18.7898 42.4782 18.7579 42.5611 18.7093C42.6441 18.6606 42.7167 18.5961 42.7747 18.5194C42.8919 18.3645 42.9428 18.1693 42.9161 17.9769C42.8894 17.7845 42.7874 17.6106 42.6325 17.4934C41.5424 16.6664 40.2323 16.1798 38.8666 16.0949C37.501 16.01 36.1407 16.3305 34.9565 17.0161C33.3479 17.9449 32.1973 19.4445 31.7165 21.2386C31.2357 23.0328 31.4825 24.9068 32.4112 26.5154C33.3399 28.1241 34.8395 29.2746 36.6337 29.7555C37.2243 29.9144 37.8332 29.995 38.4448 29.9954C39.6497 29.9954 40.8391 29.6794 41.9104 29.0608C43.4307 28.1832 44.5543 26.7774 45.0744 25.102Z" fill="#204285"/>
</svg>
