<svg width="180" height="180" viewBox="0 0 180 180" fill="none" xmlns="http://www.w3.org/2000/svg">
<g clip-path="url(#clip0_446_4675)">
<path d="M137.812 0H42.1875C18.888 0 0 18.888 0 42.1875V137.812C0 161.112 18.888 180 42.1875 180H137.812C161.112 180 180 161.112 180 137.812V42.1875C180 18.888 161.112 0 137.812 0Z" fill="#FF3E00"/>
<mask id="mask0_446_4675" style="mask-type:luminance" maskUnits="userSpaceOnUse" x="37" y="26" width="106" height="128">
<path d="M37.2656 26.7188H142.484V153.281H37.2656V26.7188Z" fill="white"/>
</mask>
<g mask="url(#mask0_446_4675)">
<path d="M135.727 43.4519C124.036 26.612 100.761 21.6789 84.0296 32.2968L54.5335 51.1743C46.4897 56.2157 40.9126 64.4739 39.3038 73.8051C37.9088 81.6351 39.0887 89.6788 42.8426 96.651C40.2692 100.512 38.5522 104.802 37.8012 109.307C36.0856 118.853 38.3384 128.721 43.9156 136.55C55.714 153.39 78.8806 158.323 95.6129 147.705L125.108 128.935C133.153 123.894 138.73 115.635 140.339 106.304C141.733 98.4742 140.553 90.4298 136.799 83.4583C139.373 79.5967 141.09 75.3069 141.841 70.802C143.664 61.1488 141.412 51.2812 135.727 43.4519Z" fill="white"/>
<path d="M81.1325 138.159C76.4969 139.361 71.604 139.111 67.1152 137.442C62.6265 135.773 58.7585 132.766 56.0344 128.828C52.6025 124.108 51.315 118.21 52.2797 112.417C52.4949 111.452 52.7093 110.594 52.9238 109.629L53.4603 107.913L54.9614 108.985C58.4739 111.547 62.389 113.504 66.5454 114.777L67.6177 115.099L67.5108 116.171C67.4032 117.673 67.8329 119.282 68.6907 120.569C70.407 123.036 73.41 124.216 76.3055 123.465C76.9496 123.25 77.5929 123.036 78.1294 122.714L107.517 103.944C109.019 102.979 109.984 101.585 110.306 99.8687C110.627 98.1523 110.199 96.3291 109.234 94.9348C107.517 92.4676 104.514 91.3953 101.618 92.1462C100.975 92.3607 100.331 92.5752 99.7948 92.8972L88.5329 100.083C86.7097 101.263 84.672 102.121 82.5268 102.657C77.8912 103.86 72.9983 103.61 68.5095 101.941C64.0208 100.272 60.1528 97.2648 57.4287 93.3261C54.1036 88.6067 52.7093 82.7075 53.7823 76.9159C54.747 71.3387 58.1797 66.2973 63.0059 63.2942L92.5013 44.5243C94.3245 43.3445 96.3629 42.4866 98.5081 41.8426C103.144 40.6402 108.037 40.8905 112.525 42.5595C117.014 44.2285 120.882 47.2357 123.606 51.1745C127.038 55.8938 128.325 61.7923 127.36 67.5847C127.145 68.5501 126.931 69.4079 126.609 70.3733L126.073 72.0889L124.571 71.0166C121.059 68.4555 117.144 66.4981 112.988 65.225L111.915 64.903L112.022 63.8307C112.13 62.3288 111.7 60.7201 110.842 59.4327C109.126 56.9661 106.123 55.8931 103.227 56.6441C102.583 56.8585 101.94 57.073 101.404 57.395L72.0157 76.1649C70.5139 77.1303 69.5485 78.5246 69.2272 80.2409C68.9058 81.9573 69.334 83.7805 70.2994 85.1748C72.0157 87.6413 75.0188 88.7136 77.915 87.9634C78.5583 87.7489 79.2017 87.5337 79.7382 87.2124L91.0001 80.0265C92.8233 78.8466 94.861 77.9881 97.0062 77.3448C101.642 76.1423 106.535 76.3925 111.023 78.0613C115.512 79.7302 119.38 82.7373 122.104 86.6759C125.536 91.3953 126.824 97.2945 125.858 103.086C124.893 108.663 121.461 113.705 116.634 116.708L87.1386 135.478C85.3154 136.658 83.2777 137.515 81.1325 138.159Z" fill="#FF3E00"/>
</g>
</g>
<defs>
<clipPath id="clip0_446_4675">
<rect width="180" height="180" fill="white"/>
</clipPath>
</defs>
</svg>
