<svg width="180" height="180" viewBox="0 0 180 180" fill="none" xmlns="http://www.w3.org/2000/svg">
<g clip-path="url(#clip0_446_4561)">
<path d="M137.812 0H42.1875C18.888 0 0 18.888 0 42.1875V137.812C0 161.112 18.888 180 42.1875 180H137.812C161.112 180 180 161.112 180 137.812V42.1875C180 18.888 161.112 0 137.812 0Z" fill="#242938"/>
<path fill-rule="evenodd" clip-rule="evenodd" d="M58.3594 77.3438C62.5781 60.4688 73.125 52.0312 90 52.0312C115.312 52.0312 118.477 71.0156 131.133 74.1797C139.57 76.29 146.953 73.1259 153.281 64.6875C149.062 81.5625 138.516 90 121.641 90C96.3281 90 93.1641 71.0156 80.5078 67.8516C72.0703 65.7422 64.6875 68.9062 58.3594 77.3438ZM26.7188 115.312C30.9375 98.4375 41.4844 90 58.3594 90C83.6719 90 86.8359 108.984 99.4922 112.148C107.93 114.259 115.312 111.095 121.641 102.656C117.422 119.531 106.875 127.969 90 127.969C64.6875 127.969 61.5234 108.984 48.8672 105.82C40.4297 103.71 33.0469 106.874 26.7188 115.312Z" fill="url(#paint0_linear_446_4561)"/>
</g>
<defs>
<linearGradient id="paint0_linear_446_4561" x1="60.8203" y1="52.0312" x2="114.961" y2="130.43" gradientUnits="userSpaceOnUse">
<stop stop-color="#32B1C1"/>
<stop offset="1" stop-color="#14C6B7"/>
</linearGradient>
<clipPath id="clip0_446_4561">
<rect width="180" height="180" fill="white"/>
</clipPath>
</defs>
</svg>
