<svg width="32" height="32" viewBox="0 0 32 32" fill="none" xmlns="http://www.w3.org/2000/svg">
<g clip-path="url(#clip0_446_5404)">
<path d="M30.5569 6.53125H28.5312V1.59375C28.5312 0.714813 27.8164 0 26.9375 0H20.1875C19.3086 0 18.5938 0.714875 18.5938 1.59375V6.53125H15.6562V2.53125C15.6562 1.65231 14.9414 0.9375 14.0625 0.9375H4.9375C4.05856 0.9375 3.34375 1.65237 3.34375 2.53125V6.53125H1.44313C0.6475 6.53125 0 7.17875 0 7.97437V9.98438C0 10.1087 0.049386 10.2279 0.137294 10.3158C0.225201 10.4037 0.34443 10.4531 0.46875 10.4531C0.59307 10.4531 0.712299 10.4037 0.800206 10.3158C0.888114 10.2279 0.9375 10.1087 0.9375 9.98438V7.97437C0.9375 7.69556 1.16431 7.46875 1.44313 7.46875H3.34375V8.40625H2.34375C2.21943 8.40625 2.1002 8.45564 2.01229 8.54354C1.92439 8.63145 1.875 8.75068 1.875 8.875V25.125C1.875 25.2493 1.92439 25.3685 2.01229 25.4565C2.1002 25.5444 2.21943 25.5938 2.34375 25.5938H26C26.2588 25.5938 26.4688 25.3841 26.4688 25.125C26.4688 24.8659 26.2588 24.6562 26 24.6562H2.8125V9.34375H3.34912C3.41306 10.1643 4.10081 10.8125 4.9375 10.8125H8.72069V20.6069C8.72069 20.8657 8.93069 21.0756 9.18944 21.0756H10.6562C10.7806 21.0756 10.8998 21.0262 10.9877 20.9383C11.0756 20.8504 11.125 20.7312 11.125 20.6069C11.125 20.4826 11.0756 20.3633 10.9877 20.2754C10.8998 20.1875 10.7806 20.1381 10.6562 20.1381H9.65819V10.8125H14.0625C14.8992 10.8125 15.5869 10.1643 15.6509 9.34375H18.9478C19.2402 9.70562 19.687 9.9375 20.1875 9.9375H21.7676C21.9844 10.5323 22.5139 10.9775 23.1562 11.0743V14.427H21.625C21.5007 14.427 21.3815 14.4764 21.2935 14.5643C21.2056 14.6522 21.1562 14.7714 21.1562 14.8958C21.1562 15.0201 21.2056 15.1393 21.2935 15.2272C21.3815 15.3151 21.5007 15.3645 21.625 15.3645H23.625C23.7493 15.3645 23.8685 15.3151 23.9565 15.2272C24.0444 15.1393 24.0938 15.0201 24.0938 14.8958V11.0743C24.7361 10.9776 25.2656 10.5323 25.4824 9.9375H26.9375C27.4377 9.9375 27.8848 9.70562 28.1772 9.34375H29.1875V24.6562H28.0156C27.7569 24.6562 27.5469 24.8659 27.5469 25.125C27.5469 25.3841 27.7569 25.5938 28.0156 25.5938H29.6562C29.7806 25.5938 29.8998 25.5444 29.9877 25.4565C30.0756 25.3685 30.125 25.2493 30.125 25.125V8.875C30.125 8.75068 30.0756 8.63145 29.9877 8.54354C29.8998 8.45564 29.7806 8.40625 29.6562 8.40625H28.5298C28.5305 8.3855 28.5312 8.36475 28.5312 8.34375V7.46875H30.5569C30.8357 7.46875 31.0625 7.69556 31.0625 7.97437V26.0256C31.0625 26.3044 30.8357 26.5312 30.5569 26.5312H1.44313C1.16431 26.5312 0.9375 26.3044 0.9375 26.0256V11.9844C0.9375 11.8601 0.888114 11.7408 0.800206 11.6529C0.712299 11.565 0.59307 11.5156 0.46875 11.5156C0.34443 11.5156 0.225201 11.565 0.137294 11.6529C0.049386 11.7408 0 11.8601 0 11.9844L0 26.0256C0 26.8213 0.6475 27.4688 1.44313 27.4688H12.7188V29.1875H7.9375C7.16213 29.1875 6.53125 29.8184 6.53125 30.5938C6.53125 31.3691 7.16213 32 7.9375 32H24.0625C24.8379 32 25.4688 31.3691 25.4688 30.5938C25.4688 29.8184 24.8379 29.1875 24.0625 29.1875H19.2812V27.4688H30.5569C31.3525 27.4688 32 26.8213 32 26.0256V7.97437C32 7.17875 31.3525 6.53125 30.5569 6.53125ZM14.7188 9.21875C14.7188 9.58062 14.4244 9.875 14.0625 9.875H4.9375C4.57562 9.875 4.28125 9.58062 4.28125 9.21875V2.53125C4.28125 2.16937 4.57562 1.875 4.9375 1.875H14.0625C14.4244 1.875 14.7188 2.16937 14.7188 2.53125V9.21875ZM15.6562 8.40625V7.46875H18.5938V8.34375C18.5938 8.36475 18.5945 8.3855 18.5952 8.40625H15.6562ZM23.8316 10.1562H23.4184C22.9963 10.1562 22.6479 9.83519 22.6041 9.42456L22.6033 9.41675C22.6005 9.39023 22.5991 9.3636 22.5991 9.33694V9.22019H24.6509V9.33694C24.6509 9.36621 24.6493 9.39547 24.646 9.42456C24.6021 9.83519 24.2537 10.1562 23.8316 10.1562ZM26.9375 9H25.5884V8.96925C25.5884 8.77469 25.5066 8.59912 25.376 8.47388C25.4326 8.292 25.5432 8.13206 25.6968 8.02219C26.6497 7.34006 27.2188 6.22781 27.2188 5.04712C27.2188 4.37231 27.0351 3.71312 26.6875 3.14112C26.623 3.03484 26.5189 2.95854 26.3981 2.929C26.2773 2.89946 26.1497 2.91911 26.0434 2.98362C25.8223 3.11819 25.7517 3.4065 25.8862 3.62769C26.1445 4.05325 26.2812 4.54394 26.2812 5.04706C26.2812 5.926 25.8586 6.75344 25.1509 7.25975C24.8049 7.50756 24.5608 7.87206 24.4546 8.28269H22.7954C22.6892 7.87206 22.4451 7.50756 22.0989 7.25975C21.3914 6.75344 20.9688 5.926 20.9688 5.04712C20.9688 3.55638 22.1604 2.34375 23.625 2.34375C23.9632 2.34317 24.2983 2.40852 24.6116 2.53612C24.6685 2.55939 24.7296 2.5712 24.7911 2.57087C24.8527 2.57054 24.9135 2.55809 24.9703 2.53421C25.027 2.51034 25.0785 2.47551 25.1218 2.43173C25.165 2.38795 25.1992 2.33607 25.2224 2.27906C25.2457 2.22205 25.2575 2.16102 25.2571 2.09946C25.2568 2.03789 25.2443 1.97699 25.2204 1.92025C25.1966 1.8635 25.1617 1.81201 25.118 1.76872C25.0742 1.72543 25.0223 1.69118 24.9653 1.66794C24.5398 1.49451 24.0845 1.40563 23.625 1.40625C21.6433 1.40625 20.0312 3.03956 20.0312 5.04712C20.0312 6.22775 20.6003 7.34006 21.5532 8.02219C21.7068 8.13206 21.8174 8.292 21.874 8.47406C21.8069 8.53794 21.7534 8.6148 21.7169 8.69997C21.6804 8.78514 21.6616 8.87684 21.6616 8.9695V9H20.1875C19.8256 9 19.5312 8.70562 19.5312 8.34375V1.59375C19.5312 1.23187 19.8256 0.9375 20.1875 0.9375H26.9375C27.2994 0.9375 27.5938 1.23187 27.5938 1.59375V8.34375C27.5938 8.70562 27.2994 9 26.9375 9ZM24.5312 30.5938C24.5312 30.8523 24.3211 31.0625 24.0625 31.0625H7.9375C7.67894 31.0625 7.46875 30.8523 7.46875 30.5938C7.46875 30.3352 7.67894 30.125 7.9375 30.125H24.0625C24.3211 30.125 24.5312 30.3352 24.5312 30.5938ZM18.3438 29.1875H13.6562V27.4688H18.3438V29.1875Z" fill="white"/>
<path d="M20.7808 18.5259C21.3787 18.3979 21.8125 17.8613 21.8125 17.25C21.8125 16.6387 21.3787 16.1021 20.7808 15.9741C20.6168 15.9384 20.4525 15.9046 20.2878 15.8726L20.0061 15.1921C20.0997 15.0529 20.1919 14.9128 20.2827 14.7718C20.615 14.2586 20.5425 13.5723 20.1101 13.1399C19.6777 12.7078 18.9914 12.635 18.4783 12.9673C18.3373 13.0581 18.1972 13.1503 18.0581 13.2439L17.3777 12.9622C17.3557 12.8484 17.3235 12.6909 17.2761 12.4692C17.1482 11.8712 16.6113 11.4375 16 11.4375C15.3887 11.4375 14.8518 11.8713 14.7239 12.4692C14.6884 12.6332 14.6546 12.7975 14.6223 12.9622L13.9419 13.2439C13.8028 13.1503 13.6627 13.0581 13.5218 12.9673C13.0086 12.635 12.3223 12.7078 11.8899 13.1399C11.4575 13.5723 11.385 14.2586 11.7173 14.7718C11.8081 14.9128 11.9003 15.0529 11.9939 15.1921L11.7122 15.8726C11.5984 15.8945 11.4407 15.9265 11.2192 15.9741C10.6212 16.1021 10.1875 16.6387 10.1875 17.25C10.1875 17.8613 10.6213 18.3979 11.2192 18.5259C11.3832 18.5615 11.5475 18.5954 11.7122 18.6277L11.9939 19.3079C11.9003 19.4471 11.8081 19.5872 11.7173 19.7283C11.385 20.2414 11.4575 20.9277 11.8899 21.3601C12.3223 21.7922 13.0086 21.865 13.5218 21.5327C13.6627 21.4419 13.8028 21.3497 13.9419 21.2561L14.6223 21.5381C14.6443 21.6516 14.6765 21.8093 14.7239 22.0308C14.8518 22.6287 15.3887 23.0625 16 23.0625C16.6113 23.0625 17.1482 22.6287 17.2761 22.0308C17.3116 21.8668 17.3454 21.7025 17.3777 21.5378L18.0581 21.2561C18.1541 21.3211 18.2881 21.4097 18.4783 21.5327C18.9914 21.865 19.6777 21.7922 20.1101 21.3601C20.5425 20.9277 20.615 20.2414 20.2827 19.7283C20.1919 19.5872 20.0997 19.4471 20.0061 19.3079L20.2878 18.6274C20.4016 18.6057 20.5591 18.5735 20.7808 18.5259ZM12.0403 17.7366H12.0471H12.0402H12.0403ZM19.9463 17.7368C19.9512 17.7366 19.9556 17.7366 19.9592 17.7366H19.9629C19.9573 17.7366 19.9516 17.7366 19.9463 17.7368ZM19.9402 17.7371C19.7556 17.7456 19.5923 17.8591 19.5196 18.0329L19.042 19.1858C18.9714 19.3569 19.0054 19.5515 19.1294 19.6902C19.1453 19.7104 19.2192 19.8106 19.4959 20.2378C19.5894 20.3821 19.5689 20.5754 19.4473 20.697C19.3254 20.8189 19.1321 20.8394 18.9878 20.7459C18.5711 20.4759 18.4656 20.3989 18.4419 20.3806C18.3054 20.2559 18.1099 20.2207 17.935 20.2922L16.7852 20.7685C16.6094 20.8404 16.4941 21.0056 16.4871 21.1914C16.4829 21.2231 16.4619 21.3552 16.3594 21.8345C16.3232 22.0029 16.1721 22.125 16 22.125C15.8279 22.125 15.6768 22.0029 15.6406 21.8345C15.5369 21.3494 15.5169 21.22 15.5129 21.1902C15.509 21.0991 15.479 21.011 15.4265 20.9365C15.374 20.8619 15.3013 20.804 15.2168 20.7696L14.0632 20.2915C13.8887 20.2203 13.6914 20.2566 13.5569 20.3816C13.5308 20.4019 13.4216 20.4807 13.0125 20.7459C12.8679 20.8394 12.6746 20.8191 12.553 20.6973C12.4938 20.6376 12.4567 20.5596 12.4478 20.4761C12.4389 20.3926 12.4588 20.3085 12.5041 20.2378C12.7744 19.8203 12.8513 19.7153 12.8694 19.6919C12.9308 19.6245 12.9717 19.5411 12.9873 19.4513C13.003 19.3615 12.9927 19.2691 12.9578 19.185L12.4797 18.0312C12.4448 17.9476 12.3869 17.8755 12.3126 17.8235C12.2384 17.7714 12.1509 17.7416 12.0603 17.7373C12.0317 17.7336 11.9043 17.7139 11.4155 17.6094C11.2471 17.5732 11.125 17.4221 11.125 17.25C11.125 17.0779 11.2471 16.9267 11.4155 16.8909C11.9014 16.7869 12.0303 16.7666 12.0598 16.7629C12.2444 16.7544 12.4077 16.6409 12.4804 16.4671L12.958 15.3142C13.0286 15.1431 12.9946 14.9485 12.8706 14.8098C12.8547 14.7896 12.7807 14.6894 12.5041 14.2622C12.4106 14.1179 12.4311 13.9246 12.5527 13.803C12.6743 13.6811 12.8677 13.6606 13.0122 13.7541C13.4289 14.0241 13.5344 14.1011 13.5581 14.1194C13.6946 14.2441 13.8901 14.2793 14.065 14.2078L15.2168 13.7305C15.3914 13.6582 15.5059 13.4936 15.5129 13.3086C15.5171 13.2769 15.5381 13.1447 15.6406 12.6655C15.6765 12.4971 15.8276 12.375 16 12.375C16.084 12.3753 16.1654 12.4043 16.2306 12.4571C16.2959 12.5099 16.3413 12.5834 16.3591 12.6655C16.4631 13.1511 16.4831 13.2803 16.4871 13.3098C16.4956 13.4939 16.6081 13.6567 16.7827 13.7304L17.9371 14.2087C18.1118 14.28 18.3086 14.2434 18.4431 14.1184C18.4692 14.0984 18.5784 14.0193 18.9875 13.7541C19.1321 13.6606 19.3254 13.6811 19.447 13.803C19.5689 13.9246 19.5894 14.1179 19.4959 14.2622C19.2256 14.6797 19.1487 14.7847 19.1306 14.8084C19.0692 14.8757 19.0283 14.9591 19.0126 15.0488C18.997 15.1385 19.0073 15.2308 19.0422 15.3149L19.5191 16.4663C19.5536 16.5507 19.6115 16.6234 19.6861 16.676C19.7606 16.7285 19.8486 16.7586 19.9397 16.7627C19.9683 16.7666 20.0959 16.7861 20.5845 16.8908C20.7529 16.9267 20.875 17.0779 20.875 17.25C20.875 17.4221 20.7527 17.5733 20.5845 17.6091C20.0986 17.7131 19.9698 17.7334 19.9402 17.7371Z" fill="white"/>
<path d="M16 15.0386C14.7808 15.0386 13.7888 16.0308 13.7888 17.25C13.7888 18.4693 14.7808 19.4615 16 19.4615C17.2192 19.4615 18.2112 18.4693 18.2112 17.25C18.2112 16.0308 17.2192 15.0386 16 15.0386ZM16 18.524C15.2976 18.524 14.7263 17.9524 14.7263 17.25C14.7263 16.5476 15.2976 15.9761 16 15.9761C16.7024 15.9761 17.2737 16.5476 17.2737 17.25C17.2737 17.9524 16.7024 18.524 16 18.524ZM5.75 4.32502L9.41238 4.32471C9.47395 4.32471 9.53493 4.31257 9.59182 4.289C9.6487 4.26543 9.70039 4.23088 9.74392 4.18733C9.78745 4.14377 9.82197 4.09207 9.84552 4.03517C9.86906 3.97827 9.88116 3.91729 9.88113 3.85571C9.88113 3.79416 9.869 3.73322 9.84544 3.67636C9.82188 3.6195 9.78735 3.56785 9.74382 3.52434C9.70029 3.48083 9.64861 3.44633 9.59174 3.4228C9.53487 3.39927 9.47392 3.38717 9.41238 3.38721L5.75 3.38752C5.62568 3.38752 5.50645 3.43691 5.41854 3.52481C5.33064 3.61272 5.28125 3.73195 5.28125 3.85627C5.28125 3.98059 5.33064 4.09982 5.41854 4.18773C5.50645 4.27563 5.62568 4.32502 5.75 4.32502ZM5.75 6.19971L13.25 6.19946C13.3116 6.19946 13.3725 6.18733 13.4294 6.16378C13.4863 6.14022 13.5379 6.10569 13.5815 6.06216C13.625 6.01864 13.6595 5.96696 13.6831 5.91009C13.7066 5.85322 13.7188 5.79226 13.7188 5.73071C13.7188 5.66915 13.7066 5.6082 13.6831 5.55132C13.6595 5.49445 13.625 5.44278 13.5815 5.39925C13.5379 5.35572 13.4863 5.3212 13.4294 5.29764C13.3725 5.27408 13.3116 5.26196 13.25 5.26196L5.75 5.26221C5.62568 5.26221 5.50645 5.31159 5.41854 5.3995C5.33064 5.48741 5.28125 5.60664 5.28125 5.73096C5.28125 5.85528 5.33064 5.97451 5.41854 6.06241C5.50645 6.15032 5.62568 6.19971 5.75 6.19971ZM13.25 7.13696L5.75025 7.13721C5.68869 7.13718 5.62772 7.14929 5.57084 7.17284C5.51396 7.19639 5.46227 7.23091 5.41874 7.27445C5.37521 7.31798 5.34068 7.36966 5.31713 7.42655C5.29358 7.48343 5.28148 7.54439 5.2815 7.60596C5.2815 7.73028 5.33089 7.84951 5.41879 7.93741C5.5067 8.02532 5.62593 8.07471 5.75025 8.07471L13.25 8.07446C13.5087 8.07446 13.7188 7.86452 13.7188 7.60571C13.7188 7.34689 13.5087 7.13696 13.25 7.13696Z" fill="white"/>
</g>
<defs>
<clipPath id="clip0_446_5404">
<rect width="32" height="32" fill="white"/>
</clipPath>
</defs>
</svg>
