<svg width="50" height="51" viewBox="0 0 50 51" fill="none" xmlns="http://www.w3.org/2000/svg">
<path d="M29.885 31.6537C30.5038 31.6537 31.0826 31.4097 31.5148 30.9668L35.3537 27.0308C36.2299 26.1324 36.2117 24.6886 35.3132 23.8124C34.4147 22.9363 32.9706 22.9545 32.0945 23.8528L29.8424 26.1616L29.4479 25.778C28.5481 24.9034 27.1041 24.9234 26.229 25.8231C25.3542 26.7228 25.3744 28.1666 26.2743 29.0415L28.2983 31.0094C28.7225 31.4236 29.2921 31.6549 29.885 31.6537ZM27.2816 26.8463C27.5925 26.5266 28.1055 26.52 28.4247 26.8304L29.3446 27.7249C29.484 27.8604 29.6715 27.9351 29.866 27.9325C30.0604 27.9299 30.2459 27.8503 30.3817 27.7111L33.1453 24.8777C33.4567 24.5585 33.9695 24.5523 34.2884 24.8632C34.6076 25.1745 34.6139 25.6872 34.3029 26.0062L30.4639 29.9421C30.1672 30.2593 29.6268 30.2661 29.3216 29.9573L27.2976 27.9893C26.9782 27.6786 26.9708 27.1658 27.2816 26.8463Z" fill="#204285"/>
<path d="M24.2094 32.1532C24.0907 32.0019 23.9174 31.9033 23.7267 31.8784C23.5361 31.8536 23.3433 31.9045 23.1898 32.0203C23.0363 32.1361 22.9344 32.3075 22.9059 32.4976C22.8774 32.6877 22.9247 32.8815 23.0375 33.0371C23.3067 33.3935 23.6003 33.7308 23.9161 34.0466C25.7207 35.851 28.12 36.8447 30.6721 36.8447C33.2241 36.8447 35.6233 35.851 37.4279 34.0466C39.2326 32.2423 40.2264 29.8433 40.2264 27.2916C40.2264 24.7399 39.2325 22.341 37.4279 20.5367C33.7026 16.812 27.6414 16.812 23.9161 20.5367C21.3764 23.076 20.4776 26.7804 21.5707 30.2042C21.63 30.3896 21.7604 30.5439 21.9334 30.6331C22.1063 30.7224 22.3076 30.7393 22.4931 30.6802C22.5849 30.6509 22.67 30.6038 22.7436 30.5416C22.8172 30.4794 22.8779 30.4033 22.9221 30.3177C22.9663 30.232 22.9932 30.1385 23.0012 30.0425C23.0093 29.9464 22.9984 29.8498 22.969 29.7579C22.0437 26.8597 22.8044 23.724 24.9542 21.5745C28.1069 18.4221 33.2372 18.4221 36.3899 21.5745C37.9173 23.1017 38.7585 25.1321 38.7585 27.2917C38.7585 29.4514 37.9173 31.4818 36.3899 33.0089C34.8627 34.536 32.832 35.3771 30.6721 35.3771C28.5122 35.3771 26.4814 34.5361 24.9541 33.0089C24.6864 32.7412 24.4376 32.4552 24.2094 32.1532Z" fill="#204285"/>
<path d="M48.9903 40.6988L44.36 36.069C44.2223 35.9314 44.0356 35.8541 43.8409 35.8541C43.6463 35.8541 43.4596 35.9314 43.3219 36.069L43.2936 36.0974L41.5116 34.3157C42.7175 32.4573 43.4242 30.3195 43.5636 28.1085C43.5758 27.9142 43.5104 27.7231 43.3816 27.5771C43.2529 27.431 43.0715 27.3421 42.8773 27.3299C42.4731 27.3053 42.1242 27.6117 42.0985 28.0161C41.9233 30.7962 40.739 33.4167 38.7683 35.3854C36.5394 37.6142 33.6123 38.7298 30.6844 38.7326C30.6807 38.7325 30.6771 38.732 30.6732 38.732H30.6149C27.7028 38.7174 24.7952 37.6021 22.5782 35.3854C20.4159 33.2235 19.2251 30.349 19.2251 27.2915C19.2251 24.234 20.4159 21.3595 22.5782 19.1976C27.0418 14.7345 34.3047 14.7345 38.7683 19.1976C40.4308 20.8599 41.5278 22.9566 41.941 25.2614C42.0126 25.6604 42.3942 25.9254 42.793 25.8543C42.8878 25.8373 42.9784 25.8018 43.0596 25.7498C43.1407 25.6978 43.2108 25.6303 43.2659 25.5512C43.321 25.4721 43.3599 25.3829 43.3805 25.2888C43.4011 25.1946 43.4029 25.0973 43.3859 25.0024C42.9195 22.4012 41.6817 20.035 39.8063 18.1597C38.9013 17.2536 37.8661 16.4876 36.7351 15.8871V9.97246C36.7341 9.77802 36.6569 9.59171 36.5201 9.45352L27.4254 0.359961C27.2871 0.223181 27.1007 0.14602 26.9063 0.14502L2.20195 0.14502C0.987891 0.14502 9.76563e-05 1.13262 9.76563e-05 2.34658V8.51484C9.76554e-05 8.61123 0.0190834 8.70667 0.0559708 8.79571C0.0928582 8.88476 0.146925 8.96567 0.215083 9.03381C0.283241 9.10196 0.364155 9.15602 0.453206 9.19289C0.542256 9.22977 0.637698 9.24874 0.734082 9.24873C0.830466 9.24874 0.925908 9.22977 1.01496 9.19289C1.10401 9.15602 1.18492 9.10196 1.25308 9.03381C1.32124 8.96567 1.37531 8.88476 1.41219 8.79571C1.44908 8.70667 1.46807 8.61123 1.46807 8.51484V2.34658C1.46807 1.94189 1.79727 1.6127 2.20205 1.6127H26.1726V8.50478C26.1726 9.71875 27.1604 10.7063 28.3744 10.7063H35.2674V15.2225C33.8354 14.6799 32.3256 14.4012 30.8134 14.3849C30.8062 14.3839 30.7991 14.3824 30.7916 14.3824H14.4049C14.3075 14.3808 14.2108 14.3986 14.1203 14.4348C14.0299 14.471 13.9476 14.5248 13.8782 14.5931C13.8087 14.6614 13.7536 14.7428 13.7159 14.8327C13.6783 14.9225 13.6589 15.0189 13.6589 15.1163C13.6589 15.2137 13.6783 15.3101 13.7159 15.4C13.7536 15.4898 13.8087 15.5712 13.8782 15.6395C13.9476 15.7078 14.0299 15.7616 14.1203 15.7978C14.2108 15.834 14.3075 15.8518 14.4049 15.8502H24.6809C23.6112 16.41 22.6256 17.1177 21.7532 17.9522H14.4049C14.3075 17.9507 14.2108 17.9685 14.1203 18.0046C14.0299 18.0408 13.9476 18.0946 13.8782 18.1629C13.8087 18.2312 13.7536 18.3127 13.7159 18.4025C13.6783 18.4923 13.6589 18.5887 13.6589 18.6861C13.6589 18.7835 13.6783 18.88 13.7159 18.9698C13.7536 19.0596 13.8087 19.141 13.8782 19.2094C13.9476 19.2777 14.0299 19.3315 14.1203 19.3676C14.2108 19.4038 14.3075 19.4216 14.4049 19.42H20.4322C19.2342 20.9719 18.4154 22.7592 18.0235 24.6671H14.405C14.3076 24.6655 14.2109 24.6833 14.1204 24.7195C14.03 24.7556 13.9477 24.8095 13.8783 24.8778C13.8088 24.9461 13.7537 25.0275 13.716 25.1173C13.6784 25.2072 13.659 25.3036 13.659 25.401C13.659 25.4984 13.6784 25.5948 13.716 25.6846C13.7537 25.7745 13.8088 25.8559 13.8783 25.9242C13.9477 25.9925 14.03 26.0463 14.1204 26.0825C14.2109 26.1186 14.3076 26.1364 14.405 26.1349H17.8092C17.775 26.5195 17.7577 26.9055 17.7575 27.2917C17.7575 27.6104 17.7691 27.9274 17.7919 28.2422H14.4051C14.3077 28.2406 14.211 28.2584 14.1205 28.2946C14.0301 28.3307 13.9478 28.3845 13.8784 28.4529C13.8089 28.5212 13.7538 28.6026 13.7161 28.6924C13.6785 28.7823 13.6591 28.8787 13.6591 28.9761C13.6591 29.0735 13.6785 29.1699 13.7161 29.2597C13.7538 29.3496 13.8089 29.431 13.8784 29.4993C13.9478 29.5676 14.0301 29.6214 14.1205 29.6576C14.211 29.6937 14.3077 29.7115 14.4051 29.71H17.9832C18.3575 31.6964 19.1921 33.5577 20.4345 35.166H14.4051C14.3087 35.166 14.2133 35.185 14.1242 35.2219C14.0352 35.2588 13.9543 35.3128 13.8861 35.381C13.818 35.4491 13.7639 35.53 13.7271 35.6191C13.6902 35.7081 13.6712 35.8035 13.6712 35.8999C13.6712 35.9963 13.6902 36.0917 13.7271 36.1807C13.7639 36.2698 13.818 36.3507 13.8861 36.4188C13.9543 36.487 14.0352 36.541 14.1242 36.5779C14.2133 36.6148 14.3087 36.6338 14.4051 36.6338H21.7562C22.6273 37.4668 23.6113 38.1733 24.6791 38.7324H14.4047C14.3073 38.7308 14.2106 38.7486 14.1202 38.7848C14.0297 38.821 13.9474 38.8748 13.878 38.9431C13.8085 39.0114 13.7534 39.0928 13.7158 39.1827C13.6781 39.2725 13.6587 39.3689 13.6587 39.4663C13.6587 39.5637 13.6781 39.6601 13.7158 39.75C13.7534 39.8398 13.8085 39.9212 13.878 39.9895C13.9474 40.0578 14.0297 40.1116 14.1202 40.1478C14.2106 40.184 14.3073 40.2018 14.4047 40.2002H30.6732C32.2427 40.2005 33.7992 39.9161 35.2672 39.3607V47.9438C35.2672 48.3484 34.938 48.6777 34.5332 48.6777H2.20195C1.79727 48.6777 1.46797 48.3485 1.46797 47.9438V11.4507C1.46797 11.0454 1.13936 10.7168 0.733984 10.7168C0.328613 10.7168 0 11.0453 0 11.4507V47.9438C9.76563e-05 49.1574 0.987891 50.145 2.20195 50.145H34.5333C35.7474 50.145 36.7352 49.1574 36.7352 47.9435V38.6957C37.0644 38.5209 37.3859 38.3318 37.6987 38.1289L39.4803 39.9102C39.172 40.1793 39.1555 40.6922 39.4519 40.9764L44.0823 45.6063C45.374 46.9524 47.6986 46.9523 48.9902 45.6063C50.3367 44.3146 50.3366 41.9903 48.9903 40.6988ZM28.3743 9.23867C27.9696 9.23867 27.6403 8.90947 27.6403 8.50478V2.65059L34.2293 9.23867H28.3743ZM38.896 37.2503C39.2123 36.9891 39.516 36.7132 39.8063 36.4233C40.0962 36.1332 40.3721 35.8295 40.6332 35.5132L42.2555 37.1352L40.5182 38.8722L38.896 37.2503ZM47.9523 44.5684C47.207 45.3452 45.8657 45.345 45.1203 44.5684L41.0088 40.4574L43.8409 37.6257L47.9524 41.7366C48.7292 42.482 48.7293 43.823 47.9523 44.5684Z" fill="#204285"/>
<path d="M6.66123 20.1453H9.87217C10.7774 20.1453 11.514 19.409 11.514 18.5039V15.2934C11.514 14.3882 10.7775 13.6519 9.87217 13.6519H6.66123C5.75605 13.6519 5.01953 14.3882 5.01953 15.2934V18.5039C5.01953 19.409 5.75605 20.1453 6.66123 20.1453ZM6.4875 15.2934C6.4875 15.1976 6.56553 15.1196 6.66123 15.1196H9.87217C9.96807 15.1196 10.046 15.1976 10.046 15.2934V18.5039C10.046 18.5997 9.96797 18.6776 9.87217 18.6776H6.66123C6.61516 18.6776 6.57099 18.6593 6.53841 18.6267C6.50584 18.5941 6.48753 18.55 6.4875 18.5039V15.2934ZM5.01953 28.7937C5.01953 29.6987 5.75596 30.4351 6.66123 30.4351H9.87217C10.7774 30.4351 11.514 29.6987 11.514 28.7937V25.5831C11.514 24.678 10.7775 23.9417 9.87217 23.9417H6.66123C5.75605 23.9417 5.01953 24.678 5.01953 25.5831V28.7937ZM6.4875 25.5831C6.4875 25.4873 6.56553 25.4094 6.66123 25.4094H9.87217C9.96807 25.4094 10.046 25.4873 10.046 25.5831V28.7937C10.046 28.8895 9.96797 28.9674 9.87217 28.9674H6.66123C6.61516 28.9674 6.57099 28.949 6.53841 28.9165C6.50584 28.8839 6.48753 28.8397 6.4875 28.7937V25.5831ZM5.01953 39.2925C5.01953 40.1976 5.75596 40.9339 6.66123 40.9339H9.87217C10.7774 40.9339 11.514 40.1976 11.514 39.2925V36.0819C11.514 35.1768 10.7775 34.4404 9.87217 34.4404H6.66123C5.75605 34.4404 5.01953 35.1768 5.01953 36.0819V39.2925ZM6.4875 36.0819C6.4875 35.9861 6.56553 35.9082 6.66123 35.9082H9.87217C9.96807 35.9082 10.046 35.9861 10.046 36.0819V39.2925C10.046 39.3883 9.96797 39.4662 9.87217 39.4662H6.66123C6.61516 39.4662 6.57099 39.4479 6.53841 39.4153C6.50584 39.3827 6.48753 39.3385 6.4875 39.2925V36.0819Z" fill="#204285"/>
</svg>
