<svg width="180" height="180" viewBox="0 0 180 180" fill="none" xmlns="http://www.w3.org/2000/svg">
<g clip-path="url(#clip0_446_4707)">
<path d="M137.812 0H42.1875C18.888 0 0 18.888 0 42.1875V137.812C0 161.112 18.888 180 42.1875 180H137.812C161.112 180 180 161.112 180 137.812V42.1875C180 18.888 161.112 0 137.812 0Z" fill="#007ACC"/>
<path d="M39.805 90.5978L39.748 97.9693H63.1762V164.54H79.7481V97.9693H103.176V90.7405C103.176 86.7404 103.091 83.3978 102.977 83.312C102.891 83.1981 88.6335 83.1404 71.3479 83.1692L39.8908 83.255L39.805 90.5978ZM145.243 83.0455C149.814 84.1888 153.3 86.2173 156.5 89.5311C158.157 91.303 160.614 94.5317 160.814 95.3031C160.871 95.5316 153.043 100.789 148.3 103.731C148.128 103.846 147.442 103.103 146.671 101.96C144.357 98.5888 141.928 97.1312 138.214 96.8746C132.757 96.5026 129.243 99.3601 129.271 104.132C129.271 105.531 129.471 106.36 130.043 107.503C131.242 109.989 133.471 111.474 140.471 114.503C153.357 120.046 158.871 123.703 162.3 128.903C166.128 134.703 166.986 143.96 164.385 150.846C161.529 158.331 154.442 163.417 144.471 165.103C141.385 165.646 134.071 165.56 130.757 164.96C123.528 163.674 116.671 160.103 112.443 155.417C110.785 153.589 107.557 148.817 107.757 148.474C107.842 148.36 108.585 147.903 109.414 147.417C110.214 146.96 113.243 145.217 116.1 143.56L121.271 140.56L122.357 142.16C123.871 144.474 127.185 147.646 129.186 148.703C134.928 151.732 142.814 151.303 146.7 147.817C148.357 146.303 149.042 144.731 149.042 142.417C149.042 140.331 148.785 139.417 147.7 137.846C146.3 135.846 143.443 134.16 135.328 130.646C126.043 126.646 122.042 124.16 118.386 120.217C116.271 117.932 114.271 114.274 113.443 111.217C112.757 108.674 112.585 102.303 113.128 99.7313C115.042 90.7602 121.814 84.5031 131.585 82.6454C134.757 82.0456 142.128 82.2742 145.243 83.0455Z" fill="white"/>
</g>
<defs>
<clipPath id="clip0_446_4707">
<rect width="180" height="180" fill="white"/>
</clipPath>
</defs>
</svg>
