<svg width="40" height="40" viewBox="0 0 40 40" fill="none" xmlns="http://www.w3.org/2000/svg">
<path d="M15.18 19.5966L18.9867 15.78L15.565 12.3466L14.2233 13.6866C14.0678 13.8422 13.8789 13.9272 13.6567 13.9416C13.4344 13.9561 13.2306 13.8711 13.045 13.6866C12.8606 13.5022 12.7683 13.3039 12.7683 13.0916C12.7683 12.8794 12.8606 12.6811 13.045 12.4966L14.375 11.1666L11.1217 7.91331L7.305 11.73L15.18 19.5966ZM28.2367 32.6633L32.0533 28.8466L28.8017 25.5933L27.4617 26.9233C27.2994 27.0855 27.1083 27.1722 26.8883 27.1833C26.6683 27.1944 26.4661 27.1077 26.2817 26.9233C26.0972 26.7389 26.0056 26.5422 26.0067 26.3333C26.0078 26.1244 26.0994 25.9277 26.2817 25.7433L27.6117 24.4033L24.2117 21.0133L20.4033 24.82L28.2367 32.6633ZM25.8867 11.2533L28.7667 14.1316L31.6767 11.2216L28.7883 8.33331L25.8867 11.2533ZM8.015 33.3333C7.62833 33.3333 7.30722 33.2055 7.05167 32.95C6.79611 32.6944 6.66778 32.3733 6.66667 31.9866V28.625C6.66667 28.4461 6.69778 28.2789 6.76 28.1233C6.82222 27.9678 6.92556 27.8177 7.07 27.6733L13.99 20.7533L6.07667 12.8083C5.77556 12.5072 5.625 12.1483 5.625 11.7316C5.625 11.315 5.77556 10.9555 6.07667 10.6533L10.045 6.68664C10.3461 6.38553 10.705 6.23608 11.1217 6.23831C11.5383 6.24053 11.8972 6.39275 12.1983 6.69497L20.1867 14.64L27.6317 7.18497C27.815 7.00164 28.0083 6.86942 28.2117 6.78831C28.415 6.70719 28.6317 6.66664 28.8617 6.66664C29.0917 6.66664 29.3083 6.70719 29.5117 6.78831C29.715 6.86942 29.9089 7.00164 30.0933 7.18497L32.8133 10.0133C32.9978 10.1966 33.1256 10.39 33.1967 10.5933C33.2678 10.7966 33.3028 11.0133 33.3017 11.2433C33.3006 11.4733 33.265 11.6833 33.195 11.8733C33.125 12.0633 32.9983 12.25 32.815 12.4333L25.4317 19.8566L33.315 27.8016C33.615 28.1027 33.765 28.4616 33.765 28.8783C33.765 29.295 33.615 29.6539 33.315 29.955L29.3467 33.9216C29.0456 34.2239 28.6867 34.375 28.27 34.375C27.8533 34.375 27.4944 34.2244 27.1933 33.9233L19.2467 26.01L12.3267 32.93C12.1822 33.0744 12.0322 33.1778 11.8767 33.24C11.7211 33.3022 11.5539 33.3333 11.375 33.3333H8.015Z" fill="#71717A"/>
</svg>
