<svg width="32" height="32" viewBox="0 0 32 32" fill="none" xmlns="http://www.w3.org/2000/svg">
<g clip-path="url(#clip0_446_5361)">
<path d="M30.3 0.910034H1.695C1.24546 0.910034 0.814328 1.08861 0.496454 1.40649C0.17858 1.72436 0 2.15549 0 2.60503L0 22.955C0 23.4046 0.17858 23.8357 0.496454 24.1536C0.814328 24.4715 1.24546 24.65 1.695 24.65H11.5V28.19L9.66 29.06C9.59328 29.0912 9.53674 29.1406 9.49693 29.2025C9.45711 29.2645 9.43564 29.3364 9.435 29.41V30.7C9.435 30.8035 9.47609 30.9027 9.54923 30.9758C9.62237 31.0489 9.72157 31.09 9.825 31.09H22.165C22.2684 31.09 22.3676 31.0489 22.4408 30.9758C22.5139 30.9027 22.555 30.8035 22.555 30.7V29.41C22.5562 29.336 22.5355 29.2633 22.4955 29.201C22.4555 29.1387 22.3979 29.0896 22.33 29.06L20.5 28.19V24.65H30.3C30.75 24.65 31.1816 24.4716 31.5003 24.1539C31.819 23.8362 31.9987 23.405 32 22.955V2.60503C31.9987 2.15503 31.819 1.72391 31.5003 1.40618C31.1816 1.08845 30.75 0.910032 30.3 0.910034ZM19.71 28.195H12.285V24.65H19.71V28.195ZM15.025 22.225C15.024 21.9715 15.0984 21.7233 15.2386 21.512C15.3789 21.3008 15.5788 21.1359 15.8129 21.0384C16.0469 20.9409 16.3047 20.9152 16.5535 20.9644C16.8022 21.0136 17.0308 21.1356 17.2101 21.3149C17.3894 21.4943 17.5114 21.7228 17.5606 21.9716C17.6099 22.2203 17.5841 22.4781 17.4866 22.7122C17.3891 22.9463 17.2243 23.1461 17.013 23.2864C16.8017 23.4267 16.5536 23.501 16.3 23.5C15.9623 23.4987 15.6387 23.364 15.3999 23.1251C15.1611 22.8863 15.0263 22.5628 15.025 22.225ZM31.22 19.945H0.78V2.60503C0.78 2.36236 0.876401 2.12963 1.048 1.95803C1.21959 1.78644 1.45233 1.69003 1.695 1.69003H30.3C30.4206 1.68938 30.5401 1.71256 30.6517 1.75824C30.7633 1.80393 30.8647 1.87123 30.9502 1.95626C31.0357 2.04129 31.1036 2.14238 31.1499 2.25372C31.1962 2.36506 31.22 2.48445 31.22 2.60503V19.945Z" fill="white"/>
<path d="M17.0952 22.225C17.0991 22.067 17.0559 21.9114 16.971 21.778C16.8861 21.6447 16.7634 21.5397 16.6185 21.4764C16.4736 21.4132 16.3132 21.3945 16.1577 21.4229C16.0022 21.4513 15.8587 21.5254 15.7455 21.6357C15.6323 21.7461 15.5545 21.8877 15.5222 22.0424C15.4899 22.1971 15.5044 22.358 15.564 22.5044C15.6235 22.6509 15.7253 22.7762 15.8565 22.8645C15.9876 22.9528 16.1421 23 16.3002 23C16.5076 23.0001 16.7068 22.9191 16.8554 22.7743C17.0039 22.6295 17.0899 22.4324 17.0952 22.225ZM27.5702 3.255H4.42516C4.32172 3.255 4.22252 3.29609 4.14938 3.36923C4.07625 3.44237 4.03516 3.54157 4.03516 3.645C4.03516 3.74844 4.07625 3.84764 4.14938 3.92078C4.22252 3.99392 4.32172 4.035 4.42516 4.035H27.5702C27.6736 4.035 27.7728 3.99392 27.8459 3.92078C27.9191 3.84764 27.9602 3.74844 27.9602 3.645C27.9602 3.54157 27.9191 3.44237 27.8459 3.36923C27.7728 3.29609 27.6736 3.255 27.5702 3.255ZM27.5702 17.715H4.42516C4.32172 17.715 4.22252 17.7561 4.14938 17.8292C4.07625 17.9024 4.03516 18.0016 4.03516 18.105C4.03516 18.2084 4.07625 18.3076 4.14938 18.3808C4.22252 18.4539 4.32172 18.495 4.42516 18.495H27.5702C27.6736 18.495 27.7728 18.4539 27.8459 18.3808C27.9191 18.3076 27.9602 18.2084 27.9602 18.105C27.9602 18.0016 27.9191 17.9024 27.8459 17.8292C27.7728 17.7561 27.6736 17.715 27.5702 17.715ZM4.75016 7.595C4.64672 7.595 4.54752 7.63609 4.47438 7.70923C4.40125 7.78237 4.36016 7.88157 4.36016 7.985V11.865C4.36016 12.4445 4.59036 13.0003 5.00013 13.41C5.4099 13.8198 5.96566 14.05 6.54516 14.05C7.12465 14.05 7.68042 13.8198 8.09019 13.41C8.49995 13.0003 8.73016 12.4445 8.73016 11.865V8C8.71925 7.90354 8.67321 7.81447 8.60081 7.7498C8.52841 7.68512 8.43473 7.64938 8.33766 7.64938C8.24058 7.64938 8.1469 7.68512 8.0745 7.7498C8.00211 7.81447 7.95606 7.90354 7.94516 8V11.88C7.95658 12.0712 7.92878 12.2628 7.86346 12.4428C7.79814 12.6229 7.69669 12.7878 7.56533 12.9272C7.43398 13.0666 7.2755 13.1777 7.09963 13.2537C6.92376 13.3296 6.73422 13.3688 6.54266 13.3688C6.35109 13.3688 6.16155 13.3296 5.98568 13.2537C5.80982 13.1777 5.65134 13.0666 5.51998 12.9272C5.38863 12.7878 5.28717 12.6229 5.22185 12.4428C5.15654 12.2628 5.12873 12.0712 5.14016 11.88V8C5.14218 7.94754 5.13358 7.89521 5.11489 7.84615C5.09619 7.79709 5.06779 7.7523 5.03137 7.71448C4.99495 7.67667 4.95127 7.64659 4.90295 7.62606C4.85463 7.60553 4.80266 7.59497 4.75016 7.595ZM10.2702 13.78C10.2855 13.8295 10.3107 13.8754 10.3442 13.9149C10.3777 13.9544 10.4188 13.9868 10.4652 14.01C10.52 14.0356 10.5796 14.0493 10.6402 14.05C10.7122 14.0507 10.783 14.0315 10.8448 13.9944C10.9066 13.9574 10.9569 13.9039 10.9902 13.84L12.0802 11.695L13.1402 13.855C13.1718 13.9206 13.2216 13.9758 13.2836 14.0139C13.3457 14.052 13.4173 14.0715 13.4902 14.07C13.5509 14.0717 13.6111 14.0579 13.6652 14.03C13.7557 13.9841 13.8254 13.9054 13.8602 13.81C13.8811 13.7628 13.8919 13.7117 13.8919 13.66C13.8919 13.6083 13.8811 13.5572 13.8602 13.51L12.5452 10.825L13.9002 8.16C13.9242 8.11452 13.9388 8.06468 13.9433 8.01343C13.9477 7.96218 13.9418 7.91056 13.926 7.86162C13.9101 7.81268 13.8846 7.76741 13.851 7.72849C13.8174 7.68957 13.7763 7.65778 13.7302 7.635C13.6765 7.60558 13.6163 7.5901 13.5552 7.59C13.4827 7.5903 13.4117 7.61051 13.35 7.64843C13.2883 7.68635 13.2382 7.74052 13.2052 7.805L12.0952 9.95L11.0352 7.79C11.0028 7.72458 10.953 7.6694 10.8912 7.63056C10.8295 7.59173 10.7581 7.57077 10.6852 7.57C10.6246 7.57073 10.565 7.58436 10.5102 7.61C10.4183 7.6567 10.3483 7.73744 10.3152 7.835C10.2942 7.88224 10.2834 7.93334 10.2834 7.985C10.2834 8.03667 10.2942 8.08777 10.3152 8.135L11.6302 10.82L10.2952 13.5C10.2513 13.5867 10.2424 13.6869 10.2702 13.78ZM21.3352 7.595C21.2317 7.595 21.1325 7.63609 21.0594 7.70923C20.9862 7.78237 20.9452 7.88157 20.9452 7.985V11.865C20.9452 12.4445 21.1754 13.0003 21.5851 13.41C21.9949 13.8198 22.5507 14.05 23.1302 14.05C23.7097 14.05 24.2654 13.8198 24.6752 13.41C25.085 13.0003 25.3152 12.4445 25.3152 11.865V8C25.3152 7.89657 25.2741 7.79737 25.2009 7.72423C25.1278 7.65109 25.0286 7.61 24.9252 7.61C24.8217 7.61 24.7225 7.65109 24.6494 7.72423C24.5762 7.79737 24.5352 7.89657 24.5352 8V11.88C24.5352 12.2526 24.3871 12.61 24.1236 12.8735C23.8602 13.137 23.5028 13.285 23.1302 13.285C22.7575 13.285 22.4002 13.137 22.1367 12.8735C21.8732 12.61 21.7252 12.2526 21.7252 11.88V8C21.7272 7.94754 21.7186 7.89521 21.6999 7.84615C21.6812 7.79709 21.6528 7.7523 21.6164 7.71448C21.58 7.67667 21.5363 7.64659 21.488 7.62606C21.4396 7.60553 21.3877 7.59497 21.3352 7.595ZM16.0002 16.085C16.079 16.0845 16.1559 16.0605 16.2209 16.0159C16.286 15.9713 16.3362 15.9083 16.3652 15.835L20.0002 6.14C20.0357 6.04319 20.0315 5.93622 19.9884 5.84251C19.9453 5.74881 19.8668 5.67599 19.7702 5.64C19.7255 5.63245 19.6798 5.63245 19.6352 5.64C19.5556 5.64019 19.4779 5.66472 19.4127 5.7103C19.3474 5.75588 19.2977 5.82033 19.2702 5.895L15.6302 15.56C15.5946 15.6568 15.5988 15.7638 15.6419 15.8575C15.685 15.9512 15.7635 16.024 15.8602 16.06C15.9045 16.0784 15.9522 16.0869 16.0002 16.085ZM27.6902 13.66V8C27.6902 7.89657 27.6491 7.79737 27.5759 7.72423C27.5028 7.65109 27.4036 7.61 27.3002 7.61C27.1967 7.61 27.0975 7.65109 27.0244 7.72423C26.9512 7.79737 26.9102 7.89657 26.9102 8V13.66C26.9102 13.7634 26.9512 13.8626 27.0244 13.9358C27.0975 14.0089 27.1967 14.05 27.3002 14.05C27.4036 14.05 27.5028 14.0089 27.5759 13.9358C27.6491 13.8626 27.6902 13.7634 27.6902 13.66Z" fill="white"/>
</g>
<defs>
<clipPath id="clip0_446_5361">
<rect width="32" height="32" fill="white"/>
</clipPath>
</defs>
</svg>
