<svg width="24" height="16" viewBox="0 0 24 16" fill="none" xmlns="http://www.w3.org/2000/svg">
<path d="M10.5562 10.8535C11.6008 10.2615 12.42 9.34031 12.8861 8.23379C13.3522 7.12726 13.4389 5.89759 13.1328 4.73659C12.8266 3.5756 12.1448 2.54859 11.1937 1.81577C10.2426 1.08295 9.07568 0.685547 7.875 0.685547C6.67432 0.685547 5.5074 1.08295 4.5563 1.81577C3.60519 2.54859 2.92338 3.5756 2.61723 4.73659C2.31108 5.89759 2.39781 7.12726 2.86389 8.23379C3.32997 9.34031 4.14919 10.2615 5.19375 10.8535C3.25779 11.4707 1.5952 12.7391 0.488436 14.4432C0.406882 14.5681 0.378301 14.7204 0.408981 14.8664C0.439661 15.0124 0.527088 15.1402 0.65203 15.2218C0.776972 15.3033 0.929194 15.3319 1.07521 15.3013C1.22122 15.2706 1.34907 15.1831 1.43062 15.0582C2.12869 13.9849 3.08378 13.1029 4.20918 12.4924C5.33458 11.8819 6.59465 11.5621 7.875 11.5621C9.15534 11.5621 10.4154 11.8819 11.5408 12.4924C12.6662 13.1029 13.6213 13.9849 14.3194 15.0582C14.4062 15.1695 14.5318 15.2441 14.6711 15.2671C14.8104 15.2902 14.9533 15.26 15.0714 15.1825C15.1895 15.105 15.2741 14.986 15.3084 14.8491C15.3428 14.7121 15.3244 14.5672 15.2569 14.4432C14.1513 12.74 12.4905 11.4717 10.5562 10.8535ZM3.5625 6.1257C3.5625 5.27277 3.81542 4.43899 4.28929 3.7298C4.76315 3.02062 5.43667 2.46787 6.22468 2.14147C7.01268 1.81507 7.87978 1.72966 8.71633 1.89606C9.55287 2.06246 10.3213 2.47319 10.9244 3.0763C11.5275 3.67942 11.9382 4.44783 12.1046 5.28437C12.271 6.12092 12.1856 6.98802 11.8592 7.77602C11.5328 8.56403 10.9801 9.23755 10.2709 9.71141C9.56171 10.1853 8.72793 10.4382 7.875 10.4382C6.73171 10.4367 5.63567 9.98188 4.82724 9.17346C4.01882 8.36503 3.56399 7.26899 3.5625 6.1257ZM23.3438 15.2194C23.2189 15.3009 23.0668 15.3295 22.9209 15.2989C22.775 15.2683 22.6472 15.1811 22.5656 15.0563C21.8688 13.9829 20.9144 13.101 19.7895 12.4908C18.6645 11.8807 17.4048 11.5618 16.125 11.5632C15.9758 11.5632 15.8327 11.5039 15.7273 11.3984C15.6218 11.293 15.5625 11.1499 15.5625 11.0007C15.5625 10.8515 15.6218 10.7084 15.7273 10.603C15.8327 10.4975 15.9758 10.4382 16.125 10.4382C16.76 10.4376 17.3871 10.2967 17.9614 10.0256C18.5357 9.75455 19.043 9.35999 19.4472 8.87014C19.8513 8.38028 20.1423 7.80722 20.2993 7.19188C20.4563 6.57655 20.4754 5.93414 20.3554 5.31054C20.2354 4.68694 19.9791 4.09755 19.6049 3.58447C19.2307 3.07139 18.7477 2.64729 18.1906 2.34247C17.6335 2.03765 17.016 1.85963 16.3821 1.82113C15.7482 1.78264 15.1137 1.88461 14.5237 2.11976C14.455 2.14789 14.3815 2.16215 14.3072 2.1617C14.233 2.16125 14.1596 2.14611 14.0912 2.11716C14.0228 2.0882 13.9609 2.046 13.9089 1.99299C13.857 1.93998 13.816 1.8772 13.7884 1.80828C13.7608 1.73936 13.7471 1.66566 13.7482 1.59143C13.7492 1.51719 13.7649 1.4439 13.7944 1.37577C13.8239 1.30764 13.8666 1.24602 13.92 1.19447C13.9734 1.14291 14.0365 1.10244 14.1056 1.07539C15.3851 0.565269 16.8106 0.559775 18.094 1.06001C19.3774 1.56025 20.4231 2.52894 21.0199 3.7704C21.6168 5.01186 21.7201 6.43355 21.3092 7.7483C20.8983 9.06304 20.0038 10.1728 18.8062 10.8535C20.7422 11.4707 22.4048 12.7391 23.5116 14.4432C23.592 14.5685 23.6195 14.7205 23.588 14.866C23.5566 15.0115 23.4687 15.1386 23.3438 15.2194Z" fill="white"/>
</svg>
