<svg width="180" height="180" viewBox="0 0 180 180" fill="none" xmlns="http://www.w3.org/2000/svg">
<g clip-path="url(#clip0_446_4667)">
<path d="M137.812 0H42.1875C18.888 0 0 18.888 0 42.1875V137.812C0 161.112 18.888 180 42.1875 180H137.812C161.112 180 180 161.112 180 137.812V42.1875C180 18.888 161.112 0 137.812 0Z" fill="#242938"/>
<path d="M127.969 35.1562H153.281L90 144.316L26.7188 35.1562H75.1289L90 60.4688L104.555 35.1562H127.969Z" fill="#41B883"/>
<path d="M26.7188 35.1562L90 144.316L153.281 35.1562H127.969L90 100.652L51.7148 35.1562H26.7188Z" fill="#41B883"/>
<path d="M51.7148 35.1562L90 100.969L127.969 35.1562H104.555L90 60.4688L75.1289 35.1562H51.7148Z" fill="white"/>
</g>
<defs>
<clipPath id="clip0_446_4667">
<rect width="180" height="180" fill="white"/>
</clipPath>
</defs>
</svg>
