<svg width="30" height="36" viewBox="0 0 30 36" fill="none" xmlns="http://www.w3.org/2000/svg">
<path d="M28.3333 19.6666C28.3333 27.9999 22.5 32.1666 15.5667 34.5833C15.2036 34.7063 14.8092 34.7004 14.45 34.5666C7.5 32.1666 1.66667 27.9999 1.66667 19.6666V7.99994C1.66667 7.55791 1.84226 7.13399 2.15482 6.82142C2.46738 6.50886 2.89131 6.33327 3.33333 6.33327C6.66667 6.33327 10.8333 4.33327 13.7333 1.79994C14.0864 1.49827 14.5356 1.33252 15 1.33252C15.4644 1.33252 15.9136 1.49827 16.2667 1.79994C19.1833 4.34994 23.3333 6.33327 26.6667 6.33327C27.1087 6.33327 27.5326 6.50886 27.8452 6.82142C28.1577 7.13399 28.3333 7.55791 28.3333 7.99994V19.6666Z" stroke="white" stroke-width="2" stroke-linecap="round" stroke-linejoin="round"/>
</svg>
