<svg width="119" height="119" viewBox="0 0 119 119" fill="none" xmlns="http://www.w3.org/2000/svg">
<path d="M16.6463 108.271C16.4939 108.451 16.3043 108.594 16.0907 108.693C15.8771 108.792 15.6446 108.842 15.4094 108.842C15.0367 108.842 14.6622 108.714 14.3564 108.454C13.5907 107.801 12.8511 107.118 12.1394 106.406C5.07378 99.3408 1.18262 89.9468 1.18262 79.9548C1.18262 69.9628 5.07378 60.5688 12.1391 53.5032C20.3695 45.2729 31.846 41.3935 43.2963 42.8453L42.5937 42.0834C42.3017 41.7666 42.1474 41.3469 42.1649 40.9165C42.1823 40.486 42.37 40.0801 42.6867 39.7881C43.0035 39.4961 43.4232 39.3418 43.8536 39.3593C44.2841 39.3767 44.69 39.5644 44.982 39.8811L49.0463 44.289C49.2213 44.4789 49.3486 44.7078 49.4176 44.9567C49.4865 45.2056 49.495 45.4674 49.4425 45.7203C49.3901 45.9732 49.278 46.2099 49.1157 46.4108C48.9534 46.6117 48.7455 46.771 48.5093 46.8755L43.0162 49.3051C42.8096 49.3968 42.5861 49.4443 42.36 49.4445C41.9874 49.4449 41.6259 49.3172 41.3363 49.0826C41.0466 48.8481 40.8465 48.5212 40.7693 48.1566C40.6922 47.792 40.7427 47.4119 40.9126 47.0802C41.0824 46.7485 41.3611 46.4852 41.702 46.3346L42.4313 46.0121C32.127 44.8464 21.8422 48.3944 14.4362 55.8006C1.11742 69.1192 1.11742 90.7907 14.4362 104.109C15.0871 104.76 15.7634 105.385 16.4637 105.982C16.7915 106.261 16.9949 106.659 17.0291 107.089C17.0633 107.518 16.9258 107.944 16.6463 108.271ZM64.9798 52.7176C60.4118 46.7483 56.4671 41.5938 56.4671 33.1274C56.4671 17.1637 69.4546 4.1764 85.4181 4.1764C101.382 4.1764 114.369 17.1639 114.369 33.1274C114.369 48.1122 102.926 60.4739 88.3187 61.9336L88.8192 61.5287C89.1541 61.2578 89.3677 60.8649 89.413 60.4365C89.4582 60.0081 89.3314 59.5793 89.0605 59.2444C88.7896 58.9095 88.3967 58.6959 87.9683 58.6506C87.5399 58.6054 87.1111 58.7322 86.7762 59.0031L82.3427 62.5891C82.142 62.7516 81.9829 62.9596 81.8787 63.1959C81.7744 63.4321 81.7279 63.6898 81.7432 63.9476C81.7584 64.2054 81.8348 64.4559 81.9662 64.6782C82.0975 64.9006 82.28 65.0884 82.4984 65.2262L87.3316 68.2713C87.5903 68.4347 87.89 68.5214 88.196 68.5215C88.5484 68.5219 88.8914 68.4077 89.1732 68.1961C89.455 67.9846 89.6604 67.6871 89.7583 67.3485C89.8562 67.01 89.8414 66.6488 89.716 66.3194C89.5906 65.9901 89.3615 65.7104 89.0633 65.5227L88.5148 65.1772C104.822 63.6135 117.617 49.8374 117.617 33.1272C117.617 15.3721 103.173 0.927734 85.4179 0.927734C67.6631 0.927734 53.2184 15.3724 53.2184 33.1272C53.2184 42.6936 57.6783 48.5215 62.3999 54.6915C65.8799 59.239 69.4785 63.9412 71.4231 70.5016C74.8512 82.4505 71.5259 95.3283 62.7452 104.109C53.0082 113.846 38.6434 116.727 26.0698 111.751L26.8766 111.625C27.0874 111.592 27.2896 111.518 27.4717 111.407C27.6538 111.296 27.8123 111.15 27.9381 110.978C28.0639 110.806 28.1545 110.611 28.2048 110.403C28.2551 110.196 28.2641 109.981 28.2312 109.77C28.0929 108.884 27.262 108.275 26.3761 108.416L20.4486 109.339C20.1935 109.379 19.9516 109.479 19.7429 109.631C19.5342 109.783 19.3647 109.983 19.2486 110.213C19.1324 110.444 19.0729 110.699 19.075 110.957C19.077 111.216 19.1406 111.47 19.2604 111.698L22.0418 117.001C22.1408 117.19 22.276 117.358 22.4398 117.495C22.6037 117.631 22.7928 117.734 22.9965 117.798C23.2001 117.861 23.4143 117.884 23.6268 117.865C23.8392 117.846 24.0458 117.785 24.2347 117.685C24.6161 117.485 24.9024 117.142 25.0307 116.731C25.159 116.32 25.1187 115.874 24.9187 115.493L24.45 114.599C28.9173 116.43 33.6993 117.371 38.5274 117.369C40.3746 117.369 42.2331 117.232 44.091 116.958C52.0745 115.777 59.3194 112.129 65.0423 106.406C74.6576 96.7905 78.2994 82.6893 74.5416 69.5918C72.4227 62.4429 68.639 57.4988 64.9798 52.7171V52.7176ZM100.316 54.8692H70.5205C70.0897 54.8692 69.6766 54.6981 69.372 54.3935C69.0674 54.0889 68.8963 53.6758 68.8963 53.245V14.4419C68.8963 14.0112 69.0674 13.598 69.372 13.2934C69.6766 12.9888 70.0897 12.8177 70.5205 12.8177H92.8883C93.319 12.8177 93.7322 12.989 94.0369 13.2936L101.464 20.7207C101.615 20.8715 101.735 21.0506 101.816 21.2477C101.898 21.4447 101.94 21.656 101.94 21.8693V53.245C101.94 53.6758 101.769 54.0889 101.464 54.3935C101.16 54.6981 100.746 54.8692 100.316 54.8692ZM94.5126 20.2448H96.3943L94.5126 18.363V20.2448ZM98.6914 51.6208V23.4932H92.8883C92.4576 23.4932 92.0444 23.3221 91.7398 23.0175C91.4352 22.7129 91.2641 22.2998 91.2641 21.869V16.0661H72.1447V51.6208H98.6914ZM93.6471 32.1763H77.1889C76.7581 32.1763 76.345 32.3474 76.0404 32.652C75.7358 32.9566 75.5646 33.3698 75.5646 33.8005C75.5646 34.2313 75.7358 34.6444 76.0404 34.949C76.345 35.2536 76.7581 35.4248 77.1889 35.4248H93.6471C94.0778 35.4248 94.491 35.2536 94.7956 34.949C95.1002 34.6444 95.2713 34.2313 95.2713 33.8005C95.2713 33.3698 95.1002 32.9566 94.7956 32.652C94.491 32.3474 94.0778 32.1763 93.6471 32.1763ZM93.6471 25.5934H77.1889C76.7581 25.5934 76.345 25.7645 76.0404 26.0691C75.7358 26.3737 75.5646 26.7868 75.5646 27.2176C75.5646 27.6483 75.7358 28.0615 76.0404 28.3661C76.345 28.6707 76.7581 28.8418 77.1889 28.8418H93.6471C94.0778 28.8418 94.491 28.6707 94.7956 28.3661C95.1002 28.0615 95.2713 27.6483 95.2713 27.2176C95.2713 26.7868 95.1002 26.3737 94.7956 26.0691C94.491 25.7645 94.0778 25.5934 93.6471 25.5934ZM93.6471 45.3427H77.1889C76.7581 45.3427 76.345 45.5138 76.0404 45.8184C75.7358 46.123 75.5646 46.5361 75.5646 46.9669C75.5646 47.3977 75.7358 47.8108 76.0404 48.1154C76.345 48.42 76.7581 48.5911 77.1889 48.5911H93.6471C94.0778 48.5911 94.491 48.42 94.7956 48.1154C95.1002 47.8108 95.2713 47.3977 95.2713 46.9669C95.2713 46.5361 95.1002 46.123 94.7956 45.8184C94.491 45.5138 94.0778 45.3427 93.6471 45.3427ZM93.6471 38.7595H77.1889C76.7581 38.7595 76.345 38.9306 76.0404 39.2352C75.7358 39.5398 75.5646 39.953 75.5646 40.3837C75.5646 40.8145 75.7358 41.2276 76.0404 41.5322C76.345 41.8368 76.7581 42.0079 77.1889 42.0079H93.6471C94.0778 42.0079 94.491 41.8368 94.7956 41.5322C95.1002 41.2276 95.2713 40.8145 95.2713 40.3837C95.2713 39.953 95.1002 39.5398 94.7956 39.2352C94.491 38.9306 94.0778 38.7595 93.6471 38.7595ZM38.5909 54.3177C52.7272 54.3177 64.2278 65.8181 64.2278 79.9543C64.2278 94.0906 52.7272 105.591 38.5909 105.591C24.4547 105.591 12.954 94.0906 12.954 79.9543C12.954 65.8181 24.4547 54.3177 38.5909 54.3177ZM38.5909 57.5661C26.2459 57.5661 16.2025 67.6093 16.2025 79.9543C16.2025 92.2993 26.2459 102.343 38.5909 102.343C50.9359 102.343 60.9794 92.2993 60.9794 79.9543C60.9794 67.6093 50.9359 57.5661 38.5909 57.5661ZM38.5909 59.9634C49.6138 59.9634 58.5818 68.9312 58.5818 79.9543C58.5818 90.9774 49.614 99.945 38.5909 99.945C27.5678 99.945 18.6 90.9772 18.6 79.9543C18.6 68.9315 27.5678 59.9634 38.5909 59.9634ZM50.8473 68.5651C50.9726 68.8625 51.0064 69.1906 50.9443 69.5073C50.8823 69.8241 50.7272 70.1152 50.499 70.3434L49.8837 70.9587C49.5665 71.2757 49.1509 71.4344 48.7351 71.4344C48.3193 71.4344 47.9037 71.2757 47.5865 70.9587C47.4357 70.8079 47.3161 70.6288 47.2344 70.4318C47.1528 70.2347 47.1108 70.0235 47.1108 69.8102C47.1108 69.5969 47.1528 69.3856 47.2344 69.1886C47.3161 68.9915 47.4357 68.8124 47.5865 68.6616L48.2019 68.0463C48.4302 67.8181 48.7214 67.6632 49.0381 67.6012C49.3549 67.5392 49.6829 67.573 49.9804 67.6982C47.1253 65.0431 43.3459 63.3727 39.1835 63.2267C39.4874 63.3457 39.7484 63.5536 39.9324 63.8231C40.1165 64.0926 40.215 64.4114 40.2151 64.7377V65.6081C40.2151 66.0388 40.044 66.452 39.7394 66.7566C39.4348 67.0612 39.0217 67.2323 38.5909 67.2323C38.1602 67.2323 37.747 67.0612 37.4424 66.7566C37.1378 66.452 36.9667 66.0388 36.9667 65.6081V64.7377C36.9668 64.4113 37.0653 64.0926 37.2493 63.823C37.4334 63.5535 37.6944 63.3457 37.9983 63.2267C33.8359 63.3725 30.0564 65.0431 27.2012 67.6982C27.4987 67.5729 27.8268 67.5391 28.1436 67.601C28.4604 67.663 28.7516 67.8179 28.98 68.046L29.5953 68.6614C29.7461 68.8122 29.8658 68.9913 29.9474 69.1883C30.029 69.3854 30.0711 69.5966 30.0711 69.8099C30.0711 70.0232 30.029 70.2345 29.9474 70.4315C29.8658 70.6286 29.7461 70.8077 29.5953 70.9585C29.4445 71.1093 29.2654 71.229 29.0683 71.3106C28.8713 71.3922 28.6601 71.4342 28.4468 71.4342C28.2334 71.4342 28.0222 71.3922 27.8252 71.3106C27.6281 71.229 27.449 71.1093 27.2982 70.9585L26.6829 70.3431C26.4547 70.1148 26.2997 69.8237 26.2377 69.5069C26.1757 69.1902 26.2095 68.8621 26.3348 68.5646C23.6797 71.4198 22.0093 75.1993 21.8636 79.3615C21.9825 79.0576 22.1903 78.7966 22.4599 78.6125C22.7294 78.4285 23.0482 78.33 23.3745 78.3299H24.2447C24.6754 78.3299 25.0886 78.501 25.3932 78.8056C25.6978 79.1102 25.8689 79.5233 25.8689 79.9541C25.8689 80.3849 25.6978 80.798 25.3932 81.1026C25.0886 81.4072 24.6754 81.5783 24.2447 81.5783H23.3745C23.0482 81.5782 22.7294 81.4797 22.4599 81.2957C22.1903 81.1117 21.9825 80.8507 21.8636 80.5467C22.0093 84.7089 23.6797 88.4882 26.3346 91.3434C26.2094 91.0459 26.1757 90.7178 26.2378 90.4011C26.2999 90.0844 26.4549 89.7933 26.6831 89.5651L27.2984 88.95C27.4483 88.7948 27.6275 88.6711 27.8257 88.586C28.0239 88.5009 28.237 88.4561 28.4526 88.4543C28.6683 88.4524 28.8822 88.4935 29.0818 88.5752C29.2814 88.6569 29.4627 88.7775 29.6152 88.9301C29.7677 89.0826 29.8883 89.2639 29.9699 89.4636C30.0516 89.6632 30.0926 89.8771 30.0908 90.0927C30.0889 90.3084 30.044 90.5215 29.9589 90.7197C29.8737 90.9178 29.75 91.097 29.5948 91.2468L28.9795 91.8622C28.8288 92.0131 28.6498 92.1329 28.4528 92.2144C28.2557 92.296 28.0445 92.3379 27.8312 92.3376C27.615 92.3375 27.4009 92.2941 27.2017 92.2102C30.0566 94.8651 33.8357 96.5353 37.9976 96.6812C37.6939 96.5622 37.4331 96.3543 37.2492 96.0848C37.0653 95.8154 36.9669 95.4967 36.9667 95.1705V94.3001C36.9667 93.8694 37.1378 93.4562 37.4424 93.1516C37.747 92.847 38.1602 92.6759 38.5909 92.6759C39.0217 92.6759 39.4348 92.847 39.7394 93.1516C40.044 93.4562 40.2151 93.8694 40.2151 94.3001V95.1705C40.215 95.4967 40.1166 95.8154 39.9327 96.0849C39.7488 96.3544 39.488 96.5622 39.1842 96.6812C43.3459 96.5353 47.125 94.8651 49.9797 92.2105C49.7805 92.2944 49.5666 92.3377 49.3504 92.3378C49.1372 92.3381 48.9259 92.2963 48.7289 92.2147C48.5318 92.1331 48.3528 92.0134 48.2021 91.8624L47.5868 91.2471C47.4316 91.0973 47.3079 90.918 47.2227 90.7199C47.1376 90.5217 47.0928 90.3086 47.0909 90.0929C47.089 89.8773 47.13 89.6634 47.2117 89.4638C47.2933 89.2642 47.4139 89.0828 47.5664 88.9303C47.7189 88.7778 47.9002 88.6572 48.0998 88.5755C48.2994 88.4938 48.5133 88.4527 48.729 88.4545C48.9446 88.4564 49.1578 88.5012 49.3559 88.5863C49.5541 88.6714 49.7333 88.7951 49.8832 88.9502L50.4985 89.5653C50.7268 89.7935 50.8818 90.0845 50.9439 90.4012C51.006 90.7179 50.9723 91.0459 50.847 91.3434C53.5017 88.4884 55.1719 84.7094 55.3178 80.5479C55.1987 80.8516 54.9909 81.1124 54.7214 81.2963C54.452 81.4802 54.1333 81.5786 53.8071 81.5788H52.9367C52.506 81.5788 52.0928 81.4077 51.7882 81.1031C51.4836 80.7985 51.3125 80.3853 51.3125 79.9546C51.3125 79.5238 51.4836 79.1107 51.7882 78.8061C52.0928 78.5015 52.506 78.3304 52.9367 78.3304H53.8071C54.1333 78.3305 54.452 78.4289 54.7215 78.6128C54.9909 78.7967 55.1988 79.0575 55.3178 79.3613C55.1719 75.1993 53.5017 71.4202 50.8468 68.5653L50.8473 68.5651ZM38.5909 69.3122C38.1602 69.3122 37.747 69.4834 37.4424 69.7879C37.1378 70.0926 36.9667 70.5057 36.9667 70.9364V79.2817L31.907 84.3414C31.7562 84.4922 31.6366 84.6712 31.5549 84.8682C31.4733 85.0653 31.4313 85.2765 31.4313 85.4898C31.4313 85.7031 31.4733 85.9143 31.5549 86.1113C31.6366 86.3084 31.7562 86.4874 31.907 86.6382C32.2242 86.9554 32.6398 87.1141 33.0556 87.1141C33.4714 87.1141 33.887 86.9554 34.2041 86.6385L39.7397 81.1031C39.8905 80.9523 40.0102 80.7732 40.0918 80.5762C40.1734 80.3791 40.2154 80.1679 40.2154 79.9546V70.9367C40.2154 70.5059 40.0443 70.0928 39.7397 69.7882C39.4351 69.4836 39.0219 69.3125 38.5912 69.3125L38.5909 69.3122ZM1.18308 23.173V17.2864C1.18307 16.9102 1.31369 16.5456 1.55262 16.2549C1.79155 15.9643 2.12398 15.7656 2.49313 15.6928L5.1949 15.1603L6.08915 13.004L4.55473 10.7157C4.34521 10.4033 4.25065 10.0278 4.28722 9.65333C4.32378 9.27889 4.48919 8.92876 4.7552 8.66273L8.91761 4.50032C9.18361 4.23417 9.5338 4.06867 9.90831 4.0321C10.2828 3.99554 10.6584 4.09018 10.9709 4.29984L13.2591 5.83427L15.4152 4.94002L15.9479 2.23801C16.0207 1.86889 16.2194 1.53648 16.5101 1.29756C16.8007 1.05863 17.1653 0.928 17.5415 0.927966H23.4282C23.8044 0.927956 24.169 1.05857 24.4596 1.29751C24.7503 1.53644 24.949 1.86887 25.0217 2.23801L25.5545 4.94002L27.7108 5.83427L29.999 4.29984C30.3115 4.09013 30.6871 3.99547 31.0616 4.03203C31.4361 4.0686 31.7863 4.23413 32.0523 4.50032L36.2147 8.66273C36.4808 8.92872 36.6463 9.27885 36.6828 9.65331C36.7194 10.0278 36.6248 10.4033 36.4152 10.7157L34.8807 13.004L35.7752 15.1603L38.477 15.6928C38.8461 15.7656 39.1786 15.9643 39.4175 16.2549C39.6564 16.5456 39.7871 16.9102 39.787 17.2864V23.173C39.7871 23.5493 39.6564 23.9139 39.4175 24.2045C39.1786 24.4952 38.8461 24.6938 38.477 24.7666L35.7752 25.2991L34.8807 27.4554L36.4152 29.7437C36.6248 30.0561 36.7194 30.4317 36.6828 30.8061C36.6463 31.1806 36.4808 31.5307 36.2147 31.7967L32.0523 35.9594C31.7862 36.2254 31.436 36.3908 31.0615 36.4273C30.6871 36.4638 30.3115 36.3692 29.999 36.1596L27.7108 34.6252L25.5545 35.5194L25.0217 38.2214C24.9489 38.5906 24.7502 38.923 24.4596 39.1619C24.169 39.4008 23.8044 39.5314 23.4282 39.5315H17.5415C17.1653 39.5315 16.8007 39.4009 16.51 39.1619C16.2194 38.923 16.0207 38.5906 15.9479 38.2214L15.4152 35.5194L13.2591 34.6252L10.9709 36.1596C10.6583 36.3691 10.2828 36.4636 9.90838 36.4271C9.53393 36.3906 9.18376 36.2253 8.91761 35.9594L4.7552 31.7967C4.48911 31.5307 4.32365 31.1806 4.28708 30.8061C4.25051 30.4317 4.34512 30.0561 4.55473 29.7437L6.08915 27.4554L5.1949 25.2991L2.49313 24.7666C2.12398 24.6938 1.79155 24.4952 1.55262 24.2045C1.31369 23.9139 1.18307 23.5493 1.18308 23.173ZM4.43152 21.8377L6.67619 22.2802C6.93861 22.3319 7.18419 22.4477 7.39111 22.6172C7.59803 22.7867 7.7599 23.0046 7.86233 23.2517L9.42344 27.015C9.52602 27.2623 9.56589 27.531 9.53949 27.7974C9.5131 28.0638 9.42126 28.3195 9.27215 28.5418L7.99645 30.444L10.2706 32.7183L12.1728 31.4426C12.3951 31.2936 12.6509 31.2018 12.9173 31.1754C13.1837 31.149 13.4525 31.1888 13.6998 31.2913L17.4631 32.8525C17.7101 32.9549 17.928 33.1167 18.0974 33.3236C18.2669 33.5305 18.3826 33.776 18.4344 34.0384L18.8771 36.2833H22.0933L22.5358 34.0384C22.5875 33.776 22.7032 33.5304 22.8726 33.3236C23.0421 33.1167 23.26 32.9548 23.507 32.8525L27.2704 31.2913C27.5176 31.1888 27.7864 31.149 28.0528 31.1754C28.3192 31.2018 28.575 31.2936 28.7974 31.4426L30.6995 32.7183L32.9737 30.444L31.698 28.5418C31.5489 28.3194 31.457 28.0637 31.4306 27.7973C31.4042 27.5309 31.4441 27.2621 31.5467 27.0148L33.1078 23.2515C33.2103 23.0045 33.3722 22.7866 33.5791 22.6171C33.786 22.4477 34.0316 22.332 34.2939 22.2802L36.5386 21.8377V18.6217L34.2939 18.1793C34.0315 18.1275 33.786 18.0118 33.5791 17.8424C33.3721 17.6729 33.2103 17.455 33.1078 17.208L31.5467 13.4447C31.4441 13.1974 31.4042 12.9286 31.4306 12.6622C31.457 12.3958 31.5489 12.14 31.698 11.9177L32.9737 10.0155L30.6995 7.7411L28.7974 9.01681C28.5751 9.16611 28.3193 9.25806 28.0529 9.28446C27.7864 9.31085 27.5176 9.27088 27.2704 9.16809L23.507 7.60699C23.26 7.50455 23.0421 7.3427 22.8727 7.13582C22.7033 6.92894 22.5875 6.68343 22.5358 6.42107L22.093 4.17617H18.8771L18.4344 6.42107C18.3827 6.68345 18.267 6.92899 18.0975 7.13588C17.9281 7.34277 17.7101 7.5046 17.4631 7.60699L13.6998 9.16809C13.4525 9.27055 13.1837 9.31035 12.9173 9.28396C12.6509 9.25757 12.3952 9.1658 12.1728 9.01681L10.2706 7.7411L7.99645 10.0155L9.27215 11.9177C9.42126 12.14 9.5131 12.3957 9.53949 12.6621C9.56589 12.9284 9.52602 13.1972 9.42344 13.4444L7.86233 17.2077C7.75983 17.4548 7.59794 17.6727 7.39103 17.8422C7.18412 18.0116 6.93858 18.1274 6.67619 18.1793L4.43152 18.6217V21.8377ZM9.79492 20.2295C9.79492 14.3352 14.5903 9.53981 20.4846 9.53981C26.3789 9.53981 31.1743 14.3352 31.1743 20.2295C31.1743 26.1238 26.3789 30.9192 20.4846 30.9192C14.5903 30.9192 9.79492 26.1238 9.79492 20.2295ZM13.0434 20.2295C13.0434 24.3327 16.3816 27.6707 20.4846 27.6707C24.5876 27.6707 27.9258 24.3325 27.9258 20.2295C27.9258 16.1265 24.5876 12.7882 20.4846 12.7882C16.3816 12.7882 13.0434 16.1265 13.0434 20.2295ZM117.618 95.1176V101.004C117.618 101.38 117.487 101.745 117.248 102.035C117.009 102.326 116.677 102.525 116.308 102.598L113.606 103.13L112.712 105.287L114.246 107.575C114.456 107.887 114.55 108.263 114.514 108.637C114.477 109.012 114.312 109.362 114.046 109.628L109.883 113.79C109.617 114.056 109.267 114.222 108.892 114.258C108.518 114.295 108.142 114.2 107.83 113.991L105.542 112.456L103.386 113.351L102.853 116.053C102.78 116.422 102.581 116.754 102.291 116.993C102 117.232 101.636 117.363 101.259 117.363H95.3727C94.9964 117.363 94.6319 117.232 94.3412 116.993C94.0506 116.754 93.8519 116.422 93.7791 116.053L93.2464 113.351L91.0901 112.456L88.8018 113.991C88.4893 114.2 88.1138 114.295 87.7393 114.258C87.3649 114.222 87.0147 114.056 86.7486 113.79L82.5864 109.628C82.3203 109.362 82.1549 109.012 82.1183 108.637C82.0817 108.263 82.1763 107.887 82.3859 107.575L83.9203 105.287L83.0258 103.13L80.3241 102.598C79.9549 102.525 79.6225 102.326 79.3836 102.035C79.1446 101.745 79.014 101.38 79.014 101.004V95.1176C79.014 94.7413 79.1446 94.3767 79.3836 94.0861C79.6225 93.7954 79.9549 93.5968 80.3241 93.524L83.0258 92.9915L83.9203 90.835L82.3859 88.5467C82.1764 88.2342 82.0819 87.8586 82.1184 87.4842C82.155 87.1097 82.3204 86.7595 82.5864 86.4934L86.7486 82.3313C87.0146 82.0653 87.3647 81.8999 87.7392 81.8633C88.1136 81.8268 88.4891 81.9214 88.8016 82.131L91.0899 83.6652L93.2461 82.771L93.7789 80.0692C93.8517 79.7001 94.0504 79.3677 94.341 79.1287C94.6317 78.8898 94.9962 78.7592 95.3725 78.7591H101.259C101.635 78.7591 102 78.8898 102.291 79.1287C102.581 79.3676 102.78 79.7 102.853 80.0692L103.385 82.771L105.541 83.6652L107.83 82.131C108.142 81.9215 108.518 81.8269 108.892 81.8634C109.267 81.8999 109.617 82.0653 109.883 82.3313L114.045 86.4934C114.311 86.7595 114.477 87.1097 114.513 87.4842C114.55 87.8586 114.455 88.2342 114.246 88.5467L112.711 90.835L113.605 92.9915L116.307 93.524C116.676 93.5968 117.009 93.7954 117.248 94.0861C117.487 94.3767 117.617 94.7413 117.617 95.1176H117.618ZM114.369 96.4529L112.125 96.0104C111.862 95.9587 111.617 95.8429 111.41 95.6734C111.203 95.504 111.041 95.286 110.939 95.0389L109.377 91.2754C109.275 91.0281 109.235 90.7594 109.261 90.493C109.288 90.2266 109.38 89.9709 109.529 89.7486L110.804 87.8464L108.53 85.5723L106.628 86.8478C106.406 86.9971 106.15 87.089 105.884 87.1154C105.617 87.1418 105.348 87.1018 105.101 86.999L101.338 85.4379C101.091 85.3355 100.873 85.1736 100.703 84.9668C100.534 84.7599 100.418 84.5144 100.366 84.252L99.924 82.0074H96.7078L96.2651 84.252C96.2134 84.5144 96.0977 84.7599 95.9282 84.9668C95.7588 85.1737 95.5408 85.3355 95.2938 85.4379L91.5305 86.999C91.2832 87.1014 91.0144 87.1412 90.7481 87.1148C90.4817 87.0885 90.2259 86.9968 90.0035 86.848L88.1011 85.5723L85.8272 87.8464L87.1029 89.7486C87.252 89.9709 87.3438 90.2266 87.3702 90.493C87.3966 90.7594 87.3567 91.0281 87.2542 91.2754L85.693 95.0389C85.5905 95.286 85.4287 95.5039 85.2217 95.6733C85.0148 95.8428 84.7693 95.9586 84.5069 96.0104L82.2622 96.4529V99.6686L84.5069 100.111C84.7693 100.163 85.0149 100.279 85.2218 100.448C85.4287 100.618 85.5906 100.836 85.693 101.083L87.2542 104.846C87.3567 105.093 87.3966 105.362 87.3702 105.629C87.3438 105.895 87.252 106.151 87.1029 106.373L85.8272 108.275L88.1011 110.549L90.0033 109.274C90.2257 109.125 90.4815 109.033 90.7479 109.006C91.0143 108.98 91.2831 109.02 91.5305 109.122L95.2936 110.684C95.5406 110.786 95.7585 110.948 95.9279 111.155C96.0973 111.362 96.2131 111.607 96.2649 111.87L96.7076 114.114H99.9235L100.366 111.87C100.418 111.607 100.534 111.362 100.703 111.155C100.873 110.948 101.091 110.786 101.338 110.684L105.101 109.122C105.348 109.02 105.617 108.98 105.883 109.006C106.15 109.033 106.405 109.125 106.628 109.274L108.53 110.549L110.804 108.275L109.528 106.373C109.379 106.151 109.288 105.895 109.261 105.629C109.235 105.362 109.275 105.093 109.377 104.846L110.938 101.083C111.041 100.836 111.203 100.618 111.41 100.448C111.616 100.279 111.862 100.163 112.124 100.111L114.369 99.6686V96.4529H114.369ZM109.006 98.0609C109.006 103.955 104.21 108.751 98.316 108.751C92.4217 108.751 87.6263 103.955 87.6263 98.0609C87.6263 92.1666 92.4217 87.3712 98.316 87.3712C104.21 87.3712 109.006 92.1666 109.006 98.0609ZM105.757 98.0609C105.757 93.9577 102.419 90.6197 98.316 90.6197C94.213 90.6197 90.8748 93.9579 90.8748 98.0609C90.8748 102.164 94.213 105.502 98.316 105.502C102.419 105.502 105.757 102.164 105.757 98.0609Z" fill="white"/>
</svg>
