<svg width="90" height="90" viewBox="0 0 90 90" fill="none" xmlns="http://www.w3.org/2000/svg">
<path d="M68.9062 0H21.0938C9.44399 0 0 9.44399 0 21.0938V68.9062C0 80.556 9.44399 90 21.0938 90H68.9062C80.556 90 90 80.556 90 68.9062V21.0938C90 9.44399 80.556 0 68.9062 0Z" fill="#231F20"/>
<path d="M29.7932 39.3613C29.7932 40.217 29.8856 40.9106 30.0473 41.4197C30.2526 41.9923 30.5001 42.549 30.7877 43.085C30.9034 43.27 30.9494 43.4549 30.9494 43.617C30.9494 43.8483 30.8106 44.0796 30.51 44.3106L29.0528 45.2823C28.8446 45.4208 28.6365 45.4904 28.4516 45.4904C28.2203 45.4904 27.9889 45.3748 27.7576 45.1666C27.4461 44.8317 27.1673 44.4677 26.9251 44.0796C26.6666 43.6352 26.4273 43.1798 26.2079 42.7148C24.4039 44.843 22.1373 45.9069 19.408 45.9067C17.4653 45.9067 15.9156 45.3516 14.7821 44.2413C13.6491 43.1311 13.0707 41.651 13.0707 39.8007C13.0707 37.8345 13.7647 36.2387 15.1755 35.036C16.5864 33.8333 18.4598 33.2318 20.842 33.2318C21.6285 33.2318 22.4381 33.3014 23.2938 33.4171C24.1495 33.5327 25.0284 33.7177 25.9537 33.9258V32.2372C25.9537 30.4794 25.5836 29.2535 24.8667 28.5367C24.1263 27.8195 22.8776 27.4729 21.0966 27.4729C20.2869 27.4729 19.4544 27.5653 18.5987 27.7734C17.743 27.9816 16.9102 28.2361 16.1005 28.5599C15.8375 28.6774 15.5672 28.7778 15.2912 28.8605C15.1295 28.9069 15.0135 28.9301 14.921 28.9301C14.5976 28.9301 14.4352 28.6987 14.4352 28.2129V27.0795C14.4352 26.7096 14.4816 26.4319 14.5972 26.2702C14.7129 26.1084 14.921 25.9464 15.2448 25.7843C16.0543 25.368 17.0258 25.0212 18.1593 24.7437C19.2923 24.4427 20.495 24.3042 21.7673 24.3042C24.5197 24.3042 26.5317 24.9286 27.8272 26.1773C29.0992 27.4264 29.7468 29.3231 29.7468 31.8674V39.3613H29.7932ZM20.4029 42.8769C21.1658 42.8769 21.9523 42.738 22.7851 42.4603C23.6176 42.1829 24.3577 41.6739 24.9824 40.9802C25.3522 40.5408 25.63 40.0549 25.7685 39.4998C25.907 38.9447 25.9998 38.2739 25.9998 37.4878V36.5161C25.2985 36.3455 24.5881 36.2142 23.8721 36.123C23.1509 36.0318 22.4247 35.9855 21.6977 35.9842C20.148 35.9842 19.015 36.2851 18.2517 36.9095C17.4885 37.5339 17.1183 38.4128 17.1183 39.5694C17.1183 40.6564 17.396 41.4657 17.974 42.0209C18.5295 42.5992 19.3391 42.8769 20.4029 42.8769ZM38.9749 45.3748C38.5587 45.3748 38.2809 45.3052 38.096 45.1434C37.9111 45.0046 37.749 44.6808 37.6105 44.2413L32.1754 26.3626C32.0361 25.9 31.9669 25.5994 31.9669 25.4373C31.9669 25.0675 32.1518 24.859 32.522 24.859H34.7885C35.228 24.859 35.5289 24.9286 35.6906 25.0903C35.8755 25.2292 36.0144 25.553 36.1533 25.9924L40.0387 41.304L43.6472 25.9924C43.7628 25.5298 43.9014 25.2295 44.0866 25.0903C44.2716 24.9518 44.5954 24.8593 45.0116 24.8593H46.8619C47.3013 24.8593 47.6023 24.9286 47.7872 25.0903C47.9721 25.2292 48.1342 25.553 48.2266 25.9924L51.8811 41.4889L55.8823 25.9924C56.0211 25.5298 56.1832 25.2295 56.3449 25.0903C56.5298 24.9518 56.8308 24.8593 57.247 24.8593H59.3979C59.7681 24.8593 59.9762 25.0443 59.9762 25.4373C59.9762 25.5533 59.953 25.6686 59.9298 25.8075C59.9069 25.9464 59.8605 26.1309 59.7681 26.3858L54.1941 44.2645C54.0551 44.7272 53.8931 45.0279 53.7082 45.1666C53.5233 45.3052 53.2223 45.398 52.8293 45.398H50.8402C50.4007 45.398 50.1001 45.3284 49.9152 45.1666C49.7299 45.0046 49.5682 44.704 49.4757 44.2413L45.8905 29.3231L42.3288 44.2181C42.2132 44.6808 42.0743 44.9814 41.8894 45.1434C41.7041 45.3052 41.3803 45.3748 40.9641 45.3748H38.9749ZM68.696 45.9991C67.4933 45.9991 66.2906 45.8603 65.134 45.5829C63.9777 45.3052 63.0756 45.0046 62.4741 44.6576C62.1042 44.4495 61.8497 44.2181 61.7572 44.01C61.6672 43.8059 61.62 43.5855 61.6184 43.3624V42.1829C61.6184 41.6971 61.8033 41.4657 62.1503 41.4657C62.2893 41.4657 62.428 41.4889 62.5665 41.5353C62.7054 41.5814 62.9135 41.6739 63.1448 41.7667C63.9618 42.1259 64.8147 42.3972 65.6891 42.576C66.595 42.7599 67.5171 42.853 68.4415 42.8537C69.8987 42.8537 71.0318 42.5992 71.8182 42.0905C72.6047 41.5814 73.0209 40.8414 73.0209 39.8932C73.0209 39.2456 72.8128 38.7134 72.3966 38.2739C71.9803 37.8345 71.1939 37.4414 70.0604 37.0712L66.7069 36.0306C65.0183 35.4987 63.7692 34.7122 63.006 33.6716C62.2427 32.6538 61.8497 31.52 61.8497 30.3177C61.8497 29.3464 62.0578 28.4906 62.4741 27.7502C62.8903 27.0102 63.4454 26.3626 64.1394 25.8539C64.8334 25.3216 65.6198 24.9286 66.5448 24.6509C67.4701 24.3731 68.4415 24.2578 69.4593 24.2578C69.968 24.2578 70.4999 24.281 71.0089 24.3503C71.5409 24.4195 72.0264 24.512 72.5122 24.6048C72.9749 24.7205 73.4143 24.8361 73.8306 24.975C74.2468 25.1135 74.5706 25.2523 74.802 25.3912C75.1257 25.5762 75.3571 25.7611 75.4959 25.9692C75.6347 26.1544 75.7041 26.4089 75.7041 26.7328V27.8198C75.7041 28.3054 75.5191 28.5599 75.1721 28.5599C74.9869 28.5599 74.6863 28.4674 74.2932 28.2821C72.9749 27.681 71.4946 27.3804 69.8523 27.3804C68.5339 27.3804 67.4933 27.5885 66.7761 28.028C66.0589 28.4674 65.6891 29.1382 65.6891 30.0864C65.6891 30.7339 65.9204 31.2891 66.3831 31.7285C66.8457 32.168 67.7014 32.6074 68.9273 33.0005L72.2116 34.0411C73.8766 34.5734 75.0797 35.3134 75.7965 36.2619C76.5134 37.2104 76.8603 38.2971 76.8603 39.4998C76.8603 40.4944 76.6522 41.3965 76.2592 42.1829C75.8429 42.9694 75.2878 43.663 74.5706 44.2181C73.8538 44.7964 72.9977 45.2127 72.0035 45.5136C70.9625 45.8374 69.8755 45.9991 68.696 45.9991Z" fill="white"/>
<path fill-rule="evenodd" clip-rule="evenodd" d="M73.0677 57.2399C65.4581 62.8604 54.4025 65.8441 44.8963 65.8441C31.5742 65.8441 19.5697 60.9173 10.5033 52.7297C9.78608 52.0822 10.434 51.2033 11.2897 51.712C21.0965 57.4017 33.1931 60.848 45.7059 60.848C54.148 60.848 63.4229 59.0902 71.9575 55.4821C73.2294 54.9038 74.3164 56.3146 73.0677 57.2399Z" fill="#FF9900"/>
<path fill-rule="evenodd" clip-rule="evenodd" d="M76.2363 53.6319C75.265 52.3828 69.8066 53.0304 67.3316 53.331C66.5916 53.4238 66.4759 52.7759 67.1467 52.2903C71.4948 49.2374 78.6417 50.1163 79.4746 51.1337C80.3071 52.1747 79.2432 59.3216 75.1725 62.7448C74.5478 63.2767 73.9466 62.9989 74.224 62.3053C75.1493 60.0156 77.2077 54.8575 76.2363 53.6319Z" fill="#FF9900"/>
</svg>
