<svg width="120" height="120" viewBox="0 0 120 120" fill="none" xmlns="http://www.w3.org/2000/svg">
<g clip-path="url(#clip0_446_5284)">
<path d="M41.3609 75.6273C41.3586 77.4414 40.7335 79.1997 39.5902 80.6081C38.4468 82.0166 36.8546 82.9897 35.0798 83.3649V86.65C35.0798 87.0808 34.9086 87.4939 34.604 87.7985C34.2994 88.1031 33.8863 88.2742 33.4556 88.2742C33.0248 88.2742 32.6117 88.1031 32.3071 87.7985C32.0025 87.4939 31.8313 87.0808 31.8313 86.65V83.363C30.5088 83.0831 29.2798 82.4695 28.2613 81.5805C27.2428 80.6916 26.4687 79.5569 26.0125 78.2843C25.8678 77.8785 25.8904 77.4319 26.0751 77.0427C26.2597 76.6535 26.5915 76.3536 26.9973 76.2089C27.4031 76.0643 27.8498 76.0868 28.239 76.2715C28.6282 76.4562 28.9281 76.788 29.0727 77.1938C29.3597 77.9969 29.8618 78.7058 30.5241 79.243C31.1865 79.7802 31.9838 80.1251 32.8288 80.2401C33.6739 80.3551 34.5343 80.2357 35.3161 79.895C36.098 79.5543 36.7712 79.0054 37.2623 78.3082C37.7535 77.611 38.0436 76.7922 38.1011 75.9413C38.1587 75.0904 37.9813 74.2401 37.5885 73.4831C37.1957 72.7261 36.6024 72.0916 35.8736 71.6488C35.1447 71.206 34.3082 70.9719 33.4553 70.9721C31.4999 70.9721 29.6139 70.2473 28.1616 68.938C26.7093 67.6286 25.7938 65.8275 25.5918 63.8826C25.3899 61.9376 25.9159 59.9869 27.0682 58.4071C28.2205 56.8273 29.9174 55.7306 31.8311 55.3288V52.0416C31.8311 51.6108 32.0022 51.1977 32.3068 50.8931C32.6114 50.5885 33.0246 50.4174 33.4553 50.4174C33.8861 50.4174 34.2992 50.5885 34.6038 50.8931C34.9084 51.1977 35.0795 51.6108 35.0795 52.0416V55.3283C36.4026 55.6082 37.6322 56.2216 38.6515 57.1103C39.6708 57.999 40.446 59.1335 40.9035 60.4061C40.9754 60.607 41.007 60.82 40.9965 61.0331C40.986 61.2462 40.9337 61.4551 40.8425 61.6479C40.7513 61.8408 40.623 62.0138 40.4649 62.157C40.3068 62.3003 40.1221 62.411 39.9212 62.4829C39.7204 62.5548 39.5073 62.5864 39.2942 62.5759C39.0812 62.5654 38.8722 62.5131 38.6794 62.4219C38.4865 62.3307 38.3135 62.2023 38.1703 62.0443C38.027 61.8862 37.9163 61.7015 37.8444 61.5006C37.5582 60.6966 37.0565 59.9866 36.3942 59.4483C35.732 58.91 34.9345 58.5639 34.089 58.448C33.2434 58.3321 32.3823 58.4507 31.5995 58.7909C30.8168 59.1311 30.1426 59.6798 29.6504 60.3771C29.1583 61.0744 28.8673 61.8935 28.809 62.7449C28.7508 63.5964 28.9276 64.4475 29.3202 65.2054C29.7127 65.9632 30.3059 66.5986 31.0351 67.0422C31.7642 67.4858 32.6012 67.7206 33.4546 67.7209C35.5508 67.7231 37.5606 68.5568 39.0428 70.0391C40.525 71.5214 41.3587 73.5311 41.3609 75.6273ZM119.224 50.826L114.896 42.2176C114.8 42.027 114.668 41.8572 114.506 41.7177C114.345 41.5783 114.157 41.472 113.955 41.405C113.752 41.338 113.539 41.3115 113.326 41.3271C113.113 41.3426 112.905 41.4 112.715 41.4958C112.524 41.5916 112.354 41.724 112.215 41.8855C112.076 42.047 111.969 42.2343 111.902 42.4368C111.835 42.6394 111.809 42.8531 111.824 43.0659C111.84 43.2787 111.897 43.4863 111.993 43.6769L114.596 48.8544C91.9815 41.5116 74.6673 31.4985 61.7193 18.2843C61.57 18.132 61.3921 18.0105 61.1959 17.9269C60.9996 17.8433 60.7888 17.7991 60.5755 17.797C60.3622 17.7948 60.1506 17.8347 59.9527 17.9143C59.7548 17.994 59.5745 18.1118 59.4222 18.2611C59.2698 18.4104 59.1484 18.5883 59.0647 18.7845C58.9811 18.9808 58.937 19.1915 58.9348 19.4049C58.9327 19.6182 58.9725 19.8298 59.0522 20.0277C59.1318 20.2256 59.2497 20.4059 59.399 20.5582C72.5906 34.0214 90.1199 44.2307 112.911 51.72L108.214 53.5635C108.016 53.6414 107.835 53.7577 107.681 53.9058C107.527 54.0538 107.404 54.2306 107.319 54.4261C107.234 54.6217 107.188 54.8321 107.184 55.0454C107.18 55.2587 107.218 55.4707 107.296 55.6693C107.374 55.8679 107.49 56.0492 107.638 56.2028C107.786 56.3565 107.963 56.4795 108.158 56.5648C108.354 56.6501 108.564 56.6961 108.778 56.7001C108.991 56.704 109.203 56.666 109.401 56.588L118.366 53.0695C118.576 52.9871 118.767 52.8617 118.926 52.7013C119.085 52.5409 119.209 52.3491 119.29 52.1381C119.371 51.9271 119.407 51.7016 119.396 51.4759C119.384 51.2503 119.326 51.0295 119.225 50.8276L119.224 50.826ZM110.985 60.6516V100.08C110.985 100.511 110.814 100.924 110.509 101.229C110.205 101.534 109.791 101.705 109.361 101.705H90.2278C90.2146 101.705 90.2016 101.703 90.1883 101.703C90.1751 101.702 90.1621 101.705 90.1489 101.705H71.056C71.036 101.705 71.0165 101.702 70.9968 101.702C70.9771 101.701 70.9576 101.705 70.9374 101.705H51.7327C51.3019 101.705 50.8888 101.534 50.5842 101.229C50.2796 100.924 50.1084 100.511 50.1084 100.08V97.6699C45.0654 100.65 39.313 102.216 33.4556 102.205C15.3369 102.205 0.59668 87.4644 0.59668 69.3463C0.59668 51.2281 15.3369 36.4876 33.4553 36.4876C39.3128 36.4764 45.0652 38.0428 50.1082 41.0224V38.6186C50.1082 38.1878 50.2793 37.7747 50.5839 37.4701C50.8885 37.1655 51.3017 36.9944 51.7324 36.9944H70.9372C71.368 36.9944 71.7811 37.1655 72.0857 37.4701C72.3903 37.7747 72.5614 38.1878 72.5614 38.6186V48.0105H90.1494C90.5801 48.0105 90.9933 48.1817 91.2979 48.4863C91.6025 48.7909 91.7736 49.204 91.7736 49.6347V59.0267H109.362C109.792 59.0269 110.205 59.1982 110.51 59.503C110.814 59.8077 110.985 60.2209 110.985 60.6516ZM50.1082 54.0642C47.0297 50.7087 43.0095 48.3612 38.5743 47.3292C34.139 46.2971 29.4954 46.6287 25.2518 48.2804C21.0082 49.9322 17.3623 52.8271 14.7918 56.5859C12.2213 60.3448 10.846 64.7924 10.846 69.3461C10.846 73.8999 12.2213 78.3475 14.7918 82.1064C17.3623 85.8652 21.0082 88.7601 25.2518 90.4119C29.4954 92.0636 34.139 92.3952 38.5743 91.3631C43.0095 90.3311 47.0297 87.9836 50.1082 84.6281V54.0642ZM50.1082 93.8242V89.1139C46.3419 92.287 41.7476 94.3181 36.866 94.9681C31.9844 95.6182 27.0186 94.8602 22.5533 92.7834C18.0879 90.7065 14.3088 87.3973 11.6606 83.2451C9.01253 79.093 7.60568 74.2708 7.60568 69.346C7.60568 64.4213 9.01253 59.5991 11.6606 55.4469C14.3088 51.2948 18.0879 47.9855 22.5533 45.9087C27.0186 43.8319 31.9844 43.0739 36.866 43.7239C41.7476 44.374 46.3419 46.4051 50.1082 49.5781V44.8679C45.6578 41.8389 40.4658 40.0806 35.0907 39.782C29.7155 39.4834 24.3607 40.6559 19.6022 43.1733C14.8437 45.6907 10.8615 49.4578 8.08402 54.0694C5.30655 58.681 3.83888 63.9625 3.83888 69.3459C3.83888 74.7293 5.30655 80.0109 8.08402 84.6224C10.8615 89.234 14.8437 93.0011 19.6022 95.5185C24.3607 98.036 29.7155 99.2084 35.0907 98.9099C40.4658 98.6113 45.6578 96.8529 50.1082 93.8239V93.8242ZM69.313 40.2433H53.3571V98.4557H69.313V40.2433ZM88.5251 51.2597H72.5621V98.4548H88.5245L88.5251 51.2597ZM107.737 62.276H91.7734V98.4557H107.736L107.737 62.276Z" fill="white"/>
</g>
<defs>
<clipPath id="clip0_446_5284">
<rect width="118.8" height="118.8" fill="white" transform="translate(0.59668 0.600098)"/>
</clipPath>
</defs>
</svg>
