<svg width="91" height="119" viewBox="0 0 91 119" fill="none" xmlns="http://www.w3.org/2000/svg">
<path d="M64.1149 47.0566C71.9914 39.8755 82.643 30.1634 83.6139 6.96094H90.6465V0H0.154297V6.96094H7.18693C8.15775 30.1634 18.8094 39.8755 26.6859 47.0566C31.9695 51.8738 34.959 54.8223 34.959 59.4C34.959 63.9777 31.9695 66.9262 26.6859 71.7434C18.8094 78.9245 8.15775 88.6366 7.18693 111.839H0.154297V118.8H90.6465V111.839H83.6139C82.643 88.6366 71.9914 78.9245 64.1149 71.7434C58.8313 66.9262 55.8418 63.9777 55.8418 59.4C55.8418 54.8223 58.8313 51.8738 64.1149 47.0566ZM41.9199 85.4891C40.8338 85.7129 39.7712 86.0388 38.7464 86.4625L17.4281 95.2841C20.9095 86.4321 26.5168 81.3174 31.3757 76.8875C36.7983 71.9436 41.9199 67.274 41.9199 59.4V85.4891ZM59.4251 76.8875C64.284 81.3174 69.8911 86.4321 73.3727 95.2839L52.0544 86.4623C51.0296 86.0385 49.967 85.7126 48.8809 85.4889V59.4C48.8809 67.274 54.0025 71.9436 59.4251 76.8875ZM17.3058 23.2031C15.6229 18.818 14.4606 13.5232 14.1565 6.96094H76.6441C76.3399 13.5232 75.1779 18.818 73.4947 23.2031H17.3058Z" fill="white"/>
</svg>
