<svg width="90" height="90" viewBox="0 0 90 90" fill="none" xmlns="http://www.w3.org/2000/svg">
<path d="M68.9062 0H21.0938C9.44399 0 0 9.44399 0 21.0938V68.9062C0 80.556 9.44399 90 21.0938 90H68.9062C80.556 90 90 80.556 90 68.9062V21.0938C90 9.44399 80.556 0 68.9062 0Z" fill="#231F20"/>
<path d="M42.1446 10.9393C43.8739 9.94962 46.126 9.94504 47.8536 10.9393C56.545 15.8506 65.2391 20.7538 73.929 25.668C75.5638 26.5887 76.6568 28.4077 76.6403 30.291V59.8381C76.6526 61.7995 75.4513 63.662 73.7269 64.5617C65.064 69.4459 56.4054 74.3358 47.7439 79.2201C45.9794 80.2291 43.682 80.1514 41.972 79.0594C39.375 77.554 36.7734 76.0557 34.1761 74.5517C33.6452 74.2353 33.0469 73.9836 32.6721 73.4689C33.0036 73.0224 33.596 72.9668 34.0773 72.7717C35.1612 72.4268 36.1571 71.8735 37.1528 71.3366C37.4048 71.1644 37.7121 71.2305 37.9536 71.3845C40.1744 72.6578 42.3759 73.9684 44.6041 75.2295C45.0794 75.5041 45.5607 75.1395 45.9671 74.9131C54.4679 70.1083 62.9792 65.3221 71.479 60.5159C71.794 60.3644 71.968 60.03 71.9423 59.6852C71.9483 49.9381 71.9437 40.1896 71.9455 30.4422C71.9814 30.0513 71.7549 29.6913 71.4009 29.5309C62.7683 24.6692 54.1396 19.8004 45.5083 14.9376C45.3588 14.8348 45.1817 14.7797 45.0003 14.7794C44.8188 14.7791 44.6415 14.8336 44.4916 14.9358C35.8601 19.8004 27.2334 24.6741 18.6019 29.5352C18.2492 29.6958 18.0126 30.0499 18.0545 30.4422C18.0562 40.1896 18.0545 49.9381 18.0545 59.6866C18.0394 59.855 18.0764 60.0239 18.1603 60.1707C18.2443 60.3174 18.3713 60.4348 18.5242 60.5071C20.8273 61.8132 23.1335 63.1101 25.4383 64.4119C26.737 65.1105 28.331 65.526 29.7619 64.9906C31.024 64.5378 31.9089 63.2493 31.8849 61.9091C31.8969 52.219 31.879 42.5275 31.8937 32.8384C31.8621 32.4085 32.2703 32.0531 32.6886 32.0938C33.7953 32.0861 34.9035 32.0787 36.0102 32.0966C36.4721 32.0861 36.7899 32.5495 36.733 32.9826C36.7284 42.7342 36.7449 52.4859 36.7256 62.2372C36.7284 64.8363 35.6607 67.6642 33.2567 68.9358C30.2955 70.4697 26.6351 70.1445 23.7094 68.6736C21.1767 67.4093 18.7594 65.9173 16.2717 64.5631C14.5427 63.6684 13.3474 61.7984 13.3597 59.8384V30.291C13.3414 28.3687 14.4784 26.5166 16.1634 25.6093C24.8249 20.7215 33.4849 15.8295 42.1446 10.9393Z" fill="#81CD39"/>
<path d="M49.7011 31.4069C53.4786 31.1636 57.5226 31.2628 60.9219 33.124C63.554 34.5499 65.013 37.5431 65.0594 40.467C64.986 40.8611 64.5736 41.0788 64.1971 41.0517C63.1012 41.0503 62.0047 41.0668 60.9089 41.0443C60.4438 41.0622 60.1738 40.6337 60.1154 40.2227C59.8004 38.8235 59.0372 37.438 57.7206 36.763C55.6991 35.7512 53.3556 35.8022 51.1509 35.8233C49.5422 35.9083 47.8118 36.0479 46.4484 36.994C45.4018 37.7108 45.084 39.1578 45.4574 40.3233C45.8096 41.16 46.7754 41.43 47.5657 41.6789C52.1184 42.8696 56.9426 42.7508 61.4078 44.3177C63.257 44.9565 65.0654 46.1986 65.6982 48.1343C66.5262 50.7288 66.1633 53.8296 64.3173 55.9122C62.8203 57.6261 60.6403 58.5592 58.4659 59.0658C55.5732 59.7109 52.5712 59.7274 49.6336 59.4409C46.8713 59.1259 43.9966 58.4002 41.8644 56.5183C40.0408 54.9349 39.1503 52.4676 39.2386 50.0868C39.2597 49.6847 39.6601 49.4041 40.0454 49.4372C41.149 49.4284 42.2529 49.4252 43.3564 49.4389C43.7973 49.4073 44.1242 49.7884 44.1467 50.2039C44.3503 51.5367 44.8513 52.9359 46.0135 53.7259C48.2569 55.1733 51.0718 55.0741 53.6403 55.1145C55.768 55.0203 58.1569 54.9918 59.8936 53.5852C60.8097 52.783 61.0812 51.4407 60.8337 50.2862C60.5654 49.3113 59.5455 48.8571 58.6698 48.56C54.1758 47.1386 49.2975 47.6544 44.8471 46.0467C43.04 45.4083 41.2928 44.201 40.5988 42.3447C39.6302 39.7175 40.0739 36.4677 42.1133 34.4557C44.1017 32.4535 46.9719 31.6825 49.7011 31.4069Z" fill="#81CD39"/>
</svg>
