<svg width="90" height="90" viewBox="0 0 90 90" fill="none" xmlns="http://www.w3.org/2000/svg">
<path d="M68.9062 0H21.0938C9.44399 0 0 9.44399 0 21.0938V68.9062C0 80.556 9.44399 90 21.0938 90H68.9062C80.556 90 90 80.556 90 68.9062V21.0938C90 9.44399 80.556 0 68.9062 0Z" fill="#231F20"/>
<path d="M16.8265 61.9425L19.4076 63.4328L48.163 13.6287L45.5818 12.1384L16.8265 61.9425Z" fill="#E535AB"/>
<path d="M73.7459 57.9639H16.2355V60.9444H73.7459V57.9639Z" fill="#E535AB"/>
<path d="M17.3735 59.6381L46.1394 76.2466L47.6297 73.6654L18.8638 57.0569L17.3735 59.6381ZM42.3626 16.3519L71.1285 32.9604L72.6188 30.3793L43.8529 13.7708L42.3626 16.3519Z" fill="#E535AB"/>
<path d="M17.3812 30.368L18.8719 32.9492L47.6378 16.3407L46.1475 13.7595L17.3812 30.368Z" fill="#E535AB"/>
<path d="M41.8426 13.6294L70.598 63.4332L73.1791 61.9429L44.4238 12.1392L41.8426 13.6294ZM21.4963 28.3915H18.5157V61.6086H21.4963V28.3915Z" fill="#E535AB"/>
<path d="M71.4835 28.3916H68.503V61.6086H71.4835V28.3916Z" fill="#E535AB"/>
<path d="M44.3303 72.7303L45.6321 74.9852L70.6507 60.5402L69.3489 58.2856L44.3303 72.7303Z" fill="#E535AB"/>
<path d="M75.4337 62.5781C73.71 65.5766 69.8675 66.6 66.869 64.8763C63.8705 63.1526 62.8471 59.3103 64.5708 56.3119C66.2945 53.3134 70.1371 52.2896 73.1356 54.0134C76.152 55.755 77.1754 59.5796 75.4337 62.5781ZM25.4106 33.6881C23.6869 36.6866 19.8443 37.7104 16.8458 35.9866C13.8474 34.2629 12.824 30.4204 14.5477 27.4219C16.2714 24.423 20.1136 23.4 23.1124 25.1237C26.1109 26.8654 27.1343 30.6896 25.4106 33.6881ZM14.5656 62.5781C12.8419 59.5796 13.8653 55.755 16.8638 54.0134C19.8626 52.2896 23.6869 53.313 25.4285 56.3119C27.1523 59.3103 26.1289 63.1347 23.1304 64.8763C20.114 66.6 16.2893 65.5766 14.5656 62.5781ZM64.5887 33.6881C62.865 30.6896 63.8884 26.8654 66.8869 25.1237C69.8854 23.4 73.71 24.4234 75.4517 27.4219C77.1754 30.4207 76.152 34.245 73.1532 35.9866C70.1547 37.7104 66.3125 36.6866 64.5887 33.6881ZM44.9997 80.1562C41.5343 80.1562 38.7334 77.3553 38.7334 73.89C38.7334 70.4246 41.5343 67.6234 44.9997 67.6234C48.465 67.6234 51.2659 70.4246 51.2659 73.89C51.2659 77.3374 48.465 80.1562 44.9997 80.1562ZM44.9997 22.3766C41.5343 22.3766 38.7334 19.5754 38.7334 16.11C38.7334 12.6446 41.5343 9.84375 44.9997 9.84375C48.465 9.84375 51.2659 12.6446 51.2659 16.11C51.2659 19.5754 48.465 22.3766 44.9997 22.3766Z" fill="#E535AB"/>
</svg>
