<svg width="119" height="119" viewBox="0 0 119 119" fill="none" xmlns="http://www.w3.org/2000/svg">
<g clip-path="url(#clip0_446_5300)">
<path d="M45.4103 62.198L38.4494 27.393C38.2916 26.6041 37.8654 25.8942 37.2432 25.3841C36.621 24.874 35.8412 24.5952 35.0367 24.5952H28.0757C27.2711 24.5952 26.4914 24.874 25.8692 25.3841C25.247 25.8942 24.8208 26.6041 24.663 27.393L17.7021 62.1977C17.325 64.0828 18.5476 65.9163 20.4324 66.2931C22.3172 66.6701 24.1509 65.4476 24.5277 63.5628L26.7524 52.439H36.3599L38.5846 63.563C38.9617 65.4487 40.7961 66.6704 42.68 66.2933C44.5648 65.9163 45.7874 64.0828 45.4103 62.198ZM28.1446 45.478L30.929 31.5562H32.1834L34.9677 45.478H28.1446ZM101.166 52.439H90.7242V48.9585C90.7242 47.0364 89.1658 45.478 87.2437 45.478C85.3215 45.478 83.7632 47.0364 83.7632 48.9585V52.439H73.3218C71.3997 52.439 69.8414 53.9973 69.8414 55.9194C69.8414 57.8416 71.3997 59.3999 73.3218 59.3999H74.1641C76.1473 65.8068 79.133 70.7244 82.4186 74.6652C79.7444 77.1113 77.0385 79.1172 74.6282 81.0454C73.1271 82.2462 72.8837 84.4363 74.0847 85.9373C75.2862 87.439 77.4766 87.681 78.9767 86.4807C81.4005 84.5417 84.3057 82.3868 87.2437 79.6906C90.1838 82.3886 93.0944 84.5475 95.5107 86.4807C97.0117 87.6817 99.2021 87.4381 100.403 85.9373C101.603 84.4363 101.36 82.2459 99.8592 81.0454C97.4552 79.1216 94.7457 77.1136 92.0688 74.6652C95.3543 70.7244 98.3401 65.8068 100.323 59.3999H101.166C103.088 59.3999 104.646 57.8416 104.646 55.9194C104.646 53.9973 103.088 52.439 101.166 52.439ZM87.2437 69.5501C85.022 66.7611 83.0233 63.4321 81.5165 59.3767H92.9707C91.4641 63.4321 89.4654 66.7611 87.2437 69.5501Z" fill="white"/>
<path d="M108.359 21.1148H58.1468L56.6548 9.14621C56.0031 3.932 51.549 0 46.2942 0H10.4414C4.68401 0 0 4.68401 0 10.4414V87.2438C0 93.0011 4.68401 97.6852 10.4414 97.6852H39.7894L41.2623 109.654C41.913 114.858 46.367 118.8 51.6232 118.8H108.359C114.116 118.8 118.8 114.116 118.8 108.359V31.5563C118.8 25.7989 114.116 21.1148 108.359 21.1148ZM10.4414 90.7242C8.52228 90.7242 6.96094 89.1629 6.96094 87.2438V10.4414C6.96094 8.52228 8.52228 6.96094 10.4414 6.96094H46.2942C48.0458 6.96094 49.5306 8.27145 49.7475 10.0084L59.8093 90.7242H10.4414ZM47.9664 107.14L46.8028 97.6852H56.1407L47.9664 107.14ZM111.839 108.359C111.839 110.278 110.278 111.839 108.359 111.839H53.1059L66.3558 96.5127C66.6898 96.1364 66.9381 95.692 67.0835 95.2103C67.2288 94.7286 67.2679 94.221 67.1979 93.7228L59.0146 28.0758H108.359C110.278 28.0758 111.839 29.6371 111.839 31.5563V108.359Z" fill="white"/>
</g>
<defs>
<clipPath id="clip0_446_5300">
<rect width="118.8" height="118.8" fill="white"/>
</clipPath>
</defs>
</svg>
