<svg width="90" height="90" viewBox="0 0 90 90" fill="none" xmlns="http://www.w3.org/2000/svg">
<path d="M68.9062 0H21.0938C9.44399 0 0 9.44399 0 21.0938V68.9062C0 80.556 9.44399 90 21.0938 90H68.9062C80.556 90 90 80.556 90 68.9062V21.0938C90 9.44399 80.556 0 68.9062 0Z" fill="#231F20"/>
<path d="M60.178 37.825C56.4735 21.484 48.7532 17.1337 46.7838 14.0586C45.9712 12.7042 45.2518 11.2959 44.6305 9.84375C44.5264 11.2957 44.3351 12.2098 43.1012 13.3109C40.6237 15.5197 30.1014 24.0943 29.2158 42.6614C28.3907 59.9731 41.9424 70.6475 43.7326 71.7511C45.1093 72.4286 46.7859 71.7655 47.604 71.1436C54.1364 66.6605 63.0618 54.708 60.185 37.825" fill="#10AA50"/>
<path d="M45.1916 62.5327C44.8506 66.8176 44.6062 69.3073 43.74 71.756C43.74 71.756 44.3085 75.8351 44.7078 80.1562H46.1208C46.4582 77.1133 46.9729 74.0927 47.662 71.1098C45.8328 70.2098 45.2619 66.2927 45.1916 62.5327Z" fill="#B8C4C2"/>
<path d="M47.6595 71.1122C45.811 70.2583 45.2763 66.2586 45.194 62.5327C45.6509 56.3864 45.7842 50.2202 45.5934 44.0599C45.4964 40.8276 45.6391 14.1215 44.7971 10.2114C45.3728 11.5359 46.0365 12.8203 46.7838 14.0561C48.7533 17.1337 56.476 21.4839 60.178 37.8249C63.0618 54.6792 54.1849 66.5999 47.6595 71.1122Z" fill="#12924F"/>
</svg>
