<svg width="251" height="251" viewBox="0 0 251 251" fill="none" xmlns="http://www.w3.org/2000/svg">
<path fill-rule="evenodd" clip-rule="evenodd" d="M125.5 250.375C141.899 250.375 158.137 247.145 173.288 240.869C188.438 234.594 202.204 225.396 213.8 213.8C225.396 202.204 234.594 188.438 240.869 173.288C247.145 158.137 250.375 141.899 250.375 125.5C250.375 109.101 247.145 92.8629 240.869 77.7124C234.594 62.5619 225.396 48.7958 213.8 37.2C202.204 25.6043 188.438 16.4061 173.288 10.1305C158.137 3.85499 141.899 0.625 125.5 0.625C92.3811 0.625 60.6186 13.7814 37.2 37.2C13.7814 60.6186 0.625 92.3811 0.625 125.5C0.625 158.619 13.7814 190.381 37.2 213.8C60.6186 237.219 92.3811 250.375 125.5 250.375ZM108.614 69.8612L186.925 113.373C189.087 114.575 190.888 116.333 192.142 118.466C193.396 120.598 194.057 123.026 194.057 125.5C194.057 127.974 193.396 130.402 192.142 132.534C190.888 134.667 189.087 136.425 186.925 137.627L108.614 181.139C106.078 182.548 103.219 183.271 100.318 183.234C97.4169 183.198 94.5759 182.405 92.0761 180.933C89.5763 179.461 87.5045 177.361 86.066 174.842C84.6275 172.322 83.8722 169.471 83.875 166.57V84.43C83.8722 81.529 84.6275 78.6775 86.066 76.1583C87.5045 73.639 89.5763 71.5393 92.0761 70.0671C94.5759 68.595 97.4169 67.8016 100.318 67.7655C103.219 67.7294 106.078 68.4518 108.614 69.8612Z" fill="#E4E5DA"/>
</svg>
