<svg width="90" height="90" viewBox="0 0 90 90" fill="none" xmlns="http://www.w3.org/2000/svg">
<path d="M68.9062 0H21.0938C9.44399 0 0 9.44399 0 21.0938V68.9062C0 80.556 9.44399 90 21.0938 90H68.9062C80.556 90 90 80.556 90 68.9062V21.0938C90 9.44399 80.556 0 68.9062 0Z" fill="#231F20"/>
<mask id="mask0_446_4041" style="mask-type:luminance" maskUnits="userSpaceOnUse" x="13" y="13" width="64" height="64">
<path d="M13.3594 13.3594H76.6406V76.6406H13.3594V13.3594Z" fill="white"/>
</mask>
<g mask="url(#mask0_446_4041)">
<path d="M60.2838 59.426C60.6867 56.0717 60.5658 55.5824 63.0622 56.1238L63.6975 56.1804C65.6184 56.2669 68.1296 55.8713 69.6301 55.1869C72.8068 53.7135 74.6902 51.2515 71.5584 51.899C64.4143 53.3724 63.8954 50.9523 63.8954 50.9523C71.4421 39.7547 74.5987 25.541 71.8724 22.063C64.4467 12.5708 51.59 17.0599 51.3752 17.1784L51.306 17.1907C49.8969 16.8943 48.3395 16.721 46.5349 16.6964C43.3019 16.6472 40.8498 17.5444 38.9858 18.9559C38.9858 18.9559 16.0537 9.50799 17.1193 30.8383C17.3464 35.3767 23.6204 65.198 31.1101 56.1754C33.8516 52.8781 36.4968 50.092 36.4968 50.092C37.8067 50.9646 39.3813 51.4097 41.0302 51.249L41.1585 51.1404C41.1207 51.5676 41.1382 51.998 41.2105 52.4208C39.2825 54.5762 39.851 54.9545 35.9947 55.748C32.0941 56.5513 34.3881 57.9825 35.8812 58.3583C37.6956 58.8132 41.8929 59.4559 44.7307 55.486L44.6168 55.9381C45.3734 56.5439 45.3213 60.2887 45.4324 62.9634C45.5439 65.6381 45.7193 68.1374 46.2656 69.608C46.812 71.0789 47.4521 74.8733 52.5196 73.8102C56.7541 72.9031 59.9924 71.5953 60.2887 59.4485" fill="black"/>
<path d="M60.2838 59.426C60.6867 56.0717 60.5658 55.5824 63.0622 56.1238L63.6975 56.1804C65.6184 56.2669 68.1296 55.8714 69.6301 55.1869C72.8068 53.7135 74.6902 51.2515 71.5584 51.899C64.4143 53.3724 63.8954 50.9523 63.8954 50.9523C71.4421 39.7547 74.5987 25.541 71.8724 22.063C64.4467 12.5708 51.59 17.0599 51.3752 17.1784L51.306 17.1907C49.8969 16.8943 48.3395 16.721 46.5349 16.6964C43.3019 16.6472 40.8498 17.5444 38.9858 18.9559C38.9858 18.9559 16.0537 9.50799 17.1193 30.8383C17.3464 35.3767 23.6204 65.198 31.1101 56.1755C33.8516 52.8781 36.4968 50.092 36.4968 50.092C37.8067 50.9646 39.3813 51.4097 41.0302 51.249L41.1585 51.1404C41.1207 51.5676 41.1382 51.998 41.2105 52.4208C39.2825 54.5762 39.851 54.9545 35.9947 55.748C32.0941 56.5513 34.3881 57.9825 35.8812 58.3583C37.6956 58.8132 41.8929 59.4559 44.7307 55.486L44.6168 55.9382C45.3734 56.5439 45.3213 60.2887 45.4324 62.9634C45.5439 65.6381 45.7193 68.1374 46.2656 69.608C46.812 71.0789 47.4521 74.8733 52.5196 73.8102C56.7541 72.9031 59.9924 71.5953 60.2887 59.4485" stroke="black" stroke-width="1.41656"/>
<path d="M71.5359 51.9216C64.3922 53.3946 63.8733 50.9748 63.8733 50.9748C71.4199 39.7769 74.5766 25.5632 71.8524 22.0852C64.427 12.593 51.5704 17.0846 51.3552 17.2009L51.2859 17.2132C49.7157 16.8981 48.1192 16.7317 46.5177 16.7161C43.2844 16.6669 40.8322 17.5641 38.9686 18.9756C38.9686 18.9756 16.0341 9.52808 17.1018 30.8584C17.3292 35.3968 23.6032 65.218 31.0929 56.1955C33.8516 52.8782 36.4968 50.0921 36.4968 50.0921C37.8067 50.9646 39.3813 51.4097 41.0302 51.2491L41.1585 51.1404C41.1208 51.5677 41.1382 51.998 41.2105 52.4208C39.2825 54.5762 39.851 54.9545 35.9947 55.748C32.0942 56.5513 34.3881 57.9825 35.8812 58.3584C37.6956 58.8133 41.8929 59.4559 44.7307 55.4861L44.6168 55.9382C45.3734 56.5439 45.9021 59.8761 45.8132 62.8967C45.7242 65.9177 45.6648 67.9891 46.2582 69.6105C46.8517 71.2319 47.4448 74.8758 52.5122 73.8127C56.7468 72.9057 58.9391 70.5498 59.2481 66.6296C59.4658 63.841 59.9551 64.2512 59.9899 61.7597L60.3854 60.5781C60.8375 56.796 60.4593 55.5775 63.0672 56.146L63.7024 56.2029C65.6234 56.2894 68.1374 55.8939 69.6104 55.2091C72.7868 53.736 74.6705 51.2737 71.5388 51.9216H71.5359Z" fill="#336791"/>
<path d="M51.3528 17.0845C50.5617 17.3317 64.118 12.1285 71.8253 21.9741C74.5446 25.4521 71.3929 39.6657 63.8459 50.8633M45.0345 54.0647C44.8369 61.0998 45.084 68.1841 45.7713 69.885C46.4583 71.5855 47.9342 74.9524 53.004 73.8696C57.2386 72.9626 58.7809 71.2048 59.4485 67.3263L61.013 54.925L45.0345 54.0647ZM38.9588 18.7977C38.9588 18.7977 16.0091 9.41448 17.0772 30.7441C17.3046 35.2825 23.5783 65.1037 31.0683 56.0812C33.8021 52.786 36.2742 50.208 36.2742 50.208L38.9588 18.7977Z" stroke="#231F20" stroke-width="0.471937" stroke-linecap="round" stroke-linejoin="round"/>
<path d="M63.8484 50.8585C63.8484 50.8585 64.343 53.2811 71.5114 51.8028C74.6434 51.1552 72.7573 53.6172 69.5834 55.0906C66.978 56.3018 61.1343 56.6108 61.038 54.9423C60.7908 50.6286 64.1131 51.9389 63.8733 50.8585C63.6557 49.8847 62.1675 48.9306 61.1888 46.5477C60.331 44.471 49.4223 28.5273 64.2143 30.8926C64.7582 30.7815 60.358 16.803 46.5153 16.6002C32.6725 16.3973 33.1102 33.6193 33.1102 33.6193" stroke="#231F20" stroke-width="0.471937" stroke-linecap="round" stroke-linejoin="bevel"/>
<path d="M41.161 52.3367C39.233 54.4921 39.8015 54.8704 35.9456 55.6639C32.0446 56.4672 34.3389 57.8984 35.8316 58.2742C37.6461 58.7292 41.8434 59.3718 44.6812 55.3992C45.5464 54.188 44.6763 52.2601 43.4897 51.7707C42.9163 51.5334 42.1499 51.2367 41.1663 52.3392L41.161 52.3367Z" stroke="#231F20" stroke-width="0.471937" stroke-linejoin="round"/>
<path d="M41.0351 52.2996C40.8372 51.0315 41.4503 49.5261 42.1053 47.7613C43.0893 45.1165 45.3586 42.4713 43.5442 34.0742C42.1918 27.82 33.1127 32.7714 33.1127 33.6193C33.1127 34.4673 33.5229 37.9207 32.9643 41.9373C32.2302 47.183 36.3013 51.6176 40.988 51.1651" stroke="#231F20" stroke-width="0.471937" stroke-linecap="round" stroke-linejoin="round"/>
<path d="M38.8747 33.4932C38.8326 33.7822 39.406 34.556 40.1502 34.6597C40.8941 34.7638 41.5294 34.1605 41.5716 33.8687C41.6134 33.5769 41.04 33.2605 40.2961 33.1568C39.5522 33.0531 38.9117 33.2064 38.8747 33.4932Z" fill="#231F20" stroke="#231F20" stroke-width="0.1575"/>
<path d="M61.5273 32.9027C61.5667 33.1916 60.9957 33.9651 60.2518 34.0691C59.5076 34.1729 58.8674 33.5699 58.8305 33.2781C58.7932 32.9863 59.362 32.6699 60.1059 32.5662C60.8498 32.4625 61.49 32.6158 61.5273 32.9027Z" fill="#231F20" stroke="#231F20" stroke-width="0.0784688"/>
<path d="M64.1872 30.8977C64.3106 33.172 63.6975 34.7167 63.6184 37.1369C63.5049 40.6518 65.2947 44.6761 62.5975 48.7054" stroke="#231F20" stroke-width="0.471937" stroke-linecap="round" stroke-linejoin="round"/>
</g>
</svg>
