<svg width="90" height="90" viewBox="0 0 90 90" fill="none" xmlns="http://www.w3.org/2000/svg">
<path d="M68.9062 0H21.0938C9.44399 0 0 9.44399 0 21.0938V68.9062C0 80.556 9.44399 90 21.0938 90H68.9062C80.556 90 90 80.556 90 68.9062V21.0938C90 9.44399 80.556 0 68.9062 0Z" fill="#231F20"/>
<path d="M44.7465 10.1953C26.897 10.1953 28.0114 17.936 28.0114 17.936L28.0315 25.9552H45.065V28.3634H21.2657C21.2657 28.3634 9.84375 27.0675 9.84375 45.0777C9.84375 63.0879 19.813 62.4498 19.813 62.4498H25.7629V54.0921C25.7629 54.0921 25.4422 44.1229 35.5732 44.1229H52.4672C52.4672 44.1229 61.959 44.2761 61.959 34.9492V19.5279C61.959 19.5279 63.4001 10.1953 44.7465 10.1953ZM35.3542 15.5879C35.7567 15.5876 36.1554 15.6667 36.5273 15.8205C36.8993 15.9744 37.2372 16.2002 37.5219 16.4848C37.8065 16.7694 38.0322 17.1074 38.1861 17.4794C38.34 17.8513 38.4191 18.25 38.4187 18.6525C38.419 19.055 38.3399 19.4536 38.186 19.8255C38.0321 20.1975 37.8064 20.5354 37.5218 20.82C37.2371 21.1046 36.8992 21.3303 36.5272 21.4841C36.1553 21.638 35.7567 21.717 35.3542 21.7167C34.9517 21.717 34.5531 21.6379 34.1812 21.484C33.8093 21.3301 33.4714 21.1044 33.1868 20.8198C32.9022 20.5353 32.6765 20.1973 32.5226 19.8255C32.3688 19.4536 32.2897 19.055 32.29 18.6525C32.2896 18.25 32.3687 17.8514 32.5225 17.4794C32.6764 17.1075 32.9021 16.7696 33.1867 16.4849C33.4713 16.2003 33.8092 15.9746 34.1811 15.8206C34.5531 15.6667 34.9517 15.5877 35.3542 15.5879Z" fill="url(#paint0_linear_446_4030)"/>
<path d="M45.2535 80.1416C63.103 80.1416 61.9886 72.4012 61.9886 72.4012L61.9685 64.3817H44.935V61.9739H68.7344C68.7344 61.9739 80.1563 63.2694 80.1563 45.2588C80.1563 27.2483 70.187 27.8871 70.187 27.8871H64.2372V36.2448C64.2372 36.2448 64.5578 46.214 54.4268 46.214H37.5328C37.5328 46.214 28.0406 46.0604 28.0406 55.3874V70.809C28.0406 70.809 26.5996 80.1416 45.2535 80.1416ZM54.6458 74.749C54.2433 74.7493 53.8447 74.6702 53.4728 74.5164C53.1008 74.3625 52.7629 74.1368 52.4783 73.8522C52.1936 73.5676 51.9679 73.2297 51.814 72.8578C51.6601 72.4859 51.581 72.0872 51.5813 71.6847C51.5809 71.2822 51.66 70.8835 51.8139 70.5116C51.9678 70.1396 52.1935 69.8017 52.4781 69.517C52.7628 69.2324 53.1007 69.0067 53.4727 68.8528C53.8447 68.6989 54.2433 68.6198 54.6458 68.6202C55.0484 68.6198 55.447 68.6989 55.819 68.8528C56.1909 69.0067 56.5289 69.2324 56.8135 69.517C57.0982 69.8017 57.3239 70.1396 57.4778 70.5116C57.6317 70.8835 57.7107 71.2822 57.7104 71.6847C57.7107 72.0872 57.6316 72.4859 57.4777 72.8578C57.3238 73.2297 57.098 73.5676 56.8134 73.8522C56.5288 74.1368 56.1908 74.3625 55.8189 74.5164C55.447 74.6702 55.0483 74.7493 54.6458 74.749Z" fill="url(#paint1_linear_446_4030)"/>
<defs>
<linearGradient id="paint0_linear_446_4030" x1="16.6008" y1="16.4869" x2="51.4452" y2="50.9836" gradientUnits="userSpaceOnUse">
<stop stop-color="#387EB8"/>
<stop offset="1" stop-color="#366994"/>
</linearGradient>
<linearGradient id="paint1_linear_446_4030" x1="37.9885" y1="38.6386" x2="75.4074" y2="74.0117" gradientUnits="userSpaceOnUse">
<stop stop-color="#FFE052"/>
<stop offset="1" stop-color="#FFC331"/>
</linearGradient>
</defs>
</svg>
