<svg width="102" height="110" viewBox="0 0 102 110" fill="none" xmlns="http://www.w3.org/2000/svg">
<path d="M1.6125 13.325C1.28429 13.325 0.969532 13.1946 0.737456 12.9625C0.505379 12.7305 0.375 12.4157 0.375 12.0875C0.375 10.0407 2.04068 8.375 4.0875 8.375H19.0415C19.3697 8.375 19.6844 8.50538 19.9165 8.73746C20.1486 8.96953 20.279 9.28429 20.279 9.6125C20.279 9.94071 20.1486 10.2555 19.9165 10.4875C19.6844 10.7196 19.3697 10.85 19.0415 10.85H4.0875C3.4044 10.85 2.85 11.4044 2.85 12.0875C2.85 12.7706 2.2956 13.325 1.6125 13.325ZM83.2875 50.45C82.9593 50.45 82.6445 50.3196 82.4125 50.0875C82.1804 49.8555 82.05 49.5407 82.05 49.2125V12.0875C82.05 11.7593 81.9196 11.4445 81.6876 11.2125C81.4555 10.9804 81.1407 10.85 80.8125 10.85H66.0665C65.7383 10.85 65.4235 10.7196 65.1914 10.4875C64.9593 10.2555 64.829 9.94071 64.829 9.6125C64.829 9.28429 64.9593 8.96953 65.1914 8.73746C65.4235 8.50538 65.7383 8.375 66.0665 8.375H80.8125C82.8593 8.375 84.525 10.0407 84.525 12.0875V49.2125C84.525 49.5407 84.3946 49.8555 84.1626 50.0875C83.9305 50.3196 83.6157 50.45 83.2875 50.45Z" fill="white"/>
<path d="M52.1941 107.375H4.0875C2.04067 107.375 0.375 105.709 0.375 103.663V12.0876C0.375 11.7594 0.505379 11.4446 0.737456 11.2126C0.969532 10.9805 1.28429 10.8501 1.6125 10.8501C1.94071 10.8501 2.25547 10.9805 2.48754 11.2126C2.71962 11.4446 2.85 11.7594 2.85 12.0876V103.663C2.85 103.991 2.98038 104.306 3.21246 104.538C3.44453 104.77 3.75929 104.9 4.0875 104.9H52.1941C52.5223 104.9 52.837 105.03 53.0691 105.263C53.3012 105.495 53.4316 105.809 53.4316 106.138C53.4316 106.466 53.3012 106.781 53.0691 107.013C52.837 107.245 52.5223 107.375 52.1941 107.375Z" fill="white"/>
<path d="M44.5437 99.9502H10.2748C8.91108 99.9502 7.7998 98.8389 7.7998 97.4752V15.8002C7.7998 14.4365 8.91108 13.3252 10.2748 13.3252H74.6248C75.9885 13.3252 77.0998 14.4365 77.0998 15.8002V46.7377C77.0998 47.0659 76.9694 47.3807 76.7374 47.6127C76.5053 47.8448 76.1905 47.9752 75.8623 47.9752C75.5341 47.9752 75.2193 47.8448 74.9873 47.6127C74.7552 47.3807 74.6248 47.0659 74.6248 46.7377V15.8002H10.2748V97.4752H44.5437C44.8719 97.4752 45.1866 97.6056 45.4187 97.8376C45.6508 98.0697 45.7812 98.3845 45.7812 98.7127C45.7812 99.0409 45.6508 99.3557 45.4187 99.5877C45.1866 99.8198 44.8719 99.9502 44.5437 99.9502Z" fill="white"/>
<path d="M59.8121 20.7502H25.1621C23.7984 20.7502 22.6871 19.6389 22.6871 18.2752V8.3752C22.6871 7.01147 23.7984 5.9002 25.1621 5.9002H34.6908C36.1164 2.90792 39.1458 0.950195 42.4871 0.950195C45.8283 0.950195 48.8577 2.90792 50.2833 5.9002H59.8121C61.1758 5.9002 62.2871 7.01147 62.2871 8.3752V18.2752C62.2871 19.6389 61.1758 20.7502 59.8121 20.7502ZM25.1621 8.3752V18.2752H59.8121V8.3752H49.4567C49.2011 8.37505 48.9517 8.29574 48.743 8.14816C48.5343 8.00058 48.3764 7.79198 48.291 7.55102C47.4123 5.08344 45.0809 3.4252 42.4871 3.4252C39.8933 3.4252 37.5618 5.08344 36.6832 7.55102C36.5978 7.79198 36.4399 8.00058 36.2312 8.14816C36.0225 8.29574 35.7731 8.37505 35.5175 8.3752H25.1621ZM22.1079 50.3735C21.56 50.3755 21.0335 50.1611 20.6427 49.777L17.9648 47.1386C17.8461 47.0253 17.7511 46.8894 17.6854 46.7389C17.6197 46.5885 17.5846 46.4265 17.5822 46.2623C17.5797 46.0982 17.6099 45.9352 17.6711 45.7828C17.7322 45.6305 17.8231 45.4918 17.9383 45.3749C18.0536 45.258 18.1909 45.1652 18.3424 45.1019C18.4939 45.0386 18.6564 45.0061 18.8206 45.0063C18.9848 45.0064 19.1473 45.0392 19.2986 45.1028C19.45 45.1663 19.5872 45.2593 19.7022 45.3764L22.1055 47.7475L27.8648 42.0698C27.9799 41.9527 28.1171 41.8597 28.2684 41.7962C28.4198 41.7326 28.5823 41.6998 28.7464 41.6997C28.9106 41.6995 29.0732 41.732 29.2246 41.7953C29.3761 41.8586 29.5135 41.9514 29.6287 42.0683C29.744 42.1852 29.8348 42.3239 29.896 42.4762C29.9571 42.6286 29.9873 42.7916 29.9849 42.9557C29.9824 43.1199 29.9473 43.2819 29.8816 43.4323C29.8159 43.5828 29.721 43.7187 29.6022 43.832L23.5756 49.7745C23.1841 50.1592 22.6569 50.3744 22.1079 50.3735ZM22.1079 35.5235C21.56 35.5255 21.0335 35.3111 20.6427 34.927L17.9648 32.2886C17.8461 32.1753 17.7511 32.0394 17.6854 31.8889C17.6197 31.7385 17.5846 31.5765 17.5822 31.4123C17.5797 31.2482 17.6099 31.0852 17.6711 30.9328C17.7322 30.7805 17.8231 30.6418 17.9383 30.5249C18.0536 30.408 18.1909 30.3152 18.3424 30.2519C18.4939 30.1886 18.6564 30.1561 18.8206 30.1563C18.9848 30.1564 19.1473 30.1892 19.2986 30.2528C19.45 30.3163 19.5872 30.4093 19.7022 30.5264L22.1055 32.8975L27.8648 27.2198C27.9799 27.1027 28.1171 27.0097 28.2684 26.9462C28.4198 26.8826 28.5823 26.8498 28.7464 26.8497C28.9106 26.8495 29.0732 26.882 29.2246 26.9453C29.3761 27.0086 29.5135 27.1014 29.6287 27.2183C29.744 27.3352 29.8348 27.4739 29.896 27.6262C29.9571 27.7786 29.9873 27.9416 29.9849 28.1057C29.9824 28.2699 29.9473 28.4319 29.8816 28.5823C29.8159 28.7328 29.721 28.8687 29.6022 28.982L23.5756 34.9245C23.1841 35.3093 22.6569 35.5244 22.1079 35.5235ZM26.3625 87.5752H18.9375C18.6093 87.5752 18.2945 87.4448 18.0624 87.2127C17.8303 86.9807 17.7 86.6659 17.7 86.3377V78.9127C17.7 78.5845 17.8303 78.2697 18.0624 78.0376C18.2945 77.8056 18.6093 77.6752 18.9375 77.6752H26.3625C26.6907 77.6752 27.0054 77.8056 27.2375 78.0376C27.4696 78.2697 27.6 78.5845 27.6 78.9127V86.3377C27.6 86.6659 27.4696 86.9807 27.2375 87.2127C27.0054 87.4448 26.6907 87.5752 26.3625 87.5752ZM20.175 85.1002H25.125V80.1502H20.175V85.1002ZM26.3625 70.2502H18.9375C18.6093 70.2502 18.2945 70.1198 18.0624 69.8877C17.8303 69.6557 17.7 69.3409 17.7 69.0127V61.5877C17.7 61.2595 17.8303 60.9447 18.0624 60.7126C18.2945 60.4806 18.6093 60.3502 18.9375 60.3502H26.3625C26.6907 60.3502 27.0054 60.4806 27.2375 60.7126C27.4696 60.9447 27.6 61.2595 27.6 61.5877V69.0127C27.6 69.3409 27.4696 69.6557 27.2375 69.8877C27.0054 70.1198 26.6907 70.2502 26.3625 70.2502ZM20.175 67.7752H25.125V62.8252H20.175V67.7752ZM63.4875 30.6502H56.0625C55.7343 30.6502 55.4195 30.5198 55.1874 30.2877C54.9553 30.0557 54.825 29.7409 54.825 29.4127C54.825 29.0845 54.9553 28.7697 55.1874 28.5376C55.4195 28.3056 55.7343 28.1752 56.0625 28.1752H63.4875C63.8157 28.1752 64.1304 28.3056 64.3625 28.5376C64.5946 28.7697 64.725 29.0845 64.725 29.4127C64.725 29.7409 64.5946 30.0557 64.3625 30.2877C64.1304 30.5198 63.8157 30.6502 63.4875 30.6502ZM44.576 82.6252H36.2625C35.9343 82.6252 35.6195 82.7556 35.3874 82.9876C35.1553 83.2197 35.025 83.5345 35.025 83.8627C35.025 84.1909 35.1553 84.5057 35.3874 84.7377C35.6195 84.9698 35.9343 85.1002 36.2625 85.1002H43.935C43.5786 84.2414 43.7295 83.1944 44.576 82.6252ZM43.8756 77.6752H36.2625C35.9343 77.6752 35.6195 77.8056 35.3874 78.0376C35.1553 78.2697 35.025 78.5845 35.025 78.9127C35.025 79.2409 35.1553 79.5557 35.3874 79.7877C35.6195 80.0198 35.9343 80.1502 36.2625 80.1502H43.5315C43.1355 79.3433 43.242 78.3038 43.8756 77.6752ZM47.2119 66.2753C47.6697 65.8818 48.2019 65.57 48.7637 65.3002H36.2625C35.9343 65.3002 35.6195 65.4306 35.3874 65.6626C35.1553 65.8947 35.025 66.2095 35.025 66.5377C35.025 66.8659 35.1553 67.1807 35.3874 67.4127C35.6195 67.6448 35.9343 67.7752 36.2625 67.7752H46.5609C46.5114 67.2629 46.6847 66.7307 47.2119 66.2753ZM50.7759 61.6273C51.4664 61.0531 52.2138 60.6571 52.9935 60.3502H36.2625C35.9343 60.3502 35.6195 60.4806 35.3874 60.7126C35.1553 60.9447 35.025 61.2595 35.025 61.5877C35.025 61.9159 35.1553 62.2307 35.3874 62.4627C35.6195 62.6948 35.9343 62.8252 36.2625 62.8252H50.1299C50.1497 62.5919 50.2173 62.3652 50.3284 62.1591C50.4395 61.953 50.5918 61.772 50.7759 61.6273ZM51.1125 50.4502H36.2625C35.9343 50.4502 35.6195 50.3198 35.3874 50.0877C35.1553 49.8557 35.025 49.5409 35.025 49.2127C35.025 48.8845 35.1553 48.5697 35.3874 48.3376C35.6195 48.1056 35.9343 47.9752 36.2625 47.9752H51.1125C51.4407 47.9752 51.7554 48.1056 51.9875 48.3376C52.2196 48.5697 52.35 48.8845 52.35 49.2127C52.35 49.5409 52.2196 49.8557 51.9875 50.0877C51.7554 50.3198 51.4407 50.4502 51.1125 50.4502ZM63.4875 45.5002H48.6375C48.3093 45.5002 47.9945 45.3698 47.7624 45.1377C47.5303 44.9057 47.4 44.5909 47.4 44.2627C47.4 43.9345 47.5303 43.6197 47.7624 43.3876C47.9945 43.1556 48.3093 43.0252 48.6375 43.0252H63.4875C63.8157 43.0252 64.1304 43.1556 64.3625 43.3876C64.5946 43.6197 64.725 43.9345 64.725 44.2627C64.725 44.5909 64.5946 44.9057 64.3625 45.1377C64.1304 45.3698 63.8157 45.5002 63.4875 45.5002ZM43.6875 45.5002H36.2625C35.9343 45.5002 35.6195 45.3698 35.3874 45.1377C35.1553 44.9057 35.025 44.5909 35.025 44.2627C35.025 43.9345 35.1553 43.6197 35.3874 43.3876C35.6195 43.1556 35.9343 43.0252 36.2625 43.0252H43.6875C44.0157 43.0252 44.3304 43.1556 44.5625 43.3876C44.7946 43.6197 44.925 43.9345 44.925 44.2627C44.925 44.5909 44.7946 44.9057 44.5625 45.1377C44.3304 45.3698 44.0157 45.5002 43.6875 45.5002ZM61.0125 35.6002H36.2625C35.9343 35.6002 35.6195 35.4698 35.3874 35.2377C35.1553 35.0057 35.025 34.6909 35.025 34.3627C35.025 34.0345 35.1553 33.7197 35.3874 33.4876C35.6195 33.2556 35.9343 33.1252 36.2625 33.1252H61.0125C61.3407 33.1252 61.6554 33.2556 61.8875 33.4876C62.1196 33.7197 62.25 34.0345 62.25 34.3627C62.25 34.6909 62.1196 35.0057 61.8875 35.2377C61.6554 35.4698 61.3407 35.6002 61.0125 35.6002ZM51.1125 30.6502H36.2625C35.9343 30.6502 35.6195 30.5198 35.3874 30.2877C35.1553 30.0557 35.025 29.7409 35.025 29.4127C35.025 29.0845 35.1553 28.7697 35.3874 28.5376C35.6195 28.3056 35.9343 28.1752 36.2625 28.1752H51.1125C51.4407 28.1752 51.7554 28.3056 51.9875 28.5376C52.2196 28.7697 52.35 29.0845 52.35 29.4127C52.35 29.7409 52.2196 30.0557 51.9875 30.2877C51.7554 30.5198 51.4407 30.6502 51.1125 30.6502Z" fill="white"/>
<path d="M72.1502 109.85C55.7731 109.85 42.4502 96.5273 42.4502 80.1502C42.4502 63.7731 55.7731 50.4502 72.1502 50.4502C88.5273 50.4502 101.85 63.7731 101.85 80.1502C101.85 96.5273 88.5273 109.85 72.1502 109.85ZM72.1502 52.9252C57.1393 52.9252 44.9252 65.1393 44.9252 80.1502C44.9252 95.1611 57.1393 107.375 72.1502 107.375C87.1611 107.375 99.3752 95.1611 99.3752 80.1502C99.3752 65.1393 87.1611 52.9252 72.1502 52.9252Z" fill="white"/>
<path d="M90.2866 93.7629C90.127 93.7626 89.969 93.7316 89.8213 93.6713C89.5475 93.561 89.2663 93.47 88.9798 93.3991L81.092 91.4265C79.9482 91.1566 78.9301 90.506 78.2047 89.5813C77.4793 88.6567 77.0897 87.513 77.0998 86.3379V83.5733C77.0998 83.2451 77.2302 82.9303 77.4622 82.6983C77.6943 82.4662 78.0091 82.3358 78.3373 82.3358C78.6655 82.3358 78.9803 82.4662 79.2123 82.6983C79.4444 82.9303 79.5748 83.2451 79.5748 83.5733V86.3379C79.5748 87.6496 80.4064 88.704 81.6934 89.0257L89.5812 90.9983C89.9871 91.0998 90.3757 91.226 90.7494 91.377C91.0163 91.4841 91.2376 91.6809 91.3751 91.9335C91.5127 92.1861 91.558 92.4787 91.5032 92.7611C91.4484 93.0434 91.297 93.2979 91.075 93.4807C90.853 93.6635 90.5742 93.7633 90.2866 93.7629ZM53.815 93.8396C53.5299 93.8406 53.2533 93.7431 53.0318 93.5637C52.8103 93.3842 52.6575 93.1338 52.5993 92.8548C52.5411 92.5757 52.581 92.2851 52.7124 92.0321C52.8437 91.7791 53.0583 91.5791 53.32 91.4661C53.7605 91.2755 54.2184 91.1171 54.6986 90.9983L62.5864 89.0257C63.8635 88.7065 64.7248 87.6274 64.7248 86.3379V82.863C64.7248 82.5348 64.8552 82.22 65.0872 81.9879C65.3193 81.7559 65.6341 81.6255 65.9623 81.6255C66.2905 81.6255 66.6053 81.7559 66.8373 81.9879C67.0694 82.22 67.1998 82.5348 67.1998 82.863V86.3379C67.1998 88.7807 65.5861 90.8251 63.1853 91.4265L55.2975 93.3991C54.9591 93.4847 54.628 93.5973 54.3075 93.7357C54.1526 93.8048 53.9847 93.8402 53.815 93.8396Z" fill="white"/>
<path d="M72.2145 87.575C72.052 87.576 71.8909 87.5449 71.7404 87.4836C71.5899 87.4224 71.4529 87.332 71.3373 87.2178C71.1039 86.9871 70.9716 86.6731 70.9696 86.3449C70.9676 86.0167 71.0961 85.7012 71.3268 85.4677C71.5575 85.2342 71.8715 85.102 72.1997 85.1C76.2661 85.053 80.8127 79.3036 80.8127 71.6781C80.8127 64.7976 77.412 60.35 72.1502 60.35C66.8883 60.35 63.4877 64.7976 63.4877 71.6781C63.4877 75.6208 64.7425 79.4149 66.9304 82.0904C67.0333 82.2163 67.1103 82.3613 67.1572 82.517C67.204 82.6728 67.2197 82.8362 67.2034 82.998C67.1871 83.1598 67.1391 83.3168 67.0621 83.46C66.9851 83.6033 66.8806 83.7299 66.7547 83.8328C66.6287 83.9357 66.4838 84.0127 66.328 84.0596C66.1723 84.1064 66.0089 84.1221 65.8471 84.1058C65.6853 84.0895 65.5283 84.0415 65.3851 83.9645C65.2418 83.8875 65.1152 83.783 65.0123 83.6571C62.4705 80.5485 61.0127 76.1826 61.0127 71.6805C61.0127 62.1444 66.6062 57.875 72.1502 57.875C77.6942 57.875 83.2877 62.1444 83.2877 71.6781C83.2877 80.0782 78.1199 87.5082 72.2294 87.575H72.2145Z" fill="white"/>
</svg>
